<?xml version="1.0" standalone="no"?>
<!DOCTYPE svg PUBLIC "-//W3C//DTD SVG 1.1//EN" "http://www.w3.org/Graphics/SVG/1.1/DTD/svg11.dtd" >
<svg>
<metadata>
Created by FontForge 20120731 at Thu Nov  3 04:18:47 2016
 By ,,,
(c) 2015 Adobe &#38; Nathan Rutzky
</metadata>
<defs>
<font id="OfficeCodePro-Regular" horiz-adv-x="600" >
  <font-face 
    font-family="Office Code Pro"
    font-weight="400"
    font-stretch="normal"
    units-per-em="1000"
    panose-1="0 0 5 9 0 0 0 0 0 0"
    ascent="750"
    descent="-250"
    x-height="510"
    cap-height="660"
    bbox="-450 -287 706 1057"
    underline-thickness="50"
    underline-position="-50"
    unicode-range="U+0020-E0B3"
  />
<missing-glyph 
d="M62 660h476v-660h-476v660zM302 387l49 94l66 119h-235l66 -119l50 -94h4zM255 340l-128 232v-462zM472 572l-127 -232l127 -230v462zM427 58l-73 132l-52 103h-4l-54 -103l-74 -132h257z" />
    <glyph glyph-name=".notdef" 
d="M62 660h476v-660h-476v660zM302 387l49 94l66 119h-235l66 -119l50 -94h4zM255 340l-128 232v-462zM472 572l-127 -232l127 -230v462zM427 58l-73 132l-52 103h-4l-54 -103l-74 -132h257z" />
    <glyph glyph-name=".null" horiz-adv-x="0" 
 />
    <glyph glyph-name="nonmarkingreturn" horiz-adv-x="333" 
 />
    <glyph glyph-name="space" unicode=" " 
 />
    <glyph glyph-name="exclam" unicode="!" 
d="M250 670h102l-10 -418h-82zM248 9.5q-21 21.5 -21 56.5q0 34 21 55t52 21t52 -21t21 -55q0 -35 -21 -56.5t-52 -21.5t-52 21.5z" />
    <glyph glyph-name="quotedbl" unicode="&#x22;" 
d="M132 588l-2 99h110l-1 -99l-26 -201h-56zM361 588l-1 99h110l-2 -99l-25 -201h-56z" />
    <glyph glyph-name="numbersign" unicode="#" 
d="M166 204h-79v57h86l19 148h-85v58h91l24 183h53l-23 -183h132l24 183h53l-23 -183h81v-58h-87l-19 -148h86v-57h-93l-24 -204h-54l25 204h-133l-24 -204h-54zM359 261l19 148h-133l-18 -148h132z" />
    <glyph glyph-name="dollar" unicode="$" 
d="M197 -107l28 151q-40 10 -76.5 28.5t-63.5 40.5l39 57q60 -42 114 -57l36 195q-78 31 -121 65t-43 92q0 48 26.5 82.5t70 53t93.5 18.5q11 0 31 -2l25 134l56 -7l-25 -137q57 -17 108 -66l-44 -48q-24 18 -41.5 28.5t-35.5 16.5l-33 -175q82 -31 128 -67.5t46 -100.5
q0 -49 -29 -86t-75.5 -56.5t-98.5 -19.5q-10 0 -32 2l-27 -148zM319 549q-16 2 -23 2q-43 0 -74.5 -22.5t-31.5 -61.5q0 -28 25 -47t73 -37zM319 101q48 0 82 23.5t34 64.5q0 33 -27.5 55t-80.5 43l-34 -184q18 -2 26 -2z" />
    <glyph glyph-name="percent" unicode="%" 
d="M65 365.5q-39 44.5 -39 121.5q0 76 39 119.5t101 43.5t100.5 -43.5t38.5 -119.5q0 -77 -39 -121.5t-100 -44.5q-62 0 -101 44.5zM356 421l168 203l48 -45l-183 -188zM221.5 400.5q21.5 30.5 21.5 86.5q0 57 -21.5 85t-55.5 28q-35 0 -56.5 -28t-21.5 -85
q0 -56 21.5 -86.5t56.5 -30.5q34 0 55.5 30.5zM334 33q-39 45 -39 122q0 76 38.5 119t100.5 43t101 -43t39 -119q0 -77 -39 -122t-101 -45q-61 0 -100 45zM490.5 68q21.5 30 21.5 87t-21.5 85t-56.5 28q-34 0 -55.5 -28.5t-21.5 -84.5q0 -57 21.5 -87t55.5 -30q35 0 56.5 30
zM29 77l183 188l32 -30l-167 -203z" />
    <glyph glyph-name="ampersand" unicode="&#x26;" 
d="M136.5 11.5q-44.5 23.5 -69.5 65t-25 94.5q0 59 32.5 102.5t90.5 86.5q-44 86 -44 156q0 67 40 111.5t104 44.5q60 0 93.5 -35.5t33.5 -95.5q0 -39 -19.5 -72t-47 -58.5t-74.5 -62.5q64 -101 160 -185q54 78 83 193h76q-38 -138 -106 -237q60 -46 113 -63l-23 -68
q-65 20 -137 75q-78 -75 -179 -75q-57 0 -101.5 23.5zM299 469.5q26 31.5 26 70.5q0 32 -14.5 52.5t-45.5 20.5q-34 0 -53.5 -27t-19.5 -69q0 -51 30 -116q51 37 77 68.5zM363 106q-97 88 -167 198q-35 -31 -54.5 -61.5t-19.5 -66.5q0 -54 36 -88t90 -34q60 0 115 52z" />
    <glyph glyph-name="quotesingle" unicode="'" 
d="M247 588l-2 99h110l-2 -99l-25 -201h-56z" />
    <glyph glyph-name="parenleft" unicode="(" 
d="M267 22q-59 115 -59 256t59 256t166 198l45 -42q-100 -85 -148 -185.5t-48 -226.5t48 -226.5t148 -185.5l-45 -42q-107 83 -166 198z" />
    <glyph glyph-name="parenright" unicode=")" 
d="M122 -134q100 85 148 185.5t48 226.5t-48 226.5t-148 185.5l45 42q107 -83 166 -198t59 -256t-59 -256t-166 -198z" />
    <glyph glyph-name="asterisk" unicode="*" 
d="M138 141l108 165l-162 70l16 46l167 -55l9 189h48l9 -189l167 55l16 -46l-162 -70l108 -165l-42 -30l-120 159l-120 -159z" />
    <glyph glyph-name="plus" unicode="+" 
d="M267 299h-182v62h182v195h66v-195h182v-62h-182v-195h-66v195z" />
    <glyph glyph-name="comma" unicode="," 
d="M197 -161q62 28 93 68t33 99q-12 -2 -19 -2q-34 0 -56 19.5t-22 55.5q0 35 23 55.5t57 20.5q44 0 67 -34t23 -94q0 -86 -46 -147.5t-130 -92.5z" />
    <glyph glyph-name="hyphen" unicode="-" 
d="M85 361h430v-62h-430v62z" />
    <glyph glyph-name="period" unicode="." 
d="M242.5 11.5q-23.5 23.5 -23.5 60.5q0 38 23.5 61.5t57.5 23.5t57.5 -23.5t23.5 -61.5q0 -37 -23.5 -60.5t-57.5 -23.5t-57.5 23.5z" />
    <glyph glyph-name="slash" unicode="/" 
d="M477 710h74l-428 -752h-74z" />
    <glyph glyph-name="zero" unicode="0" 
d="M132 78.5q-61 90.5 -61 253.5q0 164 60.5 252t168.5 88t168.5 -88t60.5 -252q0 -163 -61 -253.5t-168 -90.5t-168 90.5zM403 549q-38 57 -103 57q-70 0 -111 -68t-41 -206q0 -89 17 -151zM411 124q41 70 41 208q0 95 -20 158l-240 -371q40 -65 108 -65q70 0 111 70z" />
    <glyph glyph-name="one" unicode="1" 
d="M98 68h181v491h-136v53q91 13 157 48h61v-592h167v-68h-430v68z" />
    <glyph glyph-name="two" unicode="2" 
d="M73 49q126 116 193.5 185t104.5 128.5t37 112.5q0 59 -35.5 94.5t-103.5 35.5q-80 0 -153 -80l-47 47q46 49 96 74.5t114 25.5q96 0 152 -53t56 -141q0 -59 -35.5 -121.5t-95.5 -128t-163 -163.5q78 6 119 6h210v-71h-449v49z" />
    <glyph glyph-name="three" unicode="3" 
d="M57 81l42 54q79 -79 183 -79q66 0 109.5 33.5t43.5 88.5q0 133 -232 133v64q108 0 158.5 34t50.5 90q0 49 -35.5 77.5t-94.5 28.5q-43 0 -83.5 -18.5t-73.5 -49.5l-44 52q92 83 204 83q93 0 152 -44.5t59 -122.5q0 -57 -36.5 -96.5t-99.5 -60.5v-5q68 -14 113 -58
t45 -109q0 -57 -31 -99.5t-83.5 -65.5t-116.5 -23q-141 0 -230 93z" />
    <glyph glyph-name="four" unicode="4" 
d="M368 183h-329v55l243 422h86l-238 -411h238v184h78v-184h99v-66h-99v-183h-78v183z" />
    <glyph glyph-name="five" unicode="5" 
d="M154 12q-54 24 -98 65l41 55q37 -36 79 -56t101 -20q45 0 82 19t58.5 54t21.5 80q0 68 -42.5 107.5t-114.5 39.5q-37 0 -64.5 -9.5t-65.5 -31.5l-44 28l21 317h361v-71h-288l-17 -199q31 14 57.5 21t60.5 7q97 0 158 -52.5t61 -154.5q0 -69 -33 -119.5t-87 -77
t-116 -26.5q-78 0 -132 24z" />
    <glyph glyph-name="six" unicode="6" 
d="M195 24q-55 36 -86.5 107t-31.5 174q0 126 36.5 208.5t97 120.5t133.5 38q105 0 178 -70l-46 -51q-25 25 -58 38.5t-69 13.5q-85 0 -139 -68t-56 -219q39 41 86.5 64t94.5 23q91 0 145 -52.5t54 -151.5q0 -61 -29 -109.5t-78 -75t-106 -26.5q-71 0 -126 36zM417.5 94
q38.5 41 38.5 105q0 68 -35 105t-101 37q-40 0 -82.5 -22t-80.5 -68q9 -96 51.5 -147t112.5 -51q58 0 96.5 41z" />
    <glyph glyph-name="seven" unicode="7" 
d="M254 225q22 97 66 183.5t118 180.5h-368v71h462v-51q-84 -99 -130 -188.5t-65.5 -187t-24.5 -233.5h-86q6 128 28 225z" />
    <glyph glyph-name="eight" unicode="8" 
d="M178 11q-53 23 -81.5 64.5t-28.5 93.5q0 62 38 104t99 72v4q-44 28 -70.5 66.5t-26.5 87.5q0 50 25.5 88.5t70 59.5t101.5 21q92 0 145 -48.5t53 -126.5q0 -45 -27 -86t-70 -72v-4q62 -33 93.5 -70.5t31.5 -101.5q0 -49 -27 -89t-79 -63t-123 -23t-124 23zM432 493
q0 51 -34 84.5t-95 33.5q-53 0 -86.5 -29.5t-33.5 -78.5q0 -55 42.5 -86t126.5 -58q80 60 80 134zM413 81q39 32 39 85q0 41 -21 67t-55 41.5t-96 37.5q-6 2 -12.5 4.5t-15.5 5.5q-52 -30 -80.5 -64.5t-28.5 -81.5q0 -56 44 -91.5t117 -35.5q70 0 109 32z" />
    <glyph glyph-name="nine" unicode="9" 
d="M79 56l46 53q24 -25 57.5 -39t69.5 -14q84 0 137.5 68t56.5 218q-40 -40 -86.5 -62.5t-94.5 -22.5q-91 0 -144.5 52.5t-53.5 151.5q0 61 29 109t77.5 75t105.5 27q71 0 126.5 -36t87 -107.5t31.5 -173.5q0 -126 -36.5 -208.5t-97 -120.5t-133.5 -38q-105 0 -178 68z
M362.5 340.5q42.5 21.5 81.5 67.5q-10 97 -52 148t-112 51q-58 0 -96.5 -41t-38.5 -105q0 -69 35 -105.5t101 -36.5q39 0 81.5 21.5z" />
    <glyph glyph-name="colon" unicode=":" 
d="M242.5 369.5q-23.5 23.5 -23.5 61.5q0 37 23.5 60.5t57.5 23.5t57.5 -23.5t23.5 -60.5q0 -38 -23.5 -61.5t-57.5 -23.5t-57.5 23.5zM242.5 11.5q-23.5 23.5 -23.5 60.5q0 38 23.5 61.5t57.5 23.5t57.5 -23.5t23.5 -61.5q0 -37 -23.5 -60.5t-57.5 -23.5t-57.5 23.5z" />
    <glyph glyph-name="semicolon" unicode=";" 
d="M242.5 369.5q-23.5 23.5 -23.5 61.5q0 37 23.5 60.5t57.5 23.5t57.5 -23.5t23.5 -60.5q0 -38 -23.5 -61.5t-57.5 -23.5t-57.5 23.5zM197 -161q62 28 93 68t33 99q-12 -2 -19 -2q-34 0 -56 19.5t-22 55.5q0 35 23 55.5t57 20.5q44 0 67 -34t23 -94q0 -86 -46 -147.5
t-130 -92.5z" />
    <glyph glyph-name="less" unicode="&#x3c;" 
d="M120 271v62l373 283v-89l-301 -223v-4l301 -223v-89z" />
    <glyph glyph-name="equal" unicode="=" 
d="M85 468h430v-62h-430v62zM85 254h430v-62h-430v62z" />
    <glyph glyph-name="greater" unicode="&#x3e;" 
d="M107 77l301 223v4l-301 223v89l373 -283v-62l-373 -283v89z" />
    <glyph glyph-name="question" unicode="?" 
d="M240 268q0 44 23 76t66 71q35 32 52 54t17 48q0 43 -28.5 70t-81.5 27q-72 0 -130 -58l-49 45q36 38 82.5 59.5t101.5 21.5q84 0 135 -42.5t51 -113.5q0 -38 -20.5 -66.5t-61.5 -66.5q-42 -38 -62.5 -66t-20.5 -67q0 -12 1 -18h-73q-2 18 -2 26zM234 9.5
q-21 21.5 -21 56.5q0 34 21 55t52 21t52 -21t21 -55q0 -35 -21 -56.5t-52 -21.5t-52 21.5z" />
    <glyph glyph-name="at" unicode="@" 
d="M193.5 21.5q-66.5 39.5 -105.5 116.5t-39 185q0 111 39 189t106 117t152 39q98 0 149 -57.5t51 -147.5v-290h-50l-7 58h-4q-23 -30 -59 -50t-73 -20q-55 0 -92 36t-37 95q0 74 66 114.5t198 56.5v10q0 61 -37 100.5t-109 39.5q-62 0 -114.5 -33.5t-84 -99.5t-31.5 -160
q0 -88 30 -152t82.5 -97.5t118.5 -33.5q43 0 77 11t64 34l28 -45q-41 -27 -82 -41t-89 -14q-81 0 -147.5 39.5zM482 283v126q-103 -15 -147.5 -42t-44.5 -74q0 -35 21.5 -54.5t58.5 -19.5q56 0 112 64z" />
    <glyph glyph-name="A" unicode="A" 
d="M253 660h94l221 -660h-88l-62 202h-238l-63 -202h-85zM397 269l-31 101q-36 117 -65 222h-4q-29 -105 -65 -222l-31 -101h196z" />
    <glyph glyph-name="B" unicode="B" 
d="M103 660h180q106 0 165.5 -39t59.5 -122q0 -51 -29.5 -90.5t-85.5 -53.5v-4q73 -11 112.5 -51t39.5 -107q0 -95 -67 -144t-180 -49h-195v660zM269 378q82 0 119.5 29t37.5 85q0 53 -38 77.5t-115 24.5h-86v-216h82zM286 66q86 0 131.5 32.5t45.5 98.5q0 119 -177 119h-99
v-250h99z" />
    <glyph glyph-name="C" unicode="C" 
d="M205.5 29q-65.5 41 -102.5 118.5t-37 182.5q0 104 37.5 181.5t104 119t151.5 41.5q55 0 101 -22.5t78 -57.5l-47 -53q-57 60 -132 60q-63 0 -109.5 -32.5t-72 -93t-25.5 -141.5q0 -82 25.5 -143.5t72 -94.5t109.5 -33q44 0 79 18t68 55l48 -51q-82 -95 -200 -95
q-83 0 -148.5 41z" />
    <glyph glyph-name="D" unicode="D" 
d="M85 660h160q148 0 226 -85t78 -242q0 -158 -77.5 -245.5t-222.5 -87.5h-164v660zM240 68q110 0 166.5 69t56.5 196q0 126 -56 192.5t-167 66.5h-72v-524h72z" />
    <glyph glyph-name="E" unicode="E" 
d="M115 660h405v-70h-321v-208h271v-71h-271v-240h331v-71h-415v660z" />
    <glyph glyph-name="F" unicode="F" 
d="M135 660h401v-70h-318v-224h269v-70h-269v-296h-83v660z" />
    <glyph glyph-name="G" unicode="G" 
d="M189.5 29q-64.5 41 -100.5 118.5t-36 182.5t37 182t103 118.5t151 41.5q105 0 181 -80l-47 -53q-27 29 -58.5 44.5t-75.5 15.5q-61 0 -107 -32.5t-71.5 -93t-25.5 -141.5q0 -126 53 -198.5t149 -72.5q34 0 64.5 10.5t49.5 28.5v173h-131v69h208v-278q-34 -34 -84.5 -55
t-111.5 -21q-83 0 -147.5 41z" />
    <glyph glyph-name="H" unicode="H" 
d="M79 660h84v-277h274v277h84v-660h-84v311h-274v-311h-84v660z" />
    <glyph glyph-name="I" unicode="I" 
d="M95 71h163v519h-163v70h410v-70h-163v-519h163v-71h-410v71z" />
    <glyph glyph-name="J" unicode="J" 
d="M165 15.5q-52 27.5 -84 82.5l54 50q28 -43 64 -65t75 -22q71 0 103.5 37.5t32.5 119.5v373h-275v70h358v-450q0 -101 -51 -162t-166 -61q-59 0 -111 27.5z" />
    <glyph glyph-name="K" unicode="K" 
d="M98 660h84v-331h3l276 331h94l-207 -251l231 -409h-93l-190 344l-114 -134v-210h-84v660z" />
    <glyph glyph-name="L" unicode="L" 
d="M134 660h82v-589h325v-71h-407v660z" />
    <glyph glyph-name="M" unicode="M" horiz-adv-x="640" 
d="M76 660h98l107 -281l38 -107h4l36 107l107 281h98v-660h-76v373q0 70 10 202h-4l-46 -141l-105 -255h-46l-106 255l-48 141h-3q11 -146 11 -202v-373h-75v660z" />
    <glyph glyph-name="N" unicode="N" 
d="M83 660h85l213 -417l66 -135h2q-1 20 -5 74q-6 90 -6 135v343h79v-660h-85l-213 417l-66 135h-2q1 -25 5 -77q6 -86 6 -129v-346h-79v660z" />
    <glyph glyph-name="O" unicode="O" 
d="M169 30q-57 42 -89 120.5t-32 182.5t32 180.5t89 117.5t131 41t131 -41t89 -118t32 -180q0 -104 -32 -182.5t-89 -120.5t-131 -42t-131 42zM387.5 94.5q37.5 33.5 58 95t20.5 143.5q0 81 -20.5 141t-58 92.5t-87.5 32.5t-87.5 -32.5t-58 -92.5t-20.5 -141
q0 -82 20.5 -143.5t58 -95t87.5 -33.5t87.5 33.5z" />
    <glyph glyph-name="P" unicode="P" 
d="M102 660h201q116 0 179 -45t63 -149q0 -101 -65 -152.5t-177 -51.5h-118v-262h-83v660zM292 330q87 0 128.5 33t41.5 103t-41 98.5t-129 28.5h-107v-263h107z" />
    <glyph glyph-name="Q" unicode="Q" 
d="M340 -121.5q-56 42.5 -82 113.5q-63 11 -110 55.5t-73 118t-26 167.5q0 104 31.5 181t88 118t130.5 41t130.5 -41.5t87.5 -118.5t31 -180q0 -93 -25 -165.5t-70.5 -117.5t-105.5 -57q16 -42 53 -64t89 -22q25 0 49 10l15 -67q-37 -14 -74 -14q-83 0 -139 42.5zM385.5 94
q37.5 34 57.5 96t20 143t-20 141.5t-57 93.5t-87 33t-87.5 -33t-57.5 -93.5t-20 -141.5t20 -143t57.5 -96t87.5 -34q49 0 86.5 34z" />
    <glyph glyph-name="R" unicode="R" 
d="M100 660h204q107 0 168 -43.5t61 -141.5q0 -75 -39 -122t-108 -65l167 -288h-95l-158 279h-117v-279h-83v660zM292 347q77 0 117.5 32t40.5 96q0 63 -39.5 90.5t-118.5 27.5h-109v-246h109z" />
    <glyph glyph-name="S" unicode="S" 
d="M173.5 14q-61.5 26 -106.5 72l50 58q38 -39 87 -61t102 -22q69 0 107.5 29.5t38.5 78.5q0 32 -14.5 52.5t-36.5 33t-67 31.5l-94 41q-142 56 -142 170q0 50 27.5 90t76.5 62.5t111 22.5q60 0 112.5 -22t89.5 -59l-44 -54q-70 62 -158 62q-60 0 -95 -26t-35 -71
q0 -29 16.5 -49t38 -31.5t62.5 -29.5l92 -40q70 -31 107.5 -70t37.5 -106q0 -53 -28.5 -95.5t-81 -67.5t-122.5 -25t-131.5 26z" />
    <glyph glyph-name="T" unicode="T" 
d="M258 590h-216v70h516v-70h-216v-590h-84v590z" />
    <glyph glyph-name="U" unicode="U" 
d="M138.5 51q-59.5 63 -59.5 198v411h84v-412q0 -98 37 -142.5t101 -44.5t101.5 44.5t37.5 142.5v412h81v-411q0 -135 -59 -198t-161 -63q-103 0 -162.5 63z" />
    <glyph glyph-name="V" unicode="V" 
d="M43 660h88l106 -357q8 -24 26 -91q41 -142 37 -127h4q-4 -15 37 127q18 67 26 91l105 357h85l-208 -660h-97z" />
    <glyph glyph-name="W" unicode="W" 
d="M10 661h83l53 -415q2 -32 8 -94l6 -69h3q8 32 13 48q23 90 29 115l69 244h59l69 -244q10 -42 18.5 -75.5t14.5 -58.5q7 -22 8 -29h4l7 82q3 27 7 81l50 415h79l-97 -661h-92l-75 277q-12 52 -24 119h-3q-18 -88 -26 -119l-72 -277h-90z" />
    <glyph glyph-name="X" unicode="X" 
d="M250 341l-183 319h92l92 -169l53 -96h4q33 70 47 96l90 169h88l-183 -323l196 -337h-92l-99 178l-58 106h-4q-23 -49 -53 -105l-98 -179h-88z" />
    <glyph glyph-name="Y" unicode="Y" 
d="M258 236l-220 424h88l99 -197q22 -44 32 -66l43 -87h4l77 155l95 195h86l-220 -424v-236h-84v236z" />
    <glyph glyph-name="Z" unicode="Z" 
d="M65 50l367 541h-335v70h437v-50l-368 -540h373v-71h-474v50z" />
    <glyph glyph-name="bracketleft" unicode="[" 
d="M226 708h276v-48h-211v-764h211v-48h-276v860z" />
    <glyph glyph-name="backslash" unicode="\" 
d="M49 710h74l428 -752h-74z" />
    <glyph glyph-name="bracketright" unicode="]" 
d="M99 -104h210v764h-210v48h276v-860h-276v48z" />
    <glyph glyph-name="asciicircum" unicode="^" 
d="M264 670h72l153 -386h-72l-66 176l-49 133h-4l-49 -133l-66 -176h-72z" />
    <glyph glyph-name="underscore" unicode="_" 
d="M60 -69h480v-71h-480v71z" />
    <glyph glyph-name="grave" unicode="`" 
d="M185 721h90l90 -148h-63z" />
    <glyph glyph-name="a" unicode="a" 
d="M128 26q-47 39 -47 105q0 58 36 96.5t112.5 61.5t203.5 34q-2 58 -32.5 94.5t-96.5 36.5q-78 0 -150 -62l-32 57q35 30 86.5 51.5t109.5 21.5q97 0 147 -55.5t50 -152.5v-314h-67l-7 70h-3q-45 -37 -94.5 -60t-97.5 -23q-71 0 -118 39zM433 131v137q-150 -13 -211 -45
t-61 -86q0 -42 30.5 -63t76.5 -21q79 0 165 78z" />
    <glyph glyph-name="b" unicode="b" 
d="M244.5 6q-40.5 19 -75.5 51h-3l-7 -57h-66v727h82v-184l-2 -100q35 36 79 57.5t86 21.5q97 0 149.5 -69.5t52.5 -189.5q0 -84 -30 -146.5t-80.5 -96t-109.5 -33.5q-35 0 -75.5 19zM383 81q34 25 53 72t19 109q0 90 -33.5 140.5t-103.5 50.5q-33 0 -69.5 -19.5
t-73.5 -58.5v-257q32 -31 67.5 -46.5t64.5 -15.5q42 0 76 25z" />
    <glyph glyph-name="c" unicode="c" 
d="M209.5 19q-60.5 32 -95 92t-34.5 143t36.5 143.5t98 92.5t136.5 32q104 0 177 -75l-41 -53q-63 60 -133 60q-55 0 -98 -25t-67 -70.5t-24 -104.5q0 -89 51.5 -144t135.5 -55q77 0 151 65l36 -53q-40 -38 -90 -59t-103 -21q-76 0 -136.5 32z" />
    <glyph glyph-name="d" unicode="d" 
d="M117 57.5q-57 70.5 -57 196.5q0 80 30.5 141t81.5 94t109 33q42 0 76.5 -16.5t70.5 -50.5l-3 96v176h82v-727h-68l-7 68h-3q-33 -35 -74.5 -58t-83.5 -23q-97 0 -154 70.5zM425 135v257q-61 61 -128 61q-42 0 -76.5 -25t-55 -70.5t-20.5 -102.5q0 -93 38 -146t105 -53
q72 0 137 79z" />
    <glyph glyph-name="e" unicode="e" 
d="M197.5 19.5q-59.5 32.5 -94 93t-34.5 141.5q0 80 34.5 141t91.5 94t121 33q103 0 162 -65t59 -174q0 -28 -3 -48h-380q3 -82 54.5 -131.5t131.5 -49.5q41 0 76.5 12t71.5 36l29 -55q-90 -60 -187 -60q-73 0 -132.5 32.5zM461 295q0 77 -38 119.5t-106 42.5
q-61 0 -108 -44t-56 -118h308z" />
    <glyph glyph-name="f" unicode="f" 
d="M242 443h-139v61l139 6v23q0 97 49 151.5t147 54.5q74 0 140 -30l-19 -62q-29 14 -54.5 19.5t-58.5 5.5q-123 0 -123 -136v-26h204v-67h-204v-443h-81v443z" />
    <glyph glyph-name="g" unicode="g" 
d="M178 -206q-49 21 -93 73l40 50q34 -44 73 -61t82 -17q73 0 109.5 37.5t37.5 123.5l1 81q-30 -33 -72.5 -54.5t-85.5 -21.5q-62 0 -109.5 31t-74 89t-26.5 137q0 77 30.5 136.5t81.5 91.5t110 32q80 0 149 -69h3l7 57h66v-510q0 -110 -59 -168.5t-168 -58.5q-53 0 -102 21
zM425 151v241q-61 61 -129 61q-41 0 -76 -24.5t-55.5 -68t-20.5 -97.5q0 -87 38.5 -138.5t105.5 -51.5q70 0 137 78z" />
    <glyph glyph-name="h" unicode="h" 
d="M93 727h82v-184l-4 -122q44 49 87.5 75t96.5 26q168 0 168 -205v-317h-82v306q0 75 -26.5 110t-85.5 35q-41 0 -74.5 -22t-79.5 -73v-356h-82v727z" />
    <glyph glyph-name="i" unicode="i" 
d="M100 68h189v375h-189v67h271v-442h189v-68h-460v68zM270 643.5q-20 19.5 -20 49.5q0 31 20 51t50 20t50 -20t20 -51q0 -30 -20 -49.5t-50 -19.5t-50 19.5z" />
    <glyph glyph-name="j" unicode="j" 
d="M55 -183l27 61q58 -28 111 -28q71 0 97 32t26 108v453h-226v67h308v-513q0 -102 -46.5 -158t-157.5 -56q-73 0 -139 34zM298 643.5q-20 19.5 -20 49.5q0 31 20 51t50 20t50 -20t20 -51q0 -30 -20 -49.5t-50 -19.5t-50 19.5z" />
    <glyph glyph-name="k" unicode="k" 
d="M106 727h82v-490h4l262 273h94l-194 -202l220 -308h-92l-179 258l-115 -119v-139h-82v727z" />
    <glyph glyph-name="l" unicode="l" 
d="M287.5 33q-40.5 46 -40.5 136v491h-166v67h248v-564q0 -55 25 -81.5t70 -26.5q39 0 92 25l21 -62q-43 -17 -69.5 -24t-61.5 -7q-78 0 -118.5 46z" />
    <glyph glyph-name="m" unicode="m" 
d="M60 510h64l7 -68h3q20 39 45 59.5t64 20.5q74 0 92 -88q24 44 50.5 66t64.5 22q51 0 78.5 -40.5t27.5 -116.5v-365h-79v358q0 93 -53 93q-25 0 -44 -19t-39 -61v-371h-66v358q0 93 -55 93q-25 0 -43 -19t-38 -61v-371h-79v510z" />
    <glyph glyph-name="n" unicode="n" 
d="M93 510h68l7 -89h4q43 48 86.5 74.5t96.5 26.5q168 0 168 -205v-317h-82v306q0 75 -26.5 110t-85.5 35q-41 0 -74.5 -22t-79.5 -73v-356h-82v510z" />
    <glyph glyph-name="o" unicode="o" 
d="M180 19q-55 32 -87.5 92.5t-32.5 142.5q0 83 32.5 143.5t87.5 92.5t120 32t120 -32t87.5 -92.5t32.5 -143.5q0 -82 -32.5 -142.5t-87.5 -92.5t-120 -32t-120 32zM412.5 110q42.5 55 42.5 144t-42.5 144.5t-112.5 55.5t-112.5 -55.5t-42.5 -144.5t42.5 -144t112.5 -55
t112.5 55z" />
    <glyph glyph-name="p" unicode="p" 
d="M93 510h68l7 -66h3q35 35 79.5 56.5t88.5 21.5q97 0 149 -69.5t52 -190.5q0 -84 -30.5 -146.5t-81 -95.5t-109.5 -33q-34 0 -73.5 18t-72.5 49l2 -97v-162h-82v715zM382.5 81q34.5 25 53.5 72t19 109q0 90 -33.5 140.5t-103.5 50.5q-33 0 -69.5 -19.5t-73.5 -58.5v-257
q32 -31 67.5 -46.5t62.5 -15.5q43 0 77.5 25z" />
    <glyph glyph-name="q" unicode="q" 
d="M425 -27l4 93q-35 -35 -75.5 -57t-82.5 -22q-97 0 -154 70.5t-57 196.5q0 80 30.5 141t81.5 94t109 33q43 0 78.5 -17t71.5 -52h3l7 57h66v-715h-82v178zM425 135v257q-61 61 -128 61q-42 0 -76.5 -25t-55 -70.5t-20.5 -102.5q0 -93 38 -146t105 -53q72 0 137 79z" />
    <glyph glyph-name="r" unicode="r" 
d="M146 510h68l7 -122h3q39 63 95 98.5t122 35.5q57 0 96 -21l-19 -71q-27 10 -45 14t-45 4q-120 0 -200 -147v-301h-82v510z" />
    <glyph glyph-name="s" unicode="s" 
d="M182 9.5q-61 22.5 -110 57.5l40 54q44 -34 91.5 -51.5t109.5 -17.5q63 0 96.5 23t33.5 59q0 31 -35.5 54t-122.5 46q-82 21 -133.5 57.5t-51.5 86.5q0 63 53.5 103.5t150.5 40.5q52 0 104 -18t91 -46l-40 -54q-73 54 -155 54q-64 0 -92 -21t-28 -55q0 -30 38 -51t110 -40
q102 -27 148 -61.5t46 -90.5q0 -42 -25.5 -76.5t-74.5 -55t-116 -20.5t-128 22.5z" />
    <glyph glyph-name="t" unicode="t" 
d="M249.5 42q-43.5 55 -43.5 155v246h-137v67h140v150l79 50v-200h239v-67h-239v-247q0 -72 27.5 -106.5t95.5 -34.5q61 0 117 23l18 -60q-80 -31 -153 -31q-100 0 -143.5 55z" />
    <glyph glyph-name="u" unicode="u" 
d="M118.5 39q-41.5 52 -41.5 154v317h83v-306q0 -76 26 -111t86 -35q41 0 75 22.5t76 74.5v355h82v-510h-67l-7 90h-4q-40 -49 -84 -76t-97 -27q-86 0 -127.5 52z" />
    <glyph glyph-name="v" unicode="v" 
d="M51 510h83l112 -293l46 -123l9 -26h4l19 54q18 55 34 95l112 293h79l-201 -510h-92z" />
    <glyph glyph-name="w" unicode="w" 
d="M8 510h84l59 -299q15 -78 24 -141h4q18 94 29 141l59 271h70l60 -271q16 -72 20 -94l10 -47h4q6 29 13 74l12 67l58 299h78l-106 -510h-99l-58 264l-11 59q-13 75 -16 88h-4q-3 -14 -7 -42l-20 -106l-56 -263h-98z" />
    <glyph glyph-name="x" unicode="x" 
d="M249 264l-171 246h91l77 -115q28 -44 57 -85h4q39 60 55 88l73 112h87l-173 -252l186 -258h-90l-85 120l-14 21q-14 19 -26.5 37t-23.5 34h-4q-40 -60 -60 -92l-80 -120h-88z" />
    <glyph glyph-name="y" unicode="y" 
d="M67 -207l17 65q23 -7 44 -7q49 0 81 29t53 82l14 36l-227 512h83l119 -287q11 -25 20.5 -49.5t19.5 -47.5q4 -11 9 -23.5t11 -26.5h4l18 50q16 47 34 97l106 287h78l-213 -552q-32 -82 -81 -128.5t-126 -46.5q-36 0 -64 10z" />
    <glyph glyph-name="z" unicode="z" 
d="M71 44l333 399h-296v67h414v-44l-334 -399h344v-67h-461v44z" />
    <glyph glyph-name="braceleft" unicode="{" 
d="M391 -156q-67 0 -101 35t-34 102q0 24 6 44.5t19 51.5q12 27 18 46t6 41q0 20 -22.5 40.5t-64.5 34t-98 13.5v52q56 0 98 13.5t64.5 34t22.5 40.5q0 21 -6 40t-18 47q-13 32 -19 52.5t-6 43.5q0 67 34 102t101 35q26 0 50 -4l61 -10v-48l-52 10q-21 4 -42 4
q-46 0 -64 -24.5t-18 -69.5q0 -19 5.5 -37t16.5 -45q12 -27 18 -47.5t6 -41.5q0 -46 -38 -77.5t-93 -41.5v-4q55 -10 93 -41.5t38 -77.5q0 -23 -6 -43.5t-18 -46.5q-11 -27 -16.5 -44t-5.5 -37q0 -45 18 -69.5t64 -24.5q21 0 42 4l52 10v-48l-61 -10q-24 -4 -50 -4z" />
    <glyph glyph-name="bar" unicode="|" 
d="M263 750h74v-1000h-74v1000z" />
    <glyph glyph-name="braceright" unicode="}" 
d="M99 -142v48l51 -10q27 -5 43 -5q45 0 63.5 25t18.5 70q0 20 -5.5 37t-16.5 44q-12 26 -18 46.5t-6 43.5q0 46 37.5 77.5t92.5 41.5v4q-55 10 -92.5 41.5t-37.5 77.5q0 21 6 41.5t18 47.5q11 27 16.5 45t5.5 37q0 45 -18.5 70t-63.5 25q-16 0 -43 -5l-51 -10v48l61 10
q24 4 50 4q66 0 100 -35t34 -102q0 -23 -6 -43.5t-19 -52.5q-12 -28 -18 -47t-6 -40q0 -20 22.5 -40.5t64.5 -34t98 -13.5v-52q-56 0 -98 -13.5t-64.5 -34t-22.5 -40.5q0 -22 6 -41t18 -46q13 -31 19 -51.5t6 -44.5q0 -67 -34 -102t-100 -35q-26 0 -50 4z" />
    <glyph glyph-name="asciitilde" unicode="~" 
d="M76 278q47 125 136 125q28 0 50.5 -12t53.5 -35q25 -19 41 -28t33 -9q26 0 45.5 18.5t35.5 67.5l53 -24q-47 -124 -136 -124q-28 0 -50.5 12t-53.5 35q-25 19 -41 28t-33 9q-26 0 -45.5 -18.5t-35.5 -67.5z" />
    <glyph glyph-name="uni00A0" unicode="&#xa0;" 
 />
    <glyph glyph-name="exclamdown" unicode="&#xa1;" 
d="M248 365q-21 21 -21 55q0 35 21 56.5t52 21.5t52 -21.5t21 -56.5q0 -34 -21 -55t-52 -21t-52 21zM260 234h82l10 -418h-102z" />
    <glyph glyph-name="cent" unicode="&#xa2;" 
d="M314 71q-91 10 -146 72.5t-55 166.5q0 100 56.5 162.5t144.5 74.5v106h51v-103q73 -4 131 -58l-40 -52q-42 39 -91 42v-344q55 4 105 47l36 -52q-65 -57 -141 -63v-103h-51v104zM314 477q-56 -13 -88 -57t-32 -110q0 -67 32 -111t88 -57v335z" />
    <glyph glyph-name="sterling" unicode="&#xa3;" 
d="M78 50q61 27 92.5 74.5t31.5 105.5q0 26 -8 55h-117v52l99 4q-3 8 -12.5 34.5t-14.5 49t-5 41.5q0 84 57 134t153 50q108 0 176 -75l-48 -47q-25 25 -55 39t-69 14q-64 0 -99.5 -32t-35.5 -85q0 -28 7 -53t23 -70h189v-56h-173q6 -27 6 -56q0 -51 -18 -86.5t-57 -67.5v-4
h331v-71h-453v50z" />
    <glyph glyph-name="currency" unicode="&#xa4;" 
d="M58 128l84 85q-36 49 -36 116q0 68 35 117l-83 86l44 45l87 -90q48 37 111 37q62 0 111 -37l87 90l44 -45l-84 -86q36 -49 36 -117q0 -65 -36 -116l84 -85l-44 -45l-88 89q-47 -38 -110 -38q-62 0 -111 38l-87 -89zM384 232.5q34 37.5 34 96.5t-34 96.5t-84 37.5
t-84 -37.5t-34 -96.5t34 -96.5t84 -37.5t84 37.5z" />
    <glyph glyph-name="yen" unicode="&#xa5;" 
d="M258 158h-181v48h181v65h-181v47h161l-185 320h85l92 -171l30 -59q16 -33 39 -76h4l14 27l56 108l92 171h82l-186 -320h162v-47h-183v-65h183v-48h-183v-158h-82v158z" />
    <glyph glyph-name="brokenbar" unicode="&#xa6;" 
d="M263 750h74v-459h-74v459zM263 214h74v-464h-74v464z" />
    <glyph glyph-name="section" unicode="&#xa7;" 
d="M186.5 -45q-46.5 19 -78.5 52l50 45q28 -26 58.5 -39t70.5 -13q39 0 62.5 20t23.5 49q0 33 -28 53t-88 46q-54 24 -86.5 43t-56 51.5t-23.5 80.5q0 42 24.5 75t66.5 55q-31 34 -31 81q0 55 39.5 92.5t111.5 37.5q87 0 161 -57l-40 -53q-29 22 -57 34t-60 12
q-40 0 -60 -18t-20 -45q0 -32 27.5 -51.5t86.5 -44.5q54 -24 87.5 -43.5t57.5 -52.5t24 -81q0 -45 -23 -75.5t-67 -54.5q29 -34 29 -81q0 -60 -45 -98.5t-116 -38.5q-54 0 -100.5 19zM421.5 226.5q16.5 19.5 16.5 51.5q0 30 -18 52t-43.5 36.5t-71.5 34.5q-52 22 -75 35
q-33 -17 -50.5 -38t-17.5 -50t17.5 -50.5t43 -35.5t70.5 -33q48 -20 78 -37q34 15 50.5 34.5z" />
    <glyph glyph-name="dieresis" unicode="&#xa8;" 
d="M165 603.5q-15 15.5 -15 39.5t15 39.5t39 15.5q23 0 38.5 -16t15.5 -39t-15.5 -39t-38.5 -16q-24 0 -39 15.5zM357.5 604q-15.5 16 -15.5 39t15.5 39t38.5 16q24 0 39 -15.5t15 -39.5t-15 -39.5t-39 -15.5q-23 0 -38.5 16z" />
    <glyph glyph-name="copyright" unicode="&#xa9;" horiz-adv-x="646" 
d="M162 30.5q-74 41.5 -118 117.5t-44 175t44 174t117.5 115.5t161.5 40.5t161.5 -40.5t117.5 -115.5t44 -174t-44 -175t-118 -117.5t-161 -41.5t-161 41.5zM461.5 68q63.5 37 100.5 103.5t37 151.5t-37 150.5t-100 102t-139 36.5t-139 -36.5t-100 -102t-37 -150.5
t37 -151.5t100.5 -103.5t138.5 -37t138.5 37zM238.5 149q-41.5 24 -65.5 69t-24 105q0 56 25.5 99t68 66.5t91.5 23.5q39 0 68.5 -15t56.5 -42l-35 -39q-22 21 -42 31t-45 10q-54 0 -88 -37.5t-34 -96.5q0 -66 32.5 -104.5t86.5 -38.5q29 0 53 11.5t49 32.5l30 -42
q-32 -28 -63 -42.5t-72 -14.5q-51 0 -92.5 24z" />
    <glyph glyph-name="ordfeminine" unicode="&#xaa;" 
d="M196.5 277.5q-29.5 25.5 -29.5 67.5q0 52 51 80.5t160 39.5q-1 33 -17.5 53.5t-52.5 20.5q-45 0 -103 -34l-25 43q71 42 138 42q62 0 93 -35.5t31 -99.5v-195h-52l-5 37h-2q-58 -45 -113 -45q-44 0 -73.5 25.5zM378 342v82q-79 -9 -113.5 -27.5t-34.5 -47.5
q0 -23 16.5 -35t42.5 -12q41 0 89 40z" />
    <glyph glyph-name="guillemotleft" unicode="&#xab;" 
d="M82 212v80l153 160l39 -35l-127 -165l127 -166l-39 -34zM312 212v80l152 160l40 -35l-127 -165l127 -166l-40 -34z" />
    <glyph glyph-name="logicalnot" unicode="&#xac;" 
d="M449 299h-364v62h430v-257h-66v195z" />
    <glyph glyph-name="registered" unicode="&#xae;" 
d="M205 344q-43 25 -68 70t-25 102t25 102t68 70t95 25q51 0 94 -25t68.5 -70t25.5 -102t-25.5 -102t-68.5 -70t-94 -25q-52 0 -95 25zM375.5 376.5q33.5 20.5 53 56.5t19.5 83q0 46 -19.5 83t-53 57.5t-75.5 20.5t-76 -20.5t-53.5 -57.5t-19.5 -83q0 -47 19.5 -83
t53.5 -56.5t76 -20.5t75.5 20.5zM227 620h76q35 0 57 -15.5t22 -49.5q0 -18 -10.5 -33.5t-27.5 -21.5l46 -83h-46l-35 70h-41v-70h-41v203zM294 519q21 0 32.5 9t11.5 25q0 33 -42 33h-28v-67h26z" />
    <glyph glyph-name="macron" unicode="&#xaf;" 
d="M177 658h246v-57h-246v57z" />
    <glyph glyph-name="degree" unicode="&#xb0;" 
d="M211.5 464.5q-36.5 35.5 -36.5 91.5q0 58 36.5 93.5t88.5 35.5t89 -36t37 -93q0 -56 -37 -91.5t-89 -35.5t-88.5 35.5zM355 498q21 23 21 58q0 37 -21 60t-55 23q-33 0 -54 -23t-21 -60q0 -35 21 -58t54 -23q34 0 55 23z" />
    <glyph glyph-name="plusminus" unicode="&#xb1;" 
d="M267 304h-182v62h182v190h66v-190h182v-62h-182v-177h-66v177zM85 62h430v-62h-430v62z" />
    <glyph glyph-name="acute" unicode="&#xb4;" 
d="M325 721h90l-117 -148h-63z" />
    <glyph glyph-name="uni00B5" unicode="&#xb5;" 
d="M77 486h83v-291q0 -68 26.5 -102t82.5 -34q43 0 80 23t74 88v316h83q-5 -218 -5 -394q0 -18 7.5 -27t19.5 -9q9 0 18 2l12 -62q-19 -8 -48 -8q-38 0 -56 26t-23 85h-3q-31 -55 -72 -82t-88 -27q-39 0 -67.5 11.5t-46.5 41.5q0 -134 6 -230h-83v673z" />
    <glyph glyph-name="paragraph" unicode="&#xb6;" 
d="M139 280q-67 54 -67 163q0 112 63.5 162.5t171.5 50.5h43v-430h-32q-112 0 -179 54zM404 656h81v-736h-81v736z" />
    <glyph glyph-name="periodcentered" unicode="&#xb7;" 
d="M242.5 286.5q-23.5 23.5 -23.5 60.5t23.5 61t57.5 24t57.5 -24t23.5 -61t-23.5 -60.5t-57.5 -23.5t-57.5 23.5z" />
    <glyph glyph-name="cedilla" unicode="&#xb8;" 
d="M222 -172q88 12 88 48q0 19 -15.5 30t-47.5 19l40 78h54l-26 -53q28 -9 43.5 -25.5t15.5 -45.5q0 -41 -41 -63.5t-103 -28.5z" />
    <glyph glyph-name="ordmasculine" unicode="&#xba;" 
d="M221 272.5q-36 20.5 -57.5 58.5t-21.5 90t21.5 90t57.5 58.5t79 20.5t79 -20.5t57.5 -58.5t21.5 -90t-21.5 -90t-57.5 -58.5t-79 -20.5t-79 20.5zM367 336q25 32 25 85q0 52 -25 84.5t-67 32.5t-67 -32.5t-25 -84.5q0 -53 25 -85t67 -32t67 32z" />
    <glyph glyph-name="guillemotright" unicode="&#xbb;" 
d="M96 86l127 166l-127 165l40 35l152 -160v-80l-152 -160zM326 86l127 166l-127 165l39 35l153 -160v-80l-153 -160z" />
    <glyph glyph-name="onequarter" unicode="&#xbc;" 
d="M156 563h-82v42q32 5 52.5 12.5t41.5 20.5h51v-305h-63v230zM356 421l167 203l49 -45l-183 -188zM468 73h-162v31l148 201h71v-189h50v-43h-50v-73h-57v73zM28 77l183 188l33 -30l-167 -203zM468 116v56l5 82h-4l-45 -65l-54 -73h98z" />
    <glyph glyph-name="onehalf" unicode="&#xbd;" 
d="M156 563h-82v42q32 5 52.5 12.5t41.5 20.5h51v-305h-63v230zM356 421l167 203l49 -45l-183 -188zM318 36q88 67 124.5 103t36.5 67q0 27 -16 43t-45 16q-39 0 -71 -42l-39 33q23 28 53.5 44.5t64.5 16.5q54 0 85 -27t31 -76q0 -25 -15.5 -50t-37 -47t-68.5 -64h136v-53
h-239v36zM28 77l183 188l33 -30l-167 -203z" />
    <glyph glyph-name="threequarters" unicode="&#xbe;" 
d="M96.5 335.5q-33.5 14.5 -58.5 39.5l31 39q17 -19 41.5 -31.5t49.5 -12.5q28 0 45 12t17 35q0 52 -95 52v38q40 0 60.5 13.5t20.5 36.5q0 20 -13.5 31.5t-41.5 11.5q-18 0 -38.5 -9t-35.5 -24l-30 38q20 21 50.5 33t65.5 12q47 0 76.5 -23t29.5 -61q0 -29 -13.5 -47
t-42.5 -28q33 -8 51.5 -27.5t18.5 -49.5q0 -43 -34 -68t-86 -25q-35 0 -68.5 14.5zM381 421l168 203l48 -45l-183 -188zM468 73h-162v31l149 201h71v-189h50v-43h-50v-73h-58v73zM54 77l183 188l32 -30l-167 -203zM468 116v56l5 82h-4l-44 -65l-54 -73h97z" />
    <glyph glyph-name="questiondown" unicode="&#xbf;" 
d="M263 365q-21 21 -21 56q0 34 21 55.5t52 21.5t52.5 -21.5t21.5 -55.5q0 -35 -21.5 -56t-52.5 -21t-52 21zM173.5 -153.5q-50.5 42.5 -50.5 113.5q0 39 20 66.5t62 66.5q41 38 61.5 66.5t20.5 66.5q0 12 -1 18h73q2 -9 2 -26q0 -44 -23 -76t-66 -71q-35 -32 -52 -54
t-17 -48q0 -43 29 -69.5t82 -26.5q73 0 130 57l48 -45q-35 -37 -82 -59t-102 -22q-84 0 -134.5 42.5z" />
    <glyph glyph-name="Agrave" unicode="&#xc0;" 
d="M169 823h94l88 -113h-69zM253 660h94l221 -660h-88l-62 202h-238l-63 -202h-85zM397 269l-31 101q-36 117 -65 222h-4q-29 -105 -65 -222l-31 -101h196z" />
    <glyph glyph-name="Aacute" unicode="&#xc1;" 
d="M337 823h94l-113 -113h-69zM253 660h94l221 -660h-88l-62 202h-238l-63 -202h-85zM397 269l-31 101q-36 117 -65 222h-4q-29 -105 -65 -222l-31 -101h196z" />
    <glyph glyph-name="Acircumflex" unicode="&#xc2;" 
d="M260 823h80l96 -113h-67l-67 69h-4l-67 -69h-67zM253 660h94l221 -660h-88l-62 202h-238l-63 -202h-85zM397 269l-31 101q-36 117 -65 222h-4q-29 -105 -65 -222l-31 -101h196z" />
    <glyph glyph-name="Atilde" unicode="&#xc3;" 
d="M182.5 794q22.5 30 57.5 30q19 0 34.5 -8t35.5 -22q17 -12 27.5 -17.5t21.5 -5.5q14 0 25 14.5t15 38.5h46q-5 -47 -27.5 -78t-57.5 -31q-19 0 -34.5 8t-35.5 22q-17 12 -27.5 17.5t-21.5 5.5q-15 0 -25.5 -13.5t-14.5 -39.5h-46q5 49 27.5 79zM253 660h94l221 -660h-88
l-62 202h-238l-63 -202h-85zM397 269l-31 101q-36 117 -65 222h-4q-29 -105 -65 -222l-31 -101h196z" />
    <glyph glyph-name="Adieresis" unicode="&#xc4;" 
d="M178.5 734q-13.5 14 -13.5 35q0 22 13.5 35.5t35.5 13.5q21 0 35 -13.5t14 -35.5q0 -21 -14 -35t-35 -14q-22 0 -35.5 14zM351 734q-14 14 -14 35q0 22 14 35.5t35 13.5q22 0 35.5 -13.5t13.5 -35.5q0 -21 -13.5 -35t-35.5 -14q-21 0 -35 14zM253 660h94l221 -660h-88
l-62 202h-238l-63 -202h-85zM397 269l-31 101q-36 117 -65 222h-4q-29 -105 -65 -222l-31 -101h196z" />
    <glyph glyph-name="Aring" unicode="&#xc5;" 
d="M233 727q-26 24 -26 64t26 64.5t67 24.5q40 0 66.5 -24.5t26.5 -64.5t-26.5 -64t-66.5 -24q-41 0 -67 24zM333.5 753q13.5 14 13.5 38q0 23 -14 37.5t-33 14.5q-21 0 -34.5 -14t-13.5 -38t13.5 -38t34.5 -14q20 0 33.5 14zM253 660h94l221 -660h-88l-62 201h-238
l-63 -201h-85zM397 269l-31 100q-34 110 -65 223h-4q-31 -113 -65 -223l-31 -100h196z" />
    <glyph glyph-name="AE" unicode="&#xc6;" 
d="M259 660h323v-70h-189v-207h147v-71h-147v-241h198v-71h-274v193h-158l-73 -193h-87zM317 260v334h-3l-45 -117l-38 -97l-46 -120h132z" />
    <glyph glyph-name="Ccedilla" unicode="&#xc7;" 
d="M257 -173q89 12 89 48q0 19 -16 30.5t-48 19.5l34 65q-74 10 -130.5 53t-88 116.5t-31.5 170.5q0 104 37.5 181.5t104 119t151.5 41.5q55 0 101 -22.5t78 -57.5l-47 -53q-57 60 -132 60q-63 0 -109.5 -32.5t-72 -93t-25.5 -141.5q0 -82 25.5 -143.5t72 -94.5t109.5 -33
q44 0 79 18t68 55l48 -51q-78 -89 -185 -95l-19 -38q60 -20 60 -72q0 -41 -41 -63.5t-104 -28.5z" />
    <glyph glyph-name="Egrave" unicode="&#xc8;" 
d="M200 823h94l88 -113h-69zM115 660h405v-70h-321v-208h271v-71h-271v-240h331v-71h-415v660z" />
    <glyph glyph-name="Eacute" unicode="&#xc9;" 
d="M368 823h94l-113 -113h-69zM115 660h405v-70h-321v-208h271v-71h-271v-240h331v-71h-415v660z" />
    <glyph glyph-name="Ecircumflex" unicode="&#xca;" 
d="M291 823h79l96 -113h-66l-67 69h-4l-67 -69h-67zM115 660h405v-70h-321v-208h271v-71h-271v-240h331v-71h-415v660z" />
    <glyph glyph-name="Edieresis" unicode="&#xcb;" 
d="M209 734q-14 14 -14 35q0 22 14 35.5t35 13.5q22 0 35.5 -13.5t13.5 -35.5q0 -21 -13.5 -35t-35.5 -14q-21 0 -35 14zM382 734q-14 14 -14 35q0 22 14 35.5t35 13.5t35 -13.5t14 -35.5q0 -21 -14 -35t-35 -14t-35 14zM115 660h405v-70h-321v-208h271v-71h-271v-240h331
v-71h-415v660z" />
    <glyph glyph-name="Igrave" unicode="&#xcc;" 
d="M169 823h94l88 -113h-69zM95 71h163v519h-163v70h410v-70h-163v-519h163v-71h-410v71z" />
    <glyph glyph-name="Iacute" unicode="&#xcd;" 
d="M337 823h94l-113 -113h-69zM95 71h163v519h-163v70h410v-70h-163v-519h163v-71h-410v71z" />
    <glyph glyph-name="Icircumflex" unicode="&#xce;" 
d="M260 823h80l96 -113h-67l-67 69h-4l-67 -69h-67zM95 71h163v519h-163v70h410v-70h-163v-519h163v-71h-410v71z" />
    <glyph glyph-name="Idieresis" unicode="&#xcf;" 
d="M178.5 734q-13.5 14 -13.5 35q0 22 13.5 35.5t35.5 13.5q21 0 35 -13.5t14 -35.5q0 -21 -14 -35t-35 -14q-22 0 -35.5 14zM351 734q-14 14 -14 35q0 22 14 35.5t35 13.5q22 0 35.5 -13.5t13.5 -35.5q0 -21 -13.5 -35t-35.5 -14q-21 0 -35 14zM95 71h163v519h-163v70h410
v-70h-163v-519h163v-71h-410v71z" />
    <glyph glyph-name="Eth" unicode="&#xd0;" 
d="M91 323h-75v42l75 5v290h161q147 0 225 -85t78 -242q0 -158 -78 -245.5t-222 -87.5h-164v323zM246 68q110 0 166.5 69t56.5 196q0 126 -56 192.5t-167 66.5h-72v-222h143v-47h-143v-255h72z" />
    <glyph glyph-name="Ntilde" unicode="&#xd1;" 
d="M188.5 794q22.5 30 57.5 30q19 0 34.5 -8t35.5 -22q17 -12 27.5 -17.5t21.5 -5.5q14 0 25 14.5t15 38.5h46q-5 -47 -27.5 -78t-57.5 -31q-19 0 -34.5 8t-35.5 22q-17 12 -27.5 17.5t-21.5 5.5q-15 0 -25.5 -13.5t-14.5 -39.5h-46q5 49 27.5 79zM83 660h85l213 -417
l66 -135h2q-1 20 -5 74q-6 90 -6 135v343h79v-660h-85l-213 417l-66 135h-2q1 -25 5 -77q6 -86 6 -129v-346h-79v660z" />
    <glyph glyph-name="Ograve" unicode="&#xd2;" 
d="M169 823h94l88 -113h-69zM169 30q-57 42 -89 120.5t-32 182.5t32 180.5t89 117.5t131 41t131 -41t89 -118t32 -180q0 -104 -32 -182.5t-89 -120.5t-131 -42t-131 42zM387.5 94.5q37.5 33.5 58 95t20.5 143.5q0 81 -20.5 141t-58 92.5t-87.5 32.5t-87.5 -32.5t-58 -92.5
t-20.5 -141q0 -82 20.5 -143.5t58 -95t87.5 -33.5t87.5 33.5z" />
    <glyph glyph-name="Oacute" unicode="&#xd3;" 
d="M337 823h94l-113 -113h-69zM169 30q-57 42 -89 120.5t-32 182.5t32 180.5t89 117.5t131 41t131 -41t89 -118t32 -180q0 -104 -32 -182.5t-89 -120.5t-131 -42t-131 42zM387.5 94.5q37.5 33.5 58 95t20.5 143.5q0 81 -20.5 141t-58 92.5t-87.5 32.5t-87.5 -32.5t-58 -92.5
t-20.5 -141q0 -82 20.5 -143.5t58 -95t87.5 -33.5t87.5 33.5z" />
    <glyph glyph-name="Ocircumflex" unicode="&#xd4;" 
d="M260 823h80l96 -113h-67l-67 69h-4l-67 -69h-67zM169 30q-57 42 -89 120.5t-32 182.5t32 180.5t89 117.5t131 41t131 -41t89 -118t32 -180q0 -104 -32 -182.5t-89 -120.5t-131 -42t-131 42zM387.5 94.5q37.5 33.5 58 95t20.5 143.5q0 81 -20.5 141t-58 92.5t-87.5 32.5
t-87.5 -32.5t-58 -92.5t-20.5 -141q0 -82 20.5 -143.5t58 -95t87.5 -33.5t87.5 33.5z" />
    <glyph glyph-name="Otilde" unicode="&#xd5;" 
d="M182.5 794q22.5 30 57.5 30q19 0 34.5 -8t35.5 -22q17 -12 27.5 -17.5t21.5 -5.5q14 0 25 14.5t15 38.5h46q-5 -47 -27.5 -78t-57.5 -31q-19 0 -34.5 8t-35.5 22q-17 12 -27.5 17.5t-21.5 5.5q-15 0 -25.5 -13.5t-14.5 -39.5h-46q5 49 27.5 79zM169 30q-57 42 -89 120.5
t-32 182.5t32 180.5t89 117.5t131 41t131 -41t89 -118t32 -180q0 -104 -32 -182.5t-89 -120.5t-131 -42t-131 42zM387.5 94.5q37.5 33.5 58 95t20.5 143.5q0 81 -20.5 141t-58 92.5t-87.5 32.5t-87.5 -32.5t-58 -92.5t-20.5 -141q0 -82 20.5 -143.5t58 -95t87.5 -33.5
t87.5 33.5z" />
    <glyph glyph-name="Odieresis" unicode="&#xd6;" 
d="M178.5 734q-13.5 14 -13.5 35q0 22 13.5 35.5t35.5 13.5q21 0 35 -13.5t14 -35.5q0 -21 -14 -35t-35 -14q-22 0 -35.5 14zM351 734q-14 14 -14 35q0 22 14 35.5t35 13.5q22 0 35.5 -13.5t13.5 -35.5q0 -21 -13.5 -35t-35.5 -14q-21 0 -35 14zM169 30q-57 42 -89 120.5
t-32 182.5t32 180.5t89 117.5t131 41t131 -41t89 -118t32 -180q0 -104 -32 -182.5t-89 -120.5t-131 -42t-131 42zM387.5 94.5q37.5 33.5 58 95t20.5 143.5q0 81 -20.5 141t-58 92.5t-87.5 32.5t-87.5 -32.5t-58 -92.5t-20.5 -141q0 -82 20.5 -143.5t58 -95t87.5 -33.5
t87.5 33.5z" />
    <glyph glyph-name="multiply" unicode="&#xd7;" 
d="M102 171l154 159l-154 158l44 45l154 -159l154 159l44 -45l-154 -158l154 -159l-44 -45l-154 160l-154 -160z" />
    <glyph glyph-name="Oslash" unicode="&#xd8;" 
d="M45 2l63 94q-60 93 -60 237q0 104 32 181t89 118t131 41q93 0 155 -62l54 80l47 -32l-63 -94q59 -88 59 -232q0 -104 -32 -182.5t-89 -120.5t-131 -42q-90 0 -154 62l-53 -80zM410 544q-44 56 -110 56q-50 0 -87.5 -32.5t-58 -93t-20.5 -141.5q0 -95 27 -161zM387.5 94.5
q37.5 33.5 58 95t20.5 143.5q0 91 -25 155l-249 -371q44 -56 108 -56q50 0 87.5 33.5z" />
    <glyph glyph-name="Ugrave" unicode="&#xd9;" 
d="M169 823h94l88 -113h-69zM138.5 51q-59.5 63 -59.5 198v411h84v-412q0 -98 37 -142.5t101 -44.5t101.5 44.5t37.5 142.5v412h81v-411q0 -135 -59 -198t-161 -63q-103 0 -162.5 63z" />
    <glyph glyph-name="Uacute" unicode="&#xda;" 
d="M337 823h94l-113 -113h-69zM138.5 51q-59.5 63 -59.5 198v411h84v-412q0 -98 37 -142.5t101 -44.5t101.5 44.5t37.5 142.5v412h81v-411q0 -135 -59 -198t-161 -63q-103 0 -162.5 63z" />
    <glyph glyph-name="Ucircumflex" unicode="&#xdb;" 
d="M260 823h80l96 -113h-67l-67 69h-4l-67 -69h-67zM138.5 51q-59.5 63 -59.5 198v411h84v-412q0 -98 37 -142.5t101 -44.5t101.5 44.5t37.5 142.5v412h81v-411q0 -135 -59 -198t-161 -63q-103 0 -162.5 63z" />
    <glyph glyph-name="Udieresis" unicode="&#xdc;" 
d="M178.5 734q-13.5 14 -13.5 35q0 22 13.5 35.5t35.5 13.5q21 0 35 -13.5t14 -35.5q0 -21 -14 -35t-35 -14q-22 0 -35.5 14zM351 734q-14 14 -14 35q0 22 14 35.5t35 13.5q22 0 35.5 -13.5t13.5 -35.5q0 -21 -13.5 -35t-35.5 -14q-21 0 -35 14zM138.5 51
q-59.5 63 -59.5 199v410h84v-412q0 -98 37 -142.5t101 -44.5t101.5 44.5t37.5 142.5v412h81v-410q0 -136 -59 -199t-161 -63q-103 0 -162.5 63z" />
    <glyph glyph-name="Yacute" unicode="&#xdd;" 
d="M337 823h94l-113 -113h-69zM258 236l-220 424h88l99 -197q22 -44 32 -66l43 -87h4l77 155l95 195h86l-220 -424v-236h-84v236z" />
    <glyph glyph-name="Thorn" unicode="&#xde;" 
d="M101 660h84v-111h118q116 0 179 -45.5t63 -148.5q0 -101 -65.5 -152.5t-176.5 -51.5h-118v-151h-84v660zM292 219q87 0 128.5 32.5t41.5 103.5q0 69 -41 97.5t-129 28.5h-107v-262h107z" />
    <glyph glyph-name="germandbls" unicode="&#xdf;" 
d="M257 35l33 58q29 -21 55 -31t54 -10q40 0 63.5 24.5t23.5 59.5q0 29 -13 49t-32.5 33t-52.5 30q-35 19 -55 32.5t-34.5 36t-14.5 55.5t11.5 57t34.5 56q22 31 33 54t11 52q0 40 -23 66t-63 26q-57 0 -87.5 -38t-30.5 -122v-523h-82v536q0 97 54 155.5t147 58.5
q51 0 88 -21t56.5 -56t19.5 -77q0 -38 -12.5 -64.5t-38.5 -62.5q-21 -29 -30 -46.5t-9 -40.5q0 -27 19 -43.5t60 -37.5q39 -20 63 -37t41.5 -47t17.5 -74t-20 -79.5t-57.5 -56t-85.5 -20.5q-74 0 -144 48z" />
    <glyph glyph-name="agrave" unicode="&#xe0;" 
d="M128 26q-47 39 -47 105q0 58 36 96.5t112.5 61.5t203.5 34q-2 58 -32.5 94.5t-96.5 36.5q-78 0 -150 -62l-32 57q35 30 86.5 51.5t109.5 21.5q97 0 147 -55.5t50 -152.5v-314h-67l-7 70h-3q-45 -37 -94.5 -60t-97.5 -23q-71 0 -118 39zM433 131v137q-150 -13 -211 -45
t-61 -86q0 -42 30.5 -63t76.5 -21q79 0 165 78zM228 721h90l90 -148h-63z" />
    <glyph glyph-name="aacute" unicode="&#xe1;" 
d="M128 26q-47 39 -47 105q0 58 36 96.5t112.5 61.5t203.5 34q-2 58 -32.5 94.5t-96.5 36.5q-78 0 -150 -62l-32 57q35 30 86.5 51.5t109.5 21.5q97 0 147 -55.5t50 -152.5v-314h-67l-7 70h-3q-45 -37 -94.5 -60t-97.5 -23q-71 0 -118 39zM433 131v137q-150 -13 -211 -45
t-61 -86q0 -42 30.5 -63t76.5 -21q79 0 165 78zM318 721h90l-117 -148h-63z" />
    <glyph glyph-name="acircumflex" unicode="&#xe2;" 
d="M128 26q-47 39 -47 105q0 58 36 96.5t112.5 61.5t203.5 34q-2 58 -32.5 94.5t-96.5 36.5q-78 0 -150 -62l-32 57q35 30 86.5 51.5t109.5 21.5q97 0 147 -55.5t50 -152.5v-314h-67l-7 70h-3q-45 -37 -94.5 -60t-97.5 -23q-71 0 -118 39zM433 131v137q-150 -13 -211 -45
t-61 -86q0 -42 30.5 -63t76.5 -21q79 0 165 78zM283 721h70l97 -148h-63l-67 99h-4l-67 -99h-63z" />
    <glyph glyph-name="atilde" unicode="&#xe3;" 
d="M128 26q-47 39 -47 105q0 58 36 96.5t112.5 61.5t203.5 34q-2 58 -32.5 94.5t-96.5 36.5q-78 0 -150 -62l-32 57q35 30 86.5 51.5t109.5 21.5q97 0 147 -55.5t50 -152.5v-314h-67l-7 70h-3q-45 -37 -94.5 -60t-97.5 -23q-71 0 -118 39zM433 131v137q-150 -13 -211 -45
t-61 -86q0 -42 30.5 -63t76.5 -21q79 0 165 78zM204 658.5q22 29.5 60 29.5q17 0 32 -8t34 -23q15 -12 24.5 -17.5t18.5 -5.5q31 0 40 54h47q-6 -49 -28 -79t-60 -30q-18 0 -32 8t-33 24q-15 12 -24.5 17.5t-19.5 5.5q-31 0 -40 -55h-47q6 50 28 79.5z" />
    <glyph glyph-name="adieresis" unicode="&#xe4;" 
d="M128 26q-47 39 -47 105q0 58 36 96.5t112.5 61.5t203.5 34q-2 58 -32.5 94.5t-96.5 36.5q-78 0 -150 -62l-32 57q35 30 86.5 51.5t109.5 21.5q97 0 147 -55.5t50 -152.5v-314h-67l-7 70h-3q-45 -37 -94.5 -60t-97.5 -23q-71 0 -118 39zM433 131v137q-150 -13 -211 -45
t-61 -86q0 -42 30.5 -63t76.5 -21q79 0 165 78zM183 603.5q-15 15.5 -15 39.5t15 39.5t39 15.5q23 0 38.5 -16t15.5 -39t-15.5 -39t-38.5 -16q-24 0 -39 15.5zM375.5 604q-15.5 16 -15.5 39t15.5 39t38.5 16q24 0 39 -15.5t15 -39.5t-15 -39.5t-39 -15.5q-23 0 -38.5 16z
" />
    <glyph glyph-name="aring" unicode="&#xe5;" 
d="M128 26q-47 39 -47 105q0 58 36 96.5t112.5 61.5t203.5 34q-2 58 -32.5 94.5t-96.5 36.5q-78 0 -150 -62l-32 57q35 30 86.5 51.5t109.5 21.5q97 0 147 -55.5t50 -152.5v-314h-67l-7 70h-3q-45 -37 -94.5 -60t-97.5 -23q-71 0 -118 39zM433 131v137q-150 -13 -211 -45
t-61 -86q0 -42 30.5 -63t76.5 -21q79 0 165 78zM251 567.5q-26 25.5 -26 67.5q0 41 26 66.5t67 25.5t67 -25.5t26 -66.5q0 -42 -26 -67.5t-67 -25.5t-67 25.5zM352.5 594.5q13.5 15.5 13.5 40.5q0 24 -13.5 39.5t-34.5 15.5t-34.5 -15.5t-13.5 -39.5q0 -25 13.5 -40.5
t34.5 -15.5t34.5 15.5z" />
    <glyph glyph-name="ae" unicode="&#xe6;" 
d="M52 26.5q-35 39.5 -35 108.5q0 149 248 188q-2 132 -87 132q-25 0 -57 -12.5t-57 -30.5l-31 56q80 54 155 54q45 0 76 -28.5t45 -75.5q50 104 141 104q71 0 109 -66.5t38 -165.5q0 -19 -4 -55h-258q3 -84 34 -133t88 -49q25 0 47.5 8.5t48.5 24.5l29 -54
q-65 -45 -128 -45q-98 0 -149 97q-84 -97 -158 -97q-60 0 -95 39.5zM528 291q0 74 -20 120t-65 46q-46 0 -75 -44.5t-34 -121.5h194zM224 73.5q31 20.5 57 57.5q-14 43 -16 111l-1 26q-90 -16 -130.5 -47.5t-40.5 -81.5q0 -42 19.5 -64t54.5 -22q26 0 57 20.5z" />
    <glyph glyph-name="ccedilla" unicode="&#xe7;" 
d="M360.5 -75.5q15.5 -16.5 15.5 -45.5q0 -41 -41 -63.5t-103 -28.5l-8 41q88 12 88 48q0 19 -15.5 30t-47.5 19l35 68q-92 18 -148 86.5t-56 174.5q0 83 36.5 143.5t98 92.5t136.5 32q104 0 177 -75l-41 -53q-63 60 -133 60q-55 0 -98 -25t-67 -70.5t-24 -104.5
q0 -89 51.5 -144t135.5 -55q77 0 151 65l36 -53q-40 -38 -90 -59t-103 -21h-11l-18 -37q28 -9 43.5 -25.5z" />
    <glyph glyph-name="egrave" unicode="&#xe8;" 
d="M197.5 19.5q-59.5 32.5 -94 93t-34.5 141.5q0 80 34.5 141t91.5 94t121 33q103 0 162 -65t59 -174q0 -28 -3 -48h-380q3 -82 54.5 -131.5t131.5 -49.5q41 0 76.5 12t71.5 36l29 -55q-90 -60 -187 -60q-73 0 -132.5 32.5zM461 295q0 77 -38 119.5t-106 42.5
q-61 0 -108 -44t-56 -118h308zM226 721h90l90 -148h-63z" />
    <glyph glyph-name="eacute" unicode="&#xe9;" 
d="M197.5 19.5q-59.5 32.5 -94 93t-34.5 141.5q0 80 34.5 141t91.5 94t121 33q103 0 162 -65t59 -174q0 -28 -3 -48h-380q3 -82 54.5 -131.5t131.5 -49.5q41 0 76.5 12t71.5 36l29 -55q-90 -60 -187 -60q-73 0 -132.5 32.5zM461 295q0 77 -38 119.5t-106 42.5
q-61 0 -108 -44t-56 -118h308zM316 721h90l-117 -148h-63z" />
    <glyph glyph-name="ecircumflex" unicode="&#xea;" 
d="M197.5 19.5q-59.5 32.5 -94 93t-34.5 141.5q0 80 34.5 141t91.5 94t121 33q103 0 162 -65t59 -174q0 -28 -3 -48h-380q3 -82 54.5 -131.5t131.5 -49.5q41 0 76.5 12t71.5 36l29 -55q-90 -60 -187 -60q-73 0 -132.5 32.5zM461 295q0 77 -38 119.5t-106 42.5
q-61 0 -108 -44t-56 -118h308zM281 721h70l97 -148h-63l-67 99h-4l-67 -99h-63z" />
    <glyph glyph-name="edieresis" unicode="&#xeb;" 
d="M197.5 19.5q-59.5 32.5 -94 93t-34.5 141.5q0 80 34.5 141t91.5 94t121 33q103 0 162 -65t59 -174q0 -28 -3 -48h-380q3 -82 54.5 -131.5t131.5 -49.5q41 0 76.5 12t71.5 36l29 -55q-90 -60 -187 -60q-73 0 -132.5 32.5zM461 295q0 77 -38 119.5t-106 42.5
q-61 0 -108 -44t-56 -118h308zM181 603.5q-15 15.5 -15 39.5t15 39.5t39 15.5q23 0 38.5 -16t15.5 -39t-15.5 -39t-38.5 -16q-24 0 -39 15.5zM373.5 604q-15.5 16 -15.5 39t15.5 39t38.5 16q24 0 39 -15.5t15 -39.5t-15 -39.5t-39 -15.5q-23 0 -38.5 16z" />
    <glyph glyph-name="igrave" unicode="&#xec;" 
d="M100 68h189v375h-189v67h271v-442h189v-68h-460v68zM230 721h90l90 -148h-63z" />
    <glyph glyph-name="iacute" unicode="&#xed;" 
d="M100 68h189v375h-189v67h271v-442h189v-68h-460v68zM320 721h90l-117 -148h-63z" />
    <glyph glyph-name="icircumflex" unicode="&#xee;" 
d="M100 68h189v375h-189v67h271v-442h189v-68h-460v68zM285 721h70l97 -148h-63l-67 99h-4l-67 -99h-63z" />
    <glyph glyph-name="idieresis" unicode="&#xef;" 
d="M100 68h189v375h-189v67h271v-442h189v-68h-460v68zM185 603.5q-15 15.5 -15 39.5t15 39.5t39 15.5q23 0 38.5 -16t15.5 -39t-15.5 -39t-38.5 -16q-24 0 -39 15.5zM377.5 604q-15.5 16 -15.5 39t15.5 39t38.5 16q24 0 39 -15.5t15 -39.5t-15 -39.5t-39 -15.5
q-23 0 -38.5 16z" />
    <glyph glyph-name="eth" unicode="&#xf0;" 
d="M179.5 17.5q-54.5 30.5 -87 86t-32.5 129.5q0 70 29.5 123.5t81 83t117.5 29.5q46 0 88.5 -23t70.5 -63q-13 69 -41.5 115.5t-79.5 93.5l-150 -81l-23 41l132 72q-42 32 -120 74l38 52q91 -46 148 -92l135 73l23 -42l-119 -64q72 -69 109 -152.5t37 -203.5
q0 -84 -29 -147.5t-83 -99t-126 -35.5q-64 0 -118.5 30.5zM417 113q40 58 40 153q0 32 -1 47q-33 48 -73.5 70t-82.5 22q-78 0 -120.5 -48t-42.5 -124q0 -52 22 -92.5t59 -63t82 -22.5q77 0 117 58z" />
    <glyph glyph-name="ntilde" unicode="&#xf1;" 
d="M93 510h68l7 -89h4q43 48 86.5 74.5t96.5 26.5q168 0 168 -205v-317h-82v306q0 75 -26.5 110t-85.5 35q-41 0 -74.5 -22t-79.5 -73v-356h-82v510zM196 658.5q22 29.5 60 29.5q17 0 32 -8t34 -23q15 -12 24.5 -17.5t18.5 -5.5q31 0 40 54h47q-6 -49 -28 -79t-60 -30
q-18 0 -32 8t-33 24q-15 12 -24.5 17.5t-19.5 5.5q-31 0 -40 -55h-47q6 50 28 79.5z" />
    <glyph glyph-name="ograve" unicode="&#xf2;" 
d="M180 19q-55 32 -87.5 92.5t-32.5 142.5q0 83 32.5 143.5t87.5 92.5t120 32t120 -32t87.5 -92.5t32.5 -143.5q0 -82 -32.5 -142.5t-87.5 -92.5t-120 -32t-120 32zM412.5 110q42.5 55 42.5 144t-42.5 144.5t-112.5 55.5t-112.5 -55.5t-42.5 -144.5t42.5 -144t112.5 -55
t112.5 55zM210 721h90l90 -148h-63z" />
    <glyph glyph-name="oacute" unicode="&#xf3;" 
d="M180 19q-55 32 -87.5 92.5t-32.5 142.5q0 83 32.5 143.5t87.5 92.5t120 32t120 -32t87.5 -92.5t32.5 -143.5q0 -82 -32.5 -142.5t-87.5 -92.5t-120 -32t-120 32zM412.5 110q42.5 55 42.5 144t-42.5 144.5t-112.5 55.5t-112.5 -55.5t-42.5 -144.5t42.5 -144t112.5 -55
t112.5 55zM300 721h90l-117 -148h-63z" />
    <glyph glyph-name="ocircumflex" unicode="&#xf4;" 
d="M180 19q-55 32 -87.5 92.5t-32.5 142.5q0 83 32.5 143.5t87.5 92.5t120 32t120 -32t87.5 -92.5t32.5 -143.5q0 -82 -32.5 -142.5t-87.5 -92.5t-120 -32t-120 32zM412.5 110q42.5 55 42.5 144t-42.5 144.5t-112.5 55.5t-112.5 -55.5t-42.5 -144.5t42.5 -144t112.5 -55
t112.5 55zM265 721h70l97 -148h-63l-67 99h-4l-67 -99h-63z" />
    <glyph glyph-name="otilde" unicode="&#xf5;" 
d="M180 19q-55 32 -87.5 92.5t-32.5 142.5q0 83 32.5 143.5t87.5 92.5t120 32t120 -32t87.5 -92.5t32.5 -143.5q0 -82 -32.5 -142.5t-87.5 -92.5t-120 -32t-120 32zM412.5 110q42.5 55 42.5 144t-42.5 144.5t-112.5 55.5t-112.5 -55.5t-42.5 -144.5t42.5 -144t112.5 -55
t112.5 55zM186 658.5q22 29.5 60 29.5q17 0 32 -8t34 -23q15 -12 24.5 -17.5t18.5 -5.5q31 0 40 54h47q-6 -49 -28 -79t-60 -30q-18 0 -32 8t-33 24q-15 12 -24.5 17.5t-19.5 5.5q-31 0 -40 -55h-47q6 50 28 79.5z" />
    <glyph glyph-name="odieresis" unicode="&#xf6;" 
d="M180 19q-55 32 -87.5 92.5t-32.5 142.5q0 83 32.5 143.5t87.5 92.5t120 32t120 -32t87.5 -92.5t32.5 -143.5q0 -82 -32.5 -142.5t-87.5 -92.5t-120 -32t-120 32zM412.5 110q42.5 55 42.5 144t-42.5 144.5t-112.5 55.5t-112.5 -55.5t-42.5 -144.5t42.5 -144t112.5 -55
t112.5 55zM165 603.5q-15 15.5 -15 39.5t15 39.5t39 15.5q23 0 38.5 -16t15.5 -39t-15.5 -39t-38.5 -16q-24 0 -39 15.5zM357.5 604q-15.5 16 -15.5 39t15.5 39t38.5 16q24 0 39 -15.5t15 -39.5t-15 -39.5t-39 -15.5q-23 0 -38.5 16z" />
    <glyph glyph-name="divide" unicode="&#xf7;" 
d="M261.5 471q-15.5 15 -15.5 39q0 23 15.5 38.5t38.5 15.5t38.5 -15.5t15.5 -38.5q0 -24 -15.5 -39t-38.5 -15t-38.5 15zM85 361h430v-62h-430v62zM261 111q-15 15 -15 39t15.5 39t38.5 15t38.5 -15t15.5 -39t-15 -39t-39 -15t-39 15z" />
    <glyph glyph-name="oslash" unicode="&#xf8;" 
d="M66 6l53 65q-59 74 -59 183q0 83 32.5 143.5t87.5 92.5t120 32q83 0 146 -51l51 63l37 -30l-53 -66q28 -35 43.5 -82t15.5 -102q0 -82 -32.5 -142.5t-87.5 -92.5t-120 -32q-83 0 -146 51l-51 -62zM398 415q-39 41 -98 41q-46 0 -81 -25.5t-54.5 -71.5t-19.5 -105
q0 -70 27 -121zM412.5 108.5q42.5 55.5 42.5 145.5q0 71 -27 123l-227 -282q42 -42 99 -42q70 0 112.5 55.5z" />
    <glyph glyph-name="ugrave" unicode="&#xf9;" 
d="M118.5 39q-41.5 52 -41.5 154v317h83v-306q0 -76 26 -111t86 -35q41 0 75 22.5t76 74.5v355h82v-510h-67l-7 90h-4q-40 -49 -84 -76t-97 -27q-86 0 -127.5 52zM210 721h90l90 -148h-63z" />
    <glyph glyph-name="uacute" unicode="&#xfa;" 
d="M118.5 39q-41.5 52 -41.5 154v317h83v-306q0 -76 26 -111t86 -35q41 0 75 22.5t76 74.5v355h82v-510h-67l-7 90h-4q-40 -49 -84 -76t-97 -27q-86 0 -127.5 52zM300 721h90l-117 -148h-63z" />
    <glyph glyph-name="ucircumflex" unicode="&#xfb;" 
d="M118.5 39q-41.5 52 -41.5 154v317h83v-306q0 -76 26 -111t86 -35q41 0 75 22.5t76 74.5v355h82v-510h-67l-7 90h-4q-40 -49 -84 -76t-97 -27q-86 0 -127.5 52zM265 721h70l97 -148h-63l-67 99h-4l-67 -99h-63z" />
    <glyph glyph-name="udieresis" unicode="&#xfc;" 
d="M118.5 39q-41.5 52 -41.5 154v317h83v-306q0 -76 26 -111t86 -35q41 0 75 22.5t76 74.5v355h82v-510h-67l-7 90h-4q-40 -49 -84 -76t-97 -27q-86 0 -127.5 52zM165 603.5q-15 15.5 -15 39.5t15 39.5t39 15.5q23 0 38.5 -16t15.5 -39t-15.5 -39t-38.5 -16q-24 0 -39 15.5z
M357.5 604q-15.5 16 -15.5 39t15.5 39t38.5 16q24 0 39 -15.5t15 -39.5t-15 -39.5t-39 -15.5q-23 0 -38.5 16z" />
    <glyph glyph-name="yacute" unicode="&#xfd;" 
d="M67 -207l17 65q23 -7 44 -7q49 0 81 29t53 82l14 36l-227 512h83l119 -287q11 -25 20.5 -49.5t19.5 -47.5q4 -11 9 -23.5t11 -26.5h4l18 50q16 47 34 97l106 287h78l-213 -552q-32 -82 -81 -128.5t-126 -46.5q-36 0 -64 10zM310 721h90l-117 -148h-63z" />
    <glyph glyph-name="thorn" unicode="&#xfe;" 
d="M93 660h82v-125l-2 -92q36 37 79 58t85 21q97 0 150 -69.5t53 -190.5q0 -83 -30.5 -145.5t-81.5 -96t-109 -33.5q-35 0 -73 18t-72 49l1 -97v-162h-82v865zM382 81q34 25 53.5 72t19.5 109q0 89 -34 140t-104 51q-68 0 -142 -78v-257q32 -31 67 -46.5t63 -15.5
q43 0 77 25z" />
    <glyph glyph-name="ydieresis" unicode="&#xff;" 
d="M67 -207l17 65q23 -7 44 -7q49 0 81 29t53 82l14 36l-227 512h83l119 -287q11 -25 20.5 -49.5t19.5 -47.5q4 -11 9 -23.5t11 -26.5h4l18 50q16 47 34 97l106 287h78l-213 -552q-32 -82 -81 -128.5t-126 -46.5q-36 0 -64 10zM175 603.5q-15 15.5 -15 39.5t15 39.5t39 15.5
q23 0 38.5 -16t15.5 -39t-15.5 -39t-38.5 -16q-24 0 -39 15.5zM367.5 604q-15.5 16 -15.5 39t15.5 39t38.5 16q24 0 39 -15.5t15 -39.5t-15 -39.5t-39 -15.5q-23 0 -38.5 16z" />
    <glyph glyph-name="Amacron" unicode="&#x100;" 
d="M176 791h248v-57h-248v57zM253 660h94l221 -660h-88l-62 202h-238l-63 -202h-85zM397 269l-31 101q-33 106 -65 222h-4q-32 -116 -65 -222l-31 -101h196z" />
    <glyph glyph-name="amacron" unicode="&#x101;" 
d="M128 26q-47 39 -47 105q0 58 36 96.5t112.5 61.5t203.5 34q-2 58 -32.5 94.5t-96.5 36.5q-78 0 -150 -62l-32 57q35 30 86.5 51.5t109.5 21.5q97 0 147 -55.5t50 -152.5v-314h-67l-7 70h-3q-45 -37 -94.5 -60t-97.5 -23q-71 0 -118 39zM433 131v137q-150 -13 -211 -45
t-61 -86q0 -42 30.5 -63t76.5 -21q79 0 165 78zM195 658h246v-57h-246v57z" />
    <glyph glyph-name="Abreve" unicode="&#x102;" 
d="M213.5 744q-30.5 32 -36.5 79h50q5 -27 23.5 -45.5t49.5 -18.5t49.5 18.5t23.5 45.5h50q-6 -47 -36.5 -79t-86.5 -32t-86.5 32zM253 660h94l221 -660h-88l-62 202h-238l-63 -202h-85zM397 269l-31 101q-36 117 -65 222h-4q-29 -105 -65 -222l-31 -101h196z" />
    <glyph glyph-name="abreve" unicode="&#x103;" 
d="M128 26q-47 39 -47 105q0 58 36 96.5t112.5 61.5t203.5 34q-2 58 -32.5 94.5t-96.5 36.5q-78 0 -150 -62l-32 57q35 30 86.5 51.5t109.5 21.5q97 0 147 -55.5t50 -152.5v-314h-67l-7 70h-3q-45 -37 -94.5 -60t-97.5 -23q-71 0 -118 39zM433 131v137q-150 -13 -211 -45
t-61 -86q0 -42 30.5 -63t76.5 -21q79 0 165 78zM224.5 615q-32.5 40 -36.5 94h51q5 -36 25 -59.5t54 -23.5t54 23.5t25 59.5h51q-4 -54 -36.5 -94t-93.5 -40t-93.5 40z" />
    <glyph glyph-name="Aogonek" unicode="&#x104;" 
d="M451 -190q-27 23 -27 64q0 38 22.5 72t52.5 54h-19l-62 202h-238l-63 -202h-85l221 660h94l221 -660q-34 -14 -57 -45t-23 -63q0 -22 13.5 -34t32.5 -12q23 0 42 14l23 -45q-15 -12 -37.5 -20t-42.5 -8q-41 0 -68 23zM397 269l-31 101q-36 117 -65 222h-4
q-29 -105 -65 -222l-31 -101h196z" />
    <glyph glyph-name="aogonek" unicode="&#x105;" 
d="M540 -179q-14 -11 -37 -19t-42 -8q-39 0 -64.5 22.5t-25.5 62.5q0 37 21 69.5t50 54.5h6l-7 67h-3q-45 -37 -94.5 -60t-97.5 -23q-71 0 -118 39t-47 105q0 58 36 96.5t112.5 61.5t203.5 34q-2 58 -32.5 94.5t-96.5 36.5q-78 0 -150 -62l-32 57q35 30 86.5 51.5
t109.5 21.5q97 0 147 -55.5t50 -152.5v-314h-19q-64 -48 -64 -105q0 -22 13.5 -34t32.5 -12q22 0 40 13zM433 268q-150 -13 -211 -45t-61 -86q0 -42 30.5 -63t76.5 -21q79 0 165 78v137z" />
    <glyph glyph-name="Cacute" unicode="&#x106;" 
d="M384 823h94l-113 -113h-69zM205.5 29q-65.5 41 -102.5 118.5t-37 182.5q0 104 37.5 181.5t104 119t151.5 41.5q55 0 101 -22.5t78 -57.5l-47 -53q-57 60 -132 60q-63 0 -109.5 -32.5t-72 -93t-25.5 -141.5q0 -82 25.5 -143.5t72 -94.5t109.5 -33q44 0 79 18t68 55l48 -51
q-82 -95 -200 -95q-83 0 -148.5 41z" />
    <glyph glyph-name="cacute" unicode="&#x107;" 
d="M209.5 19q-60.5 32 -95 92t-34.5 143t36.5 143.5t98 92.5t136.5 32q104 0 177 -75l-41 -53q-63 60 -133 60q-55 0 -98 -25t-67 -70.5t-24 -104.5q0 -89 51.5 -144t135.5 -55q77 0 151 65l36 -53q-40 -38 -90 -59t-103 -21q-76 0 -136.5 32zM330 721h90l-117 -148h-63z
" />
    <glyph glyph-name="Ccircumflex" unicode="&#x108;" 
d="M307 823h80l96 -113h-67l-67 69h-4l-67 -69h-67zM205.5 29q-65.5 41 -102.5 118.5t-37 182.5q0 104 37.5 181.5t104 119t151.5 41.5q55 0 101 -22.5t78 -57.5l-47 -53q-57 60 -132 60q-63 0 -109.5 -32.5t-72 -93t-25.5 -141.5q0 -82 25.5 -143.5t72 -94.5t109.5 -33
q44 0 79 18t68 55l48 -51q-82 -95 -200 -95q-83 0 -148.5 41z" />
    <glyph glyph-name="ccircumflex" unicode="&#x109;" 
d="M209.5 19q-60.5 32 -95 92t-34.5 143t36.5 143.5t98 92.5t136.5 32q104 0 177 -75l-41 -53q-63 60 -133 60q-55 0 -98 -25t-67 -70.5t-24 -104.5q0 -89 51.5 -144t135.5 -55q77 0 151 65l36 -53q-40 -38 -90 -59t-103 -21q-76 0 -136.5 32zM295 721h70l97 -148h-63
l-67 99h-4l-67 -99h-63z" />
    <glyph glyph-name="Cdotaccent" unicode="&#x10a;" 
d="M306.5 733.5q-16.5 15.5 -16.5 39.5q0 23 16.5 38t40.5 15t40.5 -15t16.5 -38q0 -24 -16.5 -39.5t-40.5 -15.5t-40.5 15.5zM205.5 29q-65.5 41 -102.5 118.5t-37 182.5q0 104 37.5 181.5t104 119t151.5 41.5q55 0 101 -22.5t78 -57.5l-47 -53q-57 60 -132 60
q-63 0 -109.5 -32.5t-72 -93t-25.5 -141.5q0 -82 25.5 -143.5t72 -94.5t109.5 -33q44 0 79 18t68 55l48 -51q-82 -95 -200 -95q-83 0 -148.5 41z" />
    <glyph glyph-name="cdotaccent" unicode="&#x10b;" 
d="M209.5 19q-60.5 32 -95 92t-34.5 143t36.5 143.5t98 92.5t136.5 32q104 0 177 -75l-41 -53q-63 60 -133 60q-55 0 -98 -25t-67 -70.5t-24 -104.5q0 -89 51.5 -144t135.5 -55q77 0 151 65l36 -53q-40 -38 -90 -59t-103 -21q-76 0 -136.5 32zM280 643.5q-20 19.5 -20 49.5
q0 31 20 51t50 20t50 -20t20 -51q0 -30 -20 -49.5t-50 -19.5t-50 19.5z" />
    <glyph glyph-name="Ccaron" unicode="&#x10c;" 
d="M211 823h67l67 -69h4l67 69h67l-96 -113h-80zM205.5 29q-65.5 41 -102.5 118.5t-37 182.5q0 104 37.5 181.5t104 119t151.5 41.5q55 0 101 -22.5t78 -57.5l-47 -53q-57 60 -132 60q-63 0 -109.5 -32.5t-72 -93t-25.5 -141.5q0 -82 25.5 -143.5t72 -94.5t109.5 -33
q44 0 79 18t68 55l48 -51q-82 -95 -200 -95q-83 0 -148.5 41z" />
    <glyph glyph-name="ccaron" unicode="&#x10d;" 
d="M209.5 19q-60.5 32 -95 92t-34.5 143t36.5 143.5t98 92.5t136.5 32q104 0 177 -75l-41 -53q-63 60 -133 60q-55 0 -98 -25t-67 -70.5t-24 -104.5q0 -89 51.5 -144t135.5 -55q77 0 151 65l36 -53q-40 -38 -90 -59t-103 -21q-76 0 -136.5 32zM198 721h63l67 -99h4l67 99h63
l-97 -148h-70z" />
    <glyph glyph-name="Dcaron" unicode="&#x10e;" 
d="M163 823h67l67 -69h4l66 69h67l-96 -113h-79zM85 660h160q148 0 226 -85t78 -242q0 -158 -77.5 -245.5t-222.5 -87.5h-164v660zM240 68q110 0 166.5 69t56.5 196q0 126 -56 192.5t-167 66.5h-72v-524h72z" />
    <glyph glyph-name="dcaron" unicode="&#x10f;" 
d="M537 776h59l-1 -59l-14 -163h-40zM107 57.5q-57 70.5 -57 196.5q0 80 30.5 141t81.5 94t109 33q42 0 76.5 -16.5t70.5 -50.5l-3 96v176h82v-727h-68l-7 68h-3q-33 -35 -74.5 -58t-83.5 -23q-97 0 -154 70.5zM415 135v257q-61 61 -128 61q-42 0 -76.5 -25t-55 -70.5
t-20.5 -102.5q0 -93 38 -146t105 -53q72 0 137 79z" />
    <glyph glyph-name="Dcroat" unicode="&#x110;" 
d="M91 323h-75v42l75 5v290h161q147 0 225 -85t78 -242q0 -158 -78 -245.5t-222 -87.5h-164v323zM246 68q110 0 166.5 69t56.5 196q0 126 -56 192.5t-167 66.5h-72v-222h143v-47h-143v-255h72z" />
    <glyph glyph-name="dcroat" unicode="&#x111;" 
d="M117 54.5q-57 67.5 -57 188.5q0 77 30.5 136t81.5 90.5t109 31.5q42 0 76.5 -16.5t70.5 -50.5l-3 96v50h-174v48h174v99h82v-99h72v-43l-72 -6v-579h-68l-7 68h-3q-33 -35 -74.5 -58t-83.5 -23q-97 0 -154 67.5zM425 135v236q-61 61 -127 61q-42 0 -77 -24t-55.5 -67
t-20.5 -97q0 -88 38 -138t105 -50q72 0 137 79z" />
    <glyph glyph-name="Emacron" unicode="&#x112;" 
d="M207 791h248v-57h-248v57zM115 660h405v-70h-321v-208h271v-71h-271v-240h331v-71h-415v660z" />
    <glyph glyph-name="emacron" unicode="&#x113;" 
d="M197.5 19.5q-59.5 32.5 -94 93t-34.5 141.5q0 80 34.5 141t91.5 94t121 33q103 0 162 -65t59 -174q0 -28 -3 -48h-380q3 -82 54.5 -131.5t131.5 -49.5q41 0 76.5 12t71.5 36l29 -55q-90 -60 -187 -60q-73 0 -132.5 32.5zM461 295q0 77 -38 119.5t-106 42.5
q-61 0 -108 -44t-56 -118h308zM193 658h246v-57h-246v57z" />
    <glyph glyph-name="Ebreve" unicode="&#x114;" 
d="M244 744q-31 32 -36 79h50q5 -27 23 -45.5t50 -18.5q31 0 49 18.5t23 45.5h51q-6 -47 -36.5 -79t-86.5 -32t-87 32zM115 660h405v-70h-321v-208h271v-71h-271v-240h331v-71h-415v660z" />
    <glyph glyph-name="ebreve" unicode="&#x115;" 
d="M197.5 19.5q-59.5 32.5 -94 93t-34.5 141.5q0 80 34.5 141t91.5 94t121 33q103 0 162 -65t59 -174q0 -28 -3 -48h-380q3 -82 54.5 -131.5t131.5 -49.5q41 0 76.5 12t71.5 36l29 -55q-90 -60 -187 -60q-73 0 -132.5 32.5zM461 295q0 77 -38 119.5t-106 42.5
q-61 0 -108 -44t-56 -118h308zM222.5 615q-32.5 40 -36.5 94h51q5 -36 25 -59.5t54 -23.5t54 23.5t25 59.5h51q-4 -54 -36.5 -94t-93.5 -40t-93.5 40z" />
    <glyph glyph-name="Edotaccent" unicode="&#x116;" 
d="M290.5 733.5q-16.5 15.5 -16.5 39.5q0 23 16.5 38t40.5 15t40 -15t16 -38q0 -24 -16 -39.5t-40 -15.5t-40.5 15.5zM115 660h405v-70h-321v-208h271v-71h-271v-240h331v-71h-415v660z" />
    <glyph glyph-name="edotaccent" unicode="&#x117;" 
d="M197.5 19.5q-59.5 32.5 -94 93t-34.5 141.5q0 80 34.5 141t91.5 94t121 33q103 0 162 -65t59 -174q0 -28 -3 -48h-380q3 -82 54.5 -131.5t131.5 -49.5q41 0 76.5 12t71.5 36l29 -55q-90 -60 -187 -60q-73 0 -132.5 32.5zM461 295q0 77 -38 119.5t-106 42.5
q-61 0 -108 -44t-56 -118h308zM266 643.5q-20 19.5 -20 49.5q0 31 20 51t50 20t50 -20t20 -51q0 -30 -20 -49.5t-50 -19.5t-50 19.5z" />
    <glyph glyph-name="Eogonek" unicode="&#x118;" 
d="M397 -190q-27 23 -27 64q0 39 22 72.5t53 53.5h-330v660h405v-70h-321v-208h271v-71h-271v-240h331v-71h-4q-35 -5 -63 -37t-28 -71q0 -22 14 -34t33 -12q21 0 41 14l22 -45q-15 -12 -37.5 -20t-42.5 -8q-41 0 -68 23z" />
    <glyph glyph-name="eogonek" unicode="&#x119;" 
d="M534 235h-380q3 -82 54.5 -131.5t131.5 -49.5q41 0 76.5 12t71.5 36l29 -55q-51 -33 -103 -49q-30 -23 -46 -49.5t-16 -53.5q0 -22 13.5 -34t32.5 -12q22 0 40 13l22 -41q-14 -11 -37 -19t-42 -8q-39 0 -64.5 22.5t-25.5 62.5q0 31 15 58.5t38 49.5h-14
q-73 0 -132.5 32.5t-94 93t-34.5 141.5q0 80 34.5 141t91.5 94t121 33q103 0 162 -65t59 -174q0 -28 -3 -48zM461 295q0 77 -38 119.5t-106 42.5q-61 0 -108 -44t-56 -118h308z" />
    <glyph glyph-name="Ecaron" unicode="&#x11a;" 
d="M195 823h67l67 -69h4l67 69h66l-96 -113h-79zM115 660h405v-70h-321v-208h271v-71h-271v-240h331v-71h-415v660z" />
    <glyph glyph-name="ecaron" unicode="&#x11b;" 
d="M197.5 19.5q-59.5 32.5 -94 93t-34.5 141.5q0 80 34.5 141t91.5 94t121 33q103 0 162 -65t59 -174q0 -28 -3 -48h-380q3 -82 54.5 -131.5t131.5 -49.5q41 0 76.5 12t71.5 36l29 -55q-90 -60 -187 -60q-73 0 -132.5 32.5zM461 295q0 77 -38 119.5t-106 42.5
q-61 0 -108 -44t-56 -118h308zM184 721h63l67 -99h4l67 99h63l-97 -148h-70z" />
    <glyph glyph-name="Gcircumflex" unicode="&#x11c;" 
d="M292 823h79l96 -113h-67l-67 69h-4l-67 -69h-66zM189.5 29q-64.5 41 -100.5 118.5t-36 182.5t37 182t103 118.5t151 41.5q105 0 181 -80l-47 -53q-27 29 -58.5 44.5t-75.5 15.5q-61 0 -107 -32.5t-71.5 -93t-25.5 -141.5q0 -126 53 -198.5t149 -72.5q34 0 64.5 10.5
t49.5 28.5v173h-131v69h208v-278q-34 -34 -84.5 -55t-111.5 -21q-83 0 -147.5 41z" />
    <glyph glyph-name="gcircumflex" unicode="&#x11d;" 
d="M178 -206q-49 21 -93 73l40 50q34 -44 73 -61t82 -17q73 0 109.5 37.5t37.5 123.5l1 81q-30 -33 -72.5 -54.5t-85.5 -21.5q-62 0 -109.5 31t-74 89t-26.5 137q0 77 30.5 136.5t81.5 91.5t110 32q80 0 149 -69h3l7 57h66v-510q0 -110 -59 -168.5t-168 -58.5q-53 0 -102 21
zM425 151v241q-61 61 -129 61q-41 0 -76 -24.5t-55.5 -68t-20.5 -97.5q0 -87 38.5 -138.5t105.5 -51.5q70 0 137 78zM265 721h70l97 -148h-63l-67 99h-4l-67 -99h-63z" />
    <glyph glyph-name="Gbreve" unicode="&#x11e;" 
d="M244.5 744q-30.5 32 -36.5 79h51q5 -27 23 -45.5t49 -18.5t49.5 18.5t23.5 45.5h50q-5 -47 -36 -79t-87 -32t-86.5 32zM189.5 29q-64.5 41 -100.5 118.5t-36 182.5t37 182t103 118.5t151 41.5q105 0 181 -80l-47 -53q-27 29 -58.5 44.5t-75.5 15.5q-61 0 -107 -32.5
t-71.5 -93t-25.5 -141.5q0 -126 53 -198.5t149 -72.5q34 0 64.5 10.5t49.5 28.5v173h-131v69h208v-278q-34 -34 -84.5 -55t-111.5 -21q-83 0 -147.5 41z" />
    <glyph glyph-name="gbreve" unicode="&#x11f;" 
d="M178 -206q-49 21 -93 73l40 50q34 -44 73 -61t82 -17q73 0 109.5 37.5t37.5 123.5l1 81q-30 -33 -72.5 -54.5t-85.5 -21.5q-62 0 -109.5 31t-74 89t-26.5 137q0 77 30.5 136.5t81.5 91.5t110 32q80 0 149 -69h3l7 57h66v-510q0 -110 -59 -168.5t-168 -58.5q-53 0 -102 21
zM425 151v241q-61 61 -129 61q-41 0 -76 -24.5t-55.5 -68t-20.5 -97.5q0 -87 38.5 -138.5t105.5 -51.5q70 0 137 78zM206.5 615q-32.5 40 -36.5 94h51q5 -36 25 -59.5t54 -23.5t54 23.5t25 59.5h51q-4 -54 -36.5 -94t-93.5 -40t-93.5 40z" />
    <glyph glyph-name="Gdotaccent" unicode="&#x120;" 
d="M290.5 733.5q-16.5 15.5 -16.5 39.5q0 23 16.5 38t40.5 15t40.5 -15t16.5 -38q0 -24 -16.5 -39.5t-40.5 -15.5t-40.5 15.5zM189.5 29q-64.5 41 -100.5 118.5t-36 182.5t37 182t103 118.5t151 41.5q105 0 181 -80l-47 -53q-27 29 -58.5 44.5t-75.5 15.5q-61 0 -107 -32.5
t-71.5 -93t-25.5 -141.5q0 -126 53 -198.5t149 -72.5q34 0 64.5 10.5t49.5 28.5v173h-131v69h208v-278q-34 -34 -84.5 -55t-111.5 -21q-83 0 -147.5 41z" />
    <glyph glyph-name="gdotaccent" unicode="&#x121;" 
d="M178 -206q-49 21 -93 73l40 50q34 -44 73 -61t82 -17q73 0 109.5 37.5t37.5 123.5l1 81q-30 -33 -72.5 -54.5t-85.5 -21.5q-62 0 -109.5 31t-74 89t-26.5 137q0 77 30.5 136.5t81.5 91.5t110 32q80 0 149 -69h3l7 57h66v-510q0 -110 -59 -168.5t-168 -58.5q-53 0 -102 21
zM425 151v241q-61 61 -129 61q-41 0 -76 -24.5t-55.5 -68t-20.5 -97.5q0 -87 38.5 -138.5t105.5 -51.5q70 0 137 78zM250 643.5q-20 19.5 -20 49.5q0 31 20 51t50 20t50 -20t20 -51q0 -30 -20 -49.5t-50 -19.5t-50 19.5z" />
    <glyph glyph-name="Hcircumflex" unicode="&#x124;" 
d="M260 823h79l96 -113h-66l-67 69h-4l-67 -69h-67zM79 660h84v-277h274v277h84v-660h-84v311h-274v-311h-84v660z" />
    <glyph glyph-name="hcircumflex" unicode="&#x125;" 
d="M106 881h79l96 -116h-67l-67 72h-4l-67 -72h-66zM93 727h82v-184l-4 -122q44 49 87.5 75t96.5 26q168 0 168 -205v-317h-82v306q0 75 -26.5 110t-85.5 35q-41 0 -74.5 -22t-79.5 -73v-356h-82v727z" />
    <glyph glyph-name="Hbar" unicode="&#x126;" 
d="M79 495h-69v42l69 5v118h84v-118h274v118h84v-118h69v-47h-69v-495h-84v311h-274v-311h-84v495zM437 383v112h-274v-112h274z" />
    <glyph glyph-name="hbar" unicode="&#x127;" 
d="M93 580h-73v43l73 5v99h82v-99h212v-48h-212v-58l-4 -122q44 49 87.5 75t96.5 26q168 0 168 -205v-296h-82v285q0 75 -26.5 110t-85.5 35q-41 0 -74.5 -22t-79.5 -73v-335h-82v580z" />
    <glyph glyph-name="Itilde" unicode="&#x128;" 
d="M182.5 794q22.5 30 57.5 30q19 0 34.5 -8t35.5 -22q17 -12 27.5 -17.5t21.5 -5.5q14 0 25 14.5t15 38.5h46q-5 -47 -27.5 -78t-57.5 -31q-19 0 -34.5 8t-35.5 22q-17 12 -27.5 17.5t-21.5 5.5q-15 0 -25.5 -13.5t-14.5 -39.5h-46q5 49 27.5 79zM95 71h163v519h-163v70
h410v-70h-163v-519h163v-71h-410v71z" />
    <glyph glyph-name="itilde" unicode="&#x129;" 
d="M100 68h189v375h-189v67h271v-442h189v-68h-460v68zM206 658.5q22 29.5 60 29.5q17 0 32 -8t34 -23q15 -12 24.5 -17.5t18.5 -5.5q31 0 40 54h47q-6 -49 -28 -79t-60 -30q-18 0 -32 8t-33 24q-15 12 -24.5 17.5t-19.5 5.5q-31 0 -40 -55h-47q6 50 28 79.5z" />
    <glyph glyph-name="Imacron" unicode="&#x12a;" 
d="M176 791h248v-57h-248v57zM95 71h163v519h-163v70h410v-70h-163v-519h163v-71h-410v71z" />
    <glyph glyph-name="imacron" unicode="&#x12b;" 
d="M100 68h189v375h-189v67h271v-442h189v-68h-460v68zM197 658h246v-57h-246v57z" />
    <glyph glyph-name="Ibreve" unicode="&#x12c;" 
d="M213.5 744q-30.5 32 -36.5 79h50q5 -27 23.5 -45.5t49.5 -18.5t49.5 18.5t23.5 45.5h50q-6 -47 -36.5 -79t-86.5 -32t-86.5 32zM95 71h163v519h-163v70h410v-70h-163v-519h163v-71h-410v71z" />
    <glyph glyph-name="ibreve" unicode="&#x12d;" 
d="M100 68h189v375h-189v67h271v-442h189v-68h-460v68zM226.5 615q-32.5 40 -36.5 94h51q5 -36 25 -59.5t54 -23.5t54 23.5t25 59.5h51q-4 -54 -36.5 -94t-93.5 -40t-93.5 40z" />
    <glyph glyph-name="Iogonek" unicode="&#x12e;" 
d="M239 -190q-27 23 -27 64q0 39 18 69t48 57h-183v71h163v519h-163v70h410v-70h-163v-519h163v-71h-163q-66 -50 -66 -108q0 -22 14 -34t34 -12q23 0 40 14l23 -45q-15 -12 -37.5 -20t-42.5 -8q-41 0 -68 23z" />
    <glyph glyph-name="iogonek" unicode="&#x12f;" 
d="M270 643.5q-20 19.5 -20 49.5q0 31 20 51t50 20t50 -20t20 -51q0 -30 -20 -49.5t-50 -19.5t-50 19.5zM310 -105q0 -22 13.5 -34t32.5 -12q22 0 40 13l22 -41q-14 -11 -37 -19t-42 -8q-39 0 -64.5 22.5t-25.5 62.5q0 36 19.5 67t47.5 54h-216v68h189v375h-189v67h271v-442
h189v-68h-186q-64 -48 -64 -105z" />
    <glyph glyph-name="Idotaccent" unicode="&#x130;" 
d="M259.5 733.5q-16.5 15.5 -16.5 39.5q0 23 16.5 38t40.5 15t40.5 -15t16.5 -38q0 -24 -16.5 -39.5t-40.5 -15.5t-40.5 15.5zM95 71h163v519h-163v70h410v-70h-163v-519h163v-71h-410v71z" />
    <glyph glyph-name="dotlessi" unicode="&#x131;" 
d="M100 68h189v375h-189v67h271v-442h189v-68h-460v68z" />
    <glyph glyph-name="Jcircumflex" unicode="&#x134;" 
d="M281 823h79l96 -113h-66l-67 69h-4l-67 -69h-67zM165 15.5q-52 27.5 -84 82.5l54 50q28 -43 64 -65t75 -22q71 0 103.5 37.5t32.5 119.5v373h-275v70h358v-450q0 -101 -51 -162t-166 -61q-59 0 -111 27.5z" />
    <glyph glyph-name="jcircumflex" unicode="&#x135;" 
d="M55 -183l27 61q58 -28 111 -28q71 0 97 32t26 108v453h-226v67h308v-513q0 -102 -46.5 -158t-157.5 -56q-73 0 -139 34zM313 721h70l97 -148h-63l-67 99h-4l-67 -99h-63z" />
    <glyph glyph-name="kgreenlandic" unicode="&#x138;" 
d="M106 510h82v-273l3 1l263 272h94l-194 -202l220 -308h-92l-179 255l-115 -118v-137h-82v510z" />
    <glyph glyph-name="Lacute" unicode="&#x139;" 
d="M227 823h94l-113 -113h-69zM134 660h82v-589h325v-71h-407v660z" />
    <glyph glyph-name="lacute" unicode="&#x13a;" 
d="M313 892h94l-113 -116h-69zM287.5 33q-40.5 46 -40.5 136v491h-166v67h248v-564q0 -55 25 -81.5t70 -26.5q39 0 92 25l21 -62q-43 -17 -69.5 -24t-61.5 -7q-78 0 -118.5 46z" />
    <glyph glyph-name="Lcaron" unicode="&#x13d;" 
d="M386 731h59l-1 -57l-14 -156h-41zM134 661h82v-590h325v-71h-407v661z" />
    <glyph glyph-name="lcaron" unicode="&#x13e;" 
d="M398 776h59l-1 -59l-14 -163h-40zM287.5 33q-40.5 46 -40.5 136v491h-166v67h248v-564q0 -55 25 -81.5t70 -26.5q39 0 92 25l21 -62q-43 -17 -69.5 -24t-61.5 -7q-78 0 -118.5 46z" />
    <glyph glyph-name="Ldot" unicode="&#x13f;" 
d="M134 660h82v-589h325v-71h-407v660zM383.5 303.5q-18.5 17.5 -18.5 45.5q0 29 18.5 46.5t46.5 17.5q29 0 47.5 -17.5t18.5 -46.5q0 -28 -18.5 -45.5t-47.5 -17.5q-28 0 -46.5 17.5z" />
    <glyph glyph-name="ldot" unicode="&#x140;" 
d="M248.5 33q-40.5 46 -40.5 136v491h-166v67h248v-564q0 -55 25 -81.5t71 -26.5q38 0 91 25l21 -62q-43 -17 -69.5 -24t-61.5 -7q-78 0 -118.5 46zM390 316.5q-19 17.5 -19 46.5t19 47t47 18q29 0 47.5 -17.5t18.5 -47.5q0 -29 -18.5 -46.5t-47.5 -17.5q-28 0 -47 17.5z
" />
    <glyph glyph-name="Lslash" unicode="&#x141;" 
d="M134 229l-81 -44v67l81 45v363h82v-323l226 120v-68l-226 -120v-198h325v-71h-407v229z" />
    <glyph glyph-name="lslash" unicode="&#x142;" 
d="M287.5 33q-40.5 46 -40.5 136v183l-124 -75v71l124 75v237h-166v67h248v-261l163 96v-71l-163 -97v-231q0 -55 25 -81.5t70 -26.5q39 0 92 25l21 -62q-43 -17 -69.5 -24t-61.5 -7q-78 0 -118.5 46z" />
    <glyph glyph-name="Nacute" unicode="&#x143;" 
d="M343 823h94l-113 -113h-69zM83 660h85l213 -417l66 -135h2q-1 20 -5 74q-6 90 -6 135v343h79v-660h-85l-213 417l-66 135h-2q1 -25 5 -77q6 -86 6 -129v-346h-79v660z" />
    <glyph glyph-name="nacute" unicode="&#x144;" 
d="M93 510h68l7 -89h4q43 48 86.5 74.5t96.5 26.5q168 0 168 -205v-317h-82v306q0 75 -26.5 110t-85.5 35q-41 0 -74.5 -22t-79.5 -73v-356h-82v510zM310 721h90l-117 -148h-63z" />
    <glyph glyph-name="Ncaron" unicode="&#x147;" 
d="M170 823h67l67 -69h4l67 69h67l-96 -113h-80zM83 660h85l213 -417l66 -135h2q-1 20 -5 74q-6 90 -6 135v343h79v-660h-85l-213 417l-66 135h-2q1 -25 5 -77q6 -86 6 -129v-346h-79v660z" />
    <glyph glyph-name="ncaron" unicode="&#x148;" 
d="M93 510h68l7 -89h4q43 48 86.5 74.5t96.5 26.5q168 0 168 -205v-317h-82v306q0 75 -26.5 110t-85.5 35q-41 0 -74.5 -22t-79.5 -73v-356h-82v510zM178 721h63l67 -99h4l67 99h63l-97 -148h-70z" />
    <glyph glyph-name="Omacron" unicode="&#x14c;" 
d="M176 791h248v-57h-248v57zM169 30q-57 42 -89 120.5t-32 182.5t32 180.5t89 117.5t131 41t131 -41t89 -118t32 -180q0 -104 -32 -182.5t-89 -120.5t-131 -42t-131 42zM387.5 94.5q37.5 33.5 58 95t20.5 143.5q0 81 -20.5 141t-58 92.5t-87.5 32.5t-87.5 -32.5t-58 -92.5
t-20.5 -141q0 -82 20.5 -143.5t58 -95t87.5 -33.5t87.5 33.5z" />
    <glyph glyph-name="omacron" unicode="&#x14d;" 
d="M180 19q-55 32 -87.5 92.5t-32.5 142.5q0 83 32.5 143.5t87.5 92.5t120 32t120 -32t87.5 -92.5t32.5 -143.5q0 -82 -32.5 -142.5t-87.5 -92.5t-120 -32t-120 32zM412.5 110q42.5 55 42.5 144t-42.5 144.5t-112.5 55.5t-112.5 -55.5t-42.5 -144.5t42.5 -144t112.5 -55
t112.5 55zM177 658h246v-57h-246v57z" />
    <glyph glyph-name="Obreve" unicode="&#x14e;" 
d="M213.5 744q-30.5 32 -36.5 79h50q5 -27 23.5 -45.5t49.5 -18.5t49.5 18.5t23.5 45.5h50q-6 -47 -36.5 -79t-86.5 -32t-86.5 32zM169 30q-57 42 -89 120.5t-32 182.5t32 180.5t89 117.5t131 41t131 -41t89 -118t32 -180q0 -104 -32 -182.5t-89 -120.5t-131 -42t-131 42z
M387.5 94.5q37.5 33.5 58 95t20.5 143.5q0 81 -20.5 141t-58 92.5t-87.5 32.5t-87.5 -32.5t-58 -92.5t-20.5 -141q0 -82 20.5 -143.5t58 -95t87.5 -33.5t87.5 33.5z" />
    <glyph glyph-name="obreve" unicode="&#x14f;" 
d="M180 19q-55 32 -87.5 92.5t-32.5 142.5q0 83 32.5 143.5t87.5 92.5t120 32t120 -32t87.5 -92.5t32.5 -143.5q0 -82 -32.5 -142.5t-87.5 -92.5t-120 -32t-120 32zM412.5 110q42.5 55 42.5 144t-42.5 144.5t-112.5 55.5t-112.5 -55.5t-42.5 -144.5t42.5 -144t112.5 -55
t112.5 55zM206.5 615q-32.5 40 -36.5 94h51q5 -36 25 -59.5t54 -23.5t54 23.5t25 59.5h51q-4 -54 -36.5 -94t-93.5 -40t-93.5 40z" />
    <glyph glyph-name="Ohungarumlaut" unicode="&#x150;" 
d="M257 823h77l-83 -113h-60zM415 823h77l-84 -113h-59zM169 30q-57 42 -89 120.5t-32 182.5t32 180.5t89 117.5t131 41t131 -41t89 -118t32 -180q0 -104 -32 -182.5t-89 -120.5t-131 -42t-131 42zM387.5 94.5q37.5 33.5 58 95t20.5 143.5q0 81 -20.5 141t-58 92.5
t-87.5 32.5t-87.5 -32.5t-58 -92.5t-20.5 -141q0 -82 20.5 -143.5t58 -95t87.5 -33.5t87.5 33.5z" />
    <glyph glyph-name="ohungarumlaut" unicode="&#x151;" 
d="M180 19q-55 32 -87.5 92.5t-32.5 142.5q0 83 32.5 143.5t87.5 92.5t120 32t120 -32t87.5 -92.5t32.5 -143.5q0 -82 -32.5 -142.5t-87.5 -92.5t-120 -32t-120 32zM412.5 110q42.5 55 42.5 144t-42.5 144.5t-112.5 55.5t-112.5 -55.5t-42.5 -144.5t42.5 -144t112.5 -55
t112.5 55zM225 714h73l-88 -143h-55zM373 714h72l-88 -143h-55z" />
    <glyph glyph-name="OE" unicode="&#x152;" 
d="M103 88q-70 88 -70 245t70.5 242.5t195.5 85.5h282v-70h-194v-209h148v-71h-148v-240h204v-71h-295q-123 0 -193 88zM310 68v524h-21q-85 0 -127.5 -66t-42.5 -193q0 -128 43 -196.5t127 -68.5h21z" />
    <glyph glyph-name="oe" unicode="&#x153;" 
d="M97 19q-40 32 -63 92.5t-23 143.5t23 143.5t63 92t90 31.5q46 0 81 -32.5t55 -92.5q43 125 133 125q66 0 103 -66.5t37 -165.5q0 -33 -3 -55h-241q4 -84 33.5 -133t82.5 -49q23 0 42 8t43 25l29 -54q-61 -45 -117 -45q-47 0 -83.5 31t-58.5 89q-21 -59 -55.5 -89.5
t-80.5 -30.5q-50 0 -90 32zM528 291q0 74 -18.5 120t-59.5 46q-43 0 -68 -44t-31 -122h177zM263 110q27 56 27 145t-27 144t-72 55q-50 0 -76.5 -54t-26.5 -145t26.5 -146t76.5 -55q45 0 72 56z" />
    <glyph glyph-name="Racute" unicode="&#x154;" 
d="M342 823h94l-114 -113h-69zM100 660h204q107 0 168 -43.5t61 -141.5q0 -75 -39 -122t-108 -65l167 -288h-95l-158 279h-117v-279h-83v660zM292 347q77 0 117.5 32t40.5 96q0 63 -39.5 90.5t-118.5 27.5h-109v-246h109z" />
    <glyph glyph-name="racute" unicode="&#x155;" 
d="M146 510h68l7 -122h3q39 63 95 98.5t122 35.5q57 0 96 -21l-19 -71q-27 10 -45 14t-45 4q-120 0 -200 -147v-301h-82v510zM300 721h90l-117 -148h-63z" />
    <glyph glyph-name="Rcaron" unicode="&#x158;" 
d="M169 823h67l67 -69h4l66 69h67l-96 -113h-79zM100 660h204q107 0 168 -43.5t61 -141.5q0 -75 -39 -122t-108 -65l167 -288h-95l-158 279h-117v-279h-83v660zM292 347q77 0 117.5 32t40.5 96q0 63 -39.5 90.5t-118.5 27.5h-109v-246h109z" />
    <glyph glyph-name="rcaron" unicode="&#x159;" 
d="M146 510h68l7 -122h3q39 63 95 98.5t122 35.5q57 0 96 -21l-19 -71q-27 10 -45 14t-45 4q-120 0 -200 -147v-301h-82v510zM168 721h63l67 -99h4l67 99h63l-97 -148h-70z" />
    <glyph glyph-name="Sacute" unicode="&#x15a;" 
d="M348 823h94l-113 -113h-69zM173.5 14q-61.5 26 -106.5 72l50 58q38 -39 87 -61t102 -22q69 0 107.5 29.5t38.5 78.5q0 32 -14.5 52.5t-36.5 33t-67 31.5l-94 41q-142 56 -142 170q0 50 27.5 90t76.5 62.5t111 22.5q60 0 112.5 -22t89.5 -59l-44 -54q-70 62 -158 62
q-60 0 -95 -26t-35 -71q0 -29 16.5 -49t38 -31.5t62.5 -29.5l92 -40q70 -31 107.5 -70t37.5 -106q0 -53 -28.5 -95.5t-81 -67.5t-122.5 -25t-131.5 26z" />
    <glyph glyph-name="sacute" unicode="&#x15b;" 
d="M182 9.5q-61 22.5 -110 57.5l40 54q44 -34 91.5 -51.5t109.5 -17.5q63 0 96.5 23t33.5 59q0 31 -35.5 54t-122.5 46q-82 21 -133.5 57.5t-51.5 86.5q0 63 53.5 103.5t150.5 40.5q52 0 104 -18t91 -46l-40 -54q-73 54 -155 54q-64 0 -92 -21t-28 -55q0 -30 38 -51t110 -40
q102 -27 148 -61.5t46 -90.5q0 -42 -25.5 -76.5t-74.5 -55t-116 -20.5t-128 22.5zM304 721h90l-117 -148h-63z" />
    <glyph glyph-name="Scircumflex" unicode="&#x15c;" 
d="M271 823h80l96 -113h-67l-67 69h-4l-67 -69h-67zM173.5 14q-61.5 26 -106.5 72l50 58q38 -39 87 -61t102 -22q69 0 107.5 29.5t38.5 78.5q0 32 -14.5 52.5t-36.5 33t-67 31.5l-94 41q-142 56 -142 170q0 50 27.5 90t76.5 62.5t111 22.5q60 0 112.5 -22t89.5 -59l-44 -54
q-70 62 -158 62q-60 0 -95 -26t-35 -71q0 -29 16.5 -49t38 -31.5t62.5 -29.5l92 -40q70 -31 107.5 -70t37.5 -106q0 -53 -28.5 -95.5t-81 -67.5t-122.5 -25t-131.5 26z" />
    <glyph glyph-name="scircumflex" unicode="&#x15d;" 
d="M182 9.5q-61 22.5 -110 57.5l40 54q44 -34 91.5 -51.5t109.5 -17.5q63 0 96.5 23t33.5 59q0 31 -35.5 54t-122.5 46q-82 21 -133.5 57.5t-51.5 86.5q0 63 53.5 103.5t150.5 40.5q52 0 104 -18t91 -46l-40 -54q-73 54 -155 54q-64 0 -92 -21t-28 -55q0 -30 38 -51t110 -40
q102 -27 148 -61.5t46 -90.5q0 -42 -25.5 -76.5t-74.5 -55t-116 -20.5t-128 22.5zM269 721h70l97 -148h-63l-67 99h-4l-67 -99h-63z" />
    <glyph glyph-name="Scedilla" unicode="&#x15e;" 
d="M223 -173q89 12 89 48q0 19 -16 30.5t-48 19.5l33 64q-63 4 -118 29.5t-96 67.5l50 58q38 -39 87 -61t102 -22q69 0 107.5 29.5t38.5 78.5q0 32 -14.5 52.5t-36.5 33t-67 31.5l-94 41q-142 56 -142 170q0 50 27.5 90t76.5 62.5t111 22.5q60 0 112.5 -22t89.5 -59l-44 -54
q-70 62 -158 62q-60 0 -95 -26t-35 -71q0 -29 16.5 -49t38 -31.5t62.5 -29.5l92 -40q70 -31 107.5 -70t37.5 -106q0 -75 -54.5 -127t-147.5 -60l-19 -39q60 -20 60 -72q0 -41 -41 -63.5t-104 -28.5z" />
    <glyph glyph-name="scedilla" unicode="&#x15f;" 
d="M475.5 36q-50.5 -42 -139.5 -48l-19 -38q28 -9 43.5 -25.5t15.5 -45.5q0 -41 -41 -63.5t-103 -28.5l-8 41q88 12 88 48q0 19 -15.5 30t-47.5 19l32 63q-59 5 -112.5 26.5t-96.5 52.5l40 54q44 -34 91.5 -51.5t109.5 -17.5q63 0 96.5 23t33.5 59q0 31 -35.5 54t-122.5 46
q-82 21 -133.5 57.5t-51.5 86.5q0 63 53.5 103.5t150.5 40.5q52 0 104 -18t91 -46l-40 -54q-73 54 -155 54q-64 0 -92 -21t-28 -55q0 -30 38 -51t110 -40q102 -27 148 -61.5t46 -90.5q0 -61 -50.5 -103z" />
    <glyph glyph-name="Scaron" unicode="&#x160;" 
d="M175 823h67l67 -69h4l67 69h67l-96 -113h-80zM173.5 14q-61.5 26 -106.5 72l50 58q38 -39 87 -61t102 -22q69 0 107.5 29.5t38.5 78.5q0 32 -14.5 52.5t-36.5 33t-67 31.5l-94 41q-142 56 -142 170q0 50 27.5 90t76.5 62.5t111 22.5q60 0 112.5 -22t89.5 -59l-44 -54
q-70 62 -158 62q-60 0 -95 -26t-35 -71q0 -29 16.5 -49t38 -31.5t62.5 -29.5l92 -40q70 -31 107.5 -70t37.5 -106q0 -53 -28.5 -95.5t-81 -67.5t-122.5 -25t-131.5 26z" />
    <glyph glyph-name="scaron" unicode="&#x161;" 
d="M182 9.5q-61 22.5 -110 57.5l40 54q44 -34 91.5 -51.5t109.5 -17.5q63 0 96.5 23t33.5 59q0 31 -35.5 54t-122.5 46q-82 21 -133.5 57.5t-51.5 86.5q0 63 53.5 103.5t150.5 40.5q52 0 104 -18t91 -46l-40 -54q-73 54 -155 54q-64 0 -92 -21t-28 -55q0 -30 38 -51t110 -40
q102 -27 148 -61.5t46 -90.5q0 -42 -25.5 -76.5t-74.5 -55t-116 -20.5t-128 22.5zM172 721h63l67 -99h4l67 99h63l-97 -148h-70z" />
    <glyph glyph-name="uni0162" unicode="&#x162;" 
d="M210 -173q89 12 89 48q0 19 -15.5 30t-48.5 20l38 75h-15v590h-216v70h516v-70h-216v-590h-14l-24 -50q59 -20 59 -72q0 -41 -41 -63.5t-104 -28.5z" />
    <glyph glyph-name="uni0163" unicode="&#x163;" 
d="M390.5 -75.5q15.5 -16.5 15.5 -45.5q0 -41 -41 -63.5t-103 -28.5l-8 41q88 12 88 48q0 19 -15.5 30t-47.5 19l37 73q-110 35 -110 199v246h-137v67h140v150l79 50v-200h239v-67h-239v-247q0 -72 27.5 -106.5t95.5 -34.5q61 0 117 23l18 -60q-80 -31 -153 -31q-19 0 -27 1
l-19 -38q28 -9 43.5 -25.5z" />
    <glyph glyph-name="Tcaron" unicode="&#x164;" 
d="M164 823h66l67 -69h4l67 69h67l-96 -113h-79zM258 590h-216v70h516v-70h-216v-590h-84v590z" />
    <glyph glyph-name="tcaron" unicode="&#x165;" 
d="M392 797h59l-1 -59l-14 -163h-40zM249.5 42q-43.5 55 -43.5 155v246h-137v67h140v150l79 50v-200h239v-67h-239v-247q0 -72 27.5 -106.5t95.5 -34.5q61 0 117 23l18 -60q-80 -31 -153 -31q-100 0 -143.5 55z" />
    <glyph glyph-name="Utilde" unicode="&#x168;" 
d="M182.5 794q22.5 30 57.5 30q19 0 34.5 -8t35.5 -22q17 -12 27.5 -17.5t21.5 -5.5q14 0 25 14.5t15 38.5h46q-5 -47 -27.5 -78t-57.5 -31q-19 0 -34.5 8t-35.5 22q-17 12 -27.5 17.5t-21.5 5.5q-15 0 -25.5 -13.5t-14.5 -39.5h-46q5 49 27.5 79zM138.5 51
q-59.5 63 -59.5 198v411h84v-412q0 -98 37 -142.5t101 -44.5t101.5 44.5t37.5 142.5v412h81v-411q0 -135 -59 -198t-161 -63q-103 0 -162.5 63z" />
    <glyph glyph-name="utilde" unicode="&#x169;" 
d="M118.5 39q-41.5 52 -41.5 154v317h83v-306q0 -76 26 -111t86 -35q41 0 75 22.5t76 74.5v355h82v-510h-67l-7 90h-4q-40 -49 -84 -76t-97 -27q-86 0 -127.5 52zM186 658.5q22 29.5 60 29.5q17 0 32 -8t34 -23q15 -12 24.5 -17.5t18.5 -5.5q31 0 40 54h47q-6 -49 -28 -79
t-60 -30q-18 0 -32 8t-33 24q-15 12 -24.5 17.5t-19.5 5.5q-31 0 -40 -55h-47q6 50 28 79.5z" />
    <glyph glyph-name="Umacron" unicode="&#x16a;" 
d="M176 791h248v-57h-248v57zM138.5 51q-59.5 63 -59.5 199v410h84v-412q0 -98 37 -142.5t101 -44.5t101.5 44.5t37.5 142.5v412h81v-410q0 -136 -59 -199t-161 -63q-103 0 -162.5 63z" />
    <glyph glyph-name="umacron" unicode="&#x16b;" 
d="M118.5 39q-41.5 52 -41.5 154v317h83v-306q0 -76 26 -111t86 -35q41 0 75 22.5t76 74.5v355h82v-510h-67l-7 90h-4q-40 -49 -84 -76t-97 -27q-86 0 -127.5 52zM177 658h246v-57h-246v57z" />
    <glyph glyph-name="Ubreve" unicode="&#x16c;" 
d="M213.5 744q-30.5 32 -36.5 79h50q5 -27 23.5 -45.5t49.5 -18.5t49.5 18.5t23.5 45.5h50q-6 -47 -36.5 -79t-86.5 -32t-86.5 32zM138.5 51q-59.5 63 -59.5 198v411h84v-412q0 -98 37 -142.5t101 -44.5t101.5 44.5t37.5 142.5v412h81v-411q0 -135 -59 -198t-161 -63
q-103 0 -162.5 63z" />
    <glyph glyph-name="ubreve" unicode="&#x16d;" 
d="M118.5 39q-41.5 52 -41.5 154v317h83v-306q0 -76 26 -111t86 -35q41 0 75 22.5t76 74.5v355h82v-510h-67l-7 90h-4q-40 -49 -84 -76t-97 -27q-86 0 -127.5 52zM206.5 615q-32.5 40 -36.5 94h51q5 -36 25 -59.5t54 -23.5t54 23.5t25 59.5h51q-4 -54 -36.5 -94t-93.5 -40
t-93.5 40z" />
    <glyph glyph-name="Uring" unicode="&#x16e;" 
d="M233 727q-26 24 -26 64t26 64.5t67 24.5q40 0 66.5 -24.5t26.5 -64.5t-26.5 -64t-66.5 -24q-41 0 -67 24zM333.5 753q13.5 14 13.5 38q0 23 -14 37.5t-33 14.5q-21 0 -34.5 -14t-13.5 -38t13.5 -38t34.5 -14q20 0 33.5 14zM138.5 51q-59.5 63 -59.5 198v411h84v-413
q0 -97 37 -141.5t101 -44.5t101.5 44.5t37.5 141.5v413h81v-411q0 -135 -59 -198t-161 -63q-103 0 -162.5 63z" />
    <glyph glyph-name="uring" unicode="&#x16f;" 
d="M118.5 39q-41.5 52 -41.5 154v317h83v-306q0 -76 26 -111t86 -35q41 0 75 22.5t76 74.5v355h82v-510h-67l-7 90h-4q-40 -49 -84 -76t-97 -27q-86 0 -127.5 52zM233 567.5q-26 25.5 -26 67.5q0 41 26 66.5t67 25.5t67 -25.5t26 -66.5q0 -42 -26 -67.5t-67 -25.5t-67 25.5z
M334.5 594.5q13.5 15.5 13.5 40.5q0 24 -13.5 39.5t-34.5 15.5t-34.5 -15.5t-13.5 -39.5q0 -25 13.5 -40.5t34.5 -15.5t34.5 15.5z" />
    <glyph glyph-name="Uhungarumlaut" unicode="&#x170;" 
d="M257 823h77l-83 -113h-60zM415 823h77l-84 -113h-59zM138.5 51q-59.5 63 -59.5 198v411h84v-412q0 -98 37 -142.5t101 -44.5t101.5 44.5t37.5 142.5v412h81v-411q0 -135 -59 -198t-161 -63q-103 0 -162.5 63z" />
    <glyph glyph-name="uhungarumlaut" unicode="&#x171;" 
d="M118.5 39q-41.5 52 -41.5 154v317h83v-306q0 -76 26 -111t86 -35q41 0 75 22.5t76 74.5v355h82v-510h-67l-7 90h-4q-40 -49 -84 -76t-97 -27q-86 0 -127.5 52zM225 714h73l-88 -143h-55zM373 714h72l-88 -143h-55z" />
    <glyph glyph-name="Uogonek" unicode="&#x172;" 
d="M258 -190q-27 23 -27 64q0 26 10 47t20.5 32.5t34.5 35.5q-108 1 -162.5 67.5t-54.5 192.5v411h84v-412q0 -98 36.5 -142.5t100.5 -44.5t102 44.5t38 142.5v412h81v-411q0 -187 -124 -244q-50 -23 -75.5 -53.5t-25.5 -59.5q0 -22 14 -34t33 -12q21 0 41 14l22 -45
q-15 -12 -37.5 -20t-41.5 -8q-42 0 -69 23z" />
    <glyph glyph-name="uogonek" unicode="&#x173;" 
d="M540 -179q-14 -11 -37 -19t-42 -8q-39 0 -64.5 22.5t-25.5 62.5q0 36 19.5 67t47.5 54l-7 90h-4q-40 -49 -84 -76t-97 -27q-86 0 -127.5 52t-41.5 154v317h83v-306q0 -76 26 -111t86 -35q41 0 75 22.5t76 74.5v355h82v-510h-9q-64 -48 -64 -105q0 -22 13.5 -34t32.5 -12
q22 0 40 13z" />
    <glyph glyph-name="Wcircumflex" unicode="&#x174;" 
d="M260 823h80l96 -113h-67l-67 69h-4l-67 -69h-67zM10 661h83l53 -415q2 -32 8 -94l6 -69h3q8 32 13 48q23 90 29 115l69 244h59l69 -244q10 -42 18.5 -75.5t14.5 -58.5q7 -22 8 -29h4l7 82q3 27 7 81l50 415h79l-97 -661h-92l-75 277q-12 52 -24 119h-3q-18 -88 -26 -119
l-72 -277h-90z" />
    <glyph glyph-name="wcircumflex" unicode="&#x175;" 
d="M8 510h84l59 -299q15 -78 24 -141h4q18 94 29 141l59 271h70l60 -271q16 -72 20 -94l10 -47h4q6 29 13 74l12 67l58 299h78l-106 -510h-99l-58 264l-11 59q-13 75 -16 88h-4q-3 -14 -7 -42l-20 -106l-56 -263h-98zM265 721h70l97 -148h-63l-67 99h-4l-67 -99h-63z" />
    <glyph glyph-name="Ycircumflex" unicode="&#x176;" 
d="M260 823h80l96 -113h-67l-67 69h-4l-67 -69h-67zM258 236l-220 424h88l99 -197q22 -44 32 -66l43 -87h4l77 155l95 195h86l-220 -424v-236h-84v236z" />
    <glyph glyph-name="ycircumflex" unicode="&#x177;" 
d="M67 -207l17 65q23 -7 44 -7q49 0 81 29t53 82l14 36l-227 512h83l119 -287q11 -25 20.5 -49.5t19.5 -47.5q4 -11 9 -23.5t11 -26.5h4l18 50q16 47 34 97l106 287h78l-213 -552q-32 -82 -81 -128.5t-126 -46.5q-36 0 -64 10zM275 721h70l97 -148h-63l-67 99h-4l-67 -99
h-63z" />
    <glyph glyph-name="Ydieresis" unicode="&#x178;" 
d="M178.5 734q-13.5 14 -13.5 35q0 22 13.5 35.5t35.5 13.5q21 0 35 -13.5t14 -35.5q0 -21 -14 -35t-35 -14q-22 0 -35.5 14zM351 734q-14 14 -14 35q0 22 14 35.5t35 13.5q22 0 35.5 -13.5t13.5 -35.5q0 -21 -13.5 -35t-35.5 -14q-21 0 -35 14zM258 236l-220 424h88
l99 -196l33 -68q22 -47 42 -86h4l77 155l95 195h86l-220 -424v-236h-84v236z" />
    <glyph glyph-name="Zacute" unicode="&#x179;" 
d="M352 823h94l-113 -113h-69zM65 50l367 541h-335v70h437v-50l-368 -540h373v-71h-474v50z" />
    <glyph glyph-name="zacute" unicode="&#x17a;" 
d="M345 756h90l-117 -154h-63zM71 44l333 399h-296v67h414v-44l-334 -399h344v-67h-461v44z" />
    <glyph glyph-name="Zdotaccent" unicode="&#x17b;" 
d="M274.5 733.5q-16.5 15.5 -16.5 39.5q0 23 16.5 38t40.5 15t40.5 -15t16.5 -38q0 -24 -16.5 -39.5t-40.5 -15.5t-40.5 15.5zM65 50l367 541h-335v70h437v-50l-368 -540h373v-71h-474v50z" />
    <glyph glyph-name="zdotaccent" unicode="&#x17c;" 
d="M71 44l333 399h-296v67h414v-44l-334 -399h344v-67h-461v44zM250 643.5q-20 19.5 -20 49.5q0 31 20 51t50 20t50 -20t20 -51q0 -30 -20 -49.5t-50 -19.5t-50 19.5z" />
    <glyph glyph-name="Zcaron" unicode="&#x17d;" 
d="M180 823h66l67 -69h4l67 69h67l-96 -113h-79zM65 50l367 541h-335v70h437v-50l-368 -540h373v-71h-474v50z" />
    <glyph glyph-name="zcaron" unicode="&#x17e;" 
d="M71 44l333 399h-296v67h414v-44l-334 -399h344v-67h-461v44zM168 721h63l67 -99h4l67 99h63l-97 -148h-70z" />
    <glyph glyph-name="uni0180" unicode="&#x180;" 
d="M244.5 6q-40.5 19 -75.5 51h-3l-7 -57h-66v578h-73v43l73 5v100h82v-100h212v-48h-212v-56l-2 -100q35 36 79 57.5t86 21.5q97 0 149.5 -66.5t52.5 -181.5q0 -81 -30 -141.5t-80.5 -92.5t-109.5 -32q-35 0 -75.5 19zM383.5 80q33.5 24 52.5 68.5t19 103.5q0 84 -33.5 132
t-103.5 48q-33 0 -69.5 -19.5t-73.5 -58.5v-236q32 -31 67.5 -46.5t64.5 -15.5q43 0 76.5 24z" />
    <glyph glyph-name="florin" unicode="&#x192;" 
d="M49 -79l16 62q33 -13 59 -13q50 0 73.5 37.5t33.5 118.5l24 219h-104v59l70 4h41l6 56q13 103 54.5 153.5t122.5 50.5q24 0 49 -5.5t42 -14.5l-20 -62q-30 15 -67 15q-46 0 -70 -36t-31 -94l-7 -63h142v-63h-149l-27 -237q-12 -100 -52 -152.5t-123 -52.5q-43 0 -83 18z
" />
    <glyph glyph-name="uni01CD" unicode="&#x1cd;" 
d="M164 823h67l67 -69h4l67 69h67l-96 -113h-80zM253 660h94l221 -660h-88l-62 202h-238l-63 -202h-85zM397 269l-31 101q-36 117 -65 222h-4q-29 -105 -65 -222l-31 -101h196z" />
    <glyph glyph-name="uni01CE" unicode="&#x1ce;" 
d="M128 26q-47 39 -47 105q0 58 36 96.5t112.5 61.5t203.5 34q-2 58 -32.5 94.5t-96.5 36.5q-78 0 -150 -62l-32 57q35 30 86.5 51.5t109.5 21.5q97 0 147 -55.5t50 -152.5v-314h-67l-7 70h-3q-45 -37 -94.5 -60t-97.5 -23q-71 0 -118 39zM433 131v137q-150 -13 -211 -45
t-61 -86q0 -42 30.5 -63t76.5 -21q79 0 165 78zM186 721h63l67 -99h4l67 99h63l-97 -148h-70z" />
    <glyph glyph-name="uni01CF" unicode="&#x1cf;" 
d="M164 823h67l67 -69h4l67 69h67l-96 -113h-80zM95 71h163v519h-163v70h410v-70h-163v-519h163v-71h-410v71z" />
    <glyph glyph-name="uni01D0" unicode="&#x1d0;" 
d="M100 68h189v375h-189v67h271v-442h189v-68h-460v68zM188 721h63l67 -99h4l67 99h63l-97 -148h-70z" />
    <glyph glyph-name="uni01D1" unicode="&#x1d1;" 
d="M164 823h67l67 -69h4l67 69h67l-96 -113h-80zM169 30q-57 42 -89 120.5t-32 182.5t32 180.5t89 117.5t131 41t131 -41t89 -118t32 -180q0 -104 -32 -182.5t-89 -120.5t-131 -42t-131 42zM387.5 94.5q37.5 33.5 58 95t20.5 143.5q0 81 -20.5 141t-58 92.5t-87.5 32.5
t-87.5 -32.5t-58 -92.5t-20.5 -141q0 -82 20.5 -143.5t58 -95t87.5 -33.5t87.5 33.5z" />
    <glyph glyph-name="uni01D2" unicode="&#x1d2;" 
d="M180 19q-55 32 -87.5 92.5t-32.5 142.5q0 83 32.5 143.5t87.5 92.5t120 32t120 -32t87.5 -92.5t32.5 -143.5q0 -82 -32.5 -142.5t-87.5 -92.5t-120 -32t-120 32zM412.5 110q42.5 55 42.5 144t-42.5 144.5t-112.5 55.5t-112.5 -55.5t-42.5 -144.5t42.5 -144t112.5 -55
t112.5 55zM168 721h63l67 -99h4l67 99h63l-97 -148h-70z" />
    <glyph glyph-name="uni01D3" unicode="&#x1d3;" 
d="M164 823h67l67 -69h4l67 69h67l-96 -113h-80zM138.5 51q-59.5 63 -59.5 198v411h84v-412q0 -98 37 -142.5t101 -44.5t101.5 44.5t37.5 142.5v412h81v-411q0 -135 -59 -198t-161 -63q-103 0 -162.5 63z" />
    <glyph glyph-name="uni01D4" unicode="&#x1d4;" 
d="M118.5 39q-41.5 52 -41.5 154v317h83v-306q0 -76 26 -111t86 -35q41 0 75 22.5t76 74.5v355h82v-510h-67l-7 90h-4q-40 -49 -84 -76t-97 -27q-86 0 -127.5 52zM168 721h63l67 -99h4l67 99h63l-97 -148h-70z" />
    <glyph glyph-name="Gcaron" unicode="&#x1e6;" 
d="M196 823h66l67 -69h4l67 69h67l-96 -113h-79zM189.5 29q-64.5 41 -100.5 118.5t-36 182.5t37 182t103 118.5t151 41.5q105 0 181 -80l-47 -53q-27 29 -58.5 44.5t-75.5 15.5q-61 0 -107 -32.5t-71.5 -93t-25.5 -141.5q0 -126 53 -198.5t149 -72.5q34 0 64.5 10.5
t49.5 28.5v173h-131v69h208v-278q-34 -34 -84.5 -55t-111.5 -21q-83 0 -147.5 41z" />
    <glyph glyph-name="gcaron" unicode="&#x1e7;" 
d="M178 -206q-49 21 -93 73l40 50q34 -44 73 -61t82 -17q73 0 109.5 37.5t37.5 123.5l1 81q-30 -33 -72.5 -54.5t-85.5 -21.5q-62 0 -109.5 31t-74 89t-26.5 137q0 77 30.5 136.5t81.5 91.5t110 32q80 0 149 -69h3l7 57h66v-510q0 -110 -59 -168.5t-168 -58.5q-53 0 -102 21
zM425 151v241q-61 61 -129 61q-41 0 -76 -24.5t-55.5 -68t-20.5 -97.5q0 -87 38.5 -138.5t105.5 -51.5q70 0 137 78zM168 721h63l67 -99h4l67 99h63l-97 -148h-70z" />
    <glyph glyph-name="uni01EA" unicode="&#x1ea;" 
d="M261 -190q-27 23 -27 64q0 32 17 62t45 53q-82 2 -138 50t-83 125.5t-27 168.5q0 104 32 180.5t89 117.5t131 41t131 -41t89 -118t32 -180q0 -129 -46 -212.5t-129 -120.5q-38 -17 -58 -47.5t-20 -60.5q0 -22 14 -34t33 -12q22 0 41 14l23 -45q-15 -12 -38 -20t-42 -8
q-42 0 -69 23zM387.5 94.5q37.5 33.5 58 95t20.5 143.5q0 81 -20.5 141t-58 92.5t-87.5 32.5t-87.5 -32.5t-58 -92.5t-20.5 -141q0 -82 20.5 -143.5t58 -95t87.5 -33.5t87.5 33.5z" />
    <glyph glyph-name="uni01EB" unicode="&#x1eb;" 
d="M295 -105q0 -22 13.5 -34t32.5 -12q22 0 40 13l22 -41q-14 -11 -37 -19t-42 -8q-39 0 -64.5 22.5t-25.5 62.5q0 31 15 58.5t38 49.5q-62 4 -114 37t-82.5 92t-30.5 138q0 83 32.5 143.5t87.5 92.5t120 32t120 -32t87.5 -92.5t32.5 -143.5q0 -106 -54 -175.5t-137 -86.5
q-54 -46 -54 -97zM187.5 110q42.5 -55 112.5 -55t112.5 55t42.5 144t-42.5 144.5t-112.5 55.5t-112.5 -55.5t-42.5 -144.5t42.5 -144z" />
    <glyph glyph-name="uni0237" unicode="&#x237;" 
d="M55 -183l27 61q58 -28 111 -28q71 0 97 32t26 108v453h-226v67h308v-513q0 -102 -46.5 -158t-157.5 -56q-73 0 -139 34z" />
    <glyph glyph-name="uni0243" unicode="&#x243;" 
d="M104 178h-77v42l77 5v435h187q106 0 165.5 -39t59.5 -120q0 -50 -29 -87t-86 -52v-4q73 -11 112.5 -51.5t39.5 -109.5q0 -97 -66.5 -147t-180.5 -50h-202v178zM277 382q82 0 120 28t38 85q0 54 -38.5 78.5t-115.5 24.5h-94v-216h90zM294 63q86 0 132.5 34.5t46.5 103.5
q0 126 -179 126h-107v-102h143v-47h-143v-115h107z" />
    <glyph glyph-name="circumflex" unicode="&#x2c6;" 
d="M265 721h70l97 -148h-63l-67 99h-4l-67 -99h-63z" />
    <glyph glyph-name="caron" unicode="&#x2c7;" 
d="M168 721h63l67 -99h4l67 99h63l-97 -148h-70z" />
    <glyph glyph-name="breve" unicode="&#x2d8;" 
d="M206.5 615q-32.5 40 -36.5 94h51q5 -36 25 -59.5t54 -23.5t54 23.5t25 59.5h51q-4 -54 -36.5 -94t-93.5 -40t-93.5 40z" />
    <glyph glyph-name="dotaccent" unicode="&#x2d9;" 
d="M250.5 630.5q-19.5 19.5 -19.5 49.5q0 31 19.5 50.5t49.5 19.5t49.5 -19.5t19.5 -50.5q0 -30 -19.5 -49.5t-49.5 -19.5t-49.5 19.5z" />
    <glyph glyph-name="ring" unicode="&#x2da;" 
d="M233 567.5q-26 25.5 -26 67.5q0 41 26 66.5t67 25.5t67 -25.5t26 -66.5q0 -42 -26 -67.5t-67 -25.5t-67 25.5zM334.5 594.5q13.5 15.5 13.5 40.5q0 24 -13.5 39.5t-34.5 15.5t-34.5 -15.5t-13.5 -39.5q0 -25 13.5 -40.5t34.5 -15.5t34.5 15.5z" />
    <glyph glyph-name="ogonek" unicode="&#x2db;" 
d="M259.5 -183.5q-25.5 22.5 -25.5 62.5q0 37 21 69.5t50 54.5h58q-68 -51 -68 -108q0 -22 13.5 -34t32.5 -12q22 0 40 13l22 -41q-14 -11 -37 -19t-42 -8q-39 0 -64.5 22.5z" />
    <glyph glyph-name="tilde" unicode="&#x2dc;" 
d="M186 658.5q22 29.5 60 29.5q17 0 32 -8t34 -23q15 -12 24.5 -17.5t18.5 -5.5q31 0 40 54h47q-6 -49 -28 -79t-60 -30q-18 0 -32 8t-33 24q-15 12 -24.5 17.5t-19.5 5.5q-31 0 -40 -55h-47q6 50 28 79.5z" />
    <glyph glyph-name="hungarumlaut" unicode="&#x2dd;" 
d="M272 714h73l-88 -143h-55zM420 714h72l-88 -143h-55z" />
    <glyph glyph-name="gravecomb" unicode="&#x300;" horiz-adv-x="0" 
d="M-415 721h90l90 -148h-63z" />
    <glyph glyph-name="acutecomb" unicode="&#x301;" horiz-adv-x="0" 
d="M-275 721h90l-117 -148h-63z" />
    <glyph glyph-name="uni0302" unicode="&#x302;" horiz-adv-x="0" 
d="M-335 721h70l97 -148h-63l-67 99h-4l-67 -99h-63z" />
    <glyph glyph-name="tildecomb" unicode="&#x303;" horiz-adv-x="0" 
d="M-414 658.5q22 29.5 60 29.5q17 0 32 -8t34 -23q15 -12 24.5 -17.5t18.5 -5.5q31 0 40 54h47q-6 -49 -28 -79t-60 -30q-18 0 -32 8t-33 24q-15 12 -24.5 17.5t-19.5 5.5q-31 0 -40 -55h-47q6 50 28 79.5z" />
    <glyph glyph-name="uni0304" unicode="&#x304;" horiz-adv-x="0" 
d="M-423 658h246v-57h-246v57z" />
    <glyph glyph-name="uni0306" unicode="&#x306;" horiz-adv-x="0" 
d="M-393.5 615q-32.5 40 -36.5 94h51q5 -36 25 -59.5t54 -23.5t54 23.5t25 59.5h51q-4 -54 -36.5 -94t-93.5 -40t-93.5 40z" />
    <glyph glyph-name="uni0307" unicode="&#x307;" horiz-adv-x="0" 
d="M-350 643.5q-20 19.5 -20 49.5q0 31 20 51t50 20t50 -20t20 -51q0 -30 -20 -49.5t-50 -19.5t-50 19.5z" />
    <glyph glyph-name="uni0308" unicode="&#x308;" horiz-adv-x="0" 
d="M-435 603.5q-15 15.5 -15 39.5t15 39.5t39 15.5q23 0 38.5 -16t15.5 -39t-15.5 -39t-38.5 -16q-24 0 -39 15.5zM-242.5 604q-15.5 16 -15.5 39t15.5 39t38.5 16q24 0 39 -15.5t15 -39.5t-15 -39.5t-39 -15.5q-23 0 -38.5 16z" />
    <glyph glyph-name="uni030A" unicode="&#x30a;" horiz-adv-x="0" 
d="M-367 567.5q-26 25.5 -26 67.5q0 41 26 66.5t67 25.5t67 -25.5t26 -66.5q0 -42 -26 -67.5t-67 -25.5t-67 25.5zM-265.5 594.5q13.5 15.5 13.5 40.5q0 24 -13.5 39.5t-34.5 15.5t-34.5 -15.5t-13.5 -39.5q0 -25 13.5 -40.5t34.5 -15.5t34.5 15.5z" />
    <glyph glyph-name="uni030B" unicode="&#x30b;" horiz-adv-x="0" 
d="M-328 714h73l-88 -143h-55zM-180 714h72l-88 -143h-55z" />
    <glyph glyph-name="uni030C" unicode="&#x30c;" horiz-adv-x="0" 
d="M-432 721h63l67 -99h4l67 99h63l-97 -148h-70z" />
    <glyph glyph-name="uni0327" unicode="&#x327;" horiz-adv-x="0" 
d="M-378 -172q88 12 88 48q0 19 -15.5 30t-47.5 19l40 78h54l-26 -53q28 -9 43.5 -25.5t15.5 -45.5q0 -41 -41 -63.5t-103 -28.5z" />
    <glyph glyph-name="uni0328" unicode="&#x328;" horiz-adv-x="0" 
d="M-340.5 -183.5q-25.5 22.5 -25.5 62.5q0 37 21 69.5t50 54.5h58q-68 -51 -68 -108q0 -22 13.5 -34t32.5 -12q22 0 40 13l22 -41q-14 -11 -37 -19t-42 -8q-39 0 -64.5 22.5z" />
    <glyph glyph-name="pi" unicode="&#x3c0;" 
d="M415 18.5q-25 31.5 -25 93.5q0 37 1 89.5t2 109.5l3 130h-185q0 -213 -14 -446l-83 5q20 189 20 441h-95v63l70 6h452v-69h-86q-7 -136 -7 -335q0 -27 11 -39t34 -12q9 0 27 7l11 -63q-28 -12 -55 -12q-56 0 -81 31.5z" />
    <glyph glyph-name="uni1E20" unicode="&#x1e20;" 
d="M207 791h248v-57h-248v57zM189.5 29q-64.5 41 -100.5 118.5t-36 182.5t37 182t103 118.5t151 41.5q105 0 181 -80l-47 -53q-27 29 -58.5 44.5t-75.5 15.5q-61 0 -107 -32.5t-71.5 -93t-25.5 -141.5q0 -126 53 -198.5t149 -72.5q34 0 64.5 10.5t49.5 28.5v173h-131v69h208
v-278q-34 -34 -84.5 -55t-111.5 -21q-83 0 -147.5 41z" />
    <glyph glyph-name="uni1E21" unicode="&#x1e21;" 
d="M178 -206q-49 21 -93 73l40 50q34 -44 73 -61t82 -17q73 0 109.5 37.5t37.5 123.5l1 81q-30 -33 -72.5 -54.5t-85.5 -21.5q-62 0 -109.5 31t-74 89t-26.5 137q0 77 30.5 136.5t81.5 91.5t110 32q80 0 149 -69h3l7 57h66v-510q0 -110 -59 -168.5t-168 -58.5q-53 0 -102 21
zM425 151v241q-61 61 -129 61q-41 0 -76 -24.5t-55.5 -68t-20.5 -97.5q0 -87 38.5 -138.5t105.5 -51.5q70 0 137 78zM177 658h246v-57h-246v57z" />
    <glyph glyph-name="uni1E44" unicode="&#x1e44;" 
d="M265.5 733.5q-16.5 15.5 -16.5 39.5q0 23 16.5 38t40.5 15t40.5 -15t16.5 -38q0 -24 -16.5 -39.5t-40.5 -15.5t-40.5 15.5zM83 660h85l213 -417l66 -135h2q-1 20 -5 74q-6 90 -6 135v343h79v-660h-85l-213 417l-66 135h-2q1 -25 5 -77q6 -86 6 -129v-346h-79v660z" />
    <glyph glyph-name="uni1E45" unicode="&#x1e45;" 
d="M93 510h68l7 -89h4q43 48 86.5 74.5t96.5 26.5q168 0 168 -205v-317h-82v306q0 75 -26.5 110t-85.5 35q-41 0 -74.5 -22t-79.5 -73v-356h-82v510zM260 643.5q-20 19.5 -20 49.5q0 31 20 51t50 20t50 -20t20 -51q0 -30 -20 -49.5t-50 -19.5t-50 19.5z" />
    <glyph glyph-name="uni1E60" unicode="&#x1e60;" 
d="M270.5 733.5q-16.5 15.5 -16.5 39.5q0 23 16.5 38t40.5 15t40.5 -15t16.5 -38q0 -24 -16.5 -39.5t-40.5 -15.5t-40.5 15.5zM173.5 14q-61.5 26 -106.5 72l50 58q38 -39 87 -61t102 -22q69 0 107.5 29.5t38.5 78.5q0 32 -14.5 52.5t-36.5 33t-67 31.5l-94 41
q-142 56 -142 170q0 50 27.5 90t76.5 62.5t111 22.5q60 0 112.5 -22t89.5 -59l-44 -54q-70 62 -158 62q-60 0 -95 -26t-35 -71q0 -29 16.5 -49t38 -31.5t62.5 -29.5l92 -40q70 -31 107.5 -70t37.5 -106q0 -53 -28.5 -95.5t-81 -67.5t-122.5 -25t-131.5 26z" />
    <glyph glyph-name="uni1E61" unicode="&#x1e61;" 
d="M182 9.5q-61 22.5 -110 57.5l40 54q44 -34 91.5 -51.5t109.5 -17.5q63 0 96.5 23t33.5 59q0 31 -35.5 54t-122.5 46q-82 21 -133.5 57.5t-51.5 86.5q0 63 53.5 103.5t150.5 40.5q52 0 104 -18t91 -46l-40 -54q-73 54 -155 54q-64 0 -92 -21t-28 -55q0 -30 38 -51t110 -40
q102 -27 148 -61.5t46 -90.5q0 -42 -25.5 -76.5t-74.5 -55t-116 -20.5t-128 22.5zM254 643.5q-20 19.5 -20 49.5q0 31 20 51t50 20t50 -20t20 -51q0 -30 -20 -49.5t-50 -19.5t-50 19.5z" />
    <glyph glyph-name="Wgrave" unicode="&#x1e80;" 
d="M169 823h94l88 -113h-69zM10 661h83l53 -415q2 -32 8 -94l6 -69h3q8 32 13 48q23 90 29 115l69 244h59l69 -244q10 -42 18.5 -75.5t14.5 -58.5q7 -22 8 -29h4l7 82q3 27 7 81l50 415h79l-97 -661h-92l-75 277q-12 52 -24 119h-3q-18 -88 -26 -119l-72 -277h-90z" />
    <glyph glyph-name="wgrave" unicode="&#x1e81;" 
d="M8 510h84l59 -299q15 -78 24 -141h4q18 94 29 141l59 271h70l60 -271q16 -72 20 -94l10 -47h4q6 29 13 74l12 67l58 299h78l-106 -510h-99l-58 264l-11 59q-13 75 -16 88h-4q-3 -14 -7 -42l-20 -106l-56 -263h-98zM210 721h90l90 -148h-63z" />
    <glyph glyph-name="Wacute" unicode="&#x1e82;" 
d="M337 823h94l-113 -113h-69zM10 661h83l53 -415q2 -32 8 -94l6 -69h3q8 32 13 48q23 90 29 115l69 244h59l69 -244q10 -42 18.5 -75.5t14.5 -58.5q7 -22 8 -29h4l7 82q3 27 7 81l50 415h79l-97 -661h-92l-75 277q-12 52 -24 119h-3q-18 -88 -26 -119l-72 -277h-90z" />
    <glyph glyph-name="wacute" unicode="&#x1e83;" 
d="M8 510h84l59 -299q15 -78 24 -141h4q18 94 29 141l59 271h70l60 -271q16 -72 20 -94l10 -47h4q6 29 13 74l12 67l58 299h78l-106 -510h-99l-58 264l-11 59q-13 75 -16 88h-4q-3 -14 -7 -42l-20 -106l-56 -263h-98zM300 721h90l-117 -148h-63z" />
    <glyph glyph-name="Wdieresis" unicode="&#x1e84;" 
d="M178.5 734q-13.5 14 -13.5 35q0 22 13.5 35.5t35.5 13.5q21 0 35 -13.5t14 -35.5q0 -21 -14 -35t-35 -14q-22 0 -35.5 14zM351 734q-14 14 -14 35q0 22 14 35.5t35 13.5q22 0 35.5 -13.5t13.5 -35.5q0 -21 -13.5 -35t-35.5 -14q-21 0 -35 14zM10 661h83l53 -415
q2 -32 8 -94l6 -69h3q8 32 13 48q23 90 29 115l69 244h59l69 -244q10 -42 18.5 -75.5t14.5 -58.5q7 -22 8 -29h4l7 82q3 27 7 81l50 415h79l-97 -661h-92l-75 277q-12 52 -24 119h-3q-18 -88 -26 -119l-72 -277h-90z" />
    <glyph glyph-name="wdieresis" unicode="&#x1e85;" 
d="M8 510h84l59 -299q15 -78 24 -141h4q18 94 29 141l59 271h70l60 -271q16 -72 20 -94l10 -47h4q6 29 13 74l12 67l58 299h78l-106 -510h-99l-58 264l-11 59q-13 75 -16 88h-4q-3 -14 -7 -42l-20 -106l-56 -263h-98zM165 603.5q-15 15.5 -15 39.5t15 39.5t39 15.5
q23 0 38.5 -16t15.5 -39t-15.5 -39t-38.5 -16q-24 0 -39 15.5zM357.5 604q-15.5 16 -15.5 39t15.5 39t38.5 16q24 0 39 -15.5t15 -39.5t-15 -39.5t-39 -15.5q-23 0 -38.5 16z" />
    <glyph glyph-name="uni1E8E" unicode="&#x1e8e;" 
d="M259.5 733.5q-16.5 15.5 -16.5 39.5q0 23 16.5 38t40.5 15t40.5 -15t16.5 -38q0 -24 -16.5 -39.5t-40.5 -15.5t-40.5 15.5zM258 236l-220 424h88l99 -197q22 -44 32 -66l43 -87h4l77 155l95 195h86l-220 -424v-236h-84v236z" />
    <glyph glyph-name="uni1E8F" unicode="&#x1e8f;" 
d="M67 -207l17 65q23 -7 44 -7q49 0 81 29t53 82l14 36l-227 512h83l119 -287q11 -25 20.5 -49.5t19.5 -47.5q4 -11 9 -23.5t11 -26.5h4l18 50q16 47 34 97l106 287h78l-213 -552q-32 -82 -81 -128.5t-126 -46.5q-36 0 -64 10zM260 643.5q-20 19.5 -20 49.5q0 31 20 51
t50 20t50 -20t20 -51q0 -30 -20 -49.5t-50 -19.5t-50 19.5z" />
    <glyph glyph-name="uni1E97" unicode="&#x1e97;" 
d="M117 708.5q-15 15.5 -15 39.5t15 39.5t39 15.5q23 0 38.5 -16t15.5 -39t-15.5 -39t-38.5 -16q-24 0 -39 15.5zM309.5 709q-15.5 16 -15.5 39t15.5 39t38.5 16q24 0 39 -15.5t15 -39.5t-15 -39.5t-39 -15.5q-23 0 -38.5 16zM249.5 42q-43.5 55 -43.5 155v246h-137v67h140
v150l79 50v-200h239v-67h-239v-247q0 -72 27.5 -106.5t95.5 -34.5q61 0 117 23l18 -60q-80 -31 -153 -31q-100 0 -143.5 55z" />
    <glyph glyph-name="uni1E9E" unicode="&#x1e9e;" 
d="M299 7.5q-42 19.5 -70 53.5l48 53q25 -29 50.5 -42.5t55.5 -13.5q43 0 67.5 31.5t24.5 82.5q0 52 -36.5 87t-128.5 53l-5 54l118 154q-15 37 -44.5 60t-70.5 23q-69 0 -106.5 -46t-37.5 -139v-418h-85v435q0 106 59 171.5t173 65.5q75 0 125 -41t74 -114l-117 -153
q86 -21 128 -70t42 -122q0 -80 -47 -132t-125 -52q-50 0 -92 19.5z" />
    <glyph glyph-name="uni1EBC" unicode="&#x1ebc;" 
d="M213.5 793.5q22.5 30.5 56.5 30.5q19 0 34.5 -8t35.5 -22q17 -12 27.5 -17.5t21.5 -5.5q15 0 25.5 14t15.5 39h45q-4 -47 -26.5 -78t-57.5 -31q-19 0 -34.5 8t-35.5 22q-17 12 -27.5 17.5t-21.5 5.5q-15 0 -25.5 -13.5t-14.5 -39.5h-46q5 48 27.5 78.5zM115 660h405v-70
h-321v-208h271v-71h-271v-240h331v-71h-415v660z" />
    <glyph glyph-name="uni1EBD" unicode="&#x1ebd;" 
d="M197.5 19.5q-59.5 32.5 -94 93t-34.5 141.5q0 80 34.5 141t91.5 94t121 33q103 0 162 -65t59 -174q0 -28 -3 -48h-380q3 -82 54.5 -131.5t131.5 -49.5q41 0 76.5 12t71.5 36l29 -55q-90 -60 -187 -60q-73 0 -132.5 32.5zM461 295q0 77 -38 119.5t-106 42.5
q-61 0 -108 -44t-56 -118h308zM202 658.5q22 29.5 60 29.5q17 0 32 -8t34 -23q15 -12 24.5 -17.5t18.5 -5.5q31 0 40 54h47q-6 -49 -28 -79t-60 -30q-18 0 -32 8t-33 24q-15 12 -24.5 17.5t-19.5 5.5q-31 0 -40 -55h-47q6 50 28 79.5z" />
    <glyph glyph-name="Ygrave" unicode="&#x1ef2;" 
d="M169 823h94l88 -113h-69zM258 236l-220 424h88l99 -197q22 -44 32 -66l43 -87h4l77 155l95 195h86l-220 -424v-236h-84v236z" />
    <glyph glyph-name="ygrave" unicode="&#x1ef3;" 
d="M67 -207l17 65q23 -7 44 -7q49 0 81 29t53 82l14 36l-227 512h83l119 -287q11 -25 20.5 -49.5t19.5 -47.5q4 -11 9 -23.5t11 -26.5h4l18 50q16 47 34 97l106 287h78l-213 -552q-32 -82 -81 -128.5t-126 -46.5q-36 0 -64 10zM220 721h90l90 -148h-63z" />
    <glyph glyph-name="uni1EF8" unicode="&#x1ef8;" 
d="M182.5 794q22.5 30 57.5 30q19 0 34.5 -8t35.5 -22q17 -12 27.5 -17.5t21.5 -5.5q14 0 25 14.5t15 38.5h46q-5 -47 -27.5 -78t-57.5 -31q-19 0 -34.5 8t-35.5 22q-17 12 -27.5 17.5t-21.5 5.5q-15 0 -25.5 -13.5t-14.5 -39.5h-46q5 49 27.5 79zM258 236l-220 424h88
l99 -197q22 -44 32 -66l43 -87h4l77 155l95 195h86l-220 -424v-236h-84v236z" />
    <glyph glyph-name="uni1EF9" unicode="&#x1ef9;" 
d="M190 689.5q22 30.5 60 30.5q18 0 33 -8.5t33 -23.5q14 -12 23.5 -18t19.5 -6q31 0 40 56h47q-6 -50 -28 -81t-60 -31q-18 0 -32.5 8.5t-32.5 24.5q-15 13 -24 19t-19 6q-16 0 -26 -14t-15 -44h-46q5 51 27 81.5zM67 -207l17 65q23 -7 44 -7q49 0 81 29t53 82l14 36
l-227 512h83l119 -287q11 -25 20.5 -49.5t19.5 -47.5q4 -11 9 -23.5t11 -26.5h4l18 50q16 47 34 97l106 287h78l-213 -552q-32 -82 -81 -128.5t-126 -46.5q-36 0 -64 10z" />
    <glyph glyph-name="uni2007" unicode="&#x2007;" 
 />
    <glyph glyph-name="endash" unicode="&#x2013;" 
d="M80 288h440v-72h-440v72z" />
    <glyph glyph-name="emdash" unicode="&#x2014;" 
d="M20 288h560v-72h-560v72z" />
    <glyph glyph-name="quoteleft" unicode="&#x2018;" 
d="M234 382.5q-25 32.5 -25 87.5q0 74 38 134t106 95l27 -48q-97 -56 -103 -158q12 6 26 6q31 0 50.5 -20t19.5 -52q0 -34 -21 -55.5t-53 -21.5q-40 0 -65 32.5z" />
    <glyph glyph-name="quoteright" unicode="&#x2019;" 
d="M217 398q98 54 104 158q-12 -6 -26 -6q-31 0 -51 20t-20 51q0 34 21 56t53 22q40 0 65 -32.5t25 -88.5q0 -74 -38 -133.5t-105 -94.5z" />
    <glyph glyph-name="quotesinglbase" unicode="&#x201a;" 
d="M217 -178q98 54 104 158q-12 -6 -26 -6q-32 0 -51.5 20t-19.5 52q0 34 21 55.5t53 21.5q40 0 65 -32.5t25 -88.5q0 -74 -38 -133.5t-105 -94.5z" />
    <glyph glyph-name="quotedblleft" unicode="&#x201c;" 
d="M120 382.5q-25 32.5 -25 87.5q0 75 37.5 134.5t105.5 94.5l27 -48q-97 -56 -104 -158q13 6 27 6q31 0 50.5 -20t19.5 -52q0 -34 -20.5 -55.5t-52.5 -21.5q-40 0 -65 32.5zM349 382.5q-25 32.5 -25 87.5q0 74 38 134t106 95l27 -48q-98 -56 -105 -158q14 6 27 6
q31 0 51 -20t20 -52q0 -34 -21 -55.5t-53 -21.5q-40 0 -65 32.5z" />
    <glyph glyph-name="quotedblright" unicode="&#x201d;" 
d="M103 398q97 55 103 158q-12 -6 -26 -6q-31 0 -50.5 20t-19.5 51q0 34 20.5 56t52.5 22q40 0 65 -32.5t25 -88.5q0 -75 -37.5 -134t-105.5 -94zM332 398q47 27 73.5 66.5t29.5 90.5q-13 -5 -25 -5q-31 0 -51 20t-20 51q0 34 21 56t53 22q40 0 65 -32.5t25 -88.5
q0 -74 -38 -133.5t-106 -94.5z" />
    <glyph glyph-name="quotedblbase" unicode="&#x201e;" 
d="M103 -178q97 55 103 158q-12 -6 -26 -6q-31 0 -50.5 20t-19.5 52q0 34 20.5 55.5t52.5 21.5q40 0 65 -32.5t25 -88.5q0 -75 -37.5 -134t-105.5 -94zM332 -178q47 27 73.5 66.5t29.5 90.5q-13 -5 -25 -5q-32 0 -51.5 20t-19.5 52q0 34 21 55.5t53 21.5q40 0 65 -32.5
t25 -88.5q0 -74 -38 -133.5t-106 -94.5z" />
    <glyph glyph-name="dagger" unicode="&#x2020;" 
d="M270 491l-143 -5v71l143 -5l-5 160h70l-5 -160l143 5v-71l-143 5l5 -571h-70z" />
    <glyph glyph-name="daggerdbl" unicode="&#x2021;" 
d="M270 80l-143 -5v71l143 -7l-5 177l5 177l-143 -7v71l143 -5l-5 160h70l-5 -160l143 5v-71l-143 7l5 -177l-5 -177l143 7v-71l-143 5l5 -160h-70z" />
    <glyph glyph-name="bullet" unicode="&#x2022;" 
d="M226 133.5q-34 18.5 -54.5 52t-20.5 76.5t20.5 76.5t54.5 52t74 18.5t74 -18.5t54.5 -52t20.5 -76.5t-20.5 -76.5t-54.5 -52t-74 -18.5t-74 18.5z" />
    <glyph glyph-name="ellipsis" unicode="&#x2026;" 
d="M52 9q-20 21 -20 54t20 54t50 21q29 0 49 -21t20 -54t-20 -54t-49 -21q-30 0 -50 21zM250 9q-20 21 -20 54t20 54t50 21t50 -21t20 -54t-20 -54t-50 -21t-50 21zM449 9q-20 21 -20 54t20 54t49 21q30 0 50 -21t20 -54t-20 -54t-50 -21q-29 0 -49 21z" />
    <glyph glyph-name="perthousand" unicode="&#x2030;" 
d="M80 424.5q-32 35.5 -32 96.5q0 60 32 94.5t85 34.5t85 -34.5t32 -94.5q0 -61 -32 -96.5t-85 -35.5t-85 35.5zM210 453.5q17 22.5 17 67.5q0 43 -17 65t-45 22t-45.5 -22t-17.5 -65q0 -45 17.5 -67.5t45.5 -22.5t45 22.5zM105 309l446 201l24 -58l-456 -174zM80 23.5
q-32 35.5 -32 96.5q0 60 32 94.5t85 34.5t85 -34.5t32 -94.5q0 -61 -32 -96.5t-85 -35.5t-85 35.5zM351 23.5q-32 35.5 -32 96.5q0 60 32 94.5t85 34.5t85 -34.5t32 -94.5q0 -61 -32 -96.5t-85 -35.5t-85 35.5zM210 52.5q17 22.5 17 67.5q0 43 -17 64.5t-45 21.5
t-45.5 -21.5t-17.5 -64.5q0 -45 17.5 -67.5t45.5 -22.5t45 22.5zM481 52.5q17 22.5 17 67.5q0 43 -17 64.5t-45 21.5t-45.5 -21.5t-17.5 -64.5q0 -45 17.5 -67.5t45.5 -22.5t45 22.5z" />
    <glyph glyph-name="minute" unicode="&#x2032;" 
d="M279 690h81l-16 -100l-34 -156h-54z" />
    <glyph glyph-name="second" unicode="&#x2033;" 
d="M191 690h81l-16 -100l-34 -156h-54zM367 690h81l-15 -100l-35 -156h-53z" />
    <glyph glyph-name="guilsinglleft" unicode="&#x2039;" 
d="M197 212v80l153 160l39 -35l-127 -165l127 -166l-39 -34z" />
    <glyph glyph-name="guilsinglright" unicode="&#x203a;" 
d="M211 86l127 166l-127 165l39 35l153 -160v-80l-153 -160z" />
    <glyph glyph-name="fraction" unicode="&#x2044;" 
d="M356 421l167 203l49 -45l-183 -188zM28 77l183 188l33 -30l-167 -203z" />
    <glyph glyph-name="colonmonetary" unicode="&#x20a1;" 
d="M242 14q-69 36 -107.5 114.5t-38.5 189.5q0 136 59 222.5t162 104.5l12 103h38l-12 -98h15q20 0 43 -5l12 103h38l-14 -114q49 -20 88 -62l-49 -47q-25 25 -47 38l-60 -508q33 4 61 21.5t55 48.5l49 -44q-74 -85 -173 -92l-12 -99h-38l12 99q-26 1 -57 10l-13 -109h-38z
M405 579q-22 5 -40 5q-12 0 -18 -1l-60 -512q23 -13 56 -16zM308 575q-61 -21 -94 -87.5t-33 -166.5q0 -76 18.5 -133.5t52.5 -90.5z" />
    <glyph glyph-name="lira" unicode="&#x20a4;" 
d="M78 50q60 26 92 74t32 111h-124v44l87 5h30q-4 14 -10.5 32t-9.5 27h-97v45l80 4q-14 42 -14 74q0 84 57 134t153 50q108 0 176 -75l-48 -47q-25 25 -55 39t-69 14q-64 0 -99.5 -32t-35.5 -85q0 -33 13 -72h206v-49h-190q14 -45 17 -59h173v-49h-167q0 -54 -17 -90
t-58 -70v-4h331v-71h-453v50z" />
    <glyph glyph-name="peseta" unicode="&#x20a7;" 
d="M118 417h-75v51l75 5v165h148q96 0 155.5 -39.5t68.5 -125.5h64v-56h-64q-9 -85 -70 -128.5t-154 -43.5h-69v-245h-79v417zM411 473q-7 57 -46 82.5t-109 25.5h-59v-108h214zM256 302q69 0 108.5 29t46.5 86h-214v-115h59z" />
    <glyph glyph-name="dong" unicode="&#x20ab;" 
d="M154 159.5q-45 49.5 -45 139.5q0 53 24.5 94t64.5 63t85 22q37 0 63 -11t55 -35l-4 83v34h-155v49h155v67h71v-67h78v-44l-78 -5v-429h-58l-6 43h-4q-55 -53 -124 -53q-77 0 -122 49.5zM397 222v155q-28 22 -50.5 31.5t-51.5 9.5q-47 0 -80 -34t-33 -84q0 -62 28.5 -96.5
t80.5 -34.5q56 0 106 53zM121 49h378v-49h-378v49z" />
    <glyph glyph-name="Euro" unicode="&#x20ac;" 
d="M208.5 53.5q-67.5 65.5 -86.5 181.5h-64v43l59 4q-1 12 -1 36q0 22 1 32h-59v44l64 5q19 118 89.5 184.5t176.5 66.5q49 0 93 -21.5t76 -56.5l-49 -47q-28 28 -57.5 43.5t-65.5 15.5q-73 0 -118.5 -49t-59.5 -136h294v-49h-299q-1 -9 -1 -29q0 -26 1 -38h259v-48h-253
q14 -86 58.5 -133.5t112.5 -47.5q41 0 74 17.5t64 53.5l49 -44q-39 -46 -86 -69.5t-106 -23.5q-98 0 -165.5 65.5z" />
    <glyph glyph-name="uni20B1" unicode="&#x20b1;" 
d="M118 377h-75v36l75 5v59h-75v37l75 4v120h148q83 0 138.5 -29t75.5 -91h74v-41h-65q2 -20 2 -33q0 -18 -1 -26h64v-41h-72q-20 -65 -77 -98.5t-139 -33.5h-69v-245h-79v377zM398 518q-17 33 -52 48t-90 15h-59v-63h201zM411 418q2 16 2 26q0 13 -2 33h-214v-59h214z
M256 302q112 0 145 75h-204v-75h59z" />
    <glyph glyph-name="uni20B9" unicode="&#x20b9;" 
d="M197 252h-89v67h79q84 0 131.5 29.5t52.5 88.5h-263v44l76 5h184q-12 44 -57 64t-124 20h-79v68h416v-49h-157q33 -15 54.5 -41.5t29.5 -61.5h73v-49h-71q-4 -73 -49.5 -118t-121.5 -60l208 -259h-94z" />
    <glyph glyph-name="uni20BA" unicode="&#x20ba;" 
d="M160 261l-104 -48v53l104 48v72l-104 -48v52l104 49v199h84v-158l182 86v-53l-182 -86v-72l182 86v-52l-182 -87v-236q52 2 103 21.5t84.5 56t33.5 86.5q0 24 -6 43l69 18q8 -31 8 -57q0 -82 -49 -138t-134 -83t-193 -25v273z" />
    <glyph glyph-name="uni2113" unicode="&#x2113;" 
d="M251 32.5q-45 44.5 -49 125.5q-4 -3 -52 -35l-33 52q28 17 85 60v268q0 111 40 164t106 53q58 0 94 -41t36 -114q0 -179 -195 -345v-34q0 -66 25 -97t65 -31q27 0 48 11.5t43 32.5l33 -51q-67 -63 -136 -63q-65 0 -110 44.5zM408 565q0 47 -16 69.5t-42 22.5
q-29 0 -48 -35.5t-19 -104.5v-210q125 125 125 258z" />
    <glyph glyph-name="uni2117" unicode="&#x2117;" horiz-adv-x="646" 
d="M162 30.5q-74 41.5 -118 117.5t-44 175t44 174t117.5 115.5t161.5 40.5t161.5 -40.5t117.5 -115.5t44 -174t-44 -175t-118 -117.5t-161 -41.5t-161 41.5zM461.5 68q63.5 37 100.5 103.5t37 151.5t-37 150.5t-100 102t-139 36.5t-139 -36.5t-100 -102t-37 -150.5
t37 -151.5t100.5 -103.5t138.5 -37t138.5 37zM204 500h138q66 0 107 -29.5t41 -87.5q0 -63 -41.5 -97t-106.5 -34h-73v-115h-65v363zM331 302q94 0 94 79q0 68 -94 68h-62v-147h62z" />
    <glyph glyph-name="uni2120" unicode="&#x2120;" 
d="M15 402l33 37q21 -19 39.5 -28.5t41.5 -9.5t36 10.5t13 28.5t-8 25.5t-34 20.5l-46 24q-27 14 -43 33.5t-16 51.5q0 39 28.5 63.5t75.5 24.5q26 0 51.5 -10.5t43.5 -27.5l-30 -39q-37 30 -67 30q-22 0 -34.5 -11t-12.5 -27q0 -14 10 -23.5t31 -19.5l46 -23q31 -14 46 -34
t15 -53q0 -37 -30 -64t-79 -27q-62 0 -110 48zM292 676h71l45 -114l27 -80h4l26 80l44 114h71v-310h-55v137l7 105h-4l-71 -187h-42l-72 187h-4l7 -105v-137h-54v310z" />
    <glyph glyph-name="trademark" unicode="&#x2122;" 
d="M91 622h-96v54h252v-54h-96v-256h-60v256zM292 676h71l45 -114l27 -80h4l26 80l44 114h71v-310h-55v137l7 105h-4l-71 -187h-42l-72 187h-4l7 -105v-137h-54v310z" />
    <glyph glyph-name="uni2126" unicode="&#x2126;" 
d="M29 68h123v4q-48 49 -79 118.5t-31 160.5q0 92 31.5 164t90 112.5t136.5 40.5t136.5 -40.5t90 -112.5t31.5 -164q0 -91 -31 -160.5t-79 -118.5v-4h123v-68h-210v61q111 102 111 285q0 110 -46 179.5t-126 69.5t-126 -69.5t-46 -179.5q0 -183 111 -285v-61h-210v68z" />
    <glyph glyph-name="estimated" unicode="&#x212e;" 
d="M163 33q-63 45 -100 122.5t-37 168.5t37 168.5t100 122.5t137 45t137 -45t100 -122.5t37 -168.5v-8h-414q-4 0 -4 -4v-224q0 -8 8 -20q26 -29 62 -44.5t76 -15.5q52 0 99.5 30t82.5 82h38q-42 -62 -99 -97t-123 -35q-74 0 -137 45zM440 334q6 0 6 6v224q0 12 -10 22
q-25 25 -60.5 39.5t-73.5 14.5q-40 0 -76 -15.5t-62 -42.5q-8 -12 -8 -22v-220q0 -6 4 -6h280z" />
    <glyph glyph-name="uni2153" unicode="&#x2153;" 
d="M156 563h-82v42q32 5 52.5 12.5t41.5 20.5h51v-305h-63v230zM356 421l167 203l49 -45l-183 -188zM365.5 2.5q-33.5 14.5 -58.5 39.5l32 39q16 -19 40.5 -31t50.5 -12q28 0 45 11.5t17 35.5q0 51 -96 51v38q40 0 60.5 13.5t20.5 37.5q0 20 -13.5 31.5t-41.5 11.5
q-18 0 -38.5 -9.5t-35.5 -24.5l-29 38q19 20 50 32.5t65 12.5q47 0 76.5 -22.5t29.5 -61.5q0 -29 -13.5 -47t-42.5 -28q33 -8 52 -27.5t19 -49.5q0 -43 -34 -68t-87 -25q-35 0 -68.5 14.5zM28 77l183 188l33 -30l-167 -203z" />
    <glyph glyph-name="uni2154" unicode="&#x2154;" 
d="M49 368q90 69 125.5 104.5t35.5 66.5q0 27 -16 42.5t-45 15.5q-40 0 -71 -42l-39 34q52 61 118 61q54 0 85 -27t31 -76q0 -26 -15.5 -51t-38 -47.5t-67.5 -62.5h136v-53h-239v35zM356 421l167 203l49 -45l-183 -188zM365.5 2.5q-33.5 14.5 -58.5 39.5l32 39
q16 -19 40.5 -31t50.5 -12q28 0 45 11.5t17 35.5q0 51 -96 51v38q40 0 60.5 13.5t20.5 37.5q0 20 -13.5 31.5t-41.5 11.5q-18 0 -38.5 -9.5t-35.5 -24.5l-29 38q19 20 50 32.5t65 12.5q47 0 76.5 -22.5t29.5 -61.5q0 -29 -13.5 -47t-42.5 -28q33 -8 52 -27.5t19 -49.5
q0 -43 -34 -68t-87 -25q-35 0 -68.5 14.5zM28 77l183 188l33 -30l-167 -203z" />
    <glyph glyph-name="arrowleft" unicode="&#x2190;" 
d="M17 250v4l272 265l43 -46l-201 -187h438v-68h-438l201 -187l-43 -46z" />
    <glyph glyph-name="arrowup" unicode="&#x2191;" 
d="M266 414l-187 -201l-46 42l265 272h4l265 -272l-46 -42l-187 201v-439h-68v439z" />
    <glyph glyph-name="arrowright" unicode="&#x2192;" 
d="M267 31l201 187h-439v68h439l-201 187l42 46l273 -265v-4l-273 -265z" />
    <glyph glyph-name="arrowdown" unicode="&#x2193;" 
d="M33 248l46 42l187 -201v438h68v-438l187 201l46 -42l-265 -273h-4z" />
    <glyph glyph-name="partialdiff" unicode="&#x2202;" 
d="M167.5 11.5q-41.5 23.5 -66.5 67t-25 101.5q0 66 26.5 117.5t75.5 80t115 28.5q41 0 80.5 -19t68.5 -53q1 11 1 33q0 121 -36.5 179t-103.5 58q-61 0 -112 -51l-38 52q67 67 158 67q99 0 155.5 -78t56.5 -229q0 -111 -33.5 -196.5t-93.5 -133t-138 -47.5
q-49 0 -90.5 23.5zM375.5 110.5q44.5 54.5 60.5 153.5q-60 76 -136 76q-71 0 -108.5 -43t-37.5 -112q0 -58 32.5 -93.5t79.5 -35.5q65 0 109.5 54.5z" />
    <glyph glyph-name="uni2206" unicode="&#x2206;" 
d="M36 50l217 606h95l217 -606v-50h-529v50zM473 71l-103 300l-68 210h-4l-69 -210l-102 -300h346z" />
    <glyph glyph-name="product" unicode="&#x220f;" 
d="M52 638h496v-758h-85v685h-328v-685h-83v758z" />
    <glyph glyph-name="summation" unicode="&#x2211;" 
d="M70 -67l238 326l-227 326v53h440v-71h-337v-4l212 -303l-222 -305v-4h375v-71h-479v53z" />
    <glyph glyph-name="minus" unicode="&#x2212;" 
d="M85 361h430v-62h-430v62z" />
    <glyph glyph-name="uni2215" unicode="&#x2215;" 
d="M356 421l167 203l49 -45l-183 -188zM28 77l183 188l33 -30l-167 -203z" />
    <glyph glyph-name="uni2219" unicode="&#x2219;" 
d="M239 286.5q-23 23.5 -23 60.5t23 61t57 24t57.5 -24t23.5 -61t-23.5 -60.5t-57.5 -23.5t-57 23.5z" />
    <glyph glyph-name="radical" unicode="&#x221a;" 
d="M153 333l-71 -32l-20 45l134 59l116 -346q11 -37 17 -64h4l4 22q2 14 8 42l178 761h60l-218 -915h-62z" />
    <glyph glyph-name="infinity" unicode="&#x221e;" 
d="M355.5 178q-39.5 28 -78.5 91h-4q-60 -99 -143 -99q-36 0 -67 20.5t-49 56t-18 77.5q0 76 41.5 121.5t104.5 45.5q85 0 140 -101h4q33 56 73 86.5t91 30.5q44 0 79 -22t55 -61t20 -88q0 -55 -20 -97.5t-55 -65.5t-80 -23q-54 0 -93.5 28zM514 259q25 30 25 74
q0 49 -27 80t-73 31q-36 0 -66 -25t-60 -79q32 -61 63 -86t70 -25q43 0 68 30zM246 321q-24 48 -50 70t-56 22q-36 0 -57.5 -23t-21.5 -63t23.5 -67t57.5 -27q64 0 104 88z" />
    <glyph glyph-name="integral" unicode="&#x222b;" 
d="M186 -151l9 62q12 -4 35 -4q40 0 53.5 38t13.5 122q0 81 -21 245q-11 98 -16 149t-5 100q0 109 29.5 168.5t109.5 59.5q31 0 47 -6l-10 -62q-18 4 -35 4q-39 0 -52 -38.5t-13 -123.5q0 -48 5 -103t15 -141q21 -164 21 -248q0 -111 -29.5 -170t-109.5 -59q-31 0 -47 7z
" />
    <glyph glyph-name="approxequal" unicode="&#x2248;" 
d="M76 385q47 126 136 126q29 0 52 -12.5t52 -35.5q25 -19 41 -28t33 -9q26 0 45.5 18.5t35.5 67.5l53 -24q-47 -124 -136 -124q-29 0 -52 12.5t-52 35.5q-25 19 -41 28t-33 9q-25 0 -45 -19t-36 -68zM76 170q46 126 136 126q29 0 52 -12.5t52 -35.5q25 -19 41 -28t33 -9
q26 0 45.5 18.5t35.5 68.5l53 -24q-47 -125 -136 -125q-29 0 -52 12.5t-52 35.5q-25 19 -41 28t-33 9q-26 0 -45.5 -18.5t-35.5 -67.5z" />
    <glyph glyph-name="notequal" unicode="&#x2260;" 
d="M188 192h-103v62h139l91 152h-230v62h266l76 127h61l-76 -127h103v-62h-139l-91 -152h230v-62h-266l-76 -127h-61z" />
    <glyph glyph-name="lessequal" unicode="&#x2264;" 
d="M85 306v74l430 153v-71l-210 -73l-135 -44v-4l135 -44l210 -73v-71zM85 62h430v-62h-430v62z" />
    <glyph glyph-name="greaterequal" unicode="&#x2265;" 
d="M85 224l210 73l135 44v4l-135 44l-210 73v71l430 -153v-74l-430 -153v71zM85 62h430v-62h-430v62z" />
    <glyph glyph-name="filledbox" unicode="&#x25a0;" 
d="M201 365h198v-203h-198v203z" />
    <glyph glyph-name="triagup" unicode="&#x25b2;" 
d="M38 40l261 494h4l259 -494v-2h-524v2z" />
    <glyph glyph-name="uni25B3" unicode="&#x25b3;" 
d="M38 40l261 494h4l259 -494v-2h-524v2zM460 96l-159 313l-160 -313h319z" />
    <glyph glyph-name="uni25B6" unicode="&#x25b6;" 
d="M72 544h2l493 -260v-4l-493 -261h-2v525z" />
    <glyph glyph-name="uni25B7" unicode="&#x25b7;" 
d="M72 544h2l493 -260v-4l-493 -261h-2v525zM440 282l-309 159v-319z" />
    <glyph glyph-name="triagdn" unicode="&#x25bc;" 
d="M38 523v2h524v-2l-259 -493h-4z" />
    <glyph glyph-name="uni25BD" unicode="&#x25bd;" 
d="M38 523v2h524v-2l-259 -494h-4zM460 467h-319l160 -314z" />
    <glyph glyph-name="uni25C0" unicode="&#x25c0;" 
d="M33 280v4l493 260h2v-525h-2z" />
    <glyph glyph-name="uni25C1" unicode="&#x25c1;" 
d="M33 280v4l493 260h2v-525h-2zM469 441l-309 -159l309 -160v319z" />
    <glyph glyph-name="uni25C6" unicode="&#x25c6;" 
d="M159 263l142 140l140 -140l-140 -140z" />
    <glyph glyph-name="uni25C9" unicode="&#x25c9;" 
d="M209 101.5q-41 22.5 -65.5 64.5t-24.5 97t24.5 97t65.5 64.5t91 22.5t91 -22.5t65.5 -64.5t24.5 -97t-24.5 -97t-65.5 -64.5t-91 -22.5t-91 22.5zM390.5 165q37.5 37 37.5 98q0 62 -37.5 99t-90.5 37t-90.5 -37t-37.5 -99q0 -61 37.5 -98t90.5 -37t90.5 37zM259.5 219
q-16.5 17 -16.5 44q0 26 16.5 43t40.5 17t40.5 -17t16.5 -43q0 -27 -16.5 -44t-40.5 -17t-40.5 17z" />
    <glyph glyph-name="lozenge" unicode="&#x25ca;" 
d="M98 330l164 340h76l164 -340l-164 -340h-76zM302 59l63 133l64 138l-64 137l-63 134h-4l-63 -134l-64 -137l64 -138l63 -133h4z" />
    <glyph glyph-name="uni2610" unicode="&#x2610;" 
d="M-25 620l61 51h589v-620l-52 -61h-598v630zM550 33v564h-533v-564h533z" />
    <glyph glyph-name="uni2611" unicode="&#x2611;" 
d="M-25 620l61 51h508q51 67 108 124l54 -50q-50 -48 -81 -84v-610l-52 -61h-598v630zM550 33v532q-70 -98 -125 -212t-89 -239l-86 -10q-54 149 -140 277l56 38q78 -123 118 -247h4q32 108 84.5 217.5t118.5 207.5h-474v-564h533z" />
    <glyph glyph-name="uni2713" unicode="&#x2713;" 
d="M-6 275l56 38q84 -126 132 -265h4q53 177 153 348.5t217 287.5l54 -50q-123 -115 -223.5 -281.5t-155.5 -362.5l-86 -10q-59 162 -151 295z" />
    <glyph glyph-name="uni2752" unicode="&#x2752;" 
d="M166 346l59 49h209v-215l-49 -58h-219v224zM362 158v165h-158v-165h158z" />
    <glyph glyph-name="uniE0A0" unicode="&#xe0a0;" horiz-adv-x="599" 
d="M57 1057h177v-653l-177 -103v756zM57 -3q0 93 37.5 150.5t121.5 107.5l97 57q59 36 83 82t24 119v191h-134l187 197l187 -197h-134v-223q0 -99 -30 -162t-107 -108l-48 -29q-62 -37 -84.5 -75.5t-22.5 -109.5v-278h-177v278z" />
    <glyph glyph-name="uniE0A1" unicode="&#xe0a1;" horiz-adv-x="599" 
d="M85 410v520h99v-444h225v-76h-324zM514 -157h-106l-157 338l12 -225v-113h-101v520h106l158 -339l-13 248v91h101v-520z" />
    <glyph glyph-name="uniE0A2" unicode="&#xe0a2;" horiz-adv-x="599" 
d="M40 11v398q0 88 78 88v177q0 53 24 94.5t66 64.5t92 23q51 0 92.5 -23.5t65.5 -65t24 -93.5v-177q78 0 78 -88v-398q0 -81 -90 -81h-340q-90 0 -90 81zM395 497v177q0 49 -26 78t-69 29q-44 0 -69.5 -29.5t-25.5 -77.5v-177h190zM336 66v187q43 19 43 64q0 32 -24 52
t-55 20q-32 0 -55.5 -20.5t-23.5 -51.5q0 -45 43 -64v-187h72z" />
    <glyph glyph-name="uniE0B0" unicode="&#xe0b0;" horiz-adv-x="599" 
d="M-39 -287v1344l678 -672z" />
    <glyph glyph-name="uniE0B1" unicode="&#xe0b1;" horiz-adv-x="599" 
d="M639 385l-653 -647l-62 55l597 592l-597 592l62 55z" />
    <glyph glyph-name="uniE0B2" unicode="&#xe0b2;" horiz-adv-x="599" 
d="M639 1057v-1344l-678 672z" />
    <glyph glyph-name="uniE0B3" unicode="&#xe0b3;" horiz-adv-x="599" 
d="M-39 385l653 647l62 -55l-597 -592l597 -592l-62 -55z" />
    <glyph glyph-name="zero.alt" 
d="M132 78.5q-61 90.5 -61 253.5q0 164 60.5 252t168.5 88t168.5 -88t60.5 -252q0 -163 -61 -253.5t-168 -90.5t-168 90.5zM411 124q41 70 41 208t-41 206t-111 68t-111 -68t-41 -206t41 -208t111 -70t111 70zM256 289.5q-18 18.5 -18 49.5t18 49.5t44 18.5t44 -18.5
t18 -49.5t-18 -49.5t-44 -18.5t-44 18.5z" />
    <glyph glyph-name="four.alt" 
d="M368 183h-329v55l319 422h88v-411h99v-66h-99v-183h-78v183zM368 249v209q0 26 5 116h-5l-41 -61l-24 -34l-173 -230h238z" />
    <glyph glyph-name="zero.subs" 
d="M199.5 -137q-38.5 45 -38.5 122q0 76 38.5 119t100.5 43t100.5 -43t38.5 -119q0 -77 -38.5 -122t-100.5 -45t-100.5 45zM356 -102q22 30 22 87q0 56 -22 84.5t-56 28.5t-56 -28.5t-22 -84.5q0 -57 22 -87t56 -30t56 30z" />
    <glyph glyph-name="one.subs" 
d="M290 60h-82v42q31 5 51.5 12.5t43.5 20.5h50v-305h-63v230z" />
    <glyph glyph-name="two.subs" 
d="M184 -134q88 67 124.5 103t36.5 67q0 27 -16 43t-45 16q-39 0 -71 -42l-40 33q24 28 54.5 44.5t64.5 16.5q54 0 84.5 -27t30.5 -76q0 -36 -28 -69.5t-93 -91.5h136v-53h-238v36z" />
    <glyph glyph-name="three.subs" 
d="M230.5 -167.5q-33.5 14.5 -58.5 39.5l32 39q16 -19 40.5 -31t50.5 -12q28 0 45 11.5t17 35.5q0 51 -96 51v38q40 0 60.5 13.5t20.5 37.5q0 20 -13.5 31.5t-41.5 11.5q-18 0 -38 -9.5t-35 -24.5l-30 38q19 20 50 32.5t65 12.5q47 0 76.5 -22.5t29.5 -61.5q0 -29 -13.5 -47
t-42.5 -28q33 -8 52 -27.5t19 -49.5q0 -43 -34 -68t-87 -25q-35 0 -68.5 14.5z" />
    <glyph glyph-name="four.subs" 
d="M334 -97h-162v31l148 201h71v-189h50v-43h-50v-73h-57v73zM334 -54v56l4 82h-3l-45 -65l-54 -73h98z" />
    <glyph glyph-name="five.subs" 
d="M231.5 -168.5q-30.5 13.5 -59.5 40.5l32 39q41 -43 92 -43q29 0 47.5 15.5t18.5 41.5q0 28 -18 43t-49 15q-18 0 -32.5 -5.5t-31.5 -17.5l-31 20l17 155h189v-54h-139l-10 -70q24 12 56 12q50 0 81 -26.5t31 -72.5q0 -47 -35 -76.5t-89 -29.5q-39 0 -69.5 13.5z" />
    <glyph glyph-name="six.subs" 
d="M213.5 -140.5q-38.5 41.5 -38.5 110.5q0 84 42 130.5t112 46.5q49 0 93 -32l-26 -41q-31 24 -65 24q-43 0 -68 -29.5t-29 -85.5q40 34 91 34q50 0 76 -26t26 -69t-32.5 -73.5t-82.5 -30.5q-60 0 -98.5 41.5zM353.5 -117.5q15.5 14.5 15.5 39.5q0 24 -14.5 38.5
t-44.5 14.5q-38 0 -75 -34q5 -37 26 -55t50 -18q27 0 42.5 14.5z" />
    <glyph glyph-name="seven.subs" 
d="M279.5 -37.5q22.5 56.5 72.5 119.5h-169v53h243v-36q-60 -66 -82 -124.5t-26 -144.5h-65q4 76 26.5 132.5z" />
    <glyph glyph-name="eight.subs" 
d="M210 -156q-35 26 -35 62q0 29 17.5 48t47.5 33v4q-27 16 -40.5 31.5t-13.5 40.5q0 36 33.5 60t80.5 24q50 0 82.5 -23.5t32.5 -60.5q0 -43 -53 -72v-4q30 -13 46.5 -31.5t16.5 -49.5q0 -37 -36 -62.5t-89 -25.5q-55 0 -90 26zM356 60q0 19 -15 30.5t-41 11.5
q-25 0 -40 -11.5t-15 -28.5q0 -20 19.5 -32t55.5 -23q36 22 36 53zM346.5 -124q20.5 13 20.5 32q0 25 -21 36.5t-66 24.5q-22 -10 -34.5 -26t-12.5 -33q0 -20 19.5 -33.5t47.5 -13.5q26 0 46.5 13z" />
    <glyph glyph-name="nine.subs" 
d="M178 -149l26 40q30 -23 65 -23q42 0 67 29t29 85q-40 -34 -90 -34t-76 26t-26 69q0 44 32.5 74t82.5 30q60 0 98.5 -41.5t38.5 -110.5q0 -84 -42 -130.5t-112 -46.5q-50 0 -93 33zM364 24q-5 36 -26 55t-49 19q-27 0 -42.5 -15t-15.5 -40q0 -24 14.5 -38t44.5 -14
q40 0 74 33z" />
    <glyph glyph-name="zero.dnom" 
d="M199.5 33q-38.5 45 -38.5 122q0 76 38.5 119t100.5 43t100.5 -43t38.5 -119q0 -77 -38.5 -122t-100.5 -45t-100.5 45zM356 68q22 30 22 87q0 56 -22 84.5t-56 28.5t-56 -28.5t-22 -84.5q0 -57 22 -87t56 -30t56 30z" />
    <glyph glyph-name="one.dnom" 
d="M290 230h-82v42q31 5 51.5 12.5t43.5 20.5h50v-305h-63v230z" />
    <glyph glyph-name="two.dnom" 
d="M183 36q88 67 124.5 103t36.5 67q0 27 -16 43t-44 16q-20 0 -38.5 -11.5t-33.5 -30.5l-39 33q52 61 118 61q54 0 85 -27t31 -76q0 -25 -15.5 -50t-37 -47t-68.5 -64h136v-53h-239v36z" />
    <glyph glyph-name="three.dnom" 
d="M230.5 2.5q-33.5 14.5 -58.5 39.5l32 39q16 -19 40.5 -31t50.5 -12q28 0 45 11.5t17 35.5q0 51 -96 51v38q40 0 60.5 13.5t20.5 37.5q0 20 -13.5 31.5t-41.5 11.5q-18 0 -38 -9.5t-35 -24.5l-30 38q19 20 50 32.5t65 12.5q47 0 76.5 -22.5t29.5 -61.5q0 -29 -13.5 -47
t-42.5 -28q33 -8 52 -27.5t19 -49.5q0 -43 -34 -68t-87 -25q-35 0 -68.5 14.5z" />
    <glyph glyph-name="four.dnom" 
d="M334 73h-162v31l148 201h71v-189h50v-43h-50v-73h-57v73zM334 116v56l4 82h-3l-45 -65l-54 -73h98z" />
    <glyph glyph-name="five.dnom" 
d="M231.5 1.5q-30.5 13.5 -59.5 40.5l32 39q41 -43 92 -43q29 0 47.5 15.5t18.5 41.5q0 28 -18 43t-49 15q-18 0 -32.5 -5.5t-31.5 -17.5l-31 20l17 155h189v-54h-139l-10 -70q24 12 56 12q50 0 81 -26.5t31 -72.5q0 -47 -35 -76.5t-89 -29.5q-39 0 -69.5 13.5z" />
    <glyph glyph-name="six.dnom" 
d="M214.5 29.5q-38.5 41.5 -38.5 110.5q0 84 42 130.5t112 46.5q28 0 50 -8.5t43 -23.5l-26 -41q-31 24 -64 24q-43 0 -69 -30t-29 -86q40 35 91 35q50 0 76.5 -26t26.5 -69t-33 -73.5t-83 -30.5q-60 0 -98.5 41.5zM354.5 52.5q15.5 14.5 15.5 39.5q0 24 -14.5 38.5
t-44.5 14.5q-39 0 -75 -35q6 -36 27 -54t49 -18q27 0 42.5 14.5z" />
    <glyph glyph-name="seven.dnom" 
d="M279.5 132.5q22.5 56.5 72.5 119.5h-169v53h243v-36q-60 -66 -82 -124.5t-26 -144.5h-65q4 76 26.5 132.5z" />
    <glyph glyph-name="eight.dnom" 
d="M210 14q-35 26 -35 62q0 29 17.5 48t47.5 33v4q-27 16 -40.5 31.5t-13.5 40.5q0 36 33.5 60t80.5 24q50 0 82.5 -23.5t32.5 -60.5q0 -43 -53 -72v-4q30 -13 46.5 -31.5t16.5 -49.5q0 -37 -36 -62.5t-89 -25.5q-55 0 -90 26zM356 230q0 19 -15 30.5t-41 11.5
q-25 0 -40 -11.5t-15 -28.5q0 -20 19.5 -32t55.5 -23q36 22 36 53zM346.5 46q20.5 13 20.5 32q0 25 -21 36.5t-66 24.5q-22 -10 -34.5 -26t-12.5 -33q0 -20 19.5 -33.5t47.5 -13.5q26 0 46.5 13z" />
    <glyph glyph-name="nine.dnom" 
d="M178 21l26 40q30 -23 65 -23q42 0 67 29t29 85q-40 -34 -90 -34t-76 26t-26 69q0 44 32.5 74t82.5 30q60 0 98.5 -41.5t38.5 -110.5q0 -84 -42 -130.5t-112 -46.5q-50 0 -93 33zM364 194q-5 36 -26 55t-49 19q-27 0 -42.5 -15t-15.5 -40q0 -24 14.5 -38t44.5 -14
q40 0 74 33z" />
    <glyph glyph-name="zero.numr" 
d="M199.5 365.5q-38.5 44.5 -38.5 121.5q0 76 38.5 119.5t100.5 43.5t100.5 -43.5t38.5 -119.5q0 -77 -38.5 -121.5t-100.5 -44.5t-100.5 44.5zM356 400.5q22 30.5 22 86.5q0 57 -21.5 85t-56.5 28t-56.5 -28t-21.5 -85q0 -56 22 -86.5t56 -30.5t56 30.5z" />
    <glyph glyph-name="one.numr" 
d="M290 563h-82v42q32 5 52.5 12.5t42.5 20.5h50v-305h-63v230z" />
    <glyph glyph-name="two.numr" 
d="M184 368q90 69 125.5 104.5t35.5 66.5q0 27 -16 42.5t-45 15.5q-40 0 -71 -42l-40 34q24 28 54.5 44.5t64.5 16.5q54 0 84.5 -27t30.5 -76q0 -37 -28.5 -70.5t-92.5 -90.5h136v-53h-238v35z" />
    <glyph glyph-name="three.numr" 
d="M230.5 335.5q-33.5 14.5 -58.5 39.5l32 39q16 -19 40.5 -31.5t50.5 -12.5q28 0 45 12t17 35q0 52 -96 52v38q40 0 60.5 13.5t20.5 36.5q0 20 -13.5 31.5t-41.5 11.5q-18 0 -38 -9t-35 -24l-30 38q19 20 50 32.5t65 12.5q47 0 76.5 -23t29.5 -61q0 -29 -13.5 -47
t-42.5 -28q33 -8 52 -27.5t19 -49.5q0 -43 -34 -68t-87 -25q-35 0 -68.5 14.5z" />
    <glyph glyph-name="four.numr" 
d="M334 406h-162v31l148 201h71v-190h50v-42h-50v-73h-57v73zM334 448v56l4 82h-3l-45 -64l-54 -74h98z" />
    <glyph glyph-name="five.numr" 
d="M231.5 334.5q-30.5 13.5 -59.5 40.5l32 39q42 -44 92 -44q29 0 47.5 15.5t18.5 42.5t-18 42.5t-49 15.5q-18 0 -33 -6t-31 -18l-31 21l17 155h189v-55h-139l-10 -70q23 13 56 13q51 0 81.5 -26.5t30.5 -73.5t-35 -76t-89 -29q-39 0 -69.5 13.5z" />
    <glyph glyph-name="six.numr" 
d="M213.5 362.5q-38.5 41.5 -38.5 110.5q0 84 42 130.5t112 46.5q50 0 93 -33l-26 -40q-32 23 -65 23q-43 0 -68 -29.5t-29 -85.5q40 35 91 35q50 0 76 -26t26 -69q0 -44 -32.5 -74t-82.5 -30q-60 0 -98.5 41.5zM353.5 385q15.5 15 15.5 40q0 24 -14.5 38t-44.5 14
q-40 0 -75 -34q5 -36 26.5 -54.5t49.5 -18.5q27 0 42.5 15z" />
    <glyph glyph-name="seven.numr" 
d="M279.5 465.5q22.5 56.5 72.5 119.5h-169v53h243v-36q-60 -67 -82 -125.5t-26 -143.5h-65q4 76 26.5 132.5z" />
    <glyph glyph-name="eight.numr" 
d="M210 347q-35 26 -35 62q0 28 17.5 47t47.5 34v4q-27 16 -40.5 31.5t-13.5 40.5q0 36 33.5 60t80.5 24q49 0 82 -24t33 -60q0 -26 -14.5 -42.5t-38.5 -29.5v-4q30 -14 46.5 -32.5t16.5 -48.5q0 -37 -36 -62.5t-89 -25.5q-55 0 -90 26zM356 562q0 19 -15 30.5t-41 11.5
q-25 0 -40 -11.5t-15 -28.5q0 -19 19.5 -31t55.5 -23q36 21 36 52zM346.5 378q20.5 13 20.5 33q0 24 -21.5 36t-65.5 25q-22 -10 -34.5 -26t-12.5 -33q0 -20 19.5 -34t47.5 -14q26 0 46.5 13z" />
    <glyph glyph-name="nine.numr" 
d="M178 353l26 40q32 -23 65 -23q42 0 67 29t29 85q-41 -33 -90 -33q-50 0 -76 25.5t-26 69.5q0 43 32.5 73.5t82.5 30.5q60 0 98.5 -41.5t38.5 -110.5q0 -84 -42 -130.5t-112 -46.5q-51 0 -93 32zM365 526q-6 37 -27 55.5t-49 18.5q-27 0 -42.5 -15t-15.5 -39t14.5 -38.5
t44.5 -14.5q39 0 75 33z" />
    <glyph glyph-name="zero.sups" 
d="M199.5 473q-38.5 45 -38.5 122q0 76 38.5 119t100.5 43t100.5 -43t38.5 -119q0 -77 -38.5 -122t-100.5 -45t-100.5 45zM356 508q22 30 22 87q0 56 -22 84.5t-56 28.5t-56 -28.5t-22 -84.5q0 -57 22 -87t56 -30t56 30z" />
    <glyph glyph-name="one.sups" 
d="M290 670h-82v42q31 5 51.5 12.5t43.5 20.5h50v-305h-63v230z" />
    <glyph glyph-name="two.sups" 
d="M184 476q88 67 124.5 103t36.5 67q0 27 -16 43t-45 16q-39 0 -71 -42l-40 33q24 28 54.5 44.5t64.5 16.5q54 0 84.5 -27t30.5 -76q0 -36 -28 -69.5t-93 -91.5h136v-53h-238v36z" />
    <glyph glyph-name="three.sups" 
d="M230.5 442.5q-33.5 14.5 -58.5 39.5l32 39q16 -19 40.5 -31t50.5 -12q28 0 45 11.5t17 35.5q0 51 -96 51v38q40 0 60.5 13.5t20.5 37.5q0 20 -13.5 31.5t-41.5 11.5q-18 0 -38 -9.5t-35 -24.5l-30 38q19 20 50 32.5t65 12.5q47 0 76.5 -22.5t29.5 -61.5q0 -29 -13.5 -47
t-42.5 -28q33 -8 52 -27.5t19 -49.5q0 -43 -34 -68t-87 -25q-35 0 -68.5 14.5z" />
    <glyph glyph-name="four.sups" 
d="M334 513h-162v31l148 201h71v-189h50v-43h-50v-73h-57v73zM334 556v56l4 82h-3l-45 -65l-54 -73h98z" />
    <glyph glyph-name="five.sups" 
d="M231.5 441.5q-30.5 13.5 -59.5 40.5l32 39q41 -43 92 -43q29 0 47.5 15.5t18.5 41.5q0 28 -18 43t-49 15q-18 0 -32.5 -5.5t-31.5 -17.5l-31 20l17 155h189v-54h-139l-10 -70q24 12 56 12q50 0 81 -26.5t31 -72.5q0 -47 -35 -76.5t-89 -29.5q-39 0 -69.5 13.5z" />
    <glyph glyph-name="six.sups" 
d="M213.5 469.5q-38.5 41.5 -38.5 110.5q0 84 42 130.5t112 46.5q49 0 93 -32l-26 -41q-31 24 -65 24q-43 0 -68 -29.5t-29 -85.5q40 34 91 34q50 0 76 -26t26 -69t-32.5 -73.5t-82.5 -30.5q-60 0 -98.5 41.5zM353.5 492.5q15.5 14.5 15.5 39.5q0 24 -14.5 38.5t-44.5 14.5
q-38 0 -75 -34q5 -37 26 -55t50 -18q27 0 42.5 14.5z" />
    <glyph glyph-name="seven.sups" 
d="M279.5 572.5q22.5 56.5 72.5 119.5h-169v53h243v-36q-60 -66 -82 -124.5t-26 -144.5h-65q4 76 26.5 132.5z" />
    <glyph glyph-name="eight.sups" 
d="M210 454q-35 26 -35 62q0 29 17.5 48t47.5 33v4q-27 16 -40.5 31.5t-13.5 40.5q0 36 33.5 60t80.5 24q50 0 82.5 -23.5t32.5 -60.5q0 -43 -53 -72v-4q30 -13 46.5 -31.5t16.5 -49.5q0 -37 -36 -62.5t-89 -25.5q-55 0 -90 26zM356 670q0 19 -15 30.5t-41 11.5
q-25 0 -40 -11.5t-15 -28.5q0 -20 19.5 -32t55.5 -23q36 22 36 53zM346.5 486q20.5 13 20.5 32q0 25 -21 36.5t-66 24.5q-22 -10 -34.5 -26t-12.5 -33q0 -20 19.5 -33.5t47.5 -13.5q26 0 46.5 13z" />
    <glyph glyph-name="nine.sups" 
d="M178 461l26 40q30 -23 65 -23q42 0 67 29t29 85q-40 -34 -90 -34t-76 26t-26 69q0 44 32.5 74t82.5 30q60 0 98.5 -41.5t38.5 -110.5q0 -84 -42 -130.5t-112 -46.5q-50 0 -93 33zM364 634q-5 36 -26 55t-49 19q-27 0 -42.5 -15t-15.5 -40q0 -24 14.5 -38t44.5 -14
q40 0 74 33z" />
    <glyph glyph-name="asterisk.alt" 
d="M155 345l92 147l-143 57l16 46l147 -44l9 161h48l9 -159l147 42l16 -46l-143 -57l92 -147l-42 -29l-103 140l-103 -140z" />
    <glyph glyph-name="comma.dnom" 
d="M244 -79q64 25 64 79q-2 -1 -7 -1q-19 0 -32.5 11t-13.5 31t14 33t33 13q26 0 40 -18.5t14 -54.5q0 -44 -26 -78.5t-70 -51.5z" />
    <glyph glyph-name="period.dnom" 
d="M267 5q-13 13 -13 34t13 34.5t33 13.5t33 -13.5t13 -34.5t-13 -34t-33 -13t-33 13z" />
    <glyph glyph-name="slash.frac" 
d="M356 421l167 203l49 -45l-183 -188zM28 77l183 188l33 -30l-167 -203z" />
    <glyph glyph-name="comma.numr" 
d="M244 187q64 25 64 80q-2 -1 -7 -1q-19 0 -32.5 11t-13.5 31t14 33t33 13q26 0 40 -19t14 -55q0 -44 -26 -78.5t-70 -50.5z" />
    <glyph glyph-name="period.numr" 
d="M267 271.5q-13 13.5 -13 34.5t13 34.5t33 13.5t33 -13.5t13 -34.5t-13 -34.5t-33 -13.5t-33 13.5z" />
    <glyph glyph-name="comma.subs" 
d="M244 -249q64 25 64 79q-2 -1 -7 -1q-19 0 -32.5 11t-13.5 31t14 33t33 13q26 0 40 -18.5t14 -54.5q0 -44 -26 -78.5t-70 -51.5z" />
    <glyph glyph-name="period.subs" 
d="M267 -165q-13 13 -13 34t13 34.5t33 13.5t33 -13.5t13 -34.5t-13 -34t-33 -13t-33 13z" />
    <glyph glyph-name="parenleft.dnom" 
d="M262.5 31q-26.5 56 -26.5 128t26.5 128t78.5 108l46 -33q-44 -44 -64.5 -93.5t-20.5 -109.5t20.5 -109.5t64.5 -93.5l-46 -32q-52 51 -78.5 107z" />
    <glyph glyph-name="parenright.dnom" 
d="M213 -44q44 44 64.5 93.5t20.5 109.5t-20.5 109.5t-64.5 93.5l46 33q52 -52 78.5 -108t26.5 -128t-26.5 -128t-78.5 -107z" />
    <glyph glyph-name="parenleft.numr" 
d="M262.5 297.5q-26.5 56.5 -26.5 127.5q0 72 26.5 128.5t78.5 107.5l46 -33q-44 -44 -64.5 -93.5t-20.5 -109.5q0 -59 20.5 -108.5t64.5 -93.5l-46 -33q-52 51 -78.5 107.5z" />
    <glyph glyph-name="parenright.numr" 
d="M213 223q44 44 64.5 93.5t20.5 108.5q0 60 -20.5 109.5t-64.5 93.5l46 33q52 -51 78.5 -107.5t26.5 -128.5q0 -71 -26.5 -127.5t-78.5 -107.5z" />
    <glyph glyph-name="parenleft.subs" 
d="M262.5 -139q-26.5 56 -26.5 128t26.5 128t78.5 108l46 -33q-44 -44 -64.5 -93.5t-20.5 -109.5t20.5 -109.5t64.5 -93.5l-46 -32q-52 51 -78.5 107z" />
    <glyph glyph-name="parenright.subs" 
d="M213 -214q44 44 64.5 93.5t20.5 109.5t-20.5 109.5t-64.5 93.5l46 33q52 -52 78.5 -108t26.5 -128t-26.5 -128t-78.5 -107z" />
    <glyph glyph-name="comma.sups" 
d="M244 361q64 25 64 79q-2 -1 -7 -1q-19 0 -32.5 11t-13.5 31t14 33t33 13q26 0 40 -18.5t14 -54.5q0 -44 -26 -78.5t-70 -51.5z" />
    <glyph glyph-name="parenleft.sups" 
d="M262.5 471q-26.5 56 -26.5 128t26.5 128t78.5 108l46 -33q-44 -44 -64.5 -93.5t-20.5 -109.5t20.5 -109.5t64.5 -93.5l-46 -32q-52 51 -78.5 107z" />
    <glyph glyph-name="parenright.sups" 
d="M213 396q44 44 64.5 93.5t20.5 109.5t-20.5 109.5t-64.5 93.5l46 33q52 -52 78.5 -108t26.5 -128t-26.5 -128t-78.5 -107z" />
    <glyph glyph-name="period.sups" 
d="M267 445q-13 13 -13 34t13 34.5t33 13.5t33 -13.5t13 -34.5t-13 -34t-33 -13t-33 13z" />
    <glyph glyph-name="space.frac" 
 />
    <glyph glyph-name="uni00A0.frac" 
 />
  </font>
</defs>
</svg>
