<?xml version="1.0" standalone="no"?>
<!DOCTYPE svg PUBLIC "-//W3C//DTD SVG 1.1//EN" "http://www.w3.org/Graphics/SVG/1.1/DTD/svg11.dtd" >
<svg>
<metadata>
Created by FontForge 20120731 at Thu Nov  3 04:18:48 2016
 By ,,,
(c) 2015 Adobe &#38; Nathan Rutzky
</metadata>
<defs>
<font id="OfficeCodePro-Bold" horiz-adv-x="600" >
  <font-face 
    font-family="Office Code Pro Bold"
    font-weight="700"
    font-stretch="normal"
    units-per-em="1000"
    panose-1="0 0 8 9 0 0 0 0 0 0"
    ascent="750"
    descent="-250"
    x-height="510"
    cap-height="660"
    bbox="-488 -300 709 1057"
    underline-thickness="50"
    underline-position="-50"
    unicode-range="U+0020-E0B3"
  />
<missing-glyph 
d="M35 660h530v-660h-530v660zM302 414l42 95l32 59h-152l31 -59l43 -95h4zM228 340l-94 186v-371zM466 526l-94 -186l94 -185v371zM382 91l-39 77l-41 98h-4l-41 -98l-39 -77h164z" />
    <glyph glyph-name=".notdef" 
d="M35 660h530v-660h-530v660zM302 414l42 95l32 59h-152l31 -59l43 -95h4zM228 340l-94 186v-371zM466 526l-94 -186l94 -185v371zM382 91l-39 77l-41 98h-4l-41 -98l-39 -77h164z" />
    <glyph glyph-name=".null" horiz-adv-x="0" 
 />
    <glyph glyph-name="nonmarkingreturn" horiz-adv-x="333" 
 />
    <glyph glyph-name="space" unicode=" " 
 />
    <glyph glyph-name="exclam" unicode="!" 
d="M227 670h146l-25 -415h-96zM228.5 16.5q-28.5 28.5 -28.5 73.5q0 44 28.5 72t71.5 28t71.5 -28t28.5 -72q0 -45 -28.5 -73.5t-71.5 -28.5t-71.5 28.5z" />
    <glyph glyph-name="quotedbl" unicode="&#x22;" 
d="M87 553l-5 132h170l-5 -132l-35 -215h-90zM353 553l-5 132h170l-5 -132l-35 -215h-90z" />
    <glyph glyph-name="numbersign" unicode="#" 
d="M144 187h-74v94h85l14 110h-79v94h91l21 165h84l-20 -165h104l21 165h84l-20 -165h79v-94h-91l-13 -110h84v-94h-95l-23 -187h-85l22 187h-103l-23 -187h-85zM344 281l14 110h-104l-13 -110h103z" />
    <glyph glyph-name="dollar" unicode="$" 
d="M180 -105l28 151q-40 10 -77.5 28t-66.5 41l64 100q56 -33 103 -48l21 114q-79 30 -124 67t-45 103q0 83 64 125t167 42l25 132l88 -10l-26 -137q61 -20 112 -70l-73 -84q-41 26 -61 34l-20 -104q78 -27 125.5 -65.5t47.5 -104.5q0 -50 -27.5 -89.5t-81.5 -62.5t-128 -23
l-28 -149zM292 499q-33 0 -51 -12t-18 -34q0 -13 13.5 -23.5t39.5 -20.5zM372 165q19 12 19 33q0 16 -14.5 28t-41.5 24l-18 -97q36 0 55 12z" />
    <glyph glyph-name="percent" unicode="%" 
d="M66 358.5q-42 46.5 -42 122.5t42 121t106 45q65 0 107 -45t42 -121t-42 -122.5t-107 -46.5q-64 0 -106 46.5zM347 425l162 199l75 -73l-186 -174zM206.5 411.5q13.5 21.5 13.5 69.5q0 87 -48 87q-47 0 -47 -87q0 -48 13 -69.5t34 -21.5t34.5 21.5zM321 34.5
q-42 46.5 -42 123.5q0 76 42 121t107 45q64 0 106 -45t42 -121q0 -77 -42 -123.5t-106 -46.5q-65 0 -107 46.5zM17 101l187 173l51 -47l-162 -199zM462 88.5q13 21.5 13 69.5q0 87 -47 87q-48 0 -48 -87q0 -48 13.5 -69.5t34.5 -21.5t34 21.5z" />
    <glyph glyph-name="ampersand" unicode="&#x26;" 
d="M119 13.5q-47 25.5 -71.5 68t-24.5 94.5q0 60 28 102.5t77 78.5q-42 81 -42 143q0 47 20 86.5t56.5 62.5t84.5 23q73 0 115 -40t42 -109q0 -39 -17 -71.5t-42 -57t-65 -56.5q44 -58 117 -119q38 67 55 153h134q-31 -125 -91 -223q50 -33 91 -42l-35 -119q-69 17 -138 64
q-78 -64 -181 -64q-66 0 -113 25.5zM274 470.5q17 23.5 17 52.5q0 52 -41 52q-19 0 -31 -20.5t-12 -53.5q0 -36 19 -77q31 23 48 46.5zM315 124q-74 66 -124 136q-29 -35 -29 -75q0 -38 24.5 -61.5t64.5 -23.5q33 0 64 24z" />
    <glyph glyph-name="quotesingle" unicode="'" 
d="M220 553l-5 132h170l-5 -132l-35 -215h-90z" />
    <glyph glyph-name="parenleft" unicode="(" 
d="M236 25.5q-55 115.5 -55 252.5t55 252.5t156 204.5l82 -65q-89 -87 -129.5 -180t-40.5 -212t40.5 -212t129.5 -180l-82 -65q-101 89 -156 204.5z" />
    <glyph glyph-name="parenright" unicode=")" 
d="M126 -114q89 87 129.5 180t40.5 212t-40.5 212t-129.5 180l82 65q101 -89 156 -204.5t55 -252.5t-55 -252.5t-156 -204.5z" />
    <glyph glyph-name="asterisk" unicode="*" 
d="M120 135l97 157l-153 68l23 71l162 -43l12 178h78l12 -178l162 43l23 -71l-153 -68l97 -157l-64 -44l-116 142l-116 -142z" />
    <glyph glyph-name="plus" unicode="+" 
d="M246 278h-176v104h176v184h108v-184h176v-104h-176v-184h-108v184z" />
    <glyph glyph-name="comma" unicode="," 
d="M182 -131q65 22 97.5 58t32.5 84q-4 -1 -11 -1q-45 0 -76.5 27.5t-31.5 74.5q0 46 32.5 74.5t79.5 28.5q61 0 92.5 -45t31.5 -127q0 -96 -53.5 -162.5t-156.5 -97.5z" />
    <glyph glyph-name="hyphen" unicode="-" 
d="M70 382h460v-104h-460v104z" />
    <glyph glyph-name="period" unicode="." 
d="M216.5 21.5q-32.5 33.5 -32.5 83.5t32.5 84t83.5 34t83.5 -34t32.5 -84t-32.5 -83.5t-83.5 -33.5t-83.5 33.5z" />
    <glyph glyph-name="slash" unicode="/" 
d="M453 710h123l-429 -742h-123z" />
    <glyph glyph-name="zero" unicode="0" 
d="M171 28q-55 40 -85 117t-30 187q0 165 65.5 252.5t178.5 87.5t178.5 -87.5t65.5 -252.5q0 -110 -30 -187t-85 -117t-129 -40t-129 40zM370 524q-27 34 -70 34q-113 0 -113 -226q0 -34 4 -86zM382.5 156q30.5 54 30.5 176q0 54 -4 85l-179 -279q27 -36 70 -36
q52 0 82.5 54z" />
    <glyph glyph-name="one" unicode="1" 
d="M82 119h164v391h-131v91q53 9 93 23.5t77 35.5h108v-541h144v-119h-455v119z" />
    <glyph glyph-name="two" unicode="2" 
d="M58 84q109 97 170.5 157.5t97.5 114t36 99.5q0 49 -27 75.5t-77 26.5q-35 0 -66 -18.5t-62 -50.5l-79 80q52 54 104 79t123 25q66 0 117 -26t79 -73t28 -109q0 -77 -60.5 -159.5t-172.5 -188.5q72 8 115 8h151v-124h-477v84z" />
    <glyph glyph-name="three" unicode="3" 
d="M140.5 13q-59.5 25 -98.5 68l68 93q33 -31 73 -49t82 -18q53 0 86 21.5t33 59.5q0 48 -43 73t-149 25v104q171 0 171 92q0 35 -25 55t-69 20q-36 0 -68 -15t-67 -44l-74 90q100 84 216 84q106 0 170 -47.5t64 -132.5q0 -99 -121 -147v-4q64 -18 103 -59t39 -103
q0 -59 -34.5 -102.5t-92 -66t-125.5 -22.5q-79 0 -138.5 25z" />
    <glyph glyph-name="four" unicode="4" 
d="M341 160h-306v101l179 399h147l-184 -388h164v161h137v-161h80v-112h-80v-160h-137v160z" />
    <glyph glyph-name="five" unicode="5" 
d="M46 80l66 93q35 -31 71.5 -48.5t78.5 -17.5q56 0 89.5 28t33.5 79q0 50 -32 77.5t-84 27.5q-31 0 -52.5 -7t-54.5 -26l-65 42l17 332h389v-124h-262l-11 -130q22 9 41 13t43 4q60 0 109.5 -22.5t79 -69t29.5 -113.5q0 -71 -34 -123t-91 -79.5t-124 -27.5q-145 0 -237 92z
" />
    <glyph glyph-name="six" unicode="6" 
d="M190.5 23q-58.5 35 -94.5 108t-36 183q0 118 38 199t100.5 120t135.5 39q63 0 115 -21.5t87 -56.5l-77 -88q-22 20 -52 33.5t-60 13.5q-64 0 -105.5 -51t-45.5 -163q33 34 74.5 53.5t78.5 19.5q88 0 142 -52t54 -152q0 -66 -31 -116t-83 -77t-114 -27q-68 0 -126.5 35z
M383 126q28 28 28 82q0 50 -25 74.5t-69 24.5q-63 0 -117 -66q11 -75 41.5 -109t72.5 -34q41 0 69 28z" />
    <glyph glyph-name="seven" unicode="7" 
d="M218 202q19 87 57.5 166.5t105.5 167.5h-319v124h477v-90q-79 -92 -119.5 -172t-56 -168.5t-22.5 -229.5h-148q6 115 25 202z" />
    <glyph glyph-name="eight" unicode="8" 
d="M173 11q-54 23 -83 63.5t-29 93.5q0 57 32 96t88 68v4q-44 31 -68.5 69t-24.5 86q0 83 60 132t156 49q95 0 151.5 -49.5t56.5 -130.5q0 -44 -25 -81t-66 -65v-4q56 -28 87.5 -69t31.5 -103q0 -53 -28.5 -94t-82.5 -64.5t-130 -23.5q-72 0 -126 23zM391 482q0 40 -23.5 64
t-66.5 24q-37 0 -60.5 -20.5t-23.5 -58.5q0 -39 31 -62.5t95 -46.5q48 47 48 100zM376 112q27 22 27 63q0 30 -18 49.5t-45 32t-90 36.5q-62 -46 -62 -108q0 -43 32.5 -69t82.5 -26q46 0 73 22z" />
    <glyph glyph-name="nine" unicode="9" 
d="M150 9.5q-52 21.5 -88 56.5l78 88q20 -20 51 -33.5t61 -13.5q64 0 105.5 51t45.5 164q-34 -35 -75.5 -54.5t-77.5 -19.5q-88 0 -142.5 52t-54.5 152q0 66 31 116t83 77t114 27q69 0 127.5 -35t94 -108t35.5 -183q0 -119 -38 -199.5t-100 -119.5t-135 -39q-63 0 -115 21.5
zM399 420q-11 74 -42.5 108t-72.5 34t-69 -28.5t-28 -81.5q0 -51 25 -75.5t70 -24.5q63 0 117 68z" />
    <glyph glyph-name="colon" unicode=":" 
d="M216.5 345q-32.5 34 -32.5 84t32.5 83.5t83.5 33.5t83.5 -33.5t32.5 -83.5t-32.5 -84t-83.5 -34t-83.5 34zM216.5 21.5q-32.5 33.5 -32.5 83.5t32.5 84t83.5 34t83.5 -34t32.5 -84t-32.5 -83.5t-83.5 -33.5t-83.5 33.5z" />
    <glyph glyph-name="semicolon" unicode=";" 
d="M216.5 345q-32.5 34 -32.5 84t32.5 83.5t83.5 33.5t83.5 -33.5t32.5 -83.5t-32.5 -84t-83.5 -34t-83.5 34zM182 -131q65 22 97.5 58t32.5 84q-4 -1 -11 -1q-45 0 -76.5 27.5t-31.5 74.5q0 46 32.5 74.5t79.5 28.5q61 0 92.5 -45t31.5 -127q0 -96 -53.5 -162.5
t-156.5 -97.5z" />
    <glyph glyph-name="less" unicode="&#x3c;" 
d="M116 268v102l386 280v-143l-265 -186v-4l265 -186v-143z" />
    <glyph glyph-name="equal" unicode="=" 
d="M70 498h460v-103h-460v103zM70 265h460v-103h-460v103z" />
    <glyph glyph-name="greater" unicode="&#x3e;" 
d="M98 131l265 186v4l-265 186v143l386 -280v-102l-386 -280v143z" />
    <glyph glyph-name="question" unicode="?" 
d="M216 280q0 42 21.5 72.5t61.5 66.5q29 27 43 44t14 37q0 30 -20.5 46.5t-53.5 16.5q-29 0 -53 -12t-49 -34l-82 75q38 42 87.5 66t106.5 24q91 0 148 -42t57 -121q0 -44 -20 -73t-61 -66q-36 -32 -53.5 -56t-17.5 -57l1 -12h-128q-2 18 -2 25zM214.5 16.5
q-28.5 28.5 -28.5 73.5q0 44 28.5 72t71.5 28t71.5 -28t28.5 -72q0 -45 -28.5 -73.5t-71.5 -28.5t-71.5 28.5z" />
    <glyph glyph-name="at" unicode="@" 
d="M186 13q-70 38 -112.5 115t-42.5 188q0 118 41.5 196t110.5 115t155 37q104 0 158 -61t54 -157v-282h-78l-11 50h-4q-20 -28 -50.5 -45t-69.5 -17q-54 0 -90.5 40.5t-36.5 99.5q0 77 63.5 116.5t185.5 55.5v7q0 44 -33 74t-92 30q-51 0 -97 -26.5t-75.5 -85.5t-29.5 -150
q0 -81 29.5 -137t77.5 -84t105 -28q42 0 71.5 9t61.5 29l42 -73q-46 -27 -88 -40.5t-92 -13.5q-83 0 -153 38zM444 284v91q-70 -11 -98.5 -28.5t-28.5 -51.5q0 -22 14 -35t39 -13q37 0 74 37z" />
    <glyph glyph-name="A" unicode="A" 
d="M212 660h176l203 -660h-156l-39 158h-197l-40 -158h-150zM366 273l-15 62l-52 213h-4l-41 -172q-3 -10 -10 -41l-15 -62h137z" />
    <glyph glyph-name="B" unicode="B" 
d="M84 660h204q111 0 175 -37.5t64 -126.5q0 -48 -28.5 -88t-83.5 -55v-4q71 -13 106.5 -51t35.5 -104q0 -96 -69 -145t-181 -49h-223v660zM281 393q52 0 77 21.5t25 60.5q0 38 -24.5 54.5t-76.5 16.5h-51v-153h50zM295 114q118 0 118 91q0 44 -28.5 64t-89.5 20h-64v-175
h64z" />
    <glyph glyph-name="C" unicode="C" 
d="M207 27q-70 39 -111 115.5t-41 183.5t41 185t111.5 119.5t158.5 41.5q58 0 107 -23.5t86 -60.5l-81 -91q-25 23 -52 35.5t-60 12.5q-46 0 -82.5 -26t-57 -74t-20.5 -114q0 -100 45.5 -158t120.5 -58q64 0 116 59l81 -89q-82 -97 -206 -97q-86 0 -156 39z" />
    <glyph glyph-name="D" unicode="D" 
d="M65 660h177q147 0 230.5 -81.5t83.5 -245.5t-82.5 -248.5t-223.5 -84.5h-185v660zM234 119q171 0 171 214q0 112 -44.5 160t-126.5 48h-21v-422h21z" />
    <glyph glyph-name="E" unicode="E" 
d="M94 660h430v-124h-283v-135h240v-123h-240v-154h293v-124h-440v660z" />
    <glyph glyph-name="F" unicode="F" 
d="M108 660h430v-124h-283v-155h241v-124h-241v-257h-147v660z" />
    <glyph glyph-name="G" unicode="G" 
d="M190 27q-68 39 -107 115.5t-39 183.5q0 108 39.5 186t108 119t153.5 41q109 0 191 -84l-81 -91q-23 24 -48 36t-62 12q-43 0 -76.5 -26t-53 -74.5t-19.5 -113.5q0 -103 39.5 -159.5t115.5 -56.5q19 0 36.5 5.5t27.5 15.5v115h-95v120h227v-303q-36 -34 -90.5 -57
t-113.5 -23q-85 0 -153 39z" />
    <glyph glyph-name="H" unicode="H" 
d="M64 660h147v-255h178v255h147v-660h-147v276h-178v-276h-147v660z" />
    <glyph glyph-name="I" unicode="I" 
d="M74 124h152v412h-152v124h452v-124h-152v-412h152v-124h-452v124z" />
    <glyph glyph-name="J" unicode="J" 
d="M156 14q-57 26 -97 83l85 91q58 -73 124 -73q52 0 76.5 27.5t24.5 93.5v301h-255v123h402v-436q0 -106 -58 -171t-185 -65q-60 0 -117 26z" />
    <glyph glyph-name="K" unicode="K" 
d="M68 660h149v-272h3l193 272h162l-195 -263l214 -397h-163l-138 280l-76 -102v-178h-149v660z" />
    <glyph glyph-name="L" unicode="L" 
d="M107 660h147v-536h290v-124h-437v660z" />
    <glyph glyph-name="M" unicode="M" horiz-adv-x="630" 
d="M65 660h148l76 -235l26 -92h3l25 92l74 235h148v-660h-119v220q0 49 6.5 140.5t12.5 155.5h-4l-53 -180l-61 -160h-66l-62 160l-52 180h-4q6 -64 12.5 -155.5t6.5 -140.5v-220h-117v660z" />
    <glyph glyph-name="N" unicode="N" 
d="M66 660h150l138 -331l56 -145h4q-4 42 -7 60q-1 14 -7.5 72.5t-6.5 106.5v237h141v-660h-150l-138 332l-56 143h-4l7 -67q14 -112 14 -171v-237h-141v660z" />
    <glyph glyph-name="O" unicode="O" 
d="M163.5 29.5q-59.5 41.5 -92.5 119.5t-33 184t33 182.5t92 116.5t137 40t137 -40t92 -116.5t33 -182.5t-33 -184t-92.5 -119.5t-136.5 -41.5t-136.5 41.5zM381 174q30 59 30 159q0 99 -30 155.5t-81 56.5t-81 -56.5t-30 -155.5q0 -100 30 -159t81 -59t81 59z" />
    <glyph glyph-name="P" unicode="P" 
d="M74 660h238q116 0 185.5 -49.5t69.5 -162.5q0 -74 -34 -124t-92 -74.5t-129 -24.5h-91v-225h-147v660zM303 342q119 0 119 106q0 51 -29.5 73t-89.5 22h-82v-201h82z" />
    <glyph glyph-name="Q" unicode="Q" 
d="M326 -132q-66 48 -98 129q-89 25 -140.5 113t-51.5 223q0 106 32.5 182.5t91.5 116.5t137 40t136.5 -40t91 -116.5t32.5 -182.5q0 -128 -47 -214.5t-128 -116.5q16 -34 48 -49t71 -15q27 0 53 13l26 -110q-38 -21 -96 -21q-92 0 -158 48zM377.5 174q29.5 59 29.5 159
q0 99 -29.5 155.5t-80.5 56.5q-52 0 -81 -56t-29 -156t29.5 -159t80.5 -59t80.5 59z" />
    <glyph glyph-name="R" unicode="R" 
d="M70 660h231q115 0 183.5 -47.5t68.5 -157.5q0 -70 -31 -118t-85 -72l147 -265h-165l-125 239h-77v-239h-147v660zM289 356q59 0 89 25t30 74q0 48 -29 68t-90 20h-72v-187h72z" />
    <glyph glyph-name="S" unicode="S" 
d="M166.5 12.5q-64.5 24.5 -116.5 70.5l85 101q38 -32 81.5 -50.5t85.5 -18.5q50 0 74 17t24 48q0 20 -11.5 33t-30.5 22.5t-59 24.5l-84 37q-61 23 -100 67.5t-39 111.5q0 55 30.5 99.5t85 70.5t123.5 26q60 0 116.5 -22.5t100.5 -64.5l-75 -93q-36 27 -69 40t-73 13
q-43 0 -66.5 -16t-23.5 -45q0 -19 13 -32t32 -21.5t62 -24.5l79 -35q68 -25 104 -68.5t36 -110.5q0 -55 -30 -102t-87.5 -74.5t-135.5 -27.5q-67 0 -131.5 24.5z" />
    <glyph glyph-name="T" unicode="T" 
d="M226 536h-195v124h538v-124h-195v-536h-148v536z" />
    <glyph glyph-name="U" unicode="U" 
d="M124 56q-60 68 -60 198v406h147v-421q0 -124 91 -124q46 0 69 31.5t23 92.5v421h142v-406q0 -130 -58.5 -198t-175.5 -68q-118 0 -178 68z" />
    <glyph glyph-name="V" unicode="V" 
d="M15 660h156l79 -309q11 -42 26 -108l25 -104h4l36 141l17 71l77 309h150l-196 -660h-177z" />
    <glyph glyph-name="W" unicode="W" 
d="M4 660h150l21 -353l4 -168h3q6 32 20 96l15 72l45 185h89l43 -185l15 -76q13 -58 19 -92h4l2 67q0 52 3 101l19 353h140l-81 -660h-154l-41 210q-14 71 -18 126h-3q-7 -69 -18 -126l-39 -210h-151z" />
    <glyph glyph-name="X" unicode="X" 
d="M208 339l-179 321h165l63 -126l28 -58q3 -8 22 -48h4q24 64 44 106l58 126h158l-179 -328l190 -332h-164l-71 136q-23 43 -52 108h-4q-24 -60 -48 -108l-68 -136h-157z" />
    <glyph glyph-name="Y" unicode="Y" 
d="M226 223l-210 437h158l66 -160q36 -89 59 -151h4q40 102 61 151l66 160h154l-210 -437v-223h-148v223z" />
    <glyph glyph-name="Z" unicode="Z" 
d="M56 89l306 448h-277v123h458v-89l-305 -447h309v-124h-491v89z" />
    <glyph glyph-name="bracketleft" unicode="[" 
d="M201 708h295v-78h-183v-704h183v-78h-295v860z" />
    <glyph glyph-name="backslash" unicode="\" 
d="M24 710h123l429 -742h-123z" />
    <glyph glyph-name="bracketright" unicode="]" 
d="M105 -74h182v704h-182v78h295v-860h-295v78z" />
    <glyph glyph-name="asciicircum" unicode="^" 
d="M241 670h118l155 -396h-121l-46 128l-45 135h-4l-45 -135l-46 -128h-121z" />
    <glyph glyph-name="underscore" unicode="_" 
d="M60 -54h480v-110h-480v110z" />
    <glyph glyph-name="grave" unicode="`" 
d="M143 741h150l89 -167h-107z" />
    <glyph glyph-name="a" unicode="a" 
d="M105.5 31.5q-44.5 43.5 -44.5 109.5q0 87 76.5 131.5t250.5 55.5q-4 37 -30.5 57t-75.5 20q-35 0 -69 -13t-62 -35l-52 96q37 31 93.5 50.5t118.5 19.5q106 0 165 -58t59 -171v-294h-120l-11 58h-4q-90 -70 -176 -70q-74 0 -118.5 43.5zM388 152v88q-103 -6 -144.5 -28.5
t-41.5 -59.5q0 -25 18.5 -37.5t50.5 -12.5q57 0 117 50z" />
    <glyph glyph-name="b" unicode="b" 
d="M268 5.5q-35 17.5 -65 50.5h-4l-12 -56h-115v723h147v-179l-4 -81q30 28 66 44t72 16q93 0 146.5 -70.5t53.5 -188.5q0 -84 -30 -147t-79 -96t-106 -33q-35 0 -70 17.5zM375 146.5q27 38.5 27 114.5q0 142 -91 142q-46 0 -92 -50v-210q38 -35 86 -35q43 0 70 38.5z" />
    <glyph glyph-name="c" unicode="c" 
d="M201.5 19.5q-62.5 31.5 -98.5 92t-36 143.5q0 82 39 143t104.5 93t143.5 32q56 0 104.5 -19t81.5 -51l-68 -91q-55 42 -110 42q-64 0 -104 -41t-40 -108t38.5 -107.5t100.5 -40.5q65 0 131 49l60 -93q-43 -37 -97.5 -56t-107.5 -19q-79 0 -141.5 31.5z" />
    <glyph glyph-name="d" unicode="d" 
d="M146 20q-47 32 -73 92.5t-26 142.5q0 80 30 141t78.5 94t103.5 33q40 0 69 -14t58 -42l-5 80v176h147v-723h-120l-11 53h-3q-29 -29 -65.5 -47t-72.5 -18q-63 0 -110 32zM381 157v210q-37 36 -83 36q-43 0 -71.5 -38t-28.5 -108q0 -75 24.5 -112t71.5 -37q51 0 87 49z
" />
    <glyph glyph-name="e" unicode="e" 
d="M189.5 20q-62.5 32 -98.5 92.5t-36 142.5q0 80 36 141t95.5 94t126.5 33q74 0 126.5 -31.5t79.5 -87t27 -126.5q0 -27 -6 -66h-334q7 -56 46.5 -84t97.5 -28q33 0 63.5 9t64.5 27l48 -89q-42 -27 -94.5 -43t-101.5 -16q-78 0 -140.5 32zM413 310q0 47 -24 73.5t-73 26.5
q-42 0 -72.5 -25.5t-39.5 -74.5h209z" />
    <glyph glyph-name="f" unicode="f" 
d="M213 395h-131v109l131 6v16q0 93 55.5 151t166.5 58q72 0 150 -28l-28 -108q-48 20 -104 20q-47 0 -70 -22.5t-23 -69.5v-17h171v-115h-171v-395h-147v395z" />
    <glyph glyph-name="g" unicode="g" 
d="M170 -202q-52 15 -92 48l49 100q32 -26 70 -37t73 -11t61 13t40 33t15 41l3 83q-24 -25 -60.5 -40t-72.5 -15q-62 0 -109.5 32t-73.5 89t-26 130q0 76 29.5 135t79 91.5t106.5 32.5q78 0 135 -66h4l12 53h115v-510q0 -104 -66 -160.5t-192 -56.5q-48 0 -100 15zM381 182
v185q-37 36 -85 36q-26 0 -49 -16.5t-37 -47.5t-14 -73q0 -63 27 -99t71 -36q50 0 87 51z" />
    <glyph glyph-name="h" unicode="h" 
d="M72 723h147v-179l-8 -99q76 78 168 78q81 0 121 -54.5t40 -153.5v-315h-147v296q0 54 -16.5 78t-56.5 24q-28 0 -50 -13.5t-51 -43.5v-341h-147v723z" />
    <glyph glyph-name="i" unicode="i" 
d="M61 119h170v276h-170v115h317v-391h170v-119h-487v119zM226 597q-28 27 -28 71q0 45 28 73.5t72 28.5t72 -28.5t28 -73.5q0 -44 -28 -71t-72 -27t-72 27z" />
    <glyph glyph-name="j" unicode="j" 
d="M42 -182l43 105q53 -25 101 -25t70 34t22 76v387h-199v115h346v-496q0 -231 -230 -231q-81 0 -153 35zM273 613q-28 27 -28 71q0 45 28 73.5t72 28.5t72 -28.5t28 -73.5q0 -44 -28 -71t-72 -27t-72 27z" />
    <glyph glyph-name="k" unicode="k" 
d="M76 723h147v-423h4l182 210h161l-188 -209l203 -301h-159l-130 211l-73 -82v-129h-147v723z" />
    <glyph glyph-name="l" unicode="l" 
d="M254.5 43.5q-48.5 55.5 -48.5 154.5v409h-144v116h291v-532q0 -44 22.5 -64t57.5 -20q37 0 78 17l33 -108q-47 -15 -77 -21.5t-72 -6.5q-92 0 -140.5 55.5z" />
    <glyph glyph-name="m" unicode="m" 
d="M36 510h110l11 -64h4q16 36 41 56.5t65 20.5q33 0 55.5 -21.5t31.5 -62.5q15 38 42 61t67 23q52 0 81 -44t29 -121v-358h-138v347q0 26 -6.5 38.5t-21.5 12.5q-26 0 -46 -52v-346h-113v347q0 51 -29 51q-14 0 -24 -12.5t-21 -39.5v-346h-138v510z" />
    <glyph glyph-name="n" unicode="n" 
d="M72 510h120l11 -69h4q37 38 78.5 60t92.5 22q82 0 122 -54t40 -154v-315h-147v296q0 54 -16.5 78t-56.5 24q-28 0 -50 -13.5t-51 -43.5v-341h-147v510z" />
    <glyph glyph-name="o" unicode="o" 
d="M175 20q-58 32 -93 92.5t-35 142.5t35 143t93 93t125 32t125 -32t93 -93t35 -143t-35 -142.5t-93 -92.5t-125 -32t-125 32zM376 146.5q26 39.5 26 108.5t-26 109t-76 40t-76 -40t-26 -109t26 -108.5t76 -39.5t76 39.5z" />
    <glyph glyph-name="p" unicode="p" 
d="M72 510h120l11 -52h3q32 29 71 47t77 18q92 0 145.5 -70.5t53.5 -189.5q0 -84 -30 -146.5t-79 -95.5t-106 -33q-33 0 -65 14.5t-59 41.5l5 -84v-165h-147v715zM375 146.5q27 38.5 27 114.5q0 142 -91 142q-46 0 -92 -50v-210q38 -35 85 -35q44 0 71 38.5z" />
    <glyph glyph-name="q" unicode="q" 
d="M381 -32l6 80q-27 -27 -62 -43.5t-69 -16.5q-63 0 -110 32t-73 92.5t-26 142.5q0 80 30 141t78.5 94t103.5 33q42 0 74.5 -15.5t63.5 -50.5h4l12 53h115v-716h-147v174zM381 157v210q-37 36 -83 36q-43 0 -71.5 -38t-28.5 -108q0 -75 24.5 -112t71.5 -37q51 0 87 49z" />
    <glyph glyph-name="r" unicode="r" 
d="M116 510h120l12 -112h3q36 62 88 93.5t113 31.5q31 0 51 -5t45 -16l-30 -123q-29 8 -46 11.5t-42 3.5q-49 0 -93 -30.5t-74 -95.5v-268h-147v510z" />
    <glyph glyph-name="s" unicode="s" 
d="M167.5 10q-64.5 22 -114.5 56l66 92q46 -30 89.5 -45.5t90.5 -15.5q95 0 95 45q0 22 -31.5 37.5t-101.5 35.5q-177 51 -177 149q0 47 28 83t79.5 56t121.5 20q107 0 214 -70l-66 -88q-77 48 -145 48q-45 0 -65.5 -10.5t-20.5 -31.5q0 -22 30.5 -35.5t96.5 -31.5
q86 -24 134.5 -58.5t48.5 -94.5q0 -47 -28.5 -84t-83.5 -58t-132 -21q-64 0 -128.5 22z" />
    <glyph glyph-name="t" unicode="t" 
d="M174 211v184h-125v115h132v150l140 60v-210h210v-115h-210v-183q0 -58 25 -83.5t79 -25.5q49 0 99 19l26 -106q-88 -28 -162 -28q-214 0 -214 223z" />
    <glyph glyph-name="u" unicode="u" 
d="M62 195v315h147v-296q0 -54 16 -77.5t56 -23.5q29 0 50.5 13.5t46.5 47.5v336h147v-510h-120l-11 74h-4q-35 -42 -75.5 -64t-91.5 -22q-161 0 -161 207z" />
    <glyph glyph-name="v" unicode="v" 
d="M31 510h148l78 -244l33 -112l12 -45h4l16 57q16 60 28 100l78 244h141l-182 -510h-169z" />
    <glyph glyph-name="w" unicode="w" 
d="M4 510h144l30 -240q3 -16 5 -39.5t4 -36.5q2 -25 8 -75h3q9 76 23 151l31 175h103l33 -175q14 -77 24 -151h4q6 50 8 75q4 50 8 76l30 240h134l-77 -510h-170l-28 176q-10 66 -19 150h-4q-10 -94 -18 -150l-27 -176h-167z" />
    <glyph glyph-name="x" unicode="x" 
d="M209 265l-161 245h158l51 -84q11 -21 37 -63l15 -24h4l41 87l44 84h154l-162 -261l172 -249h-158l-57 87l-21 33q-29 43 -36 55h-4l-18 -34l-28 -54l-49 -87h-154z" />
    <glyph glyph-name="y" unicode="y" 
d="M67 -207l26 112q19 -6 39 -6q38 0 63 23t35 49l16 41l-215 498h146l83 -223q20 -52 50 -153h4q17 66 45 153l73 223h139l-197 -534q-37 -100 -89 -146.5t-142 -46.5q-41 0 -76 10z" />
    <glyph glyph-name="z" unicode="z" 
d="M70 79l260 316h-228v115h431v-78l-260 -317h268v-115h-471v79z" />
    <glyph glyph-name="braceleft" unicode="{" 
d="M375 -155q-142 0 -142 145q0 25 6.5 42.5t19.5 43.5q12 22 18 38t6 37q0 18 -22.5 37.5t-63 32.5t-91.5 14v86q51 1 91.5 14t63 32.5t22.5 37.5q0 20 -6 35.5t-18 39.5q-13 25 -19.5 43.5t-6.5 42.5q0 145 142 145q20 0 44 -3l77 -10v-78l-41 10q-24 6 -41 6
q-33 0 -47 -19.5t-14 -56.5q0 -17 5.5 -33t16.5 -39q12 -26 17.5 -43.5t5.5 -37.5q0 -53 -40 -85t-100 -42v-4q60 -10 100 -42t40 -85q0 -21 -6.5 -39.5t-17.5 -41.5q-11 -26 -16 -40.5t-5 -31.5q0 -37 14 -56.5t47 -19.5q17 0 41 6l41 10v-78l-77 -10q-24 -3 -44 -3z" />
    <glyph glyph-name="bar" unicode="|" 
d="M235 750h130v-1000h-130v1000z" />
    <glyph glyph-name="braceright" unicode="}" 
d="M105 -142v78l41 -10q19 -5 40 -5q33 0 47 19.5t14 55.5q0 18 -5.5 34.5t-15.5 37.5q-11 25 -17 42.5t-6 38.5q0 53 40 85t100 42v4q-60 10 -100 42t-40 85q0 20 5.5 37.5t17.5 43.5q10 21 15.5 37.5t5.5 34.5q0 36 -14 55.5t-47 19.5q-21 0 -40 -5l-41 -10v78l77 10
q24 3 44 3q142 0 142 -145q0 -24 -6.5 -41.5t-20.5 -44.5q-12 -24 -18 -39.5t-6 -35.5q0 -18 22.5 -37.5t63 -32.5t92.5 -14v-86q-52 -1 -92.5 -14t-63 -32.5t-22.5 -37.5q0 -21 6 -37t18 -38q14 -27 20.5 -44.5t6.5 -41.5q0 -145 -142 -145q-20 0 -44 3z" />
    <glyph glyph-name="asciitilde" unicode="~" 
d="M52 275q30 75 72 110t91 35q31 0 54 -11.5t50 -32.5q23 -17 37 -24.5t31 -7.5q22 0 40.5 20.5t32.5 61.5l88 -41q-30 -75 -72 -110t-91 -35q-31 0 -54 11.5t-50 32.5q-23 17 -37 24.5t-31 7.5q-21 0 -40 -21t-33 -61z" />
    <glyph glyph-name="uni00A0" unicode="&#xa0;" 
 />
    <glyph glyph-name="exclamdown" unicode="&#xa1;" 
d="M228.5 334q-28.5 28 -28.5 72q0 45 28.5 73.5t71.5 28.5t71.5 -28.5t28.5 -73.5q0 -44 -28.5 -72t-71.5 -28t-71.5 28zM252 241h96l25 -415h-146z" />
    <glyph glyph-name="cent" unicode="&#xa2;" 
d="M311 54q-99 13 -157 79.5t-58 173.5q0 103 59.5 169t155.5 82v97h81v-93q38 -4 70 -18.5t54 -37.5l-67 -90q-30 24 -57 27v-272q36 6 72 35l59 -93q-28 -24 -62 -39t-69 -20v-95h-81v95zM311 432q-36 -16 -54 -48t-18 -77t18.5 -77.5t53.5 -47.5v250z" />
    <glyph glyph-name="sterling" unicode="&#xa3;" 
d="M67 91q54 21 86 61t32 92q0 14 -3 27h-112v86l84 5q-19 51 -19 80q0 62 29 108.5t81 71.5t118 25q60 0 105 -20.5t81 -60.5l-79 -80q-21 21 -43 31.5t-50 10.5q-49 0 -76 -23.5t-27 -70.5q0 -27 13 -72h169v-91h-146q2 -18 2 -28q0 -35 -12.5 -61.5t-41.5 -53.5v-4h292
v-124h-483v91z" />
    <glyph glyph-name="currency" unicode="&#xa4;" 
d="M36 137l81 82q-34 46 -34 111q0 63 33 109l-80 82l73 74l89 -90q48 25 102 25q52 0 102 -25l89 90l73 -74l-81 -82q34 -45 34 -109q0 -63 -35 -111l82 -82l-73 -74l-90 91q-46 -24 -101 -24t-101 24l-90 -91zM361.5 259q24.5 27 24.5 71t-24.5 71t-61.5 27t-61.5 -27
t-24.5 -71t24.5 -71t61.5 -27t61.5 27z" />
    <glyph glyph-name="yen" unicode="&#xa5;" 
d="M226 147h-169v70h169v55h-169v70h137l-163 293h151l61 -133q6 -13 16 -39q9 -19 19 -42t22 -50h4l57 131l61 133h147l-163 -293h137v-70h-170v-55h170v-70h-170v-147h-147v147z" />
    <glyph glyph-name="brokenbar" unicode="&#xa6;" 
d="M235 750h130v-438h-130v438zM235 204h130v-454h-130v454z" />
    <glyph glyph-name="section" unicode="&#xa7;" 
d="M166 -62.5q-53 21.5 -85 62.5l84 75q51 -51 111 -51q30 0 45 11.5t15 31.5q0 21 -21 35t-69 34q-53 23 -88.5 44t-61 57t-25.5 89q0 37 22 71t60 57q-29 35 -29 83q0 69 47.5 111t130.5 42q97 0 182 -65l-68 -92q-25 22 -52.5 35t-53.5 13q-54 0 -54 -39q0 -18 21.5 -32
t68.5 -35q56 -24 92.5 -46t63.5 -58t27 -87q0 -83 -84 -133q23 -34 23 -77q0 -70 -50.5 -114t-141.5 -44q-57 0 -110 21.5zM396 237.5q9 14.5 9 34.5q0 33 -28.5 52.5t-89.5 45.5q-45 20 -55 25q-37 -22 -37 -58q0 -31 27 -51t85 -45q51 -23 62 -29q18 11 27 25.5z" />
    <glyph glyph-name="dieresis" unicode="&#xa8;" 
d="M134.5 593.5q-22.5 22.5 -22.5 56.5q0 33 22.5 55.5t56.5 22.5t56 -22.5t22 -55.5q0 -34 -22 -56.5t-56 -22.5t-56.5 22.5zM353 593.5q-22 22.5 -22 56.5q0 33 22 55.5t56 22.5t56.5 -22.5t22.5 -55.5q0 -34 -22.5 -56.5t-56.5 -22.5t-56 22.5z" />
    <glyph glyph-name="copyright" unicode="&#xa9;" horiz-adv-x="659" 
d="M165.5 32q-75.5 41 -120.5 117t-45 176t45 175t120 115t165 40q89 0 164.5 -40t120 -115t44.5 -175t-44.5 -176t-120 -117t-164.5 -41t-164.5 41zM463 86q60 34 94.5 96.5t34.5 142.5t-34.5 141.5t-94.5 95t-133 33.5t-133 -33.5t-94.5 -95t-34.5 -141.5t34.5 -142.5
t94.5 -96.5t133 -34t133 34zM242 151q-44 24 -68.5 69t-24.5 104q0 57 26.5 100.5t71 67.5t95.5 24q42 0 73 -15.5t59 -43.5l-55 -61q-16 17 -32 25.5t-36 8.5q-46 0 -71.5 -30t-25.5 -76q0 -51 25 -81t67 -30q23 0 40.5 8.5t39.5 25.5l48 -68q-66 -52 -132 -52
q-56 0 -100 24z" />
    <glyph glyph-name="ordfeminine" unicode="&#xaa;" 
d="M183.5 281q-29.5 29 -29.5 70q0 53 46.5 82t148.5 39q-2 21 -16 32t-40 11q-38 0 -91 -29l-37 67q74 44 149 44q66 0 102.5 -37.5t36.5 -113.5v-186h-85l-7 33h-2q-50 -41 -100 -41q-46 0 -75.5 29zM349 357v53q-95 -12 -95 -50q0 -14 10 -21.5t28 -7.5q31 0 57 26z" />
    <glyph glyph-name="guillemotleft" unicode="&#xab;" 
d="M42 179v146l171 154l62 -55l-127 -172l127 -172l-62 -55zM308 179v146l171 154l62 -55l-127 -172l127 -172l-62 -55z" />
    <glyph glyph-name="logicalnot" unicode="&#xac;" 
d="M422 278h-352v104h460v-288h-108v184z" />
    <glyph glyph-name="registered" unicode="&#xae;" 
d="M199.5 337q-45.5 26 -72 72t-26.5 104t26.5 104t72 72t99.5 26q55 0 100 -26t71.5 -72t26.5 -104t-26.5 -104t-71.5 -72t-100 -26q-54 0 -99.5 26zM403 402q40 42 40 111t-40 111t-104 42t-104 -42t-40 -111t40 -111t104 -42t104 42zM218 613h89q37 0 59 -16.5t22 -49.5
q0 -38 -35 -54l42 -77h-60l-30 60h-29v-60h-58v197zM296 516q15 0 23 8t8 20q0 11 -8 18.5t-22 7.5h-21v-54h20z" />
    <glyph glyph-name="macron" unicode="&#xaf;" 
d="M162 685h276v-93h-276v93z" />
    <glyph glyph-name="degree" unicode="&#xb0;" 
d="M227.5 416.5q-33.5 18.5 -52.5 51.5t-19 74t19 74t52.5 51.5t73.5 18.5q61 0 102.5 -41t41.5 -103t-41.5 -103t-102.5 -41q-40 0 -73.5 18.5zM349.5 488.5q18.5 20.5 18.5 53.5q0 32 -18.5 52.5t-48.5 20.5t-48.5 -20.5t-18.5 -52.5q0 -33 18.5 -53.5t48.5 -20.5
t48.5 20.5z" />
    <glyph glyph-name="plusminus" unicode="&#xb1;" 
d="M246 294h-176v104h176v168h108v-168h176v-104h-176v-136h-108v136zM70 104h460v-104h-460v104z" />
    <glyph glyph-name="acute" unicode="&#xb4;" 
d="M307 741h150l-132 -167h-107z" />
    <glyph glyph-name="uni00B5" unicode="&#xb5;" 
d="M62 496h147v-287q0 -52 17 -74t52 -22q30 0 53.5 17.5t46.5 59.5v306h148q-10 -232 -10 -348q0 -41 35 -41q10 0 18 2l18 -109q-29 -12 -74 -12q-93 0 -119 94h-4q-20 -43 -51 -66t-68 -23q-50 0 -71 25q1 -57 3.5 -111t7.5 -103h-149v692z" />
    <glyph glyph-name="paragraph" unicode="&#xb6;" 
d="M166.5 223.5q-54.5 26.5 -86.5 79t-32 126.5q0 118 65.5 170.5t172.5 52.5h42v-455h-40q-67 0 -121.5 26.5zM380 652h146v-732h-146v732z" />
    <glyph glyph-name="periodcentered" unicode="&#xb7;" 
d="M216.5 270q-32.5 34 -32.5 84t32.5 83.5t83.5 33.5t83.5 -33.5t32.5 -83.5t-32.5 -84t-83.5 -34t-83.5 34z" />
    <glyph glyph-name="cedilla" unicode="&#xb8;" 
d="M199 -162q82 9 82 44q0 14 -13 24t-45 18l40 80h86l-20 -47q58 -19 58 -74q0 -49 -50 -74.5t-127 -29.5z" />
    <glyph glyph-name="ordmasculine" unicode="&#xba;" 
d="M217 272.5q-38 20.5 -61 59.5t-23 92t23 92t61 60t83 21t83 -21t61 -60t23 -92t-23 -92t-61 -59.5t-83 -20.5t-83 20.5zM346 358q15 24 15 66q0 90 -61 90q-31 0 -46 -23.5t-15 -66.5q0 -42 15 -66t46 -24t46 24z" />
    <glyph glyph-name="guillemotright" unicode="&#xbb;" 
d="M59 80l127 172l-127 172l62 55l171 -154v-146l-171 -154zM325 80l127 172l-127 172l62 55l171 -154v-146l-171 -154z" />
    <glyph glyph-name="onequarter" unicode="&#xbc;" 
d="M150 536h-81v64q37 4 58.5 11.5t46.5 23.5h83v-311h-107v212zM346 425l162 199l75 -73l-186 -174zM448 61h-160v51l120 200h134v-185h51v-66h-51v-61h-94v61zM17 101l186 173l51 -47l-162 -199zM448 127v22l5 99h-3l-34 -62l-33 -59h65z" />
    <glyph glyph-name="onehalf" unicode="&#xbd;" 
d="M150 536h-81v64q37 4 58.5 11.5t46.5 23.5h83v-311h-107v212zM346 425l162 199l75 -73l-186 -174zM299 55q147 97 147 142q0 19 -11.5 30t-32.5 11q-30 0 -56 -35l-61 56q62 65 133 65q60 0 95 -29t35 -80q0 -31 -21.5 -62t-59.5 -66h93v-87h-261v55zM17 101l186 173
l51 -47l-162 -199z" />
    <glyph glyph-name="threequarters" unicode="&#xbe;" 
d="M37 353l41 66q17 -12 40 -20.5t43 -8.5q18 0 30 7.5t12 21.5q0 18 -17.5 26.5t-55.5 8.5v56q29 0 44.5 7.5t15.5 24.5q0 12 -10 19t-28 7q-28 0 -66 -25l-43 63q24 19 58.5 30t74.5 11q50 0 84 -24.5t34 -63.5q0 -28 -12 -45t-42 -27q67 -18 67 -76q0 -43 -39 -71
t-94 -28q-80 0 -137 41zM353 425l162 199l75 -73l-186 -174zM449 61h-160v51l120 200h133v-185h52v-66h-52v-61h-93v61zM24 101l186 173l51 -47l-162 -199zM449 127v22l5 99h-3l-34 -62l-33 -59h65z" />
    <glyph glyph-name="questiondown" unicode="&#xbf;" 
d="M243 334q-28 28 -28 72q0 45 28 73.5t71 28.5q44 0 72 -28.5t28 -73.5q0 -44 -28 -72t-72 -28q-43 0 -71 28zM160 -144q-57 42 -57 121q0 44 20 73t61 66q36 32 53.5 56t17.5 57l-1 12h129q2 -16 2 -24q0 -43 -21.5 -73t-62.5 -67q-29 -27 -43 -44t-14 -37
q0 -30 20.5 -46.5t53.5 -16.5q29 0 53 11.5t50 34.5l81 -74q-38 -42 -87.5 -66.5t-106.5 -24.5q-91 0 -148 42z" />
    <glyph glyph-name="Agrave" unicode="&#xc0;" 
d="M138 830h156l81 -121h-117zM212 659h176l203 -659h-156l-39 158h-197l-40 -158h-150zM366 273l-15 61l-52 212h-4q-8 -34 -39 -164l-12 -48l-15 -61h137z" />
    <glyph glyph-name="Aacute" unicode="&#xc1;" 
d="M306 830h156l-120 -121h-117zM212 659h176l203 -659h-156l-39 158h-197l-40 -158h-150zM366 273l-15 61l-52 212h-4q-8 -34 -39 -164l-12 -48l-15 -61h137z" />
    <glyph glyph-name="Acircumflex" unicode="&#xc2;" 
d="M228 830h144l96 -121h-113l-53 62h-4l-53 -62h-113zM212 659h176l203 -659h-156l-39 158h-197l-40 -158h-150zM366 273l-15 61l-52 212h-4q-8 -34 -39 -164l-12 -48l-15 -61h137z" />
    <glyph glyph-name="Atilde" unicode="&#xc3;" 
d="M166.5 812.5q29.5 35.5 70.5 35.5q21 0 37.5 -7t38.5 -21q4 -2 18.5 -10t25.5 -8q29 0 38 46h75q-7 -66 -36.5 -101.5t-70.5 -35.5q-21 0 -37.5 7t-38.5 21q-4 2 -18.5 10t-25.5 8q-28 0 -38 -46h-75q7 66 36.5 101.5zM212 659h176l203 -659h-156l-39 158h-197l-40 -158
h-150zM366 273l-15 62l-52 212h-4l-38 -158l-13 -54l-15 -62h137z" />
    <glyph glyph-name="Adieresis" unicode="&#xc4;" 
d="M150.5 728q-19.5 20 -19.5 50t19.5 50t50.5 20t50.5 -20t19.5 -50t-19.5 -50t-50.5 -20t-50.5 20zM348.5 728q-19.5 20 -19.5 50t19.5 50t50.5 20t50.5 -20t19.5 -50t-19.5 -50t-50.5 -20t-50.5 20zM212 659h176l203 -659h-156l-39 158h-197l-40 -158h-150zM366 273
l-15 61l-52 213h-4l-41 -172q-3 -10 -10 -41l-15 -61h137z" />
    <glyph glyph-name="Aring" unicode="&#xc5;" 
d="M218 731q-31 27 -31 72q0 44 31.5 71.5t81.5 27.5t81.5 -27.5t31.5 -71.5q0 -45 -31 -72t-82 -27t-82 27zM328.5 771q11.5 12 11.5 32q0 19 -11.5 31.5t-28.5 12.5t-29 -12.5t-12 -31.5q0 -20 11.5 -32t29.5 -12q17 0 28.5 12zM212 659h176l203 -659h-156l-39 158h-197
l-40 -158h-150zM366 273l-15 61l-52 213h-4l-41 -172q-3 -10 -10 -41l-15 -61h137z" />
    <glyph glyph-name="AE" unicode="&#xc6;" 
d="M206 660h380v-124h-145v-133h118v-124h-118v-155h154v-124h-284v152h-118l-45 -152h-151zM311 266v283h-3q-15 -59 -53 -188l-28 -95h84z" />
    <glyph glyph-name="Ccedilla" unicode="&#xc7;" 
d="M243 -164q83 9 83 44q0 14 -13 24.5t-45 18.5l35 70q-72 13 -128 55.5t-88 113t-32 164.5q0 107 41 185t111.5 119.5t158.5 41.5q58 0 107 -23.5t86 -60.5l-81 -91q-25 23 -52 35.5t-60 12.5q-46 0 -82.5 -26t-57 -74t-20.5 -114q0 -100 45.5 -158t120.5 -58q64 0 116 59
l81 -89q-73 -87 -182 -96l-14 -33q59 -19 59 -75q0 -49 -50 -74.5t-128 -29.5z" />
    <glyph glyph-name="Egrave" unicode="&#xc8;" 
d="M159 830h157l80 -121h-117zM94 659h430v-124h-283v-134h240v-123h-240v-154h293v-124h-440v659z" />
    <glyph glyph-name="Eacute" unicode="&#xc9;" 
d="M327 830h157l-120 -121h-117zM94 659h430v-124h-283v-134h240v-123h-240v-154h293v-124h-440v659z" />
    <glyph glyph-name="Ecircumflex" unicode="&#xca;" 
d="M250 830h143l96 -121h-112l-53 62h-4l-54 -62h-112zM94 659h430v-124h-283v-134h240v-123h-240v-154h293v-124h-440v659z" />
    <glyph glyph-name="Edieresis" unicode="&#xcb;" 
d="M172.5 728q-19.5 20 -19.5 50t19.5 50t49.5 20q31 0 50.5 -20t19.5 -50t-19.5 -50t-50.5 -20q-30 0 -49.5 20zM370.5 728q-19.5 20 -19.5 50t19.5 50t50.5 20q30 0 49.5 -20t19.5 -50t-19.5 -50t-49.5 -20q-31 0 -50.5 20zM94 659h430v-124h-283v-134h240v-123h-240v-154
h293v-124h-440v659z" />
    <glyph glyph-name="Igrave" unicode="&#xcc;" 
d="M138 830h156l81 -121h-117zM74 124h152v411h-152v124h452v-124h-152v-411h152v-124h-452v124z" />
    <glyph glyph-name="Iacute" unicode="&#xcd;" 
d="M306 830h156l-120 -121h-117zM74 124h152v411h-152v124h452v-124h-152v-411h152v-124h-452v124z" />
    <glyph glyph-name="Icircumflex" unicode="&#xce;" 
d="M228 830h144l96 -121h-113l-53 62h-4l-53 -62h-113zM74 124h152v411h-152v124h452v-124h-152v-411h152v-124h-452v124z" />
    <glyph glyph-name="Idieresis" unicode="&#xcf;" 
d="M150.5 728q-19.5 20 -19.5 50t19.5 50t50.5 20t50.5 -20t19.5 -50t-19.5 -50t-50.5 -20t-50.5 20zM348.5 728q-19.5 20 -19.5 50t19.5 50t50.5 20t50.5 -20t19.5 -50t-19.5 -50t-50.5 -20t-50.5 20zM74 124h152v411h-152v124h452v-124h-152v-411h152v-124h-452v124z" />
    <glyph glyph-name="Eth" unicode="&#xd0;" 
d="M71 305h-69v66l69 6v283h178q146 0 229.5 -81.5t83.5 -245.5t-82.5 -248.5t-222.5 -84.5h-186v305zM240 119q171 0 171 214q0 112 -44.5 160t-126.5 48h-21v-164h107v-72h-107v-186h21z" />
    <glyph glyph-name="Ntilde" unicode="&#xd1;" 
d="M172.5 812.5q29.5 35.5 70.5 35.5q21 0 37.5 -7t38.5 -21q4 -2 18.5 -10t25.5 -8q29 0 38 46h75q-7 -66 -36.5 -101.5t-70.5 -35.5q-21 0 -37.5 7t-38.5 21q-4 2 -18.5 10t-25.5 8q-28 0 -38 -46h-75q7 66 36.5 101.5zM66 659h150l138 -331l56 -144h4q-4 42 -7 60
q-1 14 -7.5 72.5t-6.5 106.5v236h141v-659h-150l-138 331l-56 143h-4l7 -67q14 -112 14 -171v-236h-141v659z" />
    <glyph glyph-name="Ograve" unicode="&#xd2;" 
d="M138 830h156l81 -121h-117zM163.5 29.5q-59.5 41.5 -92.5 119t-33 183.5t33 182.5t92 116.5t137 40t137 -40.5t92 -117t33 -181.5q0 -106 -33 -183.5t-92.5 -119t-136.5 -41.5t-136.5 41.5zM381 173.5q30 58.5 30 158.5q0 99 -30 155.5t-81 56.5t-81 -56.5t-30 -155.5
q0 -100 30 -158.5t81 -58.5t81 58.5z" />
    <glyph glyph-name="Oacute" unicode="&#xd3;" 
d="M306 830h156l-120 -121h-117zM163.5 29.5q-59.5 41.5 -92.5 119t-33 183.5t33 182.5t92 116.5t137 40t137 -40.5t92 -117t33 -181.5q0 -106 -33 -183.5t-92.5 -119t-136.5 -41.5t-136.5 41.5zM381 173.5q30 58.5 30 158.5q0 99 -30 155.5t-81 56.5t-81 -56.5t-30 -155.5
q0 -100 30 -158.5t81 -58.5t81 58.5z" />
    <glyph glyph-name="Ocircumflex" unicode="&#xd4;" 
d="M228 830h144l96 -121h-113l-53 62h-4l-53 -62h-113zM163.5 29.5q-59.5 41.5 -92.5 119t-33 183.5t33 182.5t92 116.5t137 40t137 -40.5t92 -117t33 -181.5q0 -106 -33 -183.5t-92.5 -119t-136.5 -41.5t-136.5 41.5zM381 173.5q30 58.5 30 158.5q0 99 -30 155.5t-81 56.5
t-81 -56.5t-30 -155.5q0 -100 30 -158.5t81 -58.5t81 58.5z" />
    <glyph glyph-name="Otilde" unicode="&#xd5;" 
d="M166.5 812.5q29.5 35.5 70.5 35.5q21 0 37.5 -7t38.5 -21q4 -2 18.5 -10t25.5 -8q29 0 38 46h75q-7 -66 -36.5 -101.5t-70.5 -35.5q-21 0 -37.5 7t-38.5 21q-4 2 -18.5 10t-25.5 8q-28 0 -38 -46h-75q7 66 36.5 101.5zM163.5 29.5q-59.5 41.5 -92.5 119.5t-33 184t33 182
t92 116t137 40t137 -40t92 -116.5t33 -181.5q0 -106 -33 -184t-92.5 -119.5t-136.5 -41.5t-136.5 41.5zM381 174q30 59 30 159q0 99 -30 155t-81 56t-81 -56t-30 -155q0 -100 30 -159t81 -59t81 59z" />
    <glyph glyph-name="Odieresis" unicode="&#xd6;" 
d="M150.5 728q-19.5 20 -19.5 50t19.5 50t50.5 20t50.5 -20t19.5 -50t-19.5 -50t-50.5 -20t-50.5 20zM348.5 728q-19.5 20 -19.5 50t19.5 50t50.5 20t50.5 -20t19.5 -50t-19.5 -50t-50.5 -20t-50.5 20zM163.5 29.5q-59.5 41.5 -92.5 119.5t-33 184t33 182t92 116t137 40
t137 -40t92 -116.5t33 -181.5q0 -106 -33 -184t-92.5 -119.5t-136.5 -41.5t-136.5 41.5zM381 174q30 59 30 159q0 99 -30 155t-81 56t-81 -56t-30 -155q0 -100 30 -159t81 -59t81 59z" />
    <glyph glyph-name="multiply" unicode="&#xd7;" 
d="M84 186l142 143l-142 144l73 74l143 -144l143 144l73 -74l-142 -144l142 -143l-73 -74l-143 144l-143 -144z" />
    <glyph glyph-name="Oslash" unicode="&#xd8;" 
d="M30 9l64 94q-56 90 -56 230q0 106 33 182.5t92 117t137 40.5q85 0 148 -49l53 78l78 -50l-68 -100q51 -87 51 -219q0 -106 -33 -184t-92.5 -119.5t-136.5 -41.5q-82 0 -141 45l-51 -74zM354 517q3 5 -5 12t-22 12t-27 5q-51 0 -81 -57t-30 -156q0 -45 6 -84zM381 174
q30 59 30 159q0 41 -4 68l-170 -254q26 -32 63 -32q51 0 81 59z" />
    <glyph glyph-name="Ugrave" unicode="&#xd9;" 
d="M138 830h156l81 -121h-117zM124 56q-60 68 -60 197v406h147v-420q0 -124 91 -124q92 0 92 124v420h142v-406q0 -130 -58.5 -197.5t-175.5 -67.5q-118 0 -178 68z" />
    <glyph glyph-name="Uacute" unicode="&#xda;" 
d="M306 830h156l-120 -121h-117zM124 56q-60 68 -60 197v406h147v-420q0 -124 91 -124q92 0 92 124v420h142v-406q0 -130 -58.5 -197.5t-175.5 -67.5q-118 0 -178 68z" />
    <glyph glyph-name="Ucircumflex" unicode="&#xdb;" 
d="M228 830h144l96 -121h-113l-53 62h-4l-53 -62h-113zM124 56q-60 68 -60 197v406h147v-420q0 -124 91 -124q92 0 92 124v420h142v-406q0 -130 -58.5 -197.5t-175.5 -67.5q-118 0 -178 68z" />
    <glyph glyph-name="Udieresis" unicode="&#xdc;" 
d="M150.5 728q-19.5 20 -19.5 50t19.5 50t50.5 20t50.5 -20t19.5 -50t-19.5 -50t-50.5 -20t-50.5 20zM348.5 728q-19.5 20 -19.5 50t19.5 50t50.5 20t50.5 -20t19.5 -50t-19.5 -50t-50.5 -20t-50.5 20zM124 56q-60 68 -60 198v405h147v-420q0 -124 91 -124q92 0 92 124v420
h142v-405q0 -130 -58.5 -198t-175.5 -68q-118 0 -178 68z" />
    <glyph glyph-name="Yacute" unicode="&#xdd;" 
d="M306 830h156l-120 -121h-117zM226 223l-210 436h158l66 -160l59 -150h4l15 38l46 112l66 160h154l-210 -436v-223h-148v223z" />
    <glyph glyph-name="Thorn" unicode="&#xde;" 
d="M73 660h147v-100h91q116 0 185.5 -49.5t69.5 -161.5q0 -111 -72 -167.5t-183 -56.5h-91v-125h-147v660zM302 242q119 0 119 107q0 50 -29.5 72t-89.5 22h-82v-201h82z" />
    <glyph glyph-name="germandbls" unicode="&#xdf;" 
d="M325 -3q-32 9 -67 29l49 100q43 -29 85 -29q19 0 31 13t12 33q0 24 -15 40t-48 39q-29 20 -47.5 36t-31.5 41.5t-13 61.5q0 29 7.5 50.5t23.5 49.5q15 29 22 48.5t7 45.5q0 28 -14.5 46t-38.5 18q-40 0 -59.5 -30.5t-19.5 -86.5v-502h-147v512q0 100 58 161.5t169 61.5
q62 0 104.5 -24t63.5 -63t21 -85q0 -38 -9.5 -63.5t-27.5 -57.5q-12 -20 -18 -33.5t-6 -29.5q0 -19 13.5 -33t42.5 -33q31 -22 50.5 -39.5t34 -47t14.5 -70.5q0 -73 -45.5 -120.5t-128.5 -47.5q-40 0 -72 9z" />
    <glyph glyph-name="agrave" unicode="&#xe0;" 
d="M105.5 31.5q-44.5 43.5 -44.5 109.5q0 87 76.5 131.5t250.5 55.5q-4 37 -30.5 57t-75.5 20q-35 0 -69 -13t-62 -35l-52 96q37 31 93.5 50.5t118.5 19.5q106 0 165 -58t59 -171v-294h-120l-11 58h-4q-90 -70 -176 -70q-74 0 -118.5 43.5zM388 152v88q-103 -6 -144.5 -28.5
t-41.5 -59.5q0 -25 18.5 -37.5t50.5 -12.5q57 0 117 50zM191 741h150l89 -167h-107z" />
    <glyph glyph-name="aacute" unicode="&#xe1;" 
d="M105.5 31.5q-44.5 43.5 -44.5 109.5q0 87 76.5 131.5t250.5 55.5q-4 37 -30.5 57t-75.5 20q-35 0 -69 -13t-62 -35l-52 96q37 31 93.5 50.5t118.5 19.5q106 0 165 -58t59 -171v-294h-120l-11 58h-4q-90 -70 -176 -70q-74 0 -118.5 43.5zM388 152v88q-103 -6 -144.5 -28.5
t-41.5 -59.5q0 -25 18.5 -37.5t50.5 -12.5q57 0 117 50zM280 741h150l-132 -167h-107z" />
    <glyph glyph-name="acircumflex" unicode="&#xe2;" 
d="M105.5 31.5q-44.5 43.5 -44.5 109.5q0 87 76.5 131.5t250.5 55.5q-4 37 -30.5 57t-75.5 20q-35 0 -69 -13t-62 -35l-52 96q37 31 93.5 50.5t118.5 19.5q106 0 165 -58t59 -171v-294h-120l-11 58h-4q-90 -70 -176 -70q-74 0 -118.5 43.5zM388 152v88q-103 -6 -144.5 -28.5
t-41.5 -59.5q0 -25 18.5 -37.5t50.5 -12.5q57 0 117 50zM249 741h124l100 -167h-107l-53 95h-4l-53 -95h-107z" />
    <glyph glyph-name="atilde" unicode="&#xe3;" 
d="M105.5 31.5q-44.5 43.5 -44.5 109.5q0 87 76.5 131.5t250.5 55.5q-4 37 -30.5 57t-75.5 20q-35 0 -69 -13t-62 -35l-52 96q37 31 93.5 50.5t118.5 19.5q106 0 165 -58t59 -171v-294h-120l-11 58h-4q-90 -70 -176 -70q-74 0 -118.5 43.5zM388 152v88q-103 -6 -144.5 -28.5
t-41.5 -59.5q0 -25 18.5 -37.5t50.5 -12.5q57 0 117 50zM179.5 682q30.5 36 77.5 36q19 0 34 -8t34 -23q2 -2 11 -8.5t15.5 -9.5t12.5 -3q16 0 26 11.5t17 40.5h75q-9 -71 -39.5 -107t-77.5 -36q-19 0 -34 8t-35 24q-14 11 -22 16t-16 5q-16 0 -26 -12t-17 -41h-75
q9 71 39.5 107z" />
    <glyph glyph-name="adieresis" unicode="&#xe4;" 
d="M105.5 31.5q-44.5 43.5 -44.5 109.5q0 87 76.5 131.5t250.5 55.5q-4 37 -30.5 57t-75.5 20q-35 0 -69 -13t-62 -35l-52 96q37 31 93.5 50.5t118.5 19.5q106 0 165 -58t59 -171v-294h-120l-11 58h-4q-90 -70 -176 -70q-74 0 -118.5 43.5zM388 152v88q-103 -6 -144.5 -28.5
t-41.5 -59.5q0 -25 18.5 -37.5t50.5 -12.5q57 0 117 50zM145.5 593.5q-22.5 22.5 -22.5 56.5q0 33 22.5 55.5t56.5 22.5t56 -22.5t22 -55.5q0 -34 -22 -56.5t-56 -22.5t-56.5 22.5zM364 593.5q-22 22.5 -22 56.5q0 33 22 55.5t56 22.5t56.5 -22.5t22.5 -55.5
q0 -34 -22.5 -56.5t-56.5 -22.5t-56 22.5z" />
    <glyph glyph-name="aring" unicode="&#xe5;" 
d="M105.5 31.5q-44.5 43.5 -44.5 109.5q0 87 76.5 131.5t250.5 55.5q-4 37 -30.5 57t-75.5 20q-35 0 -69 -13t-62 -35l-52 96q37 31 93.5 50.5t118.5 19.5q106 0 165 -58t59 -171v-294h-120l-11 58h-4q-90 -70 -176 -70q-74 0 -118.5 43.5zM388 152v88q-103 -6 -144.5 -28.5
t-41.5 -59.5q0 -25 18.5 -37.5t50.5 -12.5q57 0 117 50zM229 576q-31 28 -31 74t31 74t82 28t82 -28t31 -74t-31 -74t-82 -28t-82 28zM340.5 616q11.5 13 11.5 34t-11.5 34t-29.5 13t-29.5 -13t-11.5 -34t11.5 -34t29.5 -13t29.5 13z" />
    <glyph glyph-name="ae" unicode="&#xe6;" 
d="M52.5 31.5q-36.5 43.5 -36.5 110.5q0 76 54.5 120t170.5 67q-3 38 -16.5 57.5t-40.5 19.5q-20 0 -48.5 -10t-54.5 -26l-52 96q45 28 85 42.5t80 14.5q78 0 116 -77q26 40 56 58.5t72 18.5q73 0 114 -70t41 -175q0 -33 -7 -66h-227q8 -53 31.5 -81t59.5 -28q21 0 39.5 6.5
t38.5 20.5l50 -94q-28 -23 -64 -35.5t-69 -12.5q-51 0 -87.5 20.5t-63.5 59.5q-39 -42 -72.5 -61t-67.5 -19q-65 0 -101.5 43.5zM476 303q0 107 -52 107q-26 0 -44 -27t-23 -80h119zM225.5 112q16.5 10 29.5 27q-12 34 -14 79l-1 21q-92 -20 -92 -86q0 -25 12 -38t34 -13
q15 0 31.5 10z" />
    <glyph glyph-name="ccedilla" unicode="&#xe7;" 
d="M394 -117q0 -49 -50 -74.5t-127 -29.5l-11 59q82 9 82 44q0 14 -13 24t-45 18l36 72q-90 21 -144.5 88.5t-54.5 170.5q0 82 39 143t104.5 93t143.5 32q56 0 104.5 -19t81.5 -51l-68 -91q-55 42 -110 42q-64 0 -104 -41t-40 -108t38.5 -107.5t100.5 -40.5q65 0 131 49
l60 -93q-42 -36 -94.5 -55t-104.5 -20l-13 -31q58 -19 58 -74z" />
    <glyph glyph-name="egrave" unicode="&#xe8;" 
d="M189.5 20q-62.5 32 -98.5 92.5t-36 142.5q0 80 36 141t95.5 94t126.5 33q74 0 126.5 -31.5t79.5 -87t27 -126.5q0 -27 -6 -66h-334q7 -56 46.5 -84t97.5 -28q33 0 63.5 9t64.5 27l48 -89q-42 -27 -94.5 -43t-101.5 -16q-78 0 -140.5 32zM413 310q0 47 -24 73.5t-73 26.5
q-42 0 -72.5 -25.5t-39.5 -74.5h209zM193 741h150l89 -167h-107z" />
    <glyph glyph-name="eacute" unicode="&#xe9;" 
d="M189.5 20q-62.5 32 -98.5 92.5t-36 142.5q0 80 36 141t95.5 94t126.5 33q74 0 126.5 -31.5t79.5 -87t27 -126.5q0 -27 -6 -66h-334q7 -56 46.5 -84t97.5 -28q33 0 63.5 9t64.5 27l48 -89q-42 -27 -94.5 -43t-101.5 -16q-78 0 -140.5 32zM413 310q0 47 -24 73.5t-73 26.5
q-42 0 -72.5 -25.5t-39.5 -74.5h209zM282 741h150l-132 -167h-107z" />
    <glyph glyph-name="ecircumflex" unicode="&#xea;" 
d="M189.5 20q-62.5 32 -98.5 92.5t-36 142.5q0 80 36 141t95.5 94t126.5 33q74 0 126.5 -31.5t79.5 -87t27 -126.5q0 -27 -6 -66h-334q7 -56 46.5 -84t97.5 -28q33 0 63.5 9t64.5 27l48 -89q-42 -27 -94.5 -43t-101.5 -16q-78 0 -140.5 32zM413 310q0 47 -24 73.5t-73 26.5
q-42 0 -72.5 -25.5t-39.5 -74.5h209zM251 741h124l100 -167h-107l-53 95h-4l-53 -95h-107z" />
    <glyph glyph-name="edieresis" unicode="&#xeb;" 
d="M189.5 20q-62.5 32 -98.5 92.5t-36 142.5q0 80 36 141t95.5 94t126.5 33q74 0 126.5 -31.5t79.5 -87t27 -126.5q0 -27 -6 -66h-334q7 -56 46.5 -84t97.5 -28q33 0 63.5 9t64.5 27l48 -89q-42 -27 -94.5 -43t-101.5 -16q-78 0 -140.5 32zM413 310q0 47 -24 73.5t-73 26.5
q-42 0 -72.5 -25.5t-39.5 -74.5h209zM147.5 593.5q-22.5 22.5 -22.5 56.5q0 33 22.5 55.5t56.5 22.5t56 -22.5t22 -55.5q0 -34 -22 -56.5t-56 -22.5t-56.5 22.5zM366 593.5q-22 22.5 -22 56.5q0 33 22 55.5t56 22.5t56.5 -22.5t22.5 -55.5q0 -34 -22.5 -56.5t-56.5 -22.5
t-56 22.5z" />
    <glyph glyph-name="igrave" unicode="&#xec;" 
d="M61 119h170v276h-170v115h317v-391h170v-119h-487v119zM178 725h150l89 -167h-107z" />
    <glyph glyph-name="iacute" unicode="&#xed;" 
d="M61 119h170v276h-170v115h317v-391h170v-119h-487v119zM267 725h150l-132 -167h-107z" />
    <glyph glyph-name="icircumflex" unicode="&#xee;" 
d="M61 119h170v276h-170v115h317v-391h170v-119h-487v119zM236 725h124l100 -167h-107l-53 95h-4l-53 -95h-107z" />
    <glyph glyph-name="idieresis" unicode="&#xef;" 
d="M61 119h170v276h-170v115h317v-391h170v-119h-487v119zM132.5 577.5q-22.5 22.5 -22.5 56.5q0 33 22.5 55.5t56.5 22.5t56 -22.5t22 -55.5q0 -34 -22 -56.5t-56 -22.5t-56.5 22.5zM351 577.5q-22 22.5 -22 56.5q0 33 22 55.5t56 22.5t56.5 -22.5t22.5 -55.5
q0 -34 -22.5 -56.5t-56.5 -22.5t-56 22.5z" />
    <glyph glyph-name="eth" unicode="&#xf0;" 
d="M170.5 18.5q-56.5 30.5 -90 86.5t-33.5 129q0 71 30.5 124t81 81.5t109.5 28.5q38 0 70.5 -14t55.5 -44q-27 92 -98 158l-149 -77l-38 65l120 63q-45 31 -94 53l64 89q79 -36 145 -84l136 71l38 -66l-111 -58q143 -136 143 -351q0 -83 -30.5 -147.5t-88.5 -101
t-136 -36.5q-68 0 -124.5 30.5zM383 147.5q30 40.5 30 117.5q0 25 -1 36q-25 31 -53 44.5t-61 13.5q-55 0 -86 -31.5t-31 -93.5q0 -59 34 -93t85 -34q53 0 83 40.5z" />
    <glyph glyph-name="ntilde" unicode="&#xf1;" 
d="M72 510h120l11 -69h4q37 38 78.5 60t92.5 22q82 0 122 -54t40 -154v-315h-147v296q0 54 -16.5 78t-56.5 24q-28 0 -50 -13.5t-51 -43.5v-341h-147v510zM178.5 682q30.5 36 77.5 36q19 0 34 -8t34 -23q2 -2 11 -8.5t15.5 -9.5t12.5 -3q16 0 26 11.5t17 40.5h75
q-9 -71 -39.5 -107t-77.5 -36q-19 0 -34 8t-35 24q-14 11 -22 16t-16 5q-16 0 -26 -12t-17 -41h-75q9 71 39.5 107z" />
    <glyph glyph-name="ograve" unicode="&#xf2;" 
d="M175 20q-58 32 -93 92.5t-35 142.5t35 143t93 93t125 32t125 -32t93 -93t35 -143t-35 -142.5t-93 -92.5t-125 -32t-125 32zM376 146.5q26 39.5 26 108.5t-26 109t-76 40t-76 -40t-26 -109t26 -108.5t76 -39.5t76 39.5zM180 741h150l89 -167h-107z" />
    <glyph glyph-name="oacute" unicode="&#xf3;" 
d="M175 20q-58 32 -93 92.5t-35 142.5t35 143t93 93t125 32t125 -32t93 -93t35 -143t-35 -142.5t-93 -92.5t-125 -32t-125 32zM376 146.5q26 39.5 26 108.5t-26 109t-76 40t-76 -40t-26 -109t26 -108.5t76 -39.5t76 39.5zM269 741h150l-132 -167h-107z" />
    <glyph glyph-name="ocircumflex" unicode="&#xf4;" 
d="M175 20q-58 32 -93 92.5t-35 142.5t35 143t93 93t125 32t125 -32t93 -93t35 -143t-35 -142.5t-93 -92.5t-125 -32t-125 32zM376 146.5q26 39.5 26 108.5t-26 109t-76 40t-76 -40t-26 -109t26 -108.5t76 -39.5t76 39.5zM238 741h124l100 -167h-107l-53 95h-4l-53 -95h-107
z" />
    <glyph glyph-name="otilde" unicode="&#xf5;" 
d="M175 20q-58 32 -93 92.5t-35 142.5t35 143t93 93t125 32t125 -32t93 -93t35 -143t-35 -142.5t-93 -92.5t-125 -32t-125 32zM376 146.5q26 39.5 26 108.5t-26 109t-76 40t-76 -40t-26 -109t26 -108.5t76 -39.5t76 39.5zM168.5 682q30.5 36 77.5 36q19 0 34 -8t34 -23
q2 -2 11 -8.5t15.5 -9.5t12.5 -3q16 0 26 11.5t17 40.5h75q-9 -71 -39.5 -107t-77.5 -36q-19 0 -34 8t-35 24q-14 11 -22 16t-16 5q-16 0 -26 -12t-17 -41h-75q9 71 39.5 107z" />
    <glyph glyph-name="odieresis" unicode="&#xf6;" 
d="M175 20q-58 32 -93 92.5t-35 142.5t35 143t93 93t125 32t125 -32t93 -93t35 -143t-35 -142.5t-93 -92.5t-125 -32t-125 32zM376 146.5q26 39.5 26 108.5t-26 109t-76 40t-76 -40t-26 -109t26 -108.5t76 -39.5t76 39.5zM134.5 593.5q-22.5 22.5 -22.5 56.5q0 33 22.5 55.5
t56.5 22.5t56 -22.5t22 -55.5q0 -34 -22 -56.5t-56 -22.5t-56.5 22.5zM353 593.5q-22 22.5 -22 56.5q0 33 22 55.5t56 22.5t56.5 -22.5t22.5 -55.5q0 -34 -22.5 -56.5t-56.5 -22.5t-56 22.5z" />
    <glyph glyph-name="divide" unicode="&#xf7;" 
d="M242 456q-23 23 -23 58t23 58t58 23t58 -23t23 -58t-23 -58t-58 -23t-58 23zM70 382h460v-104h-460v104zM242 88q-23 23 -23 58t23 58t58 23t58 -23t23 -58t-23 -58t-58 -23t-58 23z" />
    <glyph glyph-name="oslash" unicode="&#xf8;" 
d="M62 17l46 58q-61 73 -61 180q0 82 35 143t93 93t125 32q76 0 138 -41l45 56l55 -44l-47 -58q62 -73 62 -181q0 -82 -35 -142.5t-93 -92.5t-125 -32q-77 0 -139 41l-44 -55zM359 387q-24 21 -59 21q-50 0 -76 -41.5t-26 -111.5q0 -38 7 -65zM376 143.5q26 41.5 26 111.5
q0 39 -7 67l-155 -197q25 -23 60 -23q50 0 76 41.5z" />
    <glyph glyph-name="ugrave" unicode="&#xf9;" 
d="M62 195v315h147v-296q0 -54 16 -77.5t56 -23.5q29 0 50.5 13.5t46.5 47.5v336h147v-510h-120l-11 74h-4q-35 -42 -75.5 -64t-91.5 -22q-161 0 -161 207zM180 741h150l89 -167h-107z" />
    <glyph glyph-name="uacute" unicode="&#xfa;" 
d="M62 195v315h147v-296q0 -54 16 -77.5t56 -23.5q29 0 50.5 13.5t46.5 47.5v336h147v-510h-120l-11 74h-4q-35 -42 -75.5 -64t-91.5 -22q-161 0 -161 207zM269 741h150l-132 -167h-107z" />
    <glyph glyph-name="ucircumflex" unicode="&#xfb;" 
d="M62 195v315h147v-296q0 -54 16 -77.5t56 -23.5q29 0 50.5 13.5t46.5 47.5v336h147v-510h-120l-11 74h-4q-35 -42 -75.5 -64t-91.5 -22q-161 0 -161 207zM238 741h124l100 -167h-107l-53 95h-4l-53 -95h-107z" />
    <glyph glyph-name="udieresis" unicode="&#xfc;" 
d="M62 195v315h147v-296q0 -54 16 -77.5t56 -23.5q29 0 50.5 13.5t46.5 47.5v336h147v-510h-120l-11 74h-4q-35 -42 -75.5 -64t-91.5 -22q-161 0 -161 207zM134.5 593.5q-22.5 22.5 -22.5 56.5q0 33 22.5 55.5t56.5 22.5t56 -22.5t22 -55.5q0 -34 -22 -56.5t-56 -22.5
t-56.5 22.5zM353 593.5q-22 22.5 -22 56.5q0 33 22 55.5t56 22.5t56.5 -22.5t22.5 -55.5q0 -34 -22.5 -56.5t-56.5 -22.5t-56 22.5z" />
    <glyph glyph-name="yacute" unicode="&#xfd;" 
d="M67 -207l26 112q19 -6 39 -6q38 0 63 23t35 49l16 41l-215 498h146l83 -223q20 -52 50 -153h4q17 66 45 153l73 223h139l-197 -534q-37 -100 -89 -146.5t-142 -46.5q-41 0 -76 10zM279 741h150l-132 -167h-107z" />
    <glyph glyph-name="thorn" unicode="&#xfe;" 
d="M72 660h147v-118l-4 -79q31 28 66.5 44t72.5 16q92 0 145.5 -70.5t53.5 -189.5q0 -84 -30 -146.5t-79.5 -95.5t-104.5 -33q-65 0 -123 56l3 -84v-144h-147v844zM374.5 146.5q27.5 38.5 27.5 114.5q0 71 -22.5 106.5t-69.5 35.5q-45 0 -91 -50v-210q19 -18 41.5 -26.5
t43.5 -8.5q43 0 70.5 38.5z" />
    <glyph glyph-name="ydieresis" unicode="&#xff;" 
d="M67 -207l26 112q19 -6 39 -6q38 0 63 23t35 49l16 41l-215 498h146l83 -223q20 -52 50 -153h4q17 66 45 153l73 223h139l-197 -534q-37 -100 -89 -146.5t-142 -46.5q-41 0 -76 10zM144.5 593.5q-22.5 22.5 -22.5 56.5q0 33 22.5 55.5t56.5 22.5t56 -22.5t22 -55.5
q0 -34 -22 -56.5t-56 -22.5t-56.5 22.5zM363 593.5q-22 22.5 -22 56.5q0 33 22 55.5t56 22.5t56.5 -22.5t22.5 -55.5q0 -34 -22.5 -56.5t-56.5 -22.5t-56 22.5z" />
    <glyph glyph-name="Amacron" unicode="&#x100;" 
d="M159 821h282v-93h-282v93zM212 659h176l203 -659h-156l-39 158h-197l-40 -158h-150zM366 273l-15 62l-52 212h-4l-38 -158l-13 -54l-15 -62h137z" />
    <glyph glyph-name="amacron" unicode="&#x101;" 
d="M105.5 31.5q-44.5 43.5 -44.5 109.5q0 87 76.5 131.5t250.5 55.5q-4 37 -30.5 57t-75.5 20q-35 0 -69 -13t-62 -35l-52 96q37 31 93.5 50.5t118.5 19.5q106 0 165 -58t59 -171v-294h-120l-11 58h-4q-90 -70 -176 -70q-74 0 -118.5 43.5zM388 152v88q-103 -6 -144.5 -28.5
t-41.5 -59.5q0 -25 18.5 -37.5t50.5 -12.5q57 0 117 50zM173 685h276v-93h-276v93z" />
    <glyph glyph-name="Abreve" unicode="&#x102;" 
d="M203 741.5q-34 32.5 -40 88.5h81q11 -47 56 -47t56 47h81q-6 -56 -40 -88.5t-97 -32.5t-97 32.5zM212 659h176l203 -659h-156l-39 158h-197l-40 -158h-150zM366 273l-15 61l-52 212h-4q-8 -34 -39 -164l-12 -48l-15 -61h137z" />
    <glyph glyph-name="abreve" unicode="&#x103;" 
d="M105.5 31.5q-44.5 43.5 -44.5 109.5q0 87 76.5 131.5t250.5 55.5q-4 37 -30.5 57t-75.5 20q-35 0 -69 -13t-62 -35l-52 96q37 31 93.5 50.5t118.5 19.5q106 0 165 -58t59 -171v-294h-120l-11 58h-4q-90 -70 -176 -70q-74 0 -118.5 43.5zM388 152v88q-103 -6 -144.5 -28.5
t-41.5 -59.5q0 -25 18.5 -37.5t50.5 -12.5q57 0 117 50zM203.5 619q-37.5 45 -39.5 111h82q4 -34 20 -54.5t45 -20.5t45 20.5t20 54.5h82q-2 -66 -39.5 -111t-107.5 -45t-107.5 45z" />
    <glyph glyph-name="Aogonek" unicode="&#x104;" 
d="M426 -199.5q-32 25.5 -32 69.5q0 42 25.5 77.5t55.5 52.5h-40l-39 158h-197l-40 -158h-150l203 660h176l203 -660q-39 -4 -64.5 -31.5t-25.5 -60.5q0 -18 11 -28t28 -10q19 0 39 14l34 -74q-20 -15 -49.5 -25t-55.5 -10q-50 0 -82 25.5zM366 273l-15 62l-52 213h-4
l-41 -172q-3 -10 -10 -41l-15 -62h137z" />
    <glyph glyph-name="aogonek" unicode="&#x105;" 
d="M540 -177q-19 -15 -48 -24t-53 -9q-46 0 -76 24t-30 67q0 39 22 71t48 50h12l-11 56h-4q-90 -70 -176 -70q-74 0 -118.5 43.5t-44.5 109.5q0 87 76.5 131.5t250.5 55.5q-4 37 -30.5 57t-75.5 20q-35 0 -69 -13t-62 -35l-52 96q37 31 93.5 50.5t118.5 19.5q106 0 165 -58
t59 -171v-294h-52q-51 -41 -51 -85q0 -19 12.5 -28.5t29.5 -9.5t35 12zM388 240q-103 -6 -144.5 -28.5t-41.5 -59.5q0 -25 18.5 -37.5t50.5 -12.5q57 0 117 50v88z" />
    <glyph glyph-name="Cacute" unicode="&#x106;" 
d="M360 830h156l-120 -121h-117zM207 27q-70 39 -111 115t-41 183q0 106 41 184.5t111.5 120t158.5 41.5q58 0 106.5 -23.5t86.5 -60.5l-81 -91q-26 23 -52.5 35.5t-59.5 12.5q-46 0 -82.5 -26t-57 -74.5t-20.5 -113.5q0 -100 45.5 -157.5t120.5 -57.5q64 0 116 59l81 -89
q-82 -97 -206 -97q-86 0 -156 39z" />
    <glyph glyph-name="cacute" unicode="&#x107;" 
d="M201.5 19.5q-62.5 31.5 -98.5 92t-36 143.5q0 82 39 143t104.5 93t143.5 32q56 0 104.5 -19t81.5 -51l-68 -91q-55 42 -110 42q-64 0 -104 -41t-40 -108t38.5 -107.5t100.5 -40.5q65 0 131 49l60 -93q-43 -37 -97.5 -56t-107.5 -19q-79 0 -141.5 31.5zM289 741h150
l-132 -167h-107z" />
    <glyph glyph-name="Ccircumflex" unicode="&#x108;" 
d="M282 830h143l96 -121h-112l-53 62h-4l-54 -62h-112zM207 27q-70 39 -111 115t-41 183q0 106 41 184.5t111.5 120t158.5 41.5q58 0 106.5 -23.5t86.5 -60.5l-81 -91q-26 23 -52.5 35.5t-59.5 12.5q-46 0 -82.5 -26t-57 -74.5t-20.5 -113.5q0 -100 45.5 -157.5t120.5 -57.5
q64 0 116 59l81 -89q-82 -97 -206 -97q-86 0 -156 39z" />
    <glyph glyph-name="ccircumflex" unicode="&#x109;" 
d="M201.5 19.5q-62.5 31.5 -98.5 92t-36 143.5q0 82 39 143t104.5 93t143.5 32q56 0 104.5 -19t81.5 -51l-68 -91q-55 42 -110 42q-64 0 -104 -41t-40 -108t38.5 -107.5t100.5 -40.5q65 0 131 49l60 -93q-43 -37 -97.5 -56t-107.5 -19q-79 0 -141.5 31.5zM258 741h124
l100 -167h-107l-53 95h-4l-53 -95h-107z" />
    <glyph glyph-name="Cdotaccent" unicode="&#x10a;" 
d="M292 730.5q-24 21.5 -24 55.5t24 55.5t62 21.5q37 0 61 -21.5t24 -55.5t-24 -55.5t-61 -21.5q-38 0 -62 21.5zM207 27q-70 39 -111 115.5t-41 183.5q0 106 41 184t111.5 119.5t158.5 41.5q58 0 107 -23.5t86 -60.5l-81 -91q-25 23 -52 35.5t-60 12.5q-46 0 -82.5 -25.5
t-57 -74t-20.5 -113.5q0 -101 45.5 -158.5t120.5 -57.5q64 0 116 59l81 -89q-82 -97 -206 -97q-86 0 -156 39z" />
    <glyph glyph-name="cdotaccent" unicode="&#x10b;" 
d="M201.5 19.5q-62.5 31.5 -98.5 92t-36 143.5q0 82 39 143t104.5 93t143.5 32q56 0 104.5 -19t81.5 -51l-68 -91q-55 42 -110 42q-64 0 -104 -41t-40 -108t38.5 -107.5t100.5 -40.5q65 0 131 49l60 -93q-43 -37 -97.5 -56t-107.5 -19q-79 0 -141.5 31.5zM248 613
q-28 27 -28 71q0 45 28 73.5t72 28.5t72 -28.5t28 -73.5q0 -44 -28 -71t-72 -27t-72 27z" />
    <glyph glyph-name="Ccaron" unicode="&#x10c;" 
d="M186 830h112l54 -62h4l53 62h112l-96 -121h-143zM207 27q-70 39 -111 115t-41 183q0 106 41 184.5t111.5 120t158.5 41.5q58 0 106.5 -23.5t86.5 -60.5l-81 -91q-26 23 -52.5 35.5t-59.5 12.5q-46 0 -82.5 -26t-57 -74.5t-20.5 -113.5q0 -100 45.5 -157.5t120.5 -57.5
q64 0 116 59l81 -89q-82 -97 -206 -97q-86 0 -156 39z" />
    <glyph glyph-name="ccaron" unicode="&#x10d;" 
d="M201.5 19.5q-62.5 31.5 -98.5 92t-36 143.5q0 82 39 143t104.5 93t143.5 32q56 0 104.5 -19t81.5 -51l-68 -91q-55 42 -110 42q-64 0 -104 -41t-40 -108t38.5 -107.5t100.5 -40.5q65 0 131 49l60 -93q-43 -37 -97.5 -56t-107.5 -19q-79 0 -141.5 31.5zM158 741h107
l53 -96h4l53 96h107l-100 -167h-124z" />
    <glyph glyph-name="Dcaron" unicode="&#x10e;" 
d="M129 830h112l54 -62h4l53 62h112l-96 -121h-143zM65 659h177q147 0 230.5 -81.5t83.5 -245.5t-82.5 -248t-223.5 -84h-185v659zM234 119q171 0 171 213q0 112 -44.5 160t-126.5 48h-21v-421h21z" />
    <glyph glyph-name="dcaron" unicode="&#x10f;" 
d="M538 792h94l-2 -70l-24 -158h-63zM123.5 20q-47.5 32 -73 92t-25.5 143q0 80 30 141t78.5 94t103.5 33q40 0 69 -14t58 -42l-5 80v176h147v-723h-120l-11 53h-4q-28 -29 -64.5 -47t-72.5 -18q-63 0 -110.5 32zM359 157v210q-37 36 -84 36q-42 0 -71 -38t-29 -108
q0 -75 25 -112t72 -37q51 0 87 49z" />
    <glyph glyph-name="Dcroat" unicode="&#x110;" 
d="M71 305h-69v66l69 6v283h178q146 0 229.5 -81.5t83.5 -245.5t-82.5 -248.5t-222.5 -84.5h-186v305zM240 119q171 0 171 214q0 112 -44.5 160t-126.5 48h-21v-164h107v-72h-107v-186h21z" />
    <glyph glyph-name="dcroat" unicode="&#x111;" 
d="M146 19q-47 31 -73 89t-26 137q0 77 30 135.5t78.5 90t103.5 31.5q40 0 69 -14t58 -41l-5 80v47h-155v71h155v78h147v-78h66v-65l-66 -5v-575h-120l-11 53h-3q-29 -29 -65.5 -47t-72.5 -18q-63 0 -110 31zM381 157v189q-39 36 -81 36q-44 0 -73 -35t-29 -100
q0 -70 24.5 -104.5t71.5 -34.5q51 0 87 49z" />
    <glyph glyph-name="Emacron" unicode="&#x112;" 
d="M180 821h283v-93h-283v93zM94 659h430v-124h-283v-134h240v-123h-240v-154h293v-124h-440v659z" />
    <glyph glyph-name="emacron" unicode="&#x113;" 
d="M189.5 20q-62.5 32 -98.5 92.5t-36 142.5q0 80 36 141t95.5 94t126.5 33q74 0 126.5 -31.5t79.5 -87t27 -126.5q0 -27 -6 -66h-334q7 -56 46.5 -84t97.5 -28q33 0 63.5 9t64.5 27l48 -89q-42 -27 -94.5 -43t-101.5 -16q-78 0 -140.5 32zM413 310q0 47 -24 73.5t-73 26.5
q-42 0 -72.5 -25.5t-39.5 -74.5h209zM175 685h276v-93h-276v93z" />
    <glyph glyph-name="Ebreve" unicode="&#x114;" 
d="M225 741.5q-34 32.5 -40 88.5h80q11 -47 57 -47q45 0 56 47h80q-6 -56 -39.5 -88.5t-96.5 -32.5t-97 32.5zM94 659h430v-124h-283v-134h240v-123h-240v-154h293v-124h-440v659z" />
    <glyph glyph-name="ebreve" unicode="&#x115;" 
d="M189.5 20q-62.5 32 -98.5 92.5t-36 142.5q0 80 36 141t95.5 94t126.5 33q74 0 126.5 -31.5t79.5 -87t27 -126.5q0 -27 -6 -66h-334q7 -56 46.5 -84t97.5 -28q33 0 63.5 9t64.5 27l48 -89q-42 -27 -94.5 -43t-101.5 -16q-78 0 -140.5 32zM413 310q0 47 -24 73.5t-73 26.5
q-42 0 -72.5 -25.5t-39.5 -74.5h209zM205.5 619q-37.5 45 -39.5 111h82q4 -34 20 -54.5t45 -20.5t45 20.5t20 54.5h82q-2 -66 -39.5 -111t-107.5 -45t-107.5 45z" />
    <glyph glyph-name="Edotaccent" unicode="&#x116;" 
d="M260 730.5q-24 21.5 -24 55.5t24 55.5t62 21.5q37 0 61 -21.5t24 -55.5t-24 -55.5t-61 -21.5q-38 0 -62 21.5zM94 659h430v-124h-283v-134h240v-123h-240v-154h293v-124h-440v659z" />
    <glyph glyph-name="edotaccent" unicode="&#x117;" 
d="M189.5 20q-62.5 32 -98.5 92.5t-36 142.5q0 80 36 141t95.5 94t126.5 33q74 0 126.5 -31.5t79.5 -87t27 -126.5q0 -27 -6 -66h-334q7 -56 46.5 -84t97.5 -28q33 0 63.5 9t64.5 27l48 -89q-42 -27 -94.5 -43t-101.5 -16q-78 0 -140.5 32zM413 310q0 47 -24 73.5t-73 26.5
q-42 0 -72.5 -25.5t-39.5 -74.5h209zM241 613q-28 27 -28 71q0 45 28 73.5t72 28.5t72 -28.5t28 -73.5q0 -44 -28 -71t-72 -27t-72 27z" />
    <glyph glyph-name="Eogonek" unicode="&#x118;" 
d="M367.5 -199.5q-32.5 25.5 -32.5 69.5q0 42 24 76.5t55 53.5h-320v660h430v-124h-283v-135h240v-123h-240v-154h293v-124h-5q-34 -1 -60 -29.5t-26 -62.5q0 -18 12.5 -28t29.5 -10q16 0 36 14l33 -74q-19 -15 -48.5 -25t-55.5 -10q-50 0 -82.5 25.5z" />
    <glyph glyph-name="eogonek" unicode="&#x119;" 
d="M540 212h-334q7 -56 46.5 -84t97.5 -28q33 0 63.5 9t64.5 27l48 -89q-47 -31 -114 -49q-50 -40 -50 -83q0 -19 12.5 -28.5t29.5 -9.5t35 12l31 -66q-19 -15 -48 -24t-53 -9q-46 0 -76 24t-30 67q0 32 15.5 60t37.5 47q-74 3 -133.5 35.5t-93.5 92t-34 139.5t36 141
t95.5 94t126.5 33q74 0 126.5 -31.5t79.5 -87t27 -126.5q0 -27 -6 -66zM413 310q0 47 -24 73.5t-73 26.5q-42 0 -72.5 -25.5t-39.5 -74.5h209z" />
    <glyph glyph-name="Ecaron" unicode="&#x11a;" 
d="M154 830h112l54 -62h4l53 62h112l-96 -121h-143zM94 659h430v-124h-283v-134h240v-123h-240v-154h293v-124h-440v659z" />
    <glyph glyph-name="ecaron" unicode="&#x11b;" 
d="M189.5 20q-62.5 32 -98.5 92.5t-36 142.5q0 80 36 141t95.5 94t126.5 33q74 0 126.5 -31.5t79.5 -87t27 -126.5q0 -27 -6 -66h-334q7 -56 46.5 -84t97.5 -28q33 0 63.5 9t64.5 27l48 -89q-42 -27 -94.5 -43t-101.5 -16q-78 0 -140.5 32zM413 310q0 47 -24 73.5t-73 26.5
q-42 0 -72.5 -25.5t-39.5 -74.5h209zM151 741h107l53 -96h4l53 96h107l-100 -167h-124z" />
    <glyph glyph-name="Gcircumflex" unicode="&#x11c;" 
d="M259 830h143l96 -121h-112l-54 62h-4l-53 -62h-112zM190 27q-68 39 -107 115t-39 183t39.5 185.5t108 119.5t153.5 41q107 0 191 -84l-81 -91q-24 24 -49 36t-61 12q-43 0 -76.5 -26t-53 -74.5t-19.5 -113.5q0 -103 39.5 -159t115.5 -56q19 0 36.5 5.5t27.5 15.5v114h-95
v120h227v-302q-36 -34 -90.5 -57t-113.5 -23q-85 0 -153 39z" />
    <glyph glyph-name="gcircumflex" unicode="&#x11d;" 
d="M170 -202q-52 15 -92 48l49 100q32 -26 70 -37t73 -11t61 13t40 33t15 41l3 83q-24 -25 -60.5 -40t-72.5 -15q-62 0 -109.5 32t-73.5 89t-26 130q0 76 29.5 135t79 91.5t106.5 32.5q78 0 135 -66h4l12 53h115v-510q0 -104 -66 -160.5t-192 -56.5q-48 0 -100 15zM381 182
v185q-37 36 -85 36q-26 0 -49 -16.5t-37 -47.5t-14 -73q0 -63 27 -99t71 -36q50 0 87 51zM238 741h124l100 -167h-107l-53 95h-4l-53 -95h-107z" />
    <glyph glyph-name="Gbreve" unicode="&#x11e;" 
d="M233.5 741.5q-33.5 32.5 -39.5 88.5h80q11 -47 56 -47q46 0 57 47h80q-6 -56 -40 -88.5t-97 -32.5t-96.5 32.5zM190 27q-68 39 -107 115t-39 183t39.5 185.5t108 119.5t153.5 41q107 0 191 -84l-81 -91q-24 24 -49 36t-61 12q-43 0 -76.5 -26t-53 -74.5t-19.5 -113.5
q0 -103 39.5 -159t115.5 -56q19 0 36.5 5.5t27.5 15.5v114h-95v120h227v-302q-36 -34 -90.5 -57t-113.5 -23q-85 0 -153 39z" />
    <glyph glyph-name="gbreve" unicode="&#x11f;" 
d="M170 -202q-52 15 -92 48l49 100q32 -26 70 -37t73 -11t61 13t40 33t15 41l3 83q-24 -25 -60.5 -40t-72.5 -15q-62 0 -109.5 32t-73.5 89t-26 130q0 76 29.5 135t79 91.5t106.5 32.5q78 0 135 -66h4l12 53h115v-510q0 -104 -66 -160.5t-192 -56.5q-48 0 -100 15zM381 182
v185q-37 36 -85 36q-26 0 -49 -16.5t-37 -47.5t-14 -73q0 -63 27 -99t71 -36q50 0 87 51zM192.5 619q-37.5 45 -39.5 111h82q4 -34 20 -54.5t45 -20.5t45 20.5t20 54.5h82q-2 -66 -39.5 -111t-107.5 -45t-107.5 45z" />
    <glyph glyph-name="Gdotaccent" unicode="&#x120;" 
d="M269 730.5q-24 21.5 -24 55.5t24 55.5t61 21.5t61 -21.5t24 -55.5t-24 -55.5t-61 -21.5t-61 21.5zM190 27q-68 39 -107 115t-39 184q0 107 39.5 185t108 119t153.5 41q109 0 191 -84l-81 -91q-23 24 -48 36t-62 12q-43 0 -76.5 -25.5t-53 -74t-19.5 -113.5
q0 -104 39.5 -160t115.5 -56q19 0 36.5 5.5t27.5 15.5v114h-95v120h227v-302q-36 -34 -90.5 -57t-113.5 -23q-85 0 -153 39z" />
    <glyph glyph-name="gdotaccent" unicode="&#x121;" 
d="M170 -202q-52 15 -92 48l49 100q32 -26 70 -37t73 -11t61 13t40 33t15 41l3 83q-24 -25 -60.5 -40t-72.5 -15q-62 0 -109.5 32t-73.5 89t-26 130q0 76 29.5 135t79 91.5t106.5 32.5q78 0 135 -66h4l12 53h115v-510q0 -104 -66 -160.5t-192 -56.5q-48 0 -100 15zM381 182
v185q-37 36 -85 36q-26 0 -49 -16.5t-37 -47.5t-14 -73q0 -63 27 -99t71 -36q50 0 87 51zM228 613q-28 27 -28 71q0 45 28 73.5t72 28.5t72 -28.5t28 -73.5q0 -44 -28 -71t-72 -27t-72 27z" />
    <glyph glyph-name="Hcircumflex" unicode="&#x124;" 
d="M227 830h144l96 -121h-113l-53 62h-4l-53 -62h-113zM64 659h147v-255h178v255h147v-659h-147v276h-178v-276h-147v659z" />
    <glyph glyph-name="hcircumflex" unicode="&#x125;" 
d="M78 895h143l96 -123h-112l-54 63h-4l-53 -63h-112zM72 723h147v-179l-8 -99q76 78 168 78q81 0 121 -54.5t40 -153.5v-315h-147v296q0 54 -16.5 78t-56.5 24q-28 0 -50 -13.5t-51 -43.5v-341h-147v723z" />
    <glyph glyph-name="Hbar" unicode="&#x126;" 
d="M64 492h-61v65l61 5v98h147v-97h178v97h147v-97h61v-71h-61v-492h-147v276h-178v-276h-147v492zM389 405v87h-178v-87h178z" />
    <glyph glyph-name="hbar" unicode="&#x127;" 
d="M72 574h-66v65l66 5v79h147v-78h182v-71h-182v-51l-8 -99q74 78 168 78q81 0 121 -54.5t40 -153.5v-294h-147v275q0 54 -16.5 78t-56.5 24q-28 0 -50.5 -13t-50.5 -43v-321h-147v574z" />
    <glyph glyph-name="Itilde" unicode="&#x128;" 
d="M166.5 812.5q29.5 35.5 70.5 35.5q21 0 37.5 -7t38.5 -21q4 -2 18.5 -10t25.5 -8q29 0 38 46h75q-7 -66 -36.5 -101.5t-70.5 -35.5q-21 0 -37.5 7t-38.5 21q-4 2 -18.5 10t-25.5 8q-28 0 -38 -46h-75q7 66 36.5 101.5zM74 124h152v411h-152v124h452v-124h-152v-411h152
v-124h-452v124z" />
    <glyph glyph-name="itilde" unicode="&#x129;" 
d="M61 119h170v276h-170v115h317v-391h170v-119h-487v119zM166.5 666q30.5 36 77.5 36q19 0 34 -8t34 -23q2 -2 11 -8.5t15.5 -9.5t12.5 -3q16 0 26 11.5t17 40.5h75q-9 -71 -39.5 -107t-77.5 -36q-19 0 -34 8t-35 24q-14 11 -22 16t-16 5q-16 0 -26 -12t-17 -41h-75
q9 71 39.5 107z" />
    <glyph glyph-name="Imacron" unicode="&#x12a;" 
d="M159 821h282v-93h-282v93zM74 124h152v411h-152v124h452v-124h-152v-411h152v-124h-452v124z" />
    <glyph glyph-name="imacron" unicode="&#x12b;" 
d="M61 119h170v276h-170v115h317v-391h170v-119h-487v119zM160 669h276v-93h-276v93z" />
    <glyph glyph-name="Ibreve" unicode="&#x12c;" 
d="M203 741.5q-34 32.5 -40 88.5h81q11 -47 56 -47t56 47h81q-6 -56 -40 -88.5t-97 -32.5t-97 32.5zM74 124h152v411h-152v124h452v-124h-152v-411h152v-124h-452v124z" />
    <glyph glyph-name="ibreve" unicode="&#x12d;" 
d="M61 119h170v276h-170v115h317v-391h170v-119h-487v119zM190.5 603q-37.5 45 -39.5 111h82q4 -34 20 -54.5t45 -20.5t45 20.5t20 54.5h82q-2 -66 -39.5 -111t-107.5 -45t-107.5 45z" />
    <glyph glyph-name="Iogonek" unicode="&#x12e;" 
d="M224.5 -199.5q-32.5 25.5 -32.5 69.5q0 43 22.5 76t51.5 54h-192v124h152v412h-152v124h452v-124h-152v-412h152v-124h-152q-39 -16 -57 -40t-18 -52q0 -18 12 -28t29 -10q19 0 37 14l34 -74q-20 -15 -49.5 -25t-55.5 -10q-49 0 -81.5 25.5z" />
    <glyph glyph-name="iogonek" unicode="&#x12f;" 
d="M226 597q-28 27 -28 71q0 45 28 73.5t72 28.5t72 -28.5t28 -73.5q0 -44 -28 -71t-72 -27t-72 27zM272 -74q0 -19 12.5 -28.5t29.5 -9.5t35 12l31 -66q-19 -15 -48 -24t-53 -9q-46 0 -76 24t-30 67q0 33 16 60.5t38 47.5h-166v119h170v276h-170v115h317v-391h170v-119
h-237q-39 -35 -39 -74z" />
    <glyph glyph-name="Idotaccent" unicode="&#x130;" 
d="M239 730.5q-24 21.5 -24 55.5t24 55.5t61 21.5t61 -21.5t24 -55.5t-24 -55.5t-61 -21.5t-61 21.5zM74 124h152v411h-152v124h452v-124h-152v-411h152v-124h-452v124z" />
    <glyph glyph-name="dotlessi" unicode="&#x131;" 
d="M61 119h170v276h-170v115h317v-391h170v-119h-487v119z" />
    <glyph glyph-name="Jcircumflex" unicode="&#x134;" 
d="M250 830h143l96 -121h-112l-53 62h-4l-54 -62h-112zM156 14q-57 26 -97 83l85 91q58 -73 124 -73q52 0 76.5 27.5t24.5 93.5v300h-255v123h402v-435q0 -106 -58 -171t-185 -65q-60 0 -117 26z" />
    <glyph glyph-name="jcircumflex" unicode="&#x135;" 
d="M42 -182l43 105q53 -25 101 -25t70 34t22 76v387h-199v115h346v-496q0 -231 -230 -231q-81 0 -153 35zM283 741h124l100 -167h-107l-53 95h-4l-53 -95h-107z" />
    <glyph glyph-name="kgreenlandic" unicode="&#x138;" 
d="M76 510h147v-207l3 1l183 206h161l-188 -209l203 -301h-159l-129 204l-74 -77v-127h-147v510z" />
    <glyph glyph-name="Lacute" unicode="&#x139;" 
d="M201 830h156l-119 -121h-118zM107 659h147v-535h290v-124h-437v659z" />
    <glyph glyph-name="lacute" unicode="&#x13a;" 
d="M271 903h156l-120 -123h-117zM254.5 43.5q-48.5 55.5 -48.5 154.5v409h-144v116h291v-532q0 -44 22.5 -64t57.5 -20q37 0 78 17l33 -108q-47 -15 -77 -21.5t-72 -6.5q-92 0 -140.5 55.5z" />
    <glyph glyph-name="Lcaron" unicode="&#x13d;" 
d="M381 741h94l-1 -71l-25 -153h-63zM107 660h147v-536h290v-124h-437v660z" />
    <glyph glyph-name="lcaron" unicode="&#x13e;" 
d="M409 792h94l-1 -70l-25 -158h-63zM254.5 43.5q-48.5 55.5 -48.5 154.5v409h-144v116h291v-532q0 -44 22.5 -64t57.5 -20q37 0 78 17l33 -108q-47 -15 -77 -21.5t-72 -6.5q-92 0 -140.5 55.5z" />
    <glyph glyph-name="Ldot" unicode="&#x13f;" 
d="M107 660h147v-536h290v-124h-437v660zM383.5 293q-27.5 25 -27.5 65t27.5 66t69.5 26q43 0 70.5 -26t27.5 -66t-27.5 -65t-70.5 -25q-42 0 -69.5 25z" />
    <glyph glyph-name="ldot" unicode="&#x140;" 
d="M204.5 44q-48.5 56 -48.5 154v409h-144v116h291v-532q0 -44 23 -64t58 -20q36 0 77 17l33 -108q-45 -15 -76 -21.5t-73 -6.5q-92 0 -140.5 56zM400.5 296.5q-27.5 25.5 -27.5 65.5q0 41 27.5 66.5t70.5 25.5t70.5 -25.5t27.5 -66.5q0 -40 -27.5 -65.5t-70.5 -25.5
t-70.5 25.5z" />
    <glyph glyph-name="Lslash" unicode="&#x141;" 
d="M107 201l-74 -41v114l74 41v345h147v-273l206 115v-114l-206 -115v-149h290v-124h-437v201z" />
    <glyph glyph-name="lslash" unicode="&#x142;" 
d="M254.5 43.5q-48.5 55.5 -48.5 154.5v90l-113 -65v117l113 66v201h-144v116h291v-244l148 84v-118l-148 -84v-170q0 -44 22.5 -64t57.5 -20q37 0 78 17l33 -108q-47 -15 -77 -21.5t-72 -6.5q-92 0 -140.5 55.5z" />
    <glyph glyph-name="Nacute" unicode="&#x143;" 
d="M312 830h156l-120 -121h-117zM66 659h150l138 -331l56 -144h4q-4 42 -7 60q-1 14 -7.5 72.5t-6.5 106.5v236h141v-659h-150l-138 330l-56 143h-4l7 -65q14 -114 14 -172v-236h-141v659z" />
    <glyph glyph-name="nacute" unicode="&#x144;" 
d="M72 510h120l11 -69h4q37 38 78.5 60t92.5 22q82 0 122 -54t40 -154v-315h-147v296q0 54 -16.5 78t-56.5 24q-28 0 -50 -13.5t-51 -43.5v-341h-147v510zM279 741h150l-132 -167h-107z" />
    <glyph glyph-name="Ncaron" unicode="&#x147;" 
d="M138 830h113l53 -62h4l53 62h113l-96 -121h-144zM66 659h150l138 -331l56 -144h4q-4 42 -7 60q-1 14 -7.5 72.5t-6.5 106.5v236h141v-659h-150l-138 330l-56 143h-4l7 -65q14 -114 14 -172v-236h-141v659z" />
    <glyph glyph-name="ncaron" unicode="&#x148;" 
d="M72 510h120l11 -69h4q37 38 78.5 60t92.5 22q82 0 122 -54t40 -154v-315h-147v296q0 54 -16.5 78t-56.5 24q-28 0 -50 -13.5t-51 -43.5v-341h-147v510zM148 741h107l53 -96h4l53 96h107l-100 -167h-124z" />
    <glyph glyph-name="Omacron" unicode="&#x14c;" 
d="M159 821h282v-93h-282v93zM163.5 29.5q-59.5 41.5 -92.5 119.5t-33 184t33 182.5t92 116.5t137 40t137 -40.5t92 -117t33 -181.5q0 -106 -33 -184t-92.5 -119.5t-136.5 -41.5t-136.5 41.5zM381 174q30 59 30 159q0 99 -30 155.5t-81 56.5t-81 -56.5t-30 -155.5
q0 -100 30 -159t81 -59t81 59z" />
    <glyph glyph-name="omacron" unicode="&#x14d;" 
d="M175 20q-58 32 -93 92.5t-35 142.5t35 143t93 93t125 32t125 -32t93 -93t35 -143t-35 -142.5t-93 -92.5t-125 -32t-125 32zM376 146.5q26 39.5 26 108.5t-26 109t-76 40t-76 -40t-26 -109t26 -108.5t76 -39.5t76 39.5zM162 685h276v-93h-276v93z" />
    <glyph glyph-name="Obreve" unicode="&#x14e;" 
d="M203 741.5q-34 32.5 -40 88.5h81q11 -47 56 -47t56 47h81q-6 -56 -40 -88.5t-97 -32.5t-97 32.5zM163.5 29.5q-59.5 41.5 -92.5 119t-33 183.5t33 182.5t92 116.5t137 40t137 -40.5t92 -117t33 -181.5q0 -106 -33 -183.5t-92.5 -119t-136.5 -41.5t-136.5 41.5zM381 173.5
q30 58.5 30 158.5q0 99 -30 155.5t-81 56.5t-81 -56.5t-30 -155.5q0 -100 30 -158.5t81 -58.5t81 58.5z" />
    <glyph glyph-name="obreve" unicode="&#x14f;" 
d="M175 20q-58 32 -93 92.5t-35 142.5t35 143t93 93t125 32t125 -32t93 -93t35 -143t-35 -142.5t-93 -92.5t-125 -32t-125 32zM376 146.5q26 39.5 26 108.5t-26 109t-76 40t-76 -40t-26 -109t26 -108.5t76 -39.5t76 39.5zM192.5 619q-37.5 45 -39.5 111h82q4 -34 20 -54.5
t45 -20.5t45 20.5t20 54.5h82q-2 -66 -39.5 -111t-107.5 -45t-107.5 45z" />
    <glyph glyph-name="Ohungarumlaut" unicode="&#x150;" 
d="M226 830h125l-89 -121h-99zM406 830h125l-90 -121h-99zM163.5 29.5q-59.5 41.5 -92.5 119t-33 183.5t33 182.5t92 116.5t137 40t137 -40.5t92 -117t33 -181.5q0 -106 -33 -183.5t-92.5 -119t-136.5 -41.5t-136.5 41.5zM381 173.5q30 58.5 30 158.5q0 99 -30 155.5
t-81 56.5t-81 -56.5t-30 -155.5q0 -100 30 -158.5t81 -58.5t81 58.5z" />
    <glyph glyph-name="ohungarumlaut" unicode="&#x151;" 
d="M175 20q-58 32 -93 92.5t-35 142.5t35 143t93 93t125 32t125 -32t93 -93t35 -143t-35 -142.5t-93 -92.5t-125 -32t-125 32zM376 146.5q26 39.5 26 108.5t-26 109t-76 40t-76 -40t-26 -109t26 -108.5t76 -39.5t76 39.5zM190 724h117l-95 -151h-90zM361 724h117l-95 -151
h-91z" />
    <glyph glyph-name="OE" unicode="&#x152;" 
d="M147.5 37q-60.5 37 -94.5 111.5t-34 184.5q0 163 75.5 245t200.5 82h290v-123h-160v-136h121v-123h-121v-154h170v-124h-308q-79 0 -139.5 37zM294 119v422h-16q-53 0 -80.5 -47t-27.5 -161q0 -115 28 -164.5t80 -49.5h16z" />
    <glyph glyph-name="oe" unicode="&#x153;" 
d="M101.5 19.5q-41.5 31.5 -65.5 92t-24 143.5q0 82 25 143t67 93t94 32q41 0 71.5 -24t49.5 -67q20 44 51 67.5t68 23.5q48 0 83 -33t53 -88.5t18 -123.5q0 -31 -6 -66h-222q8 -54 31 -81.5t59 -27.5q37 0 74 27l50 -94q-28 -23 -63 -35.5t-67 -12.5q-39 0 -72.5 21
t-55.5 60q-22 -41 -52 -61t-73 -20q-52 0 -93.5 31.5zM476 303q0 107 -49 107q-26 0 -43.5 -27t-21.5 -80h114zM247.5 146q14.5 40 14.5 109t-14.5 109.5t-41.5 40.5q-31 0 -46.5 -40t-15.5 -110t15.5 -109.5t46.5 -39.5q27 0 41.5 40z" />
    <glyph glyph-name="Racute" unicode="&#x154;" 
d="M309 830h156l-120 -121h-117zM70 659h231q114 0 183 -48t69 -157q0 -70 -31 -118t-85 -72l147 -264h-165l-125 238h-77v-238h-147v659zM289 355q59 0 89 25t30 74q0 47 -29.5 67.5t-89.5 20.5h-72v-187h72z" />
    <glyph glyph-name="racute" unicode="&#x155;" 
d="M116 510h120l12 -112h3q36 62 88 93.5t113 31.5q31 0 51 -5t45 -16l-30 -123q-29 8 -46 11.5t-42 3.5q-49 0 -93 -30.5t-74 -95.5v-268h-147v510zM269 741h150l-132 -167h-107z" />
    <glyph glyph-name="Rcaron" unicode="&#x158;" 
d="M135 830h112l54 -62h4l53 62h112l-96 -121h-143zM70 659h231q114 0 183 -48t69 -157q0 -70 -31 -118t-85 -72l147 -264h-165l-125 238h-77v-238h-147v659zM289 355q59 0 89 25t30 74q0 47 -29.5 67.5t-89.5 20.5h-72v-187h72z" />
    <glyph glyph-name="rcaron" unicode="&#x159;" 
d="M116 510h120l12 -112h3q36 62 88 93.5t113 31.5q31 0 51 -5t45 -16l-30 -123q-29 8 -46 11.5t-42 3.5q-49 0 -93 -30.5t-74 -95.5v-268h-147v510zM138 741h107l53 -96h4l53 96h107l-100 -167h-124z" />
    <glyph glyph-name="Sacute" unicode="&#x15a;" 
d="M313 830h156l-119 -121h-117zM166.5 12.5q-64.5 24.5 -116.5 70.5l85 101q38 -32 81.5 -50.5t85.5 -18.5q50 0 74 17t24 48q0 20 -11.5 33t-30 21.5t-59.5 24.5l-84 37q-61 23 -100 67.5t-39 111.5q0 54 30.5 99t85 71t123.5 26q60 0 116.5 -22.5t100.5 -64.5l-75 -93
q-36 27 -69 40t-73 13q-43 0 -66.5 -16t-23.5 -45q0 -19 13 -32t32 -21.5t62 -24.5l79 -35q68 -25 104 -68t36 -110q0 -55 -30 -102t-87.5 -74.5t-135.5 -27.5q-67 0 -131.5 24.5z" />
    <glyph glyph-name="sacute" unicode="&#x15b;" 
d="M167.5 10q-64.5 22 -114.5 56l66 92q46 -30 89.5 -45.5t90.5 -15.5q95 0 95 45q0 22 -31.5 37.5t-101.5 35.5q-177 51 -177 149q0 47 28 83t79.5 56t121.5 20q107 0 214 -70l-66 -88q-77 48 -145 48q-45 0 -65.5 -10.5t-20.5 -31.5q0 -22 30.5 -35.5t96.5 -31.5
q86 -24 134.5 -58.5t48.5 -94.5q0 -47 -28.5 -84t-83.5 -58t-132 -21q-64 0 -128.5 22zM282 741h150l-132 -167h-107z" />
    <glyph glyph-name="Scircumflex" unicode="&#x15c;" 
d="M236 830h143l96 -121h-112l-54 62h-4l-53 -62h-112zM166.5 12.5q-64.5 24.5 -116.5 70.5l85 101q38 -32 81.5 -50.5t85.5 -18.5q50 0 74 17t24 48q0 20 -11.5 33t-30 21.5t-59.5 24.5l-84 37q-61 23 -100 67.5t-39 111.5q0 54 30.5 99t85 71t123.5 26q60 0 116.5 -22.5
t100.5 -64.5l-75 -93q-36 27 -69 40t-73 13q-43 0 -66.5 -16t-23.5 -45q0 -19 13 -32t32 -21.5t62 -24.5l79 -35q68 -25 104 -68t36 -110q0 -55 -30 -102t-87.5 -74.5t-135.5 -27.5q-67 0 -131.5 24.5z" />
    <glyph glyph-name="scircumflex" unicode="&#x15d;" 
d="M167.5 10q-64.5 22 -114.5 56l66 92q46 -30 89.5 -45.5t90.5 -15.5q95 0 95 45q0 22 -31.5 37.5t-101.5 35.5q-177 51 -177 149q0 47 28 83t79.5 56t121.5 20q107 0 214 -70l-66 -88q-77 48 -145 48q-45 0 -65.5 -10.5t-20.5 -31.5q0 -22 30.5 -35.5t96.5 -31.5
q86 -24 134.5 -58.5t48.5 -94.5q0 -47 -28.5 -84t-83.5 -58t-132 -21q-64 0 -128.5 22zM251 741h124l100 -167h-107l-53 95h-4l-53 -95h-107z" />
    <glyph glyph-name="Scedilla" unicode="&#x15e;" 
d="M199 -164q83 9 83 44q0 14 -13 24.5t-45 18.5l33 67q-57 7 -110.5 30.5t-96.5 62.5l85 101q38 -32 81.5 -50.5t85.5 -18.5q50 0 74 17t24 48q0 20 -11.5 33t-30.5 22.5t-59 24.5l-84 37q-61 23 -100 67.5t-39 111.5q0 55 30.5 99.5t85 70.5t123.5 26q60 0 116.5 -22.5
t100.5 -64.5l-75 -93q-36 27 -69 40t-73 13q-43 0 -66.5 -16t-23.5 -45q0 -19 13 -32t32 -21.5t62 -24.5l79 -35q68 -25 104 -68.5t36 -110.5q0 -50 -24.5 -93t-71.5 -72t-112 -36l-14 -35q58 -19 58 -75q0 -49 -49.5 -74.5t-127.5 -29.5z" />
    <glyph glyph-name="scedilla" unicode="&#x15f;" 
d="M490.5 45.5q-49.5 -43.5 -140.5 -54.5l-14 -34q58 -19 58 -74q0 -49 -50 -74.5t-127 -29.5l-11 59q82 9 82 44q0 14 -13 24t-45 18l33 66q-56 5 -111.5 25.5t-98.5 50.5l66 92q46 -30 89.5 -45.5t90.5 -15.5q95 0 95 45q0 22 -31.5 37.5t-101.5 35.5q-177 51 -177 149
q0 47 28 83t79.5 56t121.5 20q107 0 214 -70l-66 -88q-77 48 -145 48q-45 0 -65.5 -10.5t-20.5 -31.5q0 -22 30.5 -35.5t96.5 -31.5q86 -24 134.5 -58.5t48.5 -94.5q0 -62 -49.5 -105.5z" />
    <glyph glyph-name="Scaron" unicode="&#x160;" 
d="M140 830h112l53 -62h4l54 62h112l-96 -121h-143zM166.5 12.5q-64.5 24.5 -116.5 70.5l85 101q38 -32 81.5 -50.5t85.5 -18.5q50 0 74 17t24 48q0 20 -11.5 33t-30 21.5t-59.5 24.5l-84 37q-61 23 -100 67.5t-39 111.5q0 54 30.5 99t85 71t123.5 26q60 0 116.5 -22.5
t100.5 -64.5l-75 -93q-36 27 -69 40t-73 13q-43 0 -66.5 -16t-23.5 -45q0 -19 13 -32t32 -21.5t62 -24.5l79 -35q68 -25 104 -68t36 -110q0 -55 -30 -102t-87.5 -74.5t-135.5 -27.5q-67 0 -131.5 24.5z" />
    <glyph glyph-name="scaron" unicode="&#x161;" 
d="M167.5 10q-64.5 22 -114.5 56l66 92q46 -30 89.5 -45.5t90.5 -15.5q95 0 95 45q0 22 -31.5 37.5t-101.5 35.5q-177 51 -177 149q0 47 28 83t79.5 56t121.5 20q107 0 214 -70l-66 -88q-77 48 -145 48q-45 0 -65.5 -10.5t-20.5 -31.5q0 -22 30.5 -35.5t96.5 -31.5
q86 -24 134.5 -58.5t48.5 -94.5q0 -47 -28.5 -84t-83.5 -58t-132 -21q-64 0 -128.5 22zM151 741h107l53 -96h4l53 96h107l-100 -167h-124z" />
    <glyph glyph-name="uni0162" unicode="&#x162;" 
d="M196 -164q82 9 82 44q0 14 -13 24.5t-45 18.5l38 77h-32v536h-195v124h538v-124h-195v-536h-30l-18 -44q58 -19 58 -75q0 -48 -49.5 -74t-127.5 -31z" />
    <glyph glyph-name="uni0163" unicode="&#x163;" 
d="M394 -117q0 -49 -50 -74.5t-127 -29.5l-11 59q82 9 82 44q0 14 -13 24t-45 18l40 80h18q-114 43 -114 207v184h-125v115h132v150l140 60v-210h210v-115h-210v-183q0 -58 25 -83.5t79 -25.5q49 0 99 19l26 -106q-88 -28 -162 -28q-14 0 -38 2l-14 -33q58 -19 58 -74z" />
    <glyph glyph-name="Tcaron" unicode="&#x164;" 
d="M132 830h113l53 -62h4l53 62h113l-96 -121h-144zM226 535h-195v124h538v-124h-195v-535h-148v535z" />
    <glyph glyph-name="tcaron" unicode="&#x165;" 
d="M385 792h94l-2 -70l-24 -158h-63zM174 211v184h-125v115h132v150l140 60v-210h210v-115h-210v-183q0 -58 25 -83.5t79 -25.5q49 0 99 19l26 -106q-88 -28 -162 -28q-214 0 -214 223z" />
    <glyph glyph-name="Utilde" unicode="&#x168;" 
d="M166.5 812.5q29.5 35.5 70.5 35.5q21 0 37.5 -7t38.5 -21q4 -2 18.5 -10t25.5 -8q29 0 38 46h75q-7 -66 -36.5 -101.5t-70.5 -35.5q-21 0 -37.5 7t-38.5 21q-4 2 -18.5 10t-25.5 8q-28 0 -38 -46h-75q7 66 36.5 101.5zM124 56q-60 68 -60 198v405h147v-420
q0 -124 91 -124q92 0 92 124v420h142v-405q0 -130 -58.5 -198t-175.5 -68q-118 0 -178 68z" />
    <glyph glyph-name="utilde" unicode="&#x169;" 
d="M62 195v315h147v-296q0 -54 16 -77.5t56 -23.5q29 0 50.5 13.5t46.5 47.5v336h147v-510h-120l-11 74h-4q-35 -42 -75.5 -64t-91.5 -22q-161 0 -161 207zM168.5 682q30.5 36 77.5 36q19 0 34 -8t34 -23q2 -2 11 -8.5t15.5 -9.5t12.5 -3q16 0 26 11.5t17 40.5h75
q-9 -71 -39.5 -107t-77.5 -36q-19 0 -34 8t-35 24q-14 11 -22 16t-16 5q-16 0 -26 -12t-17 -41h-75q9 71 39.5 107z" />
    <glyph glyph-name="Umacron" unicode="&#x16a;" 
d="M159 821h282v-93h-282v93zM124 56q-60 68 -60 198v405h147v-420q0 -124 91 -124q46 0 69 31.5t23 92.5v420h142v-405q0 -130 -58.5 -198t-175.5 -68q-118 0 -178 68z" />
    <glyph glyph-name="umacron" unicode="&#x16b;" 
d="M62 195v315h147v-296q0 -54 16 -77.5t56 -23.5q29 0 50.5 13.5t46.5 47.5v336h147v-510h-120l-11 74h-4q-35 -42 -75.5 -64t-91.5 -22q-161 0 -161 207zM162 685h276v-93h-276v93z" />
    <glyph glyph-name="Ubreve" unicode="&#x16c;" 
d="M203 741.5q-34 32.5 -40 88.5h81q11 -47 56 -47t56 47h81q-6 -56 -40 -88.5t-97 -32.5t-97 32.5zM124 56q-60 68 -60 197v406h147v-420q0 -124 91 -124q92 0 92 124v420h142v-406q0 -130 -58.5 -197.5t-175.5 -67.5q-118 0 -178 68z" />
    <glyph glyph-name="ubreve" unicode="&#x16d;" 
d="M62 195v315h147v-296q0 -54 16 -77.5t56 -23.5q29 0 50.5 13.5t46.5 47.5v336h147v-510h-120l-11 74h-4q-35 -42 -75.5 -64t-91.5 -22q-161 0 -161 207zM192.5 619q-37.5 45 -39.5 111h82q4 -34 20 -54.5t45 -20.5t45 20.5t20 54.5h82q-2 -66 -39.5 -111t-107.5 -45
t-107.5 45z" />
    <glyph glyph-name="Uring" unicode="&#x16e;" 
d="M218 731q-31 27 -31 72q0 44 31.5 71.5t81.5 27.5t81.5 -27.5t31.5 -71.5q0 -45 -31 -72t-82 -27t-82 27zM328.5 771q11.5 12 11.5 32q0 19 -11.5 31.5t-28.5 12.5t-29 -12.5t-12 -31.5q0 -20 11.5 -32t29.5 -12q17 0 28.5 12zM124 56q-60 68 -60 197v406h147v-420
q0 -124 91 -124q92 0 92 124v420h142v-406q0 -130 -58.5 -197.5t-175.5 -67.5q-118 0 -178 68z" />
    <glyph glyph-name="uring" unicode="&#x16f;" 
d="M62 195v315h147v-296q0 -54 16 -77.5t56 -23.5q29 0 50.5 13.5t46.5 47.5v336h147v-510h-120l-11 74h-4q-35 -42 -75.5 -64t-91.5 -22q-161 0 -161 207zM218 576q-31 28 -31 74t31 74t82 28t82 -28t31 -74t-31 -74t-82 -28t-82 28zM329.5 616q11.5 13 11.5 34t-11.5 34
t-29.5 13t-29.5 -13t-11.5 -34t11.5 -34t29.5 -13t29.5 13z" />
    <glyph glyph-name="Uhungarumlaut" unicode="&#x170;" 
d="M226 830h125l-89 -121h-99zM406 830h125l-90 -121h-99zM124 56q-60 68 -60 197v406h147v-420q0 -124 91 -124q92 0 92 124v420h142v-406q0 -130 -58.5 -197.5t-175.5 -67.5q-118 0 -178 68z" />
    <glyph glyph-name="uhungarumlaut" unicode="&#x171;" 
d="M62 195v315h147v-296q0 -54 16 -77.5t56 -23.5q29 0 50.5 13.5t46.5 47.5v336h147v-510h-120l-11 74h-4q-35 -42 -75.5 -64t-91.5 -22q-161 0 -161 207zM190 724h117l-95 -151h-90zM361 724h117l-95 -151h-91z" />
    <glyph glyph-name="Uogonek" unicode="&#x172;" 
d="M242.5 -199.5q-32.5 25.5 -32.5 69.5q0 36 16.5 62.5t30.5 40.5l17 17q-104 7 -157 75t-53 189v406h147v-421q0 -124 90 -124q46 0 69.5 32t23.5 92v421h142v-406q0 -186 -124 -245q-94 -45 -94 -101q0 -18 12.5 -28t29.5 -10t35 14l34 -74q-19 -15 -48.5 -25t-55.5 -10
q-50 0 -82.5 25.5z" />
    <glyph glyph-name="uogonek" unicode="&#x173;" 
d="M540 -177q-19 -15 -48 -24t-53 -9q-46 0 -76 24t-30 67q0 39 22 71t48 50h2l-11 72h-4q-35 -42 -75.5 -64t-91.5 -22q-161 0 -161 207v315h147v-296q0 -54 16 -77.5t56 -23.5q29 0 50.5 13.5t46.5 47.5v336h147v-510h-42q-51 -41 -51 -85q0 -19 12.5 -28.5t29.5 -9.5
t35 12z" />
    <glyph glyph-name="Wcircumflex" unicode="&#x174;" 
d="M228 830h144l96 -121h-113l-53 62h-4l-53 -62h-113zM4 659h150l21 -352l4 -168h3q6 32 20 96l15 72l45 184h89l43 -184l15 -76q13 -58 19 -92h4l2 67q0 52 3 101l19 352h140l-81 -659h-154l-41 209q-14 71 -18 126h-3q-7 -69 -18 -126l-39 -209h-151z" />
    <glyph glyph-name="wcircumflex" unicode="&#x175;" 
d="M4 510h144l30 -240q3 -16 5 -39.5t4 -36.5q2 -25 8 -75h3q9 76 23 151l31 175h103l33 -175q14 -77 24 -151h4q6 50 8 75q4 50 8 76l30 240h134l-77 -510h-170l-28 176q-10 66 -19 150h-4q-10 -94 -18 -150l-27 -176h-167zM238 741h124l100 -167h-107l-53 95h-4l-53 -95
h-107z" />
    <glyph glyph-name="Ycircumflex" unicode="&#x176;" 
d="M228 830h144l96 -121h-113l-53 62h-4l-53 -62h-113zM226 223l-210 436h158l66 -160l59 -150h4l15 38l46 112l66 160h154l-210 -436v-223h-148v223z" />
    <glyph glyph-name="ycircumflex" unicode="&#x177;" 
d="M67 -207l26 112q19 -6 39 -6q38 0 63 23t35 49l16 41l-215 498h146l83 -223q20 -52 50 -153h4q17 66 45 153l73 223h139l-197 -534q-37 -100 -89 -146.5t-142 -46.5q-41 0 -76 10zM248 741h124l100 -167h-107l-53 95h-4l-53 -95h-107z" />
    <glyph glyph-name="Ydieresis" unicode="&#x178;" 
d="M150.5 728q-19.5 20 -19.5 50t19.5 50t50.5 20t50.5 -20t19.5 -50t-19.5 -50t-50.5 -20t-50.5 20zM348.5 728q-19.5 20 -19.5 50t19.5 50t50.5 20t50.5 -20t19.5 -50t-19.5 -50t-50.5 -20t-50.5 20zM226 223l-210 436h158l66 -160l59 -150h4l15 38l46 112l66 160h154
l-210 -436v-223h-148v223z" />
    <glyph glyph-name="Zacute" unicode="&#x179;" 
d="M320 830h156l-119 -121h-117zM56 89l306 447h-277v123h458v-89l-305 -446h309v-124h-491v89z" />
    <glyph glyph-name="zacute" unicode="&#x17a;" 
d="M330 762h150l-132 -171h-107zM70 79l260 316h-228v115h431v-78l-260 -317h268v-115h-471v79z" />
    <glyph glyph-name="Zdotaccent" unicode="&#x17b;" 
d="M253 730.5q-24 21.5 -24 55.5t24 55.5t61 21.5t61 -21.5t24 -55.5t-24 -55.5t-61 -21.5t-61 21.5zM56 89l306 447h-277v123h458v-89l-305 -446h309v-124h-491v89z" />
    <glyph glyph-name="zdotaccent" unicode="&#x17c;" 
d="M70 79l260 316h-228v115h431v-78l-260 -317h268v-115h-471v79zM228 613q-28 27 -28 71q0 45 28 73.5t72 28.5t72 -28.5t28 -73.5q0 -44 -28 -71t-72 -27t-72 27z" />
    <glyph glyph-name="Zcaron" unicode="&#x17d;" 
d="M147 830h112l53 -62h4l54 62h112l-96 -121h-143zM56 89l306 447h-277v123h458v-89l-305 -446h309v-124h-491v89z" />
    <glyph glyph-name="zcaron" unicode="&#x17e;" 
d="M70 79l260 316h-228v115h431v-78l-260 -317h268v-115h-471v79zM138 741h107l53 -96h4l53 96h107l-100 -167h-124z" />
    <glyph glyph-name="uni0180" unicode="&#x180;" 
d="M268 5.5q-35 17.5 -65 50.5h-4l-12 -56h-115v574h-66v65l66 5v79h147v-78h182v-71h-182v-51l-4 -81q29 28 65.5 44t72.5 16q92 0 146 -67.5t54 -180.5q0 -82 -30 -142.5t-79 -92t-106 -31.5q-35 0 -70 17.5zM375 144q27 36 27 107q0 131 -91 131q-47 0 -92 -49v-190
q38 -35 86 -35q43 0 70 36z" />
    <glyph glyph-name="florin" unicode="&#x192;" 
d="M84.5 -91.5q-25.5 4.5 -38.5 11.5l20 108q25 -7 54 -9q28 1 43.5 13t25.5 41.5t18 87.5l17 146h-87v101l75 6h24l5 43q11 75 35 120t66.5 66t111.5 21q21 0 50.5 -6t45.5 -13l-28 -110q-30 12 -56 12q-69 0 -83 -78l-7 -55h115v-107h-127l-23 -189q-13 -102 -56.5 -158
t-142.5 -56q-32 0 -57.5 4.5z" />
    <glyph glyph-name="uni01CD" unicode="&#x1cd;" 
d="M132 830h113l53 -62h4l53 62h113l-96 -121h-144zM212 659h176l203 -659h-156l-39 158h-197l-40 -158h-150zM366 273l-15 61l-52 212h-4q-8 -34 -39 -164l-12 -48l-15 -61h137z" />
    <glyph glyph-name="uni01CE" unicode="&#x1ce;" 
d="M105.5 31.5q-44.5 43.5 -44.5 109.5q0 87 76.5 131.5t250.5 55.5q-4 37 -30.5 57t-75.5 20q-35 0 -69 -13t-62 -35l-52 96q37 31 93.5 50.5t118.5 19.5q106 0 165 -58t59 -171v-294h-120l-11 58h-4q-90 -70 -176 -70q-74 0 -118.5 43.5zM388 152v88q-103 -6 -144.5 -28.5
t-41.5 -59.5q0 -25 18.5 -37.5t50.5 -12.5q57 0 117 50zM149 741h107l53 -96h4l53 96h107l-100 -167h-124z" />
    <glyph glyph-name="uni01CF" unicode="&#x1cf;" 
d="M132 830h113l53 -62h4l53 62h113l-96 -121h-144zM74 124h152v411h-152v124h452v-124h-152v-411h152v-124h-452v124z" />
    <glyph glyph-name="uni01D0" unicode="&#x1d0;" 
d="M61 119h170v276h-170v115h317v-391h170v-119h-487v119zM136 725h107l53 -96h4l53 96h107l-100 -167h-124z" />
    <glyph glyph-name="uni01D1" unicode="&#x1d1;" 
d="M132 830h113l53 -62h4l53 62h113l-96 -121h-144zM163.5 29.5q-59.5 41.5 -92.5 119t-33 183.5t33 182.5t92 116.5t137 40t137 -40.5t92 -117t33 -181.5q0 -106 -33 -183.5t-92.5 -119t-136.5 -41.5t-136.5 41.5zM381 173.5q30 58.5 30 158.5q0 99 -30 155.5t-81 56.5
t-81 -56.5t-30 -155.5q0 -100 30 -158.5t81 -58.5t81 58.5z" />
    <glyph glyph-name="uni01D2" unicode="&#x1d2;" 
d="M175 20q-58 32 -93 92.5t-35 142.5t35 143t93 93t125 32t125 -32t93 -93t35 -143t-35 -142.5t-93 -92.5t-125 -32t-125 32zM376 146.5q26 39.5 26 108.5t-26 109t-76 40t-76 -40t-26 -109t26 -108.5t76 -39.5t76 39.5zM138 741h107l53 -96h4l53 96h107l-100 -167h-124z
" />
    <glyph glyph-name="uni01D3" unicode="&#x1d3;" 
d="M132 830h113l53 -62h4l53 62h113l-96 -121h-144zM124 56q-60 68 -60 197v406h147v-420q0 -124 91 -124q92 0 92 124v420h142v-406q0 -130 -58.5 -197.5t-175.5 -67.5q-118 0 -178 68z" />
    <glyph glyph-name="uni01D4" unicode="&#x1d4;" 
d="M62 195v315h147v-296q0 -54 16 -77.5t56 -23.5q29 0 50.5 13.5t46.5 47.5v336h147v-510h-120l-11 74h-4q-35 -42 -75.5 -64t-91.5 -22q-161 0 -161 207zM138 741h107l53 -96h4l53 96h107l-100 -167h-124z" />
    <glyph glyph-name="Gcaron" unicode="&#x1e6;" 
d="M163 830h112l53 -62h4l54 62h112l-96 -121h-143zM190 27q-68 39 -107 115t-39 183t39.5 185.5t108 119.5t153.5 41q107 0 191 -84l-81 -91q-24 24 -49 36t-61 12q-43 0 -76.5 -26t-53 -74.5t-19.5 -113.5q0 -103 39.5 -159t115.5 -56q19 0 36.5 5.5t27.5 15.5v114h-95
v120h227v-302q-36 -34 -90.5 -57t-113.5 -23q-85 0 -153 39z" />
    <glyph glyph-name="gcaron" unicode="&#x1e7;" 
d="M170 -202q-52 15 -92 48l49 100q32 -26 70 -37t73 -11t61 13t40 33t15 41l3 83q-24 -25 -60.5 -40t-72.5 -15q-62 0 -109.5 32t-73.5 89t-26 130q0 76 29.5 135t79 91.5t106.5 32.5q78 0 135 -66h4l12 53h115v-510q0 -104 -66 -160.5t-192 -56.5q-48 0 -100 15zM381 182
v185q-37 36 -85 36q-26 0 -49 -16.5t-37 -47.5t-14 -73q0 -63 27 -99t71 -36q50 0 87 51zM138 741h107l53 -96h4l53 96h107l-100 -167h-124z" />
    <glyph glyph-name="uni01EA" unicode="&#x1ea;" 
d="M243.5 -199.5q-32.5 25.5 -32.5 69.5q0 63 63 120q-78 8 -131 55.5t-79 122.5t-26 165q0 106 33 182.5t92 116.5t137 40t137 -40t92 -116.5t33 -182.5q0 -130 -46 -211.5t-128 -118.5q-36 -16 -53 -42t-17 -53q0 -18 12.5 -28t30.5 -10q15 0 35 14l34 -74
q-19 -15 -48.5 -25t-55.5 -10q-50 0 -82.5 25.5zM381 174q30 59 30 159q0 99 -30 155.5t-81 56.5t-81 -56.5t-30 -155.5q0 -100 30 -159t81 -59t81 59z" />
    <glyph glyph-name="uni01EB" unicode="&#x1eb;" 
d="M313 -85q0 -19 12.5 -28.5t29.5 -9.5t35 12l31 -66q-19 -15 -48 -24t-53 -9q-46 0 -76 24t-30 67q0 33 16 61t39 48q-61 7 -111.5 41t-80.5 91.5t-30 132.5q0 82 35 143t93 93t125 32t125 -32t93 -93t35 -143q0 -104 -55 -172.5t-140 -88.5q-45 -38 -45 -79zM224 146.5
q26 -39.5 76 -39.5t76 39.5t26 108.5t-26 109t-76 40t-76 -40t-26 -109t26 -108.5z" />
    <glyph glyph-name="uni0237" unicode="&#x237;" 
d="M42 -182l43 105q53 -25 101 -25t70 34t22 76v387h-199v115h346v-496q0 -231 -230 -231q-81 0 -153 35z" />
    <glyph glyph-name="uni0243" unicode="&#x243;" 
d="M84 177h-75v65l75 6v412h206q237 0 237 -159q0 -45 -27.5 -81t-81.5 -50v-4q142 -27 142 -164q0 -100 -69.5 -151t-181.5 -51h-225v177zM284 401q103 0 103 83q0 37 -25 53.5t-77 16.5h-54v-153h53zM297 105q59 0 90.5 28t31.5 80q0 53 -30 77t-92 24h-66v-66h106v-71
h-106v-72h66z" />
    <glyph glyph-name="circumflex" unicode="&#x2c6;" 
d="M238 741h124l100 -167h-107l-53 95h-4l-53 -95h-107z" />
    <glyph glyph-name="caron" unicode="&#x2c7;" 
d="M138 741h107l53 -96h4l53 96h107l-100 -167h-124z" />
    <glyph glyph-name="breve" unicode="&#x2d8;" 
d="M192.5 619q-37.5 45 -39.5 111h82q4 -34 20 -54.5t45 -20.5t45 20.5t20 54.5h82q-2 -66 -39.5 -111t-107.5 -45t-107.5 45z" />
    <glyph glyph-name="dotaccent" unicode="&#x2d9;" 
d="M226 612q-29 27 -29 72t29 73.5t74 28.5t74 -28.5t29 -73.5t-29 -72t-74 -27t-74 27z" />
    <glyph glyph-name="ring" unicode="&#x2da;" 
d="M218 576q-31 28 -31 74t31 74t82 28t82 -28t31 -74t-31 -74t-82 -28t-82 28zM329.5 616q11.5 13 11.5 34t-11.5 34t-29.5 13t-29.5 -13t-11.5 -34t11.5 -34t29.5 -13t29.5 13z" />
    <glyph glyph-name="ogonek" unicode="&#x2db;" 
d="M244 -186q-30 24 -30 67q0 39 22 71t48 50h83q-54 -42 -54 -87q0 -19 12.5 -28.5t29.5 -9.5t35 12l31 -66q-19 -15 -48 -24t-53 -9q-46 0 -76 24z" />
    <glyph glyph-name="tilde" unicode="&#x2dc;" 
d="M168.5 682q30.5 36 77.5 36q19 0 34 -8t34 -23q2 -2 11 -8.5t15.5 -9.5t12.5 -3q16 0 26 11.5t17 40.5h75q-9 -71 -39.5 -107t-77.5 -36q-19 0 -34 8t-35 24q-14 11 -22 16t-16 5q-16 0 -26 -12t-17 -41h-75q9 71 39.5 107z" />
    <glyph glyph-name="hungarumlaut" unicode="&#x2dd;" 
d="M243 724h117l-95 -151h-90zM414 724h117l-95 -151h-91z" />
    <glyph glyph-name="gravecomb" unicode="&#x300;" horiz-adv-x="0" 
d="M-457 741h150l89 -167h-107z" />
    <glyph glyph-name="acutecomb" unicode="&#x301;" horiz-adv-x="0" 
d="M-293 741h150l-132 -167h-107z" />
    <glyph glyph-name="uni0302" unicode="&#x302;" horiz-adv-x="0" 
d="M-362 741h124l100 -167h-107l-53 95h-4l-53 -95h-107z" />
    <glyph glyph-name="tildecomb" unicode="&#x303;" horiz-adv-x="0" 
d="M-431.5 682q30.5 36 77.5 36q19 0 34 -8t34 -23q2 -2 11 -8.5t15.5 -9.5t12.5 -3q16 0 26 11.5t17 40.5h75q-9 -71 -39.5 -107t-77.5 -36q-19 0 -34 8t-35 24q-14 11 -22 16t-16 5q-16 0 -26 -12t-17 -41h-75q9 71 39.5 107z" />
    <glyph glyph-name="uni0304" unicode="&#x304;" horiz-adv-x="0" 
d="M-438 685h276v-93h-276v93z" />
    <glyph glyph-name="uni0306" unicode="&#x306;" horiz-adv-x="0" 
d="M-407.5 619q-37.5 45 -39.5 111h82q4 -34 20 -54.5t45 -20.5t45 20.5t20 54.5h82q-2 -66 -39.5 -111t-107.5 -45t-107.5 45z" />
    <glyph glyph-name="uni0307" unicode="&#x307;" horiz-adv-x="0" 
d="M-372 613q-28 27 -28 71q0 45 28 73.5t72 28.5t72 -28.5t28 -73.5q0 -44 -28 -71t-72 -27t-72 27z" />
    <glyph glyph-name="uni0308" unicode="&#x308;" horiz-adv-x="0" 
d="M-465.5 593.5q-22.5 22.5 -22.5 56.5q0 33 22.5 55.5t56.5 22.5t56 -22.5t22 -55.5q0 -34 -22 -56.5t-56 -22.5t-56.5 22.5zM-247 593.5q-22 22.5 -22 56.5q0 33 22 55.5t56 22.5t56.5 -22.5t22.5 -55.5q0 -34 -22.5 -56.5t-56.5 -22.5t-56 22.5z" />
    <glyph glyph-name="uni030A" unicode="&#x30a;" horiz-adv-x="0" 
d="M-382 576q-31 28 -31 74t31 74t82 28t82 -28t31 -74t-31 -74t-82 -28t-82 28zM-270.5 616q11.5 13 11.5 34t-11.5 34t-29.5 13t-29.5 -13t-11.5 -34t11.5 -34t29.5 -13t29.5 13z" />
    <glyph glyph-name="uni030B" unicode="&#x30b;" horiz-adv-x="0" 
d="M-357 724h117l-95 -151h-90zM-186 724h117l-95 -151h-91z" />
    <glyph glyph-name="uni030C" unicode="&#x30c;" horiz-adv-x="0" 
d="M-462 741h107l53 -96h4l53 96h107l-100 -167h-124z" />
    <glyph glyph-name="uni0327" unicode="&#x327;" horiz-adv-x="0" 
d="M-401 -162q82 9 82 44q0 14 -13 24t-45 18l40 80h86l-20 -47q58 -19 58 -74q0 -49 -50 -74.5t-127 -29.5z" />
    <glyph glyph-name="uni0328" unicode="&#x328;" horiz-adv-x="0" 
d="M-356 -186q-30 24 -30 67q0 39 22 71t48 50h83q-54 -42 -54 -87q0 -19 12.5 -28.5t29.5 -9.5t35 12l31 -66q-19 -15 -48 -24t-53 -9q-46 0 -76 24z" />
    <glyph glyph-name="pi" unicode="&#x3c0;" 
d="M395.5 32q-34.5 44 -34.5 127l2 84l3 151h-119q0 -175 -15 -403l-147 9q25 194 25 394h-96v110l74 6h498v-116h-80q-6 -91 -6 -241q0 -25 10.5 -35.5t33.5 -10.5q3 0 23 4l18 -108q-32 -15 -76 -15q-79 0 -113.5 44z" />
    <glyph glyph-name="uni1E20" unicode="&#x1e20;" 
d="M189 821h283v-93h-283v93zM190 27q-68 39 -107 115t-39 184q0 107 39.5 185.5t108 119.5t153.5 41q107 0 191 -84l-81 -91q-24 24 -49 36t-61 12q-43 0 -76.5 -26t-53 -74.5t-19.5 -113.5q0 -104 39.5 -160t115.5 -56q19 0 36.5 5.5t27.5 15.5v114h-95v120h227v-302
q-36 -34 -90.5 -57t-113.5 -23q-85 0 -153 39z" />
    <glyph glyph-name="uni1E21" unicode="&#x1e21;" 
d="M170 -202q-52 15 -92 48l49 100q32 -26 70 -37t73 -11t61 13t40 33t15 41l3 83q-24 -25 -60.5 -40t-72.5 -15q-62 0 -109.5 32t-73.5 89t-26 130q0 76 29.5 135t79 91.5t106.5 32.5q78 0 135 -66h4l12 53h115v-510q0 -104 -66 -160.5t-192 -56.5q-48 0 -100 15zM381 182
v185q-37 36 -85 36q-26 0 -49 -16.5t-37 -47.5t-14 -73q0 -63 27 -99t71 -36q50 0 87 51zM162 685h276v-93h-276v93z" />
    <glyph glyph-name="uni1E44" unicode="&#x1e44;" 
d="M245 730.5q-24 21.5 -24 55.5t24 55.5t61 21.5t61 -21.5t24 -55.5t-24 -55.5t-61 -21.5t-61 21.5zM66 659h150l138 -331l56 -144h4q-4 42 -7 60q-1 14 -7.5 72.5t-6.5 106.5v236h141v-659h-150l-138 331l-56 143h-4l7 -67q14 -112 14 -171v-236h-141v659z" />
    <glyph glyph-name="uni1E45" unicode="&#x1e45;" 
d="M72 510h120l11 -69h4q37 38 78.5 60t92.5 22q82 0 122 -54t40 -154v-315h-147v296q0 54 -16.5 78t-56.5 24q-28 0 -50 -13.5t-51 -43.5v-341h-147v510zM238 613q-28 27 -28 71q0 45 28 73.5t72 28.5t72 -28.5t28 -73.5q0 -44 -28 -71t-72 -27t-72 27z" />
    <glyph glyph-name="uni1E60" unicode="&#x1e60;" 
d="M246 730.5q-24 21.5 -24 55.5t24 55.5t61 21.5t61 -21.5t24 -55.5t-24 -55.5t-61 -21.5t-61 21.5zM166.5 12.5q-64.5 24.5 -116.5 70.5l85 101q38 -32 81.5 -50.5t85.5 -18.5q50 0 74 17t24 48q0 20 -11.5 33t-30 21.5t-59.5 24.5l-84 37q-61 23 -100 68t-39 112
q0 54 30.5 98.5t85 70.5t123.5 26q60 0 116.5 -22.5t100.5 -64.5l-75 -93q-36 27 -69 40t-73 13q-43 0 -66.5 -15.5t-23.5 -44.5q0 -28 24 -42.5t83 -36.5l79 -35q68 -25 104 -68t36 -110q0 -55 -30 -102t-87.5 -74.5t-135.5 -27.5q-67 0 -131.5 24.5z" />
    <glyph glyph-name="uni1E61" unicode="&#x1e61;" 
d="M167.5 10q-64.5 22 -114.5 56l66 92q46 -30 89.5 -45.5t90.5 -15.5q95 0 95 45q0 22 -31.5 37.5t-101.5 35.5q-177 51 -177 149q0 47 28 83t79.5 56t121.5 20q107 0 214 -70l-66 -88q-77 48 -145 48q-45 0 -65.5 -10.5t-20.5 -31.5q0 -22 30.5 -35.5t96.5 -31.5
q86 -24 134.5 -58.5t48.5 -94.5q0 -47 -28.5 -84t-83.5 -58t-132 -21q-64 0 -128.5 22zM241 613q-28 27 -28 71q0 45 28 73.5t72 28.5t72 -28.5t28 -73.5q0 -44 -28 -71t-72 -27t-72 27z" />
    <glyph glyph-name="Wgrave" unicode="&#x1e80;" 
d="M138 830h156l81 -121h-117zM4 659h150l21 -352l4 -168h3q6 32 20 96l15 72l45 184h89l43 -184l15 -76q13 -58 19 -92h4l2 67q0 52 3 101l19 352h140l-81 -659h-154l-41 209q-14 71 -18 126h-3q-7 -69 -18 -126l-39 -209h-151z" />
    <glyph glyph-name="wgrave" unicode="&#x1e81;" 
d="M4 510h144l30 -240q3 -16 5 -39.5t4 -36.5q2 -25 8 -75h3q9 76 23 151l31 175h103l33 -175q14 -77 24 -151h4q6 50 8 75q4 50 8 76l30 240h134l-77 -510h-170l-28 176q-10 66 -19 150h-4q-10 -94 -18 -150l-27 -176h-167zM180 741h150l89 -167h-107z" />
    <glyph glyph-name="Wacute" unicode="&#x1e82;" 
d="M306 830h156l-120 -121h-117zM4 659h150l21 -352l4 -168h3q6 32 20 96l15 72l45 184h89l43 -184l15 -76q13 -58 19 -92h4l2 67q0 52 3 101l19 352h140l-81 -659h-154l-41 209q-14 71 -18 126h-3q-7 -69 -18 -126l-39 -209h-151z" />
    <glyph glyph-name="wacute" unicode="&#x1e83;" 
d="M4 510h144l30 -240q3 -16 5 -39.5t4 -36.5q2 -25 8 -75h3q9 76 23 151l31 175h103l33 -175q14 -77 24 -151h4q6 50 8 75q4 50 8 76l30 240h134l-77 -510h-170l-28 176q-10 66 -19 150h-4q-10 -94 -18 -150l-27 -176h-167zM269 741h150l-132 -167h-107z" />
    <glyph glyph-name="Wdieresis" unicode="&#x1e84;" 
d="M150.5 728q-19.5 20 -19.5 50t19.5 50t50.5 20t50.5 -20t19.5 -50t-19.5 -50t-50.5 -20t-50.5 20zM348.5 728q-19.5 20 -19.5 50t19.5 50t50.5 20t50.5 -20t19.5 -50t-19.5 -50t-50.5 -20t-50.5 20zM4 659h150l21 -352l4 -168h3q6 32 20 96l15 72l45 184h89l43 -184
l15 -76q13 -58 19 -92h4l2 67q0 52 3 101l19 352h140l-81 -659h-154l-41 209q-14 70 -18 126h-3q-7 -71 -18 -126l-39 -209h-151z" />
    <glyph glyph-name="wdieresis" unicode="&#x1e85;" 
d="M4 510h144l30 -240q3 -16 5 -39.5t4 -36.5q2 -25 8 -75h3q9 76 23 151l31 175h103l33 -175q14 -77 24 -151h4q6 50 8 75q4 50 8 76l30 240h134l-77 -510h-170l-28 176q-10 66 -19 150h-4q-10 -94 -18 -150l-27 -176h-167zM134.5 593.5q-22.5 22.5 -22.5 56.5
q0 33 22.5 55.5t56.5 22.5t56 -22.5t22 -55.5q0 -34 -22 -56.5t-56 -22.5t-56.5 22.5zM353 593.5q-22 22.5 -22 56.5q0 33 22 55.5t56 22.5t56.5 -22.5t22.5 -55.5q0 -34 -22.5 -56.5t-56.5 -22.5t-56 22.5z" />
    <glyph glyph-name="uni1E8E" unicode="&#x1e8e;" 
d="M239 730.5q-24 21.5 -24 55.5t24 55.5t61 21.5t61 -21.5t24 -55.5t-24 -55.5t-61 -21.5t-61 21.5zM226 223l-210 436h158l66 -160l59 -150h4l15 38l46 112l66 160h154l-210 -436v-223h-148v223z" />
    <glyph glyph-name="uni1E8F" unicode="&#x1e8f;" 
d="M67 -207l26 112q19 -6 39 -6q38 0 63 23t35 49l16 41l-215 498h146l83 -223q20 -52 50 -153h4q17 66 45 153l73 223h139l-197 -534q-37 -100 -89 -146.5t-142 -46.5q-41 0 -76 10zM238 613q-28 27 -28 71q0 45 28 73.5t72 28.5t72 -28.5t28 -73.5q0 -44 -28 -71t-72 -27
t-72 27z" />
    <glyph glyph-name="uni1E97" unicode="&#x1e97;" 
d="M550 16q-88 -28 -162 -28q-214 0 -214 223v184h-125v115h132v150l117 50q-8 18 -8 37q0 33 22 55.5t56 22.5t56.5 -22.5t22.5 -55.5q0 -34 -22.5 -56.5t-56.5 -22.5q-28 0 -47 15v-173h210v-115h-210v-183q0 -58 25 -83.5t79 -25.5q49 0 99 19zM93.5 690.5
q-22.5 22.5 -22.5 56.5q0 33 22.5 55.5t56.5 22.5t56 -22.5t22 -55.5q0 -34 -22 -56.5t-56 -22.5t-56.5 22.5z" />
    <glyph glyph-name="uni1E9E" unicode="&#x1e9e;" 
d="M303 6q-39 18 -62 47l76 89q31 -35 57 -35q16 0 26.5 20.5t10.5 53.5q0 32 -26 57.5t-76 40.5l-10 86l75 128q-9 26 -28 43t-46 17q-44 0 -64.5 -31t-20.5 -95v-427h-151v447q0 101 59 163t181 62q85 0 142.5 -50t73.5 -134l-72 -125q117 -61 117 -183q0 -85 -44 -138.5
t-127 -53.5q-52 0 -91 18z" />
    <glyph glyph-name="uni1EBC" unicode="&#x1ebc;" 
d="M188.5 812.5q29.5 35.5 70.5 35.5q20 0 37.5 -7.5t38.5 -20.5q29 -18 43 -18q30 0 39 46h75q-8 -67 -37.5 -102t-70.5 -35q-20 0 -37.5 7.5t-38.5 20.5q-29 18 -43 18q-29 0 -39 -46h-75q8 66 37.5 101.5zM94 659h430v-124h-283v-134h240v-123h-240v-154h293v-124h-440
v659z" />
    <glyph glyph-name="uni1EBD" unicode="&#x1ebd;" 
d="M189.5 20q-62.5 32 -98.5 92.5t-36 142.5q0 80 36 141t95.5 94t126.5 33q74 0 126.5 -31.5t79.5 -87t27 -126.5q0 -27 -6 -66h-334q7 -56 46.5 -84t97.5 -28q33 0 63.5 9t64.5 27l48 -89q-42 -27 -94.5 -43t-101.5 -16q-78 0 -140.5 32zM413 310q0 47 -24 73.5t-73 26.5
q-42 0 -72.5 -25.5t-39.5 -74.5h209zM181.5 682q30.5 36 77.5 36q19 0 34 -8t34 -23q2 -2 11 -8.5t15.5 -9.5t12.5 -3q16 0 26 11.5t17 40.5h75q-9 -71 -39.5 -107t-77.5 -36q-19 0 -34 8t-35 24q-14 11 -22 16t-16 5q-16 0 -26 -12t-17 -41h-75q9 71 39.5 107z" />
    <glyph glyph-name="Ygrave" unicode="&#x1ef2;" 
d="M138 830h156l81 -121h-117zM226 223l-210 436h158l66 -160l59 -150h4l15 38l46 112l66 160h154l-210 -436v-223h-148v223z" />
    <glyph glyph-name="ygrave" unicode="&#x1ef3;" 
d="M67 -207l26 112q19 -6 39 -6q38 0 63 23t35 49l16 41l-215 498h146l83 -223q20 -52 50 -153h4q17 66 45 153l73 223h139l-197 -534q-37 -100 -89 -146.5t-142 -46.5q-41 0 -76 10zM190 741h150l89 -167h-107z" />
    <glyph glyph-name="uni1EF8" unicode="&#x1ef8;" 
d="M166.5 812.5q29.5 35.5 70.5 35.5q21 0 37.5 -7t38.5 -21q4 -2 18.5 -10t25.5 -8q29 0 38 46h75q-7 -66 -36.5 -101.5t-70.5 -35.5q-21 0 -37.5 7t-38.5 21q-4 2 -18.5 10t-25.5 8q-28 0 -38 -46h-75q7 66 36.5 101.5zM226 223l-210 436h158l66 -160l59 -150h4l15 38
l46 112l66 160h154l-210 -436v-223h-148v223z" />
    <glyph glyph-name="uni1EF9" unicode="&#x1ef9;" 
d="M175.5 700.5q30.5 36.5 77.5 36.5q19 0 34.5 -8.5t33.5 -23.5q2 -2 11 -8.5t15.5 -9.5t12.5 -3q16 0 26 12t17 41h75q-9 -71 -39.5 -107.5t-77.5 -36.5q-19 0 -33.5 8t-35.5 25q-14 11 -22 16t-16 5q-16 0 -26 -12t-17 -42h-75q9 71 39.5 107.5zM67 -186l26 112
q20 -6 39 -6q40 0 64.5 18t39.5 52l10 22l-215 498h146l83 -223q20 -52 50 -153h4q17 66 45 153l73 223h139l-196 -513q-38 -100 -90 -146.5t-142 -46.5q-41 0 -76 10z" />
    <glyph glyph-name="uni2007" unicode="&#x2007;" 
 />
    <glyph glyph-name="endash" unicode="&#x2013;" 
d="M80 310h440v-111h-440v111z" />
    <glyph glyph-name="emdash" unicode="&#x2014;" 
d="M20 310h560v-111h-560v111z" />
    <glyph glyph-name="quoteleft" unicode="&#x2018;" 
d="M215 332q-31 42 -31 118q0 82 44 145t131 102l38 -78q-53 -24 -80.5 -58t-31.5 -82q11 3 21 3q40 0 65.5 -25t25.5 -66q0 -45 -27 -73t-69 -28q-55 0 -86 42z" />
    <glyph glyph-name="quoteright" unicode="&#x2019;" 
d="M202 368q105 47 112 139q-10 -3 -20 -3q-41 0 -66.5 25.5t-25.5 66.5q0 45 27 73t69 28q56 0 86.5 -42.5t30.5 -117.5q0 -82 -44 -144.5t-130 -102.5z" />
    <glyph glyph-name="quotesinglbase" unicode="&#x201a;" 
d="M202 -154q105 49 112 139q-14 -2 -20 -2q-41 0 -66.5 25.5t-25.5 66.5q0 45 27 73t69 28q56 0 86.5 -42.5t30.5 -117.5q0 -82 -44 -144.5t-130 -102.5z" />
    <glyph glyph-name="quotedblleft" unicode="&#x201c;" 
d="M82 332q-31 42 -31 118q0 82 44 145t131 102l38 -78q-53 -24 -80.5 -58t-31.5 -82q11 3 21 3q40 0 65.5 -25t25.5 -66q0 -45 -27 -73t-69 -28q-55 0 -86 42zM348 332q-31 42 -31 118q0 82 44 145t131 102l38 -78q-53 -24 -80.5 -58t-31.5 -82q11 3 21 3q40 0 65.5 -25
t25.5 -66q0 -45 -27 -73t-69 -28q-55 0 -86 42z" />
    <glyph glyph-name="quotedblright" unicode="&#x201d;" 
d="M69 368q105 47 112 138q-14 -2 -20 -2q-41 0 -66.5 25.5t-25.5 66.5q0 45 27 73t69 28q56 0 86.5 -42.5t30.5 -117.5q0 -82 -44 -144.5t-130 -102.5zM335 368q105 47 112 139q-12 -3 -21 -3q-40 0 -65.5 25.5t-25.5 66.5q0 45 27 73t69 28q56 0 86.5 -42.5t30.5 -117.5
q0 -82 -44 -144.5t-130 -102.5z" />
    <glyph glyph-name="quotedblbase" unicode="&#x201e;" 
d="M69 -154q105 49 111 139q-12 -2 -19 -2q-41 0 -66.5 25.5t-25.5 66.5q0 45 27 73t69 28q56 0 86.5 -42.5t30.5 -117.5q0 -82 -44 -144.5t-130 -102.5zM335 -154q105 49 112 140q-12 -3 -21 -3q-40 0 -65.5 25.5t-25.5 66.5q0 45 27 73t69 28q56 0 86.5 -42.5t30.5 -117.5
q0 -82 -44 -144.5t-130 -102.5z" />
    <glyph glyph-name="dagger" unicode="&#x2020;" 
d="M250 438l-161 -8v118l161 -9l-9 173h118l-9 -173l161 9v-118l-161 8l9 -518h-118z" />
    <glyph glyph-name="daggerdbl" unicode="&#x2021;" 
d="M250 93l-161 -9v118l161 -12l-9 126l9 126l-161 -12v118l161 -9l-9 173h118l-9 -173l161 9v-118l-161 12l9 -126l-9 -126l161 12v-118l-161 9l9 -173h-118z" />
    <glyph glyph-name="bullet" unicode="&#x2022;" 
d="M216.5 122q-37.5 21 -59 58t-21.5 82t21.5 82t59 58t83.5 21t83.5 -21t59 -58t21.5 -82t-21.5 -82t-59 -58t-83.5 -21t-83.5 21z" />
    <glyph glyph-name="ellipsis" unicode="&#x2026;" 
d="M24.5 15.5q-25.5 27.5 -25.5 68.5t25.5 68.5t66.5 27.5t66.5 -27.5t25.5 -68.5t-25.5 -68.5t-66.5 -27.5t-66.5 27.5zM233.5 15.5q-25.5 27.5 -25.5 68.5t25.5 68.5t66.5 27.5t66.5 -27.5t25.5 -68.5t-25.5 -68.5t-66.5 -27.5t-66.5 27.5zM442.5 15.5
q-25.5 27.5 -25.5 68.5t25.5 68.5t66.5 27.5t66.5 -27.5t25.5 -68.5t-25.5 -68.5t-66.5 -27.5t-66.5 27.5z" />
    <glyph glyph-name="perthousand" unicode="&#x2030;" 
d="M67 424.5q-36 36.5 -36 95.5t36 93t91 34q56 0 92 -34t36 -93t-36 -95.5t-92 -36.5q-55 0 -91 36.5zM189.5 467.5q12.5 16.5 12.5 52.5q0 65 -44 65q-43 0 -43 -65q0 -36 12 -52.5t31 -16.5t31.5 16.5zM93 315l451 198l38 -94l-470 -148zM67 24.5q-36 36.5 -36 95.5
t36 93t91 34q56 0 92 -34t36 -93t-36 -95.5t-92 -36.5q-55 0 -91 36.5zM351.5 24.5q-36.5 36.5 -36.5 95.5t36 93t92 34t92 -34t36 -93t-36 -95.5t-92 -36.5q-55 0 -91.5 36.5zM189.5 67q12.5 17 12.5 53q0 64 -44 64q-43 0 -43 -64q0 -36 12.5 -53t30.5 -17q19 0 31.5 17z
M474.5 67q12.5 17 12.5 53q0 64 -44 64q-43 0 -43 -64q0 -37 12 -53.5t31 -16.5t31.5 17z" />
    <glyph glyph-name="minute" unicode="&#x2032;" 
d="M251 686h147l-26 -145l-47 -186h-96z" />
    <glyph glyph-name="second" unicode="&#x2033;" 
d="M133 686h146l-25 -145l-47 -186h-96zM369 686h147l-25 -145l-47 -186h-96z" />
    <glyph glyph-name="guilsinglleft" unicode="&#x2039;" 
d="M175 179v146l171 154l62 -55l-127 -172l127 -172l-62 -55z" />
    <glyph glyph-name="guilsinglright" unicode="&#x203a;" 
d="M192 80l127 172l-127 172l62 55l171 -154v-146l-171 -154z" />
    <glyph glyph-name="fraction" unicode="&#x2044;" 
d="M346 425l162 199l75 -73l-186 -174zM17 101l186 173l51 -47l-162 -199z" />
    <glyph glyph-name="colonmonetary" unicode="&#x20a1;" 
d="M243 11q-77 33 -120.5 110.5t-43.5 192.5q0 138 64.5 224t175.5 104l12 103h50l-12 -98h8q10 0 32 -2l12 100h50l-13 -113q56 -21 97 -63l-81 -79q-14 11 -31 22l-48 -408q50 9 87 52l81 -76q-78 -84 -182 -91l-12 -99h-50l12 99l-39 6l-13 -105h-50zM395 530
q-13 3 -28 3h-11l-50 -415q15 -9 39 -14zM304 517q-38 -22 -58 -72.5t-20 -125.5q0 -101 36 -157z" />
    <glyph glyph-name="lira" unicode="&#x20a4;" 
d="M67 91q46 18 77 50.5t39 75.5h-112v69l79 5h28q-4 16 -16 48h-91v69l67 5q-3 15 -3 29q0 62 29 108.5t81 71.5t118 25q60 0 105 -20.5t81 -60.5l-79 -80q-21 21 -43 31.5t-50 10.5q-49 0 -76 -23.5t-27 -70.5q0 -13 1 -20h181v-75h-162l13 -48h149v-74h-146
q-4 -25 -16 -46t-36 -43v-4h292v-124h-483v91z" />
    <glyph glyph-name="peseta" unicode="&#x20a7;" 
d="M89 380h-68v85l68 5v165h183q96 0 159.5 -39t77.5 -125h62v-91h-61q-14 -82 -79.5 -123.5t-158.5 -41.5h-44v-215h-139v380zM370 471q-19 72 -108 72h-34v-72h142zM262 307q43 0 70.5 19t38.5 54h-143v-73h34z" />
    <glyph glyph-name="dong" unicode="&#x20ab;" 
d="M137 166q-46 50 -46 140q0 54 25 94.5t65.5 62.5t84.5 22q35 0 58.5 -9t48.5 -30l-4 67v15h-154v74h154v49h121v-49h72v-68l-72 -6v-402h-100l-9 36h-3q-22 -22 -52 -34t-64 -12q-79 0 -125 50zM332.5 221.5q17.5 8.5 36.5 27.5v111q-18 14 -35 20t-38 6q-33 0 -57 -22
t-24 -59q0 -46 20.5 -69t56.5 -23q23 0 40.5 8.5zM104 74h419v-74h-419v74z" />
    <glyph glyph-name="Euro" unicode="&#x20ac;" 
d="M205.5 46.5q-72.5 58.5 -96.5 168.5h-64v69l55 4q-1 9 -1 26t1 26h-55v68l64 5q25 111 100 172.5t183 61.5q51 0 98.5 -20.5t84.5 -57.5l-81 -79q-26 21 -51.5 32t-55.5 11q-50 0 -83.5 -30.5t-47.5 -88.5h253v-74h-263v-21q0 -20 1 -29h222v-75h-210q16 -55 49.5 -84
t81.5 -29q64 0 112 54l81 -76q-84 -92 -202 -92q-103 0 -175.5 58.5z" />
    <glyph glyph-name="uni20B1" unicode="&#x20b1;" 
d="M89 346h-67v52l67 5v46h-67v52l67 5v129h183q85 0 144.5 -31t83.5 -97h71v-58h-59q1 -9 1 -27q0 -12 -1 -18h59v-58h-70q-24 -65 -85.5 -98t-143.5 -33h-44v-215h-139v346zM353 507q-27 36 -91 36h-34v-36h125zM375 404q1 6 1 18q0 11 -2 27h-146v-45h147zM262 307
q62 0 92 39h-126v-39h34z" />
    <glyph glyph-name="uni20B9" unicode="&#x20b9;" 
d="M174 201h-86v117h74q116 0 140 71h-214v68l81 6h131q-12 30 -46 42.5t-92 12.5h-74v117h435v-74h-149q58 -36 73 -98h76v-74h-74q-8 -62 -43.5 -103t-91.5 -62l187 -224h-163z" />
    <glyph glyph-name="uni20BA" unicode="&#x20ba;" 
d="M121 220l-85 -41v81l85 41v55l-85 -41v81l85 41v198h147v-126l160 77v-81l-160 -77v-55l160 77v-81l-160 -77v-167q65 6 111.5 42t46.5 87q0 15 -4 30l121 28q8 -32 8 -51q0 -90 -51.5 -152.5t-148 -93t-230.5 -27.5v232z" />
    <glyph glyph-name="uni2113" unicode="&#x2113;" 
d="M246 26q-53 38 -69 109l-29 -18q-6 -3 -18 -11l-55 90q55 33 97 61v220q0 121 51.5 182t136.5 61q73 0 117 -45.5t44 -124.5q0 -93 -48 -167.5t-157 -155.5v-25q0 -47 21.5 -69.5t55.5 -22.5q26 0 48 12t45 32l54 -89q-39 -35 -80.5 -56t-89.5 -21q-71 0 -124 38z
M381.5 453q21.5 44 21.5 97q0 31 -10.5 47t-27.5 16q-21 0 -35 -28t-14 -88v-131q44 43 65.5 87z" />
    <glyph glyph-name="uni2117" unicode="&#x2117;" horiz-adv-x="659" 
d="M165.5 32q-75.5 41 -120.5 117t-45 176t45 175t120 115t165 40q89 0 164.5 -40t120 -115t44.5 -175t-44.5 -176t-120 -117t-164.5 -41t-164.5 41zM463 86q60 34 94.5 96.5t34.5 142.5t-34.5 141.5t-94.5 95t-133 33.5t-133 -33.5t-94.5 -95t-34.5 -141.5t34.5 -142.5
t94.5 -96.5t133 -34t133 34zM194 504h145q78 0 125 -31t47 -99q0 -71 -48.5 -107.5t-123.5 -36.5h-39v-91h-106v365zM331 306q38 0 57 15.5t19 48.5q0 55 -76 55h-31v-119h31z" />
    <glyph glyph-name="uni2120" unicode="&#x2120;" 
d="M47 362q-28 12 -56 37l50 60q20 -18 37 -27.5t36 -9.5q29 0 29 21q0 11 -6.5 16t-27.5 16l-42 21q-60 29 -60 91q0 42 31.5 71t85.5 29q30 0 58 -11t51 -29l-44 -61q-22 14 -37 21t-30 7q-14 0 -21.5 -6t-7.5 -16q0 -9 7 -14t28 -15l41 -20q32 -14 47 -34.5t15 -55.5
q0 -42 -34 -72.5t-90 -30.5q-32 0 -60 12zM275 676h103l34 -94l21 -71h4l20 71l34 94h103v-314h-84v96l11 115h-4l-53 -148h-58l-54 148h-4l11 -115v-96h-84v314z" />
    <glyph glyph-name="trademark" unicode="&#x2122;" 
d="M66 589h-79v87h253v-87h-78v-227h-96v227zM275 676h103l34 -94l21 -71h4l20 71l34 94h103v-314h-84v96l11 115h-4l-53 -148h-58l-54 148h-4l11 -115v-96h-84v314z" />
    <glyph glyph-name="uni2126" unicode="&#x2126;" 
d="M12 119h108v4q-38 39 -65 100t-27 135q0 90 33.5 159.5t95.5 108t143 38.5t143 -38.5t95.5 -108t33.5 -159.5q0 -74 -27 -135t-65 -100v-4h108v-119h-244v106q40 47 58.5 103.5t18.5 133.5q0 87 -32 140.5t-89 53.5t-89 -53.5t-32 -140.5q0 -77 18.5 -133.5t58.5 -103.5
v-106h-244v119z" />
    <glyph glyph-name="estimated" unicode="&#x212e;" 
d="M163 33q-63 45 -100 122.5t-37 168.5t37 168.5t100 122.5t137 45t137 -45t100 -122.5t37 -168.5v-8h-414q-4 0 -4 -4v-224q0 -8 8 -20q26 -29 62 -44.5t76 -15.5q52 0 99.5 30t82.5 82h38q-42 -62 -99 -97t-123 -35q-74 0 -137 45zM440 334q6 0 6 6v224q0 12 -10 22
q-25 25 -60.5 39.5t-73.5 14.5q-40 0 -76 -15.5t-62 -42.5q-8 -12 -8 -22v-220q0 -6 4 -6h280z" />
    <glyph glyph-name="uni2153" unicode="&#x2153;" 
d="M150 536h-81v64q37 4 58.5 11.5t46.5 23.5h83v-311h-107v212zM346 425l162 199l75 -73l-186 -174zM293 30l42 66q16 -12 39 -20.5t43 -8.5q18 0 30 7.5t12 21.5q0 35 -73 35v55q30 0 45 7.5t15 24.5q0 12 -10 19.5t-28 7.5q-15 0 -30.5 -6.5t-35.5 -18.5l-43 62
q25 19 59 30.5t74 11.5q50 0 84 -25t34 -64q0 -28 -12 -44.5t-42 -26.5q67 -18 67 -76q0 -43 -39 -71.5t-94 -28.5q-81 0 -137 42zM17 101l186 173l51 -47l-162 -199z" />
    <glyph glyph-name="uni2154" unicode="&#x2154;" 
d="M44 379q147 97 147 141q0 19 -12 30.5t-33 11.5q-28 0 -55 -35l-61 55q62 65 133 65q60 0 95 -29t35 -79q0 -31 -21.5 -62t-59.5 -67h92v-86h-260v55zM346 425l162 199l75 -73l-186 -174zM293 30l42 66q16 -12 39 -20.5t43 -8.5q18 0 30 7.5t12 21.5q0 35 -73 35v55
q30 0 45 7.5t15 24.5q0 12 -10 19.5t-28 7.5q-15 0 -30.5 -6.5t-35.5 -18.5l-43 62q25 19 59 30.5t74 11.5q50 0 84 -25t34 -64q0 -28 -12 -44.5t-42 -26.5q67 -18 67 -76q0 -43 -39 -71.5t-94 -28.5q-81 0 -137 42zM17 101l186 173l51 -47l-162 -199z" />
    <glyph glyph-name="arrowleft" unicode="&#x2190;" 
d="M13 250v4l278 267l70 -79l-150 -132h357v-116h-357l150 -132l-70 -79z" />
    <glyph glyph-name="arrowup" unicode="&#x2191;" 
d="M242 332l-132 -150l-79 69l267 278h4l267 -278l-79 -69l-132 150v-358h-116v358z" />
    <glyph glyph-name="arrowright" unicode="&#x2192;" 
d="M239 62l150 132h-358v116h358l-150 132l69 79l278 -267v-4l-278 -267z" />
    <glyph glyph-name="arrowdown" unicode="&#x2193;" 
d="M31 252l79 70l132 -150v357h116v-357l132 150l79 -70l-267 -278h-4z" />
    <glyph glyph-name="partialdiff" unicode="&#x2202;" 
d="M157.5 12.5q-44.5 24.5 -71 69t-26.5 103.5q0 68 27.5 120.5t76 82t110.5 29.5q36 0 69.5 -16t58.5 -45v17q0 180 -110 180q-54 0 -102 -45l-64 90q85 74 182 74q114 0 173.5 -81.5t59.5 -221.5q0 -113 -36.5 -199.5t-101 -134t-147.5 -47.5q-54 0 -98.5 24.5zM344.5 140
q31.5 33 46.5 105q-38 60 -99 60q-44 0 -70.5 -28.5t-26.5 -82.5q0 -42 22 -64.5t55 -22.5q41 0 72.5 33z" />
    <glyph glyph-name="uni2206" unicode="&#x2206;" 
d="M14 89l198 563h177l197 -563v-89h-572v89zM425 124l-69 220l-57 195h-4l-55 -195l-68 -220h253z" />
    <glyph glyph-name="product" unicode="&#x220f;" 
d="M25 635h550v-755h-147v627h-256v-627h-147v755z" />
    <glyph glyph-name="summation" unicode="&#x2211;" 
d="M59 -33l206 290l-196 291v87h465v-124h-286v-4l167 -250l-174 -249v-4h317v-124h-499v87z" />
    <glyph glyph-name="minus" unicode="&#x2212;" 
d="M70 382h460v-104h-460v104z" />
    <glyph glyph-name="uni2215" unicode="&#x2215;" 
d="M346 425l162 199l75 -73l-186 -174zM17 101l186 173l51 -47l-162 -199z" />
    <glyph glyph-name="uni2219" unicode="&#x2219;" 
d="M215.5 270q-32.5 34 -32.5 84t32.5 83.5t83.5 33.5t83.5 -33.5t32.5 -83.5t-32.5 -84t-83.5 -34t-83.5 34z" />
    <glyph glyph-name="radical" unicode="&#x221a;" 
d="M133 331l-74 -31l-26 69l174 71l99 -294q11 -37 21 -82h4q6 44 15 82l157 674h98l-216 -900h-102z" />
    <glyph glyph-name="infinity" unicode="&#x221e;" 
d="M347 145q-40 24 -79 86h-4q-50 -84 -134 -84q-39 0 -72 23.5t-52 62.5t-19 84q0 92 44.5 145t118.5 53q86 0 134 -84h4q35 53 73 76.5t89 23.5q45 0 82 -25t59 -68.5t22 -97.5q0 -68 -22.5 -117.5t-61.5 -75.5t-87 -26q-55 0 -95 24zM486.5 280q19.5 23 19.5 57
q0 40 -21.5 63.5t-57.5 23.5q-54 0 -98 -74q23 -48 47.5 -70.5t57.5 -22.5t52.5 23zM224 312q-30 67 -78 67q-25 0 -38.5 -16.5t-13.5 -42.5t16 -46t41 -20q46 0 73 58z" />
    <glyph glyph-name="integral" unicode="&#x222b;" 
d="M147 -150l14 106q20 -4 36 -4q38 0 50.5 29.5t12.5 103.5q0 50 -4.5 97.5t-13.5 123.5q-10 75 -15 128.5t-5 109.5q0 119 40 183t149 64q31 0 57 -7l-15 -107q-12 4 -35 4q-38 0 -50.5 -29.5t-12.5 -103.5q0 -50 4.5 -97.5t13.5 -123.5q10 -84 14.5 -133.5t4.5 -104.5
q0 -120 -39.5 -183.5t-148.5 -63.5q-35 0 -57 8z" />
    <glyph glyph-name="approxequal" unicode="&#x2248;" 
d="M52 392q30 75 72 109.5t91 34.5q30 0 53 -11t51 -32q23 -17 37 -24.5t31 -7.5q21 0 40 20.5t33 60.5l88 -41q-30 -75 -72 -109.5t-91 -34.5q-30 0 -53 11t-51 32q-23 17 -37 24.5t-31 7.5q-21 0 -40 -20.5t-33 -60.5zM52 159q30 75 72 109.5t91 34.5q30 0 53 -11t51 -32
q23 -17 37 -24.5t31 -7.5q21 0 40 20.5t33 60.5l88 -41q-30 -75 -72 -109.5t-91 -34.5q-30 0 -53 11t-51 32q-23 17 -37 24.5t-31 7.5q-21 0 -40 -20.5t-33 -60.5z" />
    <glyph glyph-name="notequal" unicode="&#x2260;" 
d="M159 162h-89v103h147l73 130h-220v103h277l72 122h93l-71 -122h89v-103h-147l-73 -130h220v-103h-277l-72 -122h-93z" />
    <glyph glyph-name="lessequal" unicode="&#x2264;" 
d="M70 296v122l460 142v-121l-172 -46l-139 -34v-4l139 -34l172 -46v-121zM70 104h460v-104h-460v104z" />
    <glyph glyph-name="greaterequal" unicode="&#x2265;" 
d="M70 275l172 46l139 34v4l-139 34l-172 46v121l460 -142v-122l-460 -142v121zM70 104h460v-104h-460v104z" />
    <glyph glyph-name="filledbox" unicode="&#x25a0;" 
d="M182 383h236v-241h-236v241z" />
    <glyph glyph-name="triagup" unicode="&#x25b2;" 
d="M23 23l275 522h4l275 -522v-2h-554v2z" />
    <glyph glyph-name="uni25B3" unicode="&#x25b3;" 
d="M23 23l275 522h4l275 -522v-2h-554v2zM412 116l-112 223l-111 -223h223z" />
    <glyph glyph-name="uni25B6" unicode="&#x25b6;" 
d="M57 558h2l523 -274v-4l-523 -275h-2v553z" />
    <glyph glyph-name="uni25B7" unicode="&#x25b7;" 
d="M57 558h2l523 -274v-4l-523 -275h-2v553zM375 282l-222 111v-223z" />
    <glyph glyph-name="triagdn" unicode="&#x25bc;" 
d="M23 541v2h554v-2l-275 -522h-4z" />
    <glyph glyph-name="uni25BD" unicode="&#x25bd;" 
d="M23 541v2h554v-2l-275 -523h-4zM412 447h-223l111 -222z" />
    <glyph glyph-name="uni25C0" unicode="&#x25c0;" 
d="M18 280v4l523 274h2v-553h-2z" />
    <glyph glyph-name="uni25C1" unicode="&#x25c1;" 
d="M18 280v4l523 274h2v-553h-2zM447 393l-222 -111l222 -112v223z" />
    <glyph glyph-name="uni25C6" unicode="&#x25c6;" 
d="M135 262l165 165l165 -165l-165 -164z" />
    <glyph glyph-name="uni25C9" unicode="&#x25c9;" 
d="M197 84q-46 26 -72.5 72.5t-26.5 105.5t26.5 105.5t72.5 73t103 26.5t103 -26.5t72.5 -73t26.5 -105.5t-26.5 -105.5t-72.5 -72.5t-103 -26t-103 26zM388.5 168.5q35.5 36.5 35.5 93.5q0 58 -35.5 94t-88.5 36t-88.5 -36t-35.5 -94q0 -57 35.5 -93.5t88.5 -36.5
t88.5 36.5zM253 213q-19 20 -19 49q0 30 19 50t47 20t47 -20t19 -50q0 -29 -19 -49t-47 -20t-47 20z" />
    <glyph glyph-name="lozenge" unicode="&#x25ca;" 
d="M78 330l162 340h120l162 -340l-162 -340h-120zM302 113l54 121l45 96l-45 96l-54 121h-4l-54 -121l-45 -96l45 -96l54 -121h4z" />
    <glyph glyph-name="uni2610" unicode="&#x2610;" 
d="M-29 610l74 65h584v-610l-65 -75h-593v620zM541 48v538h-512v-538h512z" />
    <glyph glyph-name="uni2611" unicode="&#x2611;" 
d="M-29 610l74 65h458q51 74 112 138l90 -79q-42 -41 -76 -81v-588l-65 -75h-593v620zM541 48v485q-115 -179 -178 -409l-138 -16q-27 75 -60 138.5t-80 133.5l93 61q55 -88 104 -223h4q55 190 160 368h-417v-538h512z" />
    <glyph glyph-name="uni2713" unicode="&#x2713;" 
d="M72.5 135.5q-36.5 69.5 -88.5 143.5l93 61q71 -110 125 -250h4q54 179 140.5 337t187.5 261l90 -78q-108 -103 -197.5 -256t-147.5 -358l-138 -16q-32 86 -68.5 155.5z" />
    <glyph glyph-name="uni2752" unicode="&#x2752;" 
d="M147 356l66 57h240v-244l-56 -67h-250v254zM373 151v181h-177v-181h177z" />
    <glyph glyph-name="uniE0A0" unicode="&#xe0a0;" 
d="M36 1057h192v-653l-192 -103v756zM36 -3q0 92 41 150.5t131 107.5l106 57q64 34 90 81.5t26 119.5v191h-145l203 197l203 -197h-145v-223q0 -101 -33 -163t-116 -107l-52 -29q-45 -25 -70 -49t-36 -55.5t-11 -80.5v-278h-192v278z" />
    <glyph glyph-name="uniE0A1" unicode="&#xe0a1;" 
d="M66 410v520h108v-444h244v-76h-352zM533 -157h-116l-171 338l14 -225v-113h-110v520h115l172 -339l-14 248v91h110v-520z" />
    <glyph glyph-name="uniE0A2" unicode="&#xe0a2;" 
d="M17 11v398q0 88 85 88v177q0 52 26.5 93.5t71.5 65t100 23.5q54 0 99.5 -23t72 -64.5t26.5 -94.5v-177q85 0 85 -88v-398q0 -81 -99 -81h-368q-99 0 -99 81zM403 497v177q0 50 -28.5 78.5t-74.5 28.5q-47 0 -75 -29t-28 -78v-177h206zM339 66v187q47 19 47 64
q0 31 -25.5 51.5t-60.5 20.5t-60.5 -20.5t-25.5 -51.5q0 -45 47 -64v-187h78z" />
    <glyph glyph-name="uniE0B0" unicode="&#xe0b0;" 
d="M-69 -287v1344l738 -672z" />
    <glyph glyph-name="uniE0B1" unicode="&#xe0b1;" 
d="M669 385l-711 -647l-67 55l649 592l-649 592l67 55z" />
    <glyph glyph-name="uniE0B2" unicode="&#xe0b2;" 
d="M669 1057v-1344l-738 672z" />
    <glyph glyph-name="uniE0B3" unicode="&#xe0b3;" 
d="M-69 385l711 647l67 -55l-649 -592l649 -592l-67 -55z" />
    <glyph glyph-name="zero.alt" 
d="M171 28q-55 40 -85 117t-30 187q0 165 65.5 252.5t178.5 87.5t178.5 -87.5t65.5 -252.5q0 -110 -30 -187t-85 -117t-129 -40t-129 40zM382.5 156q30.5 54 30.5 176q0 226 -113 226t-113 -226q0 -122 30.5 -176t82.5 -54t82.5 54zM246.5 278.5q-21.5 21.5 -21.5 56.5
t21.5 56.5t53.5 21.5t53.5 -21.5t21.5 -56.5t-21.5 -56.5t-53.5 -21.5t-53.5 21.5z" />
    <glyph glyph-name="four.alt" 
d="M341 160h-306v101l265 399h178v-388h80v-112h-80v-160h-137v160zM341 272v120q0 40 5 142h-4q-5 -8 -38 -62q-4 -6 -31 -49l-96 -151h164z" />
    <glyph glyph-name="zero.subs" 
d="M193.5 -135.5q-41.5 46.5 -41.5 123.5q0 76 41.5 121t106.5 45t106.5 -45t41.5 -121q0 -77 -41.5 -123.5t-106.5 -46.5t-106.5 46.5zM334.5 -81.5q13.5 21.5 13.5 69.5q0 87 -48 87t-48 -87q0 -48 13.5 -69.5t34.5 -21.5t34.5 21.5z" />
    <glyph glyph-name="one.subs" 
d="M277 42h-81v64q37 5 58 12.5t47 23.5h83v-312h-107v212z" />
    <glyph glyph-name="two.subs" 
d="M172 -115q67 44 107 81t40 61q0 19 -11.5 30t-32.5 11q-31 0 -55 -35l-62 56q62 65 133 65q60 0 95.5 -29t35.5 -80q0 -31 -22 -61.5t-60 -66.5h93v-87h-261v55z" />
    <glyph glyph-name="three.subs" 
d="M165 -140l41 66q17 -12 39.5 -20.5t42.5 -8.5q18 0 30 7.5t12 21.5q0 35 -73 35v55q30 0 45.5 7.5t15.5 24.5q0 12 -10.5 19.5t-28.5 7.5q-24 0 -66 -25l-42 62q24 19 58.5 30.5t73.5 11.5q50 0 84.5 -25t34.5 -64q0 -28 -12.5 -44.5t-41.5 -26.5q66 -18 66 -76
q0 -44 -38.5 -72t-94.5 -28q-80 0 -136 42z" />
    <glyph glyph-name="four.subs" 
d="M321 -109h-160v51l120 200h134v-185h51v-66h-51v-61h-94v61zM321 -43v22l6 99h-4l-34 -62l-33 -59h65z" />
    <glyph glyph-name="five.subs" 
d="M230.5 -173q-32.5 9 -65.5 33l41 66q43 -29 82 -29q19 0 31.5 9t12.5 26t-12 26.5t-32 9.5q-14 0 -25.5 -3.5t-25.5 -12.5l-43 29l14 161h213v-88h-133l-4 -35q15 6 43 6q50 0 79.5 -26t29.5 -71q0 -46 -38.5 -78t-95.5 -32q-39 0 -71.5 9z" />
    <glyph glyph-name="six.subs" 
d="M201.5 -136q-40.5 46 -40.5 121q0 46 19 84.5t56 61.5t89 23q59 0 109 -41l-41 -61q-28 23 -60 23q-66 0 -75 -79q33 28 79 28t72.5 -24.5t26.5 -69.5q0 -47 -35.5 -79.5t-89.5 -32.5q-69 0 -109.5 46zM332.5 -94.5q9.5 8.5 9.5 23.5q0 31 -37 31q-23 0 -46 -18
q5 -24 18.5 -34.5t29.5 -10.5t25.5 8.5z" />
    <glyph glyph-name="seven.subs" 
d="M257.5 -57q20.5 49 65.5 112h-146v87h264v-56q-54 -61 -73 -116t-23 -140h-112q4 64 24.5 113z" />
    <glyph glyph-name="eight.subs" 
d="M204 -155.5q-38 26.5 -38 64.5q0 28 16 45t45 32v4q-29 19 -40.5 32.5t-11.5 40.5q0 40 36.5 65.5t88.5 25.5q54 0 90 -25t36 -66q0 -24 -13.5 -38.5t-39.5 -26.5v-4q31 -16 46 -34t15 -51q0 -38 -38 -64.5t-96 -26.5t-96 26.5zM332 56q0 12 -9 20t-24 8q-13 0 -21.5 -7
t-8.5 -17q0 -13 11 -21t33 -15q19 12 19 32zM328.5 -106q11.5 8 11.5 21q0 15 -14 24t-40 17q-12 -6 -19 -17t-7 -22q0 -14 11 -22.5t29 -8.5q17 0 28.5 8z" />
    <glyph glyph-name="nine.subs" 
d="M166 -141l41 60q27 -22 60 -22q66 0 75 78q-33 -27 -79 -27t-72.5 24t-26.5 70q0 47 35.5 79.5t89.5 32.5q70 0 110 -46.5t40 -121.5q0 -46 -19 -84t-56 -61t-89 -23q-61 0 -109 41zM341 29q-5 25 -18.5 35.5t-29.5 10.5q-17 0 -26 -8.5t-9 -24.5q0 -31 37 -31
q21 0 46 18z" />
    <glyph glyph-name="zero.dnom" 
d="M193.5 34.5q-41.5 46.5 -41.5 123.5q0 76 41.5 121t106.5 45t106.5 -45t41.5 -121q0 -77 -41.5 -123.5t-106.5 -46.5t-106.5 46.5zM334.5 88.5q13.5 21.5 13.5 69.5q0 87 -48 87t-48 -87q0 -48 13.5 -69.5t34.5 -21.5t34.5 21.5z" />
    <glyph glyph-name="one.dnom" 
d="M277 212h-81v64q37 5 58 12.5t47 23.5h83v-312h-107v212z" />
    <glyph glyph-name="two.dnom" 
d="M171 55q146 96 146 142q0 19 -11.5 30t-32.5 11q-29 0 -55 -35l-62 56q31 31 63.5 48t70.5 17q60 0 95 -29t35 -80q0 -31 -21.5 -61.5t-59.5 -66.5h92v-87h-260v55z" />
    <glyph glyph-name="three.dnom" 
d="M165 30l41 66q17 -12 39.5 -20.5t42.5 -8.5q18 0 30 7.5t12 21.5q0 35 -73 35v55q30 0 45.5 7.5t15.5 24.5q0 12 -10.5 19.5t-28.5 7.5q-24 0 -66 -25l-42 62q24 19 58.5 30.5t73.5 11.5q50 0 84.5 -25t34.5 -64q0 -28 -12.5 -44.5t-41.5 -26.5q66 -18 66 -76
q0 -44 -38.5 -72t-94.5 -28q-80 0 -136 42z" />
    <glyph glyph-name="four.dnom" 
d="M321 61h-160v51l120 200h134v-185h51v-66h-51v-61h-94v61zM321 127v22l6 99h-4l-34 -62l-33 -59h65z" />
    <glyph glyph-name="five.dnom" 
d="M230.5 -3q-32.5 9 -65.5 33l41 66q43 -29 82 -29q19 0 31.5 9t12.5 26t-12 26.5t-32 9.5q-14 0 -25.5 -3.5t-25.5 -12.5l-43 29l14 161h213v-88h-133l-4 -35q15 6 43 6q50 0 79.5 -26t29.5 -71q0 -46 -38.5 -78t-95.5 -32q-39 0 -71.5 9z" />
    <glyph glyph-name="six.dnom" 
d="M202 34q-40 46 -40 121q0 71 43.5 120t120.5 49q58 0 109 -41l-42 -61q-28 23 -59 23q-67 0 -76 -80q34 29 79 29q46 0 73 -24.5t27 -69.5q0 -47 -35.5 -79.5t-89.5 -32.5q-70 0 -110 46zM333.5 75.5q9.5 8.5 9.5 23.5t-10 23t-28 8q-25 0 -45 -19q5 -24 18 -34t29 -10
q17 0 26.5 8.5z" />
    <glyph glyph-name="seven.dnom" 
d="M257.5 113q20.5 49 65.5 112h-146v87h264v-56q-54 -61 -73 -116t-23 -140h-112q4 64 24.5 113z" />
    <glyph glyph-name="eight.dnom" 
d="M204 14.5q-38 26.5 -38 64.5q0 28 16 45t45 32v4q-29 19 -40.5 32.5t-11.5 40.5q0 40 36.5 65.5t88.5 25.5q54 0 90 -25t36 -66q0 -24 -13.5 -38.5t-39.5 -26.5v-4q31 -16 46 -34t15 -51q0 -38 -38 -64.5t-96 -26.5t-96 26.5zM332 226q0 12 -9 20t-24 8q-13 0 -21.5 -7
t-8.5 -17q0 -13 11 -21t33 -15q19 12 19 32zM328.5 64q11.5 8 11.5 21q0 15 -14 24t-40 17q-12 -6 -19 -17t-7 -22q0 -14 11 -22.5t29 -8.5q17 0 28.5 8z" />
    <glyph glyph-name="nine.dnom" 
d="M166 29l41 60q27 -22 60 -22q66 0 75 78q-33 -27 -79 -27t-72.5 24t-26.5 70q0 47 35.5 79.5t89.5 32.5q70 0 110 -46.5t40 -121.5q0 -46 -19 -84t-56 -61t-89 -23q-61 0 -109 41zM341 199q-5 25 -18.5 35.5t-29.5 10.5q-17 0 -26 -8.5t-9 -24.5q0 -31 37 -31q21 0 46 18
z" />
    <glyph glyph-name="zero.numr" 
d="M193.5 358.5q-41.5 46.5 -41.5 122.5t41.5 121t106.5 45t106.5 -45t41.5 -121t-41.5 -122.5t-106.5 -46.5t-106.5 46.5zM334.5 411.5q13.5 21.5 13.5 69.5q0 87 -48 87t-48 -87q0 -48 13.5 -69.5t34.5 -21.5t34.5 21.5z" />
    <glyph glyph-name="one.numr" 
d="M277 536h-81v64q36 4 57.5 11.5t47.5 23.5h83v-311h-107v212z" />
    <glyph glyph-name="two.numr" 
d="M172 379q147 96 147 141q0 19 -11.5 30.5t-32.5 11.5q-14 0 -28.5 -9t-26.5 -26l-62 55q62 65 133 65q60 0 95.5 -29t35.5 -79q0 -31 -22 -62.5t-60 -66.5h93v-86h-261v55z" />
    <glyph glyph-name="three.numr" 
d="M165 353l41 66q17 -12 39.5 -20.5t42.5 -8.5q18 0 30 7.5t12 21.5q0 18 -17.5 26.5t-55.5 8.5v56q30 0 45.5 7.5t15.5 24.5q0 12 -10 19t-29 7q-28 0 -66 -25l-42 63q23 19 58 30t74 11q51 0 85 -24.5t34 -63.5q0 -28 -12 -45t-42 -27q66 -18 66 -76q0 -43 -38.5 -71
t-94.5 -28q-79 0 -136 41z" />
    <glyph glyph-name="four.numr" 
d="M321 384h-160v52l120 199h134v-185h51v-66h-51v-60h-94v60zM321 450v22l6 100h-4l-67 -122h65z" />
    <glyph glyph-name="five.numr" 
d="M231 320.5q-33 8.5 -66 32.5l41 66q43 -29 82 -29q19 0 31.5 9t12.5 26q0 18 -12 27.5t-32 9.5q-14 0 -25 -3.5t-26 -12.5l-43 28l14 161h213v-87h-133l-4 -36q18 7 43 7q50 0 79.5 -26t29.5 -71q0 -47 -38.5 -78.5t-95.5 -31.5q-38 0 -71 8.5z" />
    <glyph glyph-name="six.numr" 
d="M201 358q-40 46 -40 121q0 46 19 84t56 61t89 23q61 0 109 -41l-41 -60q-27 22 -60 22q-66 0 -75 -78q33 27 79 27t72.5 -24t26.5 -69q0 -48 -35.5 -80t-89.5 -32q-70 0 -110 46zM333 398.5q9 8.5 9 24.5q0 31 -37 31q-21 0 -46 -18q5 -25 18.5 -35.5t29.5 -10.5
q17 0 26 8.5z" />
    <glyph glyph-name="seven.numr" 
d="M257.5 436.5q20.5 48.5 65.5 111.5h-146v87h264v-55q-54 -61 -73 -116t-23 -140h-112q4 64 24.5 112.5z" />
    <glyph glyph-name="eight.numr" 
d="M204 338.5q-38 26.5 -38 63.5q0 28 16 45.5t45 32.5v4q-28 18 -40 32t-12 41q0 40 36.5 65t88.5 25q54 0 90 -25t36 -65q0 -24 -13.5 -39t-39.5 -27v-4q30 -15 45.5 -33.5t15.5 -51.5q0 -37 -38 -63.5t-96 -26.5t-96 26.5zM332 549q0 13 -9 20.5t-24 7.5
q-13 0 -21.5 -6.5t-8.5 -17.5q0 -13 11 -21t33 -15q19 13 19 32zM328.5 388q11.5 8 11.5 20q0 15 -14 25t-40 17q-12 -7 -19 -17.5t-7 -21.5q0 -14 11 -22.5t29 -8.5q17 0 28.5 8z" />
    <glyph glyph-name="nine.numr" 
d="M166 352l41 61q28 -23 60 -23q66 0 75 79q-31 -27 -79 -27q-46 0 -72.5 24t-26.5 69q0 47 35.5 79.5t89.5 32.5q69 0 109.5 -46t40.5 -121q0 -46 -19 -84.5t-56 -61t-89 -22.5q-61 0 -109 40zM341 523q-5 24 -18.5 34.5t-29.5 10.5t-25.5 -8.5t-9.5 -23.5q0 -31 37 -31
q24 0 46 18z" />
    <glyph glyph-name="zero.sups" 
d="M193.5 474.5q-41.5 46.5 -41.5 123.5q0 76 41.5 121t106.5 45t106.5 -45t41.5 -121q0 -77 -41.5 -123.5t-106.5 -46.5t-106.5 46.5zM334.5 528.5q13.5 21.5 13.5 69.5q0 87 -48 87t-48 -87q0 -48 13.5 -69.5t34.5 -21.5t34.5 21.5z" />
    <glyph glyph-name="one.sups" 
d="M277 652h-81v64q37 5 58 12.5t47 23.5h83v-312h-107v212z" />
    <glyph glyph-name="two.sups" 
d="M172 495q67 44 107 81t40 61q0 19 -11.5 30t-32.5 11q-31 0 -55 -35l-62 56q62 65 133 65q60 0 95.5 -29t35.5 -80q0 -31 -22 -61.5t-60 -66.5h93v-87h-261v55z" />
    <glyph glyph-name="three.sups" 
d="M165 470l41 66q17 -12 39.5 -20.5t42.5 -8.5q18 0 30 7.5t12 21.5q0 35 -73 35v55q30 0 45.5 7.5t15.5 24.5q0 12 -10.5 19.5t-28.5 7.5q-24 0 -66 -25l-42 62q24 19 58.5 30.5t73.5 11.5q50 0 84.5 -25t34.5 -64q0 -28 -12.5 -44.5t-41.5 -26.5q66 -18 66 -76
q0 -44 -38.5 -72t-94.5 -28q-80 0 -136 42z" />
    <glyph glyph-name="four.sups" 
d="M321 501h-160v51l120 200h134v-185h51v-66h-51v-61h-94v61zM321 567v22l6 99h-4l-34 -62l-33 -59h65z" />
    <glyph glyph-name="five.sups" 
d="M230.5 437q-32.5 9 -65.5 33l41 66q43 -29 82 -29q19 0 31.5 9t12.5 26t-12 26.5t-32 9.5q-14 0 -25.5 -3.5t-25.5 -12.5l-43 29l14 161h213v-88h-133l-4 -35q15 6 43 6q50 0 79.5 -26t29.5 -71q0 -46 -38.5 -78t-95.5 -32q-39 0 -71.5 9z" />
    <glyph glyph-name="six.sups" 
d="M201.5 474q-40.5 46 -40.5 121q0 46 19 84.5t56 61.5t89 23q59 0 109 -41l-41 -61q-28 23 -60 23q-66 0 -75 -79q33 28 79 28t72.5 -24.5t26.5 -69.5q0 -47 -35.5 -79.5t-89.5 -32.5q-69 0 -109.5 46zM332.5 515.5q9.5 8.5 9.5 23.5q0 31 -37 31q-23 0 -46 -18
q5 -24 18.5 -34.5t29.5 -10.5t25.5 8.5z" />
    <glyph glyph-name="seven.sups" 
d="M257.5 553q20.5 49 65.5 112h-146v87h264v-56q-54 -61 -73 -116t-23 -140h-112q4 64 24.5 113z" />
    <glyph glyph-name="eight.sups" 
d="M204 454.5q-38 26.5 -38 64.5q0 28 16 45t45 32v4q-29 19 -40.5 32.5t-11.5 40.5q0 40 36.5 65.5t88.5 25.5q54 0 90 -25t36 -66q0 -24 -13.5 -38.5t-39.5 -26.5v-4q31 -16 46 -34t15 -51q0 -38 -38 -64.5t-96 -26.5t-96 26.5zM332 666q0 12 -9 20t-24 8q-13 0 -21.5 -7
t-8.5 -17q0 -13 11 -21t33 -15q19 12 19 32zM328.5 504q11.5 8 11.5 21q0 15 -14 24t-40 17q-12 -6 -19 -17t-7 -22q0 -14 11 -22.5t29 -8.5q17 0 28.5 8z" />
    <glyph glyph-name="nine.sups" 
d="M166 469l41 60q27 -22 60 -22q66 0 75 78q-33 -27 -79 -27t-72.5 24t-26.5 70q0 47 35.5 79.5t89.5 32.5q70 0 110 -46.5t40 -121.5q0 -46 -19 -84t-56 -61t-89 -23q-61 0 -109 41zM341 639q-5 25 -18.5 35.5t-29.5 10.5q-17 0 -26 -8.5t-9 -24.5q0 -31 37 -31
q21 0 46 18z" />
    <glyph glyph-name="asterisk.alt" 
d="M135 323l82 140l-133 56l23 72l142 -32l12 153h78l12 -153l142 32l23 -72l-133 -56l82 -140l-64 -44l-101 126l-101 -126z" />
    <glyph glyph-name="comma.dnom" 
d="M227 -75q39 12 58 30t19 46h-4q-26 0 -44.5 16t-18.5 44q0 26 19 43t46 17q34 0 52.5 -25.5t18.5 -71.5q0 -57 -32.5 -97t-91.5 -57z" />
    <glyph glyph-name="period.dnom" 
d="M255 10q-18 18 -18 46q0 27 18 46t45 19t45 -19t18 -46q0 -28 -18 -46t-45 -18t-45 18z" />
    <glyph glyph-name="slash.frac" 
d="M346 425l162 199l75 -73l-186 -174zM17 101l186 173l51 -47l-162 -199z" />
    <glyph glyph-name="comma.numr" 
d="M227 186q39 13 58 31t19 46h-4q-26 0 -44.5 16t-18.5 43t19 44t46 17q34 0 52.5 -25.5t18.5 -71.5q0 -57 -32.5 -97t-91.5 -58z" />
    <glyph glyph-name="period.numr" 
d="M255 272q-18 18 -18 45q0 28 18 47t45 19t45 -19t18 -47q0 -27 -18 -45t-45 -18t-45 18z" />
    <glyph glyph-name="comma.subs" 
d="M227 -245q39 12 58 30t19 46h-4q-26 0 -44.5 16t-18.5 44q0 26 19 43t46 17q34 0 52.5 -25.5t18.5 -71.5q0 -57 -32.5 -97t-91.5 -57z" />
    <glyph glyph-name="period.subs" 
d="M255 -160q-18 18 -18 46q0 27 18 46t45 19t45 -19t18 -46q0 -28 -18 -46t-45 -18t-45 18z" />
    <glyph glyph-name="parenleft.dnom" 
d="M241 30q-27 60 -27 136q0 75 27 135t81 119l79 -48q-83 -97 -83 -206q0 -110 83 -207l-79 -48q-54 59 -81 119z" />
    <glyph glyph-name="parenright.dnom" 
d="M199 -41q83 97 83 207q0 109 -83 206l79 48q54 -59 81 -119t27 -135q0 -76 -27 -136t-81 -119z" />
    <glyph glyph-name="parenleft.numr" 
d="M241 292q-27 60 -27 135q0 76 27 135.5t81 119.5l79 -48q-83 -97 -83 -207q0 -109 83 -206l-79 -48q-54 59 -81 119z" />
    <glyph glyph-name="parenright.numr" 
d="M199 221q83 97 83 206q0 110 -83 207l79 48q54 -60 81 -119.5t27 -135.5q0 -75 -27 -135t-81 -119z" />
    <glyph glyph-name="parenleft.subs" 
d="M241 -140q-27 60 -27 136q0 75 27 135t81 119l79 -48q-83 -97 -83 -206q0 -110 83 -207l-79 -48q-54 59 -81 119z" />
    <glyph glyph-name="parenright.subs" 
d="M199 -211q83 97 83 207q0 109 -83 206l79 48q54 -59 81 -119t27 -135q0 -76 -27 -136t-81 -119z" />
    <glyph glyph-name="comma.sups" 
d="M227 365q39 12 58 30t19 46h-4q-26 0 -44.5 16t-18.5 44q0 26 19 43t46 17q34 0 52.5 -25.5t18.5 -71.5q0 -57 -32.5 -97t-91.5 -57z" />
    <glyph glyph-name="parenleft.sups" 
d="M241 470q-27 60 -27 136q0 75 27 135t81 119l79 -48q-83 -97 -83 -206q0 -110 83 -207l-79 -48q-54 59 -81 119z" />
    <glyph glyph-name="parenright.sups" 
d="M199 399q83 97 83 207q0 109 -83 206l79 48q54 -59 81 -119t27 -135q0 -76 -27 -136t-81 -119z" />
    <glyph glyph-name="period.sups" 
d="M255 450q-18 18 -18 46q0 27 18 46t45 19t45 -19t18 -46q0 -28 -18 -46t-45 -18t-45 18z" />
    <glyph glyph-name="space.frac" 
 />
    <glyph glyph-name="uni00A0.frac" 
 />
  </font>
</defs>
</svg>
