<?xml version="1.0" standalone="no"?>
<!DOCTYPE svg PUBLIC "-//W3C//DTD SVG 1.1//EN" "http://www.w3.org/Graphics/SVG/1.1/DTD/svg11.dtd" >
<svg xmlns="http://www.w3.org/2000/svg" xmlns:xlink="http://www.w3.org/1999/xlink" version="1.1">
<metadata>
Created by FontForge 20161013 at Wed Dec  7 01:55:54 2011
 By ,,,
Copyright (c) 2011 by Omnibus-Type (www.omnibus-type.com), with Reserved Font Name "Chivo".
</metadata>
<defs>
<font id="Chivo-Italic" horiz-adv-x="615" >
  <font-face 
    font-family="Chivo"
    font-weight="400"
    font-style="italic"
    font-stretch="normal"
    units-per-em="1000"
    panose-1="2 0 0 0 0 0 0 0 0 0"
    ascent="800"
    descent="-200"
    x-height="511"
    cap-height="686"
    bbox="-96 -250 1037 922"
    underline-thickness="50"
    underline-position="-200"
    slope="-8"
    unicode-range="U+0020-FB02"
  />
<missing-glyph horiz-adv-x="500" 
d="M500 0h-500v700h500v-700zM50 605v-510l170 255zM250 305l-170 -255h340zM420 650h-340l170 -255zM450 605l-170 -255l170 -255v510z" />
    <glyph glyph-name=".notdef" horiz-adv-x="500" 
d="M500 0h-500v700h500v-700zM50 605v-510l170 255zM250 305l-170 -255h340zM420 650h-340l170 -255zM450 605l-170 -255l170 -255v510z" />
    <glyph glyph-name=".null" horiz-adv-x="0" 
 />
    <glyph glyph-name="nonmarkingreturn" horiz-adv-x="333" 
 />
    <glyph glyph-name="space" unicode=" " horiz-adv-x="244" 
 />
    <glyph glyph-name="exclam" unicode="!" horiz-adv-x="269" 
d="M144 0h-101l16 111h101zM85 174l48 512h115q-16 -55 -97 -512h-66z" />
    <glyph glyph-name="quotedbl" unicode="&#x22;" horiz-adv-x="363" 
d="M139 407h-41v132l21 147h82l-21 -147q-7 -24 -21 -68t-20 -64zM292 407h-40v132l21 147h82l-21 -147q-26 -79 -42 -132z" />
    <glyph glyph-name="numbersign" unicode="#" horiz-adv-x="644" 
d="M123 179h-109l10 76h126l56 155h-121l11 76h138l76 210h76l-76 -210h150l76 210h76l-76 -210h105l-11 -76h-122l-56 -155h116l-10 -76h-133l-65 -179h-76l65 179h-150l-65 -179h-76zM282 410l-56 -155h150l56 155h-150z" />
    <glyph glyph-name="dollar" unicode="$" horiz-adv-x="546" 
d="M430 483l3 26q0 37 -31.5 57t-90.5 20t-100 -23t-41 -69q0 -59 118 -88q50 -12 99 -27t83.5 -49t34.5 -91t-21.5 -102t-58.5 -70q-71 -48 -169 -48v-85h-73l23 86q-86 4 -137.5 42.5t-51.5 114.5q0 31 6 50h95q-5 -5 -5 -35q0 -44 34.5 -65.5t103.5 -21.5t113 28t44 81
q0 38 -34.5 60.5t-83.5 34.5t-98.5 26t-84 48t-34.5 88q0 100 67 150t158 50v89h75l-24 -89q81 -4 130 -40.5t49 -106.5q0 -18 -3 -41h-95z" />
    <glyph glyph-name="percent" unicode="%" horiz-adv-x="700" 
d="M52 437q0 6 17 127q6 53 42 87t96 34h7q49 0 77 -29t28 -74q0 -13 -16 -125q-9 -54 -43.5 -87.5t-94.5 -33.5h-7q-49 0 -77.5 28.5t-28.5 72.5zM136 0h-70l515 686h68zM134 571q-18 -118 -18 -135.5t14 -31t40.5 -13.5t45 16.5t22.5 44t7 50t5 34.5t3 20.5t1.5 12t1 6
t0.5 5.5q0 22 -14 36t-41 14t-45 -16.5t-22 -42.5zM394 100q0 6 17 127q6 53 42 87t96 34h7q49 0 77 -29t28 -74q0 -13 -16 -125q-9 -54 -43.5 -87.5t-94.5 -33.5h-7q-49 0 -77.5 28.5t-28.5 72.5zM476 234q-18 -118 -18 -135.5t14 -31t40.5 -13.5t45 16.5t22.5 44t7 50
t5 34.5t3 20.5t1.5 12t1 6t0.5 5.5q0 22 -14 36t-41 14t-45 -16.5t-22 -42.5z" />
    <glyph glyph-name="ampersand" unicode="&#x26;" horiz-adv-x="661" 
d="M103.5 41.5q-60.5 41.5 -60.5 120t41 125.5t109 67l4 2q-94 46 -94 140t69.5 147t183.5 53q28 0 61 -7l-12 -91q-31 9 -55 9q-67 0 -108.5 -27t-41.5 -76.5t33 -79t88 -29.5h123l48 143h68l-20 -143h108l-12 -89h-108l-43 -306h-225q-96 0 -156.5 41.5zM188.5 274.5
q-46.5 -31.5 -46.5 -86t39.5 -77t104.5 -22.5h113l31 217h-114q-81 0 -127.5 -31.5z" />
    <glyph glyph-name="quotesingle" unicode="'" horiz-adv-x="209" 
d="M138 407h-40v132l21 147h82l-21 -147q-7 -21 -20.5 -65t-21.5 -67z" />
    <glyph glyph-name="parenleft" unicode="(" horiz-adv-x="289" 
d="M39 178q0 280 225 508h52q-89 -115 -142 -247.5t-53 -268.5q0 -172 76 -327h-52q-106 146 -106 335z" />
    <glyph glyph-name="parenright" unicode=")" horiz-adv-x="289" 
d="M18 -157h-51q87 113 140 245t53 267q0 176 -74 331h51q106 -146 106 -335q0 -139 -59 -269.5t-166 -238.5z" />
    <glyph glyph-name="asterisk" unicode="*" horiz-adv-x="469" 
d="M217 469l-158 40l36 77l146 -66l10 166h79l-39 -167l167 65l12 -78l-171 -38l92 -125l-71 -49l-68 144l-107 -142l-57 48z" />
    <glyph glyph-name="plus" unicode="+" 
d="M255 213h-214l11 84h214l30 214h83l-30 -214h215l-11 -84h-215l-30 -213h-83z" />
    <glyph glyph-name="comma" unicode="," horiz-adv-x="237" 
d="M76 -124h-52l44 124h-41l16 111h101l-12 -85z" />
    <glyph glyph-name="hyphen" unicode="-" horiz-adv-x="390" 
d="M311 221h-251l12 98h252z" />
    <glyph glyph-name="period" unicode="." horiz-adv-x="238" 
d="M130 0h-101l15 111h101z" />
    <glyph glyph-name="slash" unicode="/" horiz-adv-x="489" 
d="M36 -171h-81l490 857h80z" />
    <glyph glyph-name="zero" unicode="0" 
d="M58 184q0 25 37 280q14 103 85 167.5t177 64.5h13q88 0 144 -55t56 -142v-15q0 -20 -8 -64q-8 -52 -29 -199q-15 -103 -85.5 -167t-176.5 -64h-13q-89 0 -144.5 53.5t-55.5 140.5zM157 194q0 -52 32 -83.5t93 -31.5t102 37.5t50 97.5q38 265 38 277q0 51 -33 83.5
t-92.5 32.5t-101 -37.5t-50.5 -97.5q-38 -265 -38 -278z" />
    <glyph glyph-name="one" unicode="1" 
d="M516 0h-458l13 89h180l65 466h-182l9 64q119 12 252 67h38l-84 -597h180z" />
    <glyph glyph-name="two" unicode="2" 
d="M502 0h-471l3 24q5 44 30 84t45.5 59.5t42.5 33.5l220 150q99 68 99 156q0 39 -27 69.5t-92.5 30.5t-112 -45.5t-46.5 -112.5h-98q0 98 74.5 172.5t185.5 74.5t163 -53t52 -121t-34 -126.5t-120 -116.5l-211 -143q-13 -9 -30.5 -24.5t-18.5 -22.5h358z" />
    <glyph glyph-name="three" unicode="3" 
d="M42 160q0 15 4 42h98q-3 -19 -3 -30q0 -93 127 -93q76 0 122.5 33.5t46.5 99.5q0 92 -140 92h-75l13 90h77q62 0 107 33t45 85q0 95 -120 95q-56 0 -96 -29.5t-48 -85.5h-98q12 97 82 150.5t172 53.5h9q88 0 143.5 -43.5t55.5 -116.5q0 -120 -133 -180l1 -3
q102 -33 102 -134.5t-77.5 -165t-190.5 -63.5h-12q-103 0 -157.5 45.5t-54.5 124.5z" />
    <glyph glyph-name="four" unicode="4" 
d="M356 169h-323l13 90q163 205 274 437h105q-50 -123 -140 -252.5t-146 -185.5h230l28 199q48 73 73 137h44l-47 -336h87l-13 -89h-87l-23 -169h-98z" />
    <glyph glyph-name="five" unicode="5" 
d="M57 184q0 8 2 30h98q-1 -3 -1 -8v-8q0 -54 33.5 -86.5t96 -32.5t107.5 43.5t45 123.5q0 51 -31.5 84t-85.5 33q-86 0 -139 -69l-86 13l81 379h386l-12 -89h-304l-43 -201q71 51 145 51q94 0 141 -51t47 -131q0 -123 -72 -199t-200 -76q-96 0 -152 55t-56 139z" />
    <glyph glyph-name="six" unicode="6" 
d="M66 184v7q0 11 37 274q14 96 90.5 163.5t170 67.5t149 -50t55.5 -136v-18q0 -5 -2 -19h-98q1 4 1 12v11q0 52 -30.5 81.5t-85 29.5t-99 -39t-52.5 -94l-15 -108q69 66 158 66t143.5 -50t54.5 -128q0 -121 -75.5 -192.5t-194.5 -71.5q-91 0 -149 52.5t-58 141.5zM211 300
q-48 -43 -48 -101.5t34 -89t97 -30.5t106 42t43 111q0 51 -32.5 81t-92 30t-107.5 -43z" />
    <glyph glyph-name="seven" unicode="7" 
d="M472 597h-357l13 89h482l-8 -53q-320 -328 -348 -609q-1 -15 -2 -24h-114q37 276 334 597z" />
    <glyph glyph-name="eight" unicode="8" 
d="M50 153q0 140 141 197l1 4q-37 23 -55.5 50t-18.5 71q0 101 70.5 161t167 60t148.5 -42t52 -115.5t-30 -114t-86 -70.5l-1 -4q46 -23 70.5 -54t24.5 -80q0 -104 -73 -165t-196 -61q-99 0 -157 42t-58 121zM150 175q0 -46 35.5 -71t97 -25t107.5 34t46 97q0 46 -35.5 71
t-94.5 25t-107.5 -33.5t-48.5 -97.5zM217 485q0 -40 28 -65t81.5 -25t92 35t38.5 80.5t-27.5 71t-79 25.5t-92.5 -32.5t-41 -89.5z" />
    <glyph glyph-name="nine" unicode="9" 
d="M59 176q0 18 3 37h98q-2 -16 -2 -24q0 -52 31 -81t88.5 -29t98.5 38t50 95l15 108q-69 -66 -158.5 -66t-143.5 51t-54 131q0 119 77.5 189.5t192.5 70.5q91 0 149 -52.5t58 -141.5q0 -10 -37 -281q-15 -102 -85.5 -166.5t-170 -64.5t-155 49.5t-55.5 136.5zM184 455
q0 -51 34 -81.5t93.5 -30.5t106 43t46.5 101.5t-33.5 89t-92.5 30.5t-106.5 -42t-47.5 -110z" />
    <glyph glyph-name="colon" unicode=":" horiz-adv-x="238" 
d="M129 0h-101l15 111h101zM185 399h-101l15 112h101z" />
    <glyph glyph-name="semicolon" unicode=";" horiz-adv-x="238" 
d="M76 -124h-52l44 124h-41l16 111h101l-12 -85zM184 399h-101l16 112h101z" />
    <glyph glyph-name="less" unicode="&#x3c;" 
d="M512 4l-481 196l15 107l537 197l-13 -90l-450 -160l405 -160z" />
    <glyph glyph-name="equal" unicode="=" 
d="M534 106h-504l11 83h504zM563 318h-504l12 84h504z" />
    <glyph glyph-name="greater" unicode="&#x3e;" 
d="M558 200l-537 -196l13 90l452 160q-283 109 -407 160l13 90l481 -197z" />
    <glyph glyph-name="question" unicode="?" horiz-adv-x="502" 
d="M151 458h-98q0 108 67.5 173t182.5 65h6q53 0 91.5 -17t57.5 -45q35 -52 35 -106t-19 -93t-46.5 -64t-55.5 -45q-68 -52 -73 -92l-6 -49h-100l9 64q7 57 74 106q28 20 55 41q63 47 63 114q0 38 -25 67.5t-79 29.5q-72 0 -105.5 -42.5t-33.5 -106.5zM269 0h-104l15 111
h104z" />
    <glyph glyph-name="at" unicode="@" horiz-adv-x="887" 
d="M27 163q0 222 117 373q58 75 154 118t219 43q161 0 255 -73.5t94 -226.5q0 -127 -50 -242q-25 -59 -73 -96t-112 -37q-88 0 -88 87l-6 -3q-66 -84 -176 -84q-65 0 -102.5 26.5t-37.5 89.5t25.5 99t77 53.5t107 23.5t136.5 6q8 56 8 64q0 67 -99.5 67t-117.5 -76l-2 -11
h-86q0 69 61.5 113t155.5 44h9q170 0 170 -121q0 -12 -28 -203l-7 -49q-3 -21 -3 -27q0 -30 36.5 -30t66.5 33t45 83q30 95 30 181q0 129 -78.5 191.5t-218.5 62.5q-187 0 -304.5 -124.5t-117.5 -349.5q0 -135 69.5 -200.5t213.5 -65.5q37 0 90 9.5t80 22.5l-8 -60
q-32 -11 -83.5 -19t-85.5 -8q-161 0 -248.5 78t-87.5 238zM310 161q0 -38 21.5 -53.5t73 -15.5t96.5 38.5t54 102.5l3 18q-121 0 -184.5 -19t-63.5 -71z" />
    <glyph glyph-name="A" unicode="A" horiz-adv-x="650" 
d="M58 0h-94l364 686h108l171 -686h-106l-37 149h-328zM357 568l-173 -330h259l-80 330h-6z" />
    <glyph glyph-name="B" unicode="B" horiz-adv-x="652" 
d="M361 0h-310l97 686h292q74 0 121.5 -39.5t47.5 -112.5t-43 -117t-100 -59l-1 -5q44 -8 79 -40.5t35 -98.5q0 -97 -63.5 -155.5t-154.5 -58.5zM192 305l-30 -216h196q52 0 88 32t36 91q0 40 -26 66.5t-68 26.5h-196zM233 597l-28 -203h186q46 0 81.5 34.5t35.5 80.5
q0 88 -89 88h-186z" />
    <glyph glyph-name="C" unicode="C" horiz-adv-x="662" 
d="M57 232q0 29 18 156q23 154 107 231t218 77q104 0 167.5 -56t63.5 -163q0 -29 -4 -54h-98q3 22 3 43q0 71 -38.5 106t-105.5 35q-86 0 -142.5 -53.5t-73 -167.5t-16.5 -145q0 -162 157 -162q78 0 131 45.5t66 136.5h94q-20 -136 -100 -203.5t-197.5 -67.5t-183.5 61.5
t-66 180.5z" />
    <glyph glyph-name="D" unicode="D" horiz-adv-x="677" 
d="M289 0h-238l97 686h238q110 0 177.5 -62.5t67.5 -181.5q0 -23 -13 -134q-18 -153 -104 -230.5t-225 -77.5zM233 597l-71 -508h140q85 0 143.5 53.5t72.5 162t14 127.5q0 84 -42.5 124.5t-116.5 40.5h-140z" />
    <glyph glyph-name="E" unicode="E" horiz-adv-x="592" 
d="M507 0h-456l97 686h450l-26 -89h-339l-28 -202h307l-13 -89h-307l-30 -217h345v-89z" />
    <glyph glyph-name="F" unicode="F" horiz-adv-x="552" 
d="M149 0h-98l97 686h432l-26 -89h-321l-29 -209h280l-13 -89h-280z" />
    <glyph glyph-name="G" unicode="G" horiz-adv-x="675" 
d="M57 232q0 29 18 156q46 308 325 308q102 0 166.5 -53.5t64.5 -153.5q0 -21 -3 -44h-98q2 22 2 33q0 65 -39 97t-105 32q-86 0 -142.5 -53.5t-73 -167.5t-16.5 -145q0 -162 157 -162q87 0 132.5 43t60.5 139l2 13h-194l12 88h290l-33 -234q-4 -23 -6.5 -55.5t-4 -48
t-1.5 -24.5h-58q-7 18 -8 82q-78 -92 -197 -92t-185 61.5t-66 180.5z" />
    <glyph glyph-name="H" unicode="H" horiz-adv-x="693" 
d="M149 0h-98l97 686h98l-41 -291h313l41 291h98l-97 -686h-98l43 306h-313z" />
    <glyph glyph-name="I" unicode="I" horiz-adv-x="365" 
d="M270 0h-258l13 89h80l71 508h-80l13 89h258l-13 -89h-80l-71 -508h80z" />
    <glyph glyph-name="J" unicode="J" horiz-adv-x="525" 
d="M10 149q0 32 6 59h97q-5 -23 -5 -42q0 -39 26 -63t70.5 -24t78 27.5t40.5 74.5l71 505h98l-70 -499q-14 -98 -73 -147.5t-157 -49.5h-9q-72 0 -122.5 41.5t-50.5 117.5z" />
    <glyph glyph-name="K" unicode="K" horiz-adv-x="621" 
d="M149 0h-98l97 686h98l-50 -357l348 357h113l-295 -303l206 -383h-114l-164 308l-112 -102z" />
    <glyph glyph-name="L" unicode="L" horiz-adv-x="532" 
d="M477 0h-426l97 686h98l-84 -597h315v-89z" />
    <glyph glyph-name="M" unicode="M" horiz-adv-x="938" 
d="M140 0h-89l97 686h154l145 -540h4l298 540h153l-97 -686h-98l81 571h-6l-318 -571h-83l-155 571h-5z" />
    <glyph glyph-name="N" unicode="N" horiz-adv-x="694" 
d="M140 0h-89l97 686h86l262 -496l3 1l70 495h89l-97 -686h-83l-264 502l-3 -1z" />
    <glyph glyph-name="O" unicode="O" horiz-adv-x="690" 
d="M57 235q0 27 18 153q20 151 108 229.5t219 78.5q110 0 177.5 -63t67.5 -183q0 -33 -17 -152q-21 -152 -108 -230t-219 -78q-110 0 -178 63t-68 182zM156 244q0 -84 42 -124.5t122 -40.5t137.5 53.5t74.5 167t17 142.5q0 84 -42.5 124.5t-123 40.5t-138 -53.5t-73.5 -168
t-16 -141.5z" />
    <glyph glyph-name="P" unicode="P" horiz-adv-x="626" 
d="M149 0h-98l97 686h296q78 0 128.5 -46.5t50.5 -122.5q0 -104 -65.5 -167.5t-170.5 -63.5h-198zM233 597l-31 -222h189q52 0 92.5 37.5t40.5 83.5t-28.5 73.5t-73.5 27.5h-189z" />
    <glyph glyph-name="Q" unicode="Q" horiz-adv-x="690" 
d="M57 235q0 27 18 153q20 151 108 229.5t219 78.5q110 0 177.5 -63t67.5 -183q0 -33 -18.5 -160t-89 -204t-179.5 -92q3 -26 25 -45t67 -19t106 24l13 4l-10 -70q-15 -9 -52.5 -21t-95 -12t-104 35t-46.5 102q-95 10 -150.5 72t-55.5 171zM156 244q0 -84 42 -124.5
t122 -40.5t137.5 53.5t74.5 167t17 142.5q0 84 -42.5 124.5t-123 40.5t-138 -53.5t-73.5 -168t-16 -141.5z" />
    <glyph glyph-name="R" unicode="R" horiz-adv-x="670" 
d="M454 85l7 88q0 68 -28.5 98.5t-67.5 30.5h-174l-42 -302h-98l96 686h292q81 0 133.5 -36.5t52.5 -104.5t-40 -124t-108 -67v-5q86 -38 86 -147l-8 -98q0 -58 38 -73l-4 -28q-22 -8 -56.5 -8t-56.5 19t-22 71zM233 597l-29 -206h195q47 0 85.5 35t38.5 79.5t-25.5 68
t-69.5 23.5h-195z" />
    <glyph glyph-name="S" unicode="S" horiz-adv-x="629" 
d="M36 160q0 34 7 55h98q-6 -6 -6 -40q0 -48 38.5 -72t114.5 -24t125.5 31.5t49.5 90.5q0 27 -15.5 47t-41.5 30.5t-59 21t-67 18.5t-67 22.5t-59 33.5q-57 40 -57 131t76 141t186 50t169.5 -39.5t59.5 -120.5q0 -21 -4 -44h-98q4 20 4 28q0 42 -35 64.5t-100.5 22.5
t-111.5 -26t-46 -71.5t38 -69t92 -36.5t107.5 -30t91.5 -57.5t38 -105.5q0 -221 -293 -221q-106 0 -170.5 41t-64.5 129z" />
    <glyph glyph-name="T" unicode="T" horiz-adv-x="575" 
d="M281 597h-214l13 89h527l-13 -89h-215l-84 -597h-98z" />
    <glyph glyph-name="U" unicode="U" horiz-adv-x="682" 
d="M74 180q0 9 68 506h98q-33 -246 -58 -414l-6 -44q-3 -19 -3 -28q0 -54 36.5 -87.5t105 -33.5t116 39t56.5 103l65 465h98l-65 -467q-14 -107 -87 -168t-193 -61h-13q-102 0 -160 51t-58 139z" />
    <glyph glyph-name="V" unicode="V" horiz-adv-x="602" 
d="M205 0l-146 686h104l115 -553h6l272 553h95l-341 -686h-105z" />
    <glyph glyph-name="W" unicode="W" horiz-adv-x="914" 
d="M165 0l-98 686h104l72 -517h6l219 517h95l72 -517h6l219 517h95l-298 -686h-100l-70 496h-7l-215 -496h-100z" />
    <glyph glyph-name="X" unicode="X" horiz-adv-x="628" 
d="M76 0h-108l299 355l-179 330h117l133 -245q46 54 111 131.5t79 93.5l17 20h109l-24 -27q-20 -24 -58 -68q-138 -165 -191 -229l198 -361h-118l-151 276q-12 -14 -105.5 -125.5t-128.5 -150.5z" />
    <glyph glyph-name="Y" unicode="Y" horiz-adv-x="570" 
d="M231 265l-182 421h111l138 -319h4l226 319h101l-300 -421l-38 -265h-98z" />
    <glyph glyph-name="Z" unicode="Z" horiz-adv-x="595" 
d="M514 0h-523l6 38l443 559h-341l13 89h491l-6 -38l-444 -559h374z" />
    <glyph glyph-name="bracketleft" unicode="[" horiz-adv-x="294" 
d="M191 -161h-169l119 847h169l-8 -55h-88l-103 -737h88z" />
    <glyph glyph-name="backslash" unicode="\" horiz-adv-x="593" 
d="M434 -171l-366 857h79l368 -857h-81z" />
    <glyph glyph-name="bracketright" unicode="]" horiz-adv-x="294" 
d="M145 -161h-169l8 55h88l103 737h-88l8 55h169z" />
    <glyph glyph-name="asciicircum" unicode="^" horiz-adv-x="596" 
d="M320 421l-224 -421h-84l268 511h103l126 -511h-84q-18 70 -105 421z" />
    <glyph glyph-name="underscore" unicode="_" horiz-adv-x="687" 
d="M533 -124h-498l8 60h499z" />
    <glyph glyph-name="grave" unicode="`" horiz-adv-x="333" 
d="M171 575l-95 142l2 3h89l74 -145h-70z" />
    <glyph glyph-name="a" unicode="a" horiz-adv-x="607" 
d="M42 190q0 155 69.5 243t172 88t143.5 -75h7l31 65h65q-16 -99 -37 -258t-21 -161q0 -27 24.5 -27t46.5 14l-9 -69q-32 -20 -77 -20q-76 0 -76 75q-69 -75 -165 -75q-79 0 -126.5 50.5t-47.5 149.5zM163 94.5q28 -29.5 81 -29.5q80 0 121 71t41 182q0 128 -109 128
q-46 0 -80 -24.5t-51 -64.5q-31 -76 -31 -154.5t28 -108z" />
    <glyph glyph-name="b" unicode="b" horiz-adv-x="582" 
d="M78 0h-36l101 720h94l-39 -274q64 75 165 75q75 0 121.5 -51t46.5 -145q0 -118 -55 -219q-28 -52 -78.5 -84t-116.5 -32q-114 0 -159 91zM179 313q-14 -54 -14 -121.5t28 -97t81 -29.5q76 0 119 65t43 190.5t-109 125.5q-58 0 -96 -39.5t-52 -93.5z" />
    <glyph glyph-name="c" unicode="c" horiz-adv-x="546" 
d="M42 191q0 142 68 236t199 94h8q84 0 134.5 -47t50.5 -128q0 -16 -3 -36h-93q2 18 2 27q0 49 -27 79t-77 30t-84.5 -23.5t-51.5 -62.5q-33 -72 -33 -168q0 -127 117 -127q61 0 97 36.5t45 98.5h90q-14 -101 -77 -155.5t-164 -54.5h-8q-88 0 -140.5 53t-52.5 148z" />
    <glyph glyph-name="d" unicode="d" horiz-adv-x="612" 
d="M42 190q0 155 69.5 243t172 88t143.5 -75l39 274h94q-10 -67 -25 -176.5t-21.5 -155.5t-17.5 -126q-24 -163 -24 -170q0 -27 24.5 -27t46.5 14l-9 -69q-32 -20 -77 -20q-76 0 -76 75q-69 -75 -165 -75q-79 0 -126.5 50.5t-47.5 149.5zM163 94.5q28 -29.5 81 -29.5
q80 0 121 71t41 182q0 128 -109 128q-46 0 -80 -24.5t-51 -64.5q-31 -76 -31 -154.5t28 -108z" />
    <glyph glyph-name="e" unicode="e" horiz-adv-x="556" 
d="M95.5 43q-54.5 53 -54.5 146t29 166t92 119.5t152 46.5h7q85 0 135.5 -47t50.5 -130v-11q0 -21 -13 -99h-357q-2 -22 -2 -32q0 -137 121 -137q39 0 68.5 14t43.5 37q25 39 31 74h89q-13 -94 -76.5 -147t-165.5 -53h-4q-92 0 -146.5 53zM150 307h262q3 20 3 36
q0 50 -30 76.5t-83.5 26.5t-94 -35t-57.5 -104z" />
    <glyph glyph-name="f" unicode="f" horiz-adv-x="340" 
d="M-80 -165l8 69q30 -14 51.5 -14t30 2t18.5 8q20 12 26 54l71 482h-59l10 75h58l13 91q18 126 143 126q52 0 84 -19l-9 -69q-30 14 -53.5 14t-35 -3.5t-22.5 -18.5t-15 -42l-12 -79h120l-9 -75h-120l-71 -494q-9 -64 -47 -95t-94 -31t-86 19z" />
    <glyph glyph-name="g" unicode="g" horiz-adv-x="583" 
d="M21 -19h93q0 -42 29 -67t84.5 -25t93.5 35.5t47 90.5l11 80q-61 -75 -164 -75q-76 0 -123.5 49t-47.5 135.5t26 156t84 115t138 45.5q116 0 159 -91l45 81h36l-67 -477q-13 -99 -75 -159.5t-177 -60.5q-94 0 -143 47t-49 120zM185.5 393q-45.5 -53 -45.5 -175.5
t110 -122.5q55 0 92 37q67 64 67 194q0 65 -28 92.5t-81 27.5q-69 0 -114.5 -53z" />
    <glyph glyph-name="h" unicode="h" horiz-adv-x="593" 
d="M136 0h-94l101 720h94l-38 -273q73 74 168 74q72 0 115 -35t43 -106q0 -21 -26 -203l-25 -177h-94l24 167q24 185 24 189q0 90 -93 90q-54 0 -101 -41.5t-55 -100.5z" />
    <glyph glyph-name="i" unicode="i" horiz-adv-x="260" 
d="M136 0h-94l72 511h94zM227 633h-98l12 87h98z" />
    <glyph glyph-name="j" unicode="j" horiz-adv-x="260" 
d="M-96 -167l9 70q32 -15 58 -15q56 0 65 68l78 555h94l-74 -526q-13 -91 -46.5 -131t-93.5 -40t-90 19zM227 633h-98l12 87h98z" />
    <glyph glyph-name="k" unicode="k" horiz-adv-x="534" 
d="M136 0h-94l101 720h94l-69 -494l268 285h103l-232 -248l173 -263h-114l-126 190l-89 -80z" />
    <glyph glyph-name="l" unicode="l" horiz-adv-x="268" 
d="M140 0h-94l101 720h94z" />
    <glyph glyph-name="m" unicode="m" horiz-adv-x="867" 
d="M136 0h-94l72 511h70v-75q72 85 167 85q107 0 134 -85q73 85 172 85q65 0 103.5 -34t38.5 -103q0 -25 -26 -207l-25 -177h-94l24 170q4 33 10 82q14 102 14 109q0 48 -19 66.5t-63 18.5t-85.5 -41.5t-49.5 -100.5l-43 -304h-94l24 171q4 35 11 83q14 94 14 107
q0 85 -78 85q-49 0 -90.5 -41.5t-49.5 -100.5z" />
    <glyph glyph-name="n" unicode="n" horiz-adv-x="593" 
d="M136 0h-94l72 511h70v-75q78 85 183 85q72 0 115 -35t43 -106q0 -22 -26 -202l-25 -178h-94l24 167q24 188 24 189q0 90 -93 90q-54 0 -101 -41.5t-55 -100.5z" />
    <glyph glyph-name="o" unicode="o" horiz-adv-x="576" 
d="M41 187q0 133 60 228q31 49 87 77.5t139.5 28.5t140 -50.5t56.5 -146.5q0 -133 -60 -228q-31 -49 -87 -77.5t-139.5 -28.5t-140 50.5t-56.5 146.5zM169 98.5q33 -33.5 83.5 -33.5t85.5 22.5t54 59.5q36 73 36 152.5t-32.5 113t-84 33.5t-86.5 -22.5t-53 -60.5
q-36 -73 -36 -152t33 -112.5z" />
    <glyph glyph-name="p" unicode="p" horiz-adv-x="583" 
d="M111 -181h-94l97 692h74v-70q67 80 169 80q78 0 126 -50.5t48 -150.5q0 -117 -53 -216q-27 -51 -76 -82.5t-113 -31.5q-102 0 -143 75zM167 193q0 -69 28 -98.5t78 -29.5t84 23.5t51 63.5q30 73 30 165q0 129 -109 129q-70 0 -116 -59t-46 -194z" />
    <glyph glyph-name="q" unicode="q" horiz-adv-x="582" 
d="M40 185q0 119 55 221q28 52 78.5 83.5t117.5 31.5q113 0 159 -91l44 81h36l-97 -691h-94l35 245q-64 -75 -165 -75q-75 0 -122 51t-47 144zM136 193q0 -69 28 -98.5t77.5 -29.5t83 23.5t50.5 63.5q32 74 32 165q0 129 -109 129q-74 0 -118 -64.5t-44 -188.5z" />
    <glyph glyph-name="r" unicode="r" horiz-adv-x="489" 
d="M136 0h-94l72 511h70v-76q28 55 102 77q29 9 62 9q61 0 94.5 -36.5t33.5 -95.5q0 -15 -4 -38.5t-7 -27.5h-83q4 27 4 35q0 33 -21.5 60.5t-69 27.5t-78.5 -42.5t-38 -98.5z" />
    <glyph glyph-name="s" unicode="s" horiz-adv-x="536" 
d="M391 372l1 11q0 63 -104 63q-68 0 -95 -23.5t-27 -51.5t31 -43t75.5 -23t89 -19t75.5 -40.5t31 -77.5q0 -94 -66.5 -136t-175.5 -42h-15q-93 0 -140.5 37.5t-47.5 93.5q0 13 2.5 25.5t2.5 13.5h93l-2 -14v-9q0 -36 33 -54t88.5 -18t93 21.5t37.5 56.5t-31 52t-75.5 25
t-89 18.5t-75.5 39.5t-31 77q0 78 61 122t172 44h9q81 0 128.5 -35t47.5 -88q0 -22 -4 -34h-93q0 5 1 8z" />
    <glyph glyph-name="t" unicode="t" horiz-adv-x="344" 
d="M87 221l31 215h-56l11 75h55l22 163h103l-30 -163h119l-11 -75h-119q-5 -33 -13 -88t-10 -65l-8 -58q-14 -98 -14 -113q0 -49 50 -49q28 0 64 15l-10 -70q-38 -18 -91.5 -18t-80 24.5t-26.5 78.5q0 25 14 128z" />
    <glyph glyph-name="u" unicode="u" horiz-adv-x="617" 
d="M58 131q0 31 51 380h94l-24 -165q-24 -157 -24 -191q0 -90 93 -90q53 0 99.5 41.5t56.5 100.5l43 304h94l-30 -207q-29 -188 -29 -213.5t24.5 -25.5t46.5 14l-9 -69q-32 -20 -77 -20q-76 0 -76 74v10q-31 -35 -77 -59.5t-108 -24.5t-105 35t-43 106z" />
    <glyph glyph-name="v" unicode="v" horiz-adv-x="512" 
d="M165 0l-122 511h99l91 -391h4l201 391h92l-265 -511h-100z" />
    <glyph glyph-name="w" unicode="w" horiz-adv-x="809" 
d="M146 0l-96 511h96l67 -374h4l173 374h92l67 -374h4l173 374h92l-238 -511h-98l-68 357h-4l-166 -357h-98z" />
    <glyph glyph-name="x" unicode="x" horiz-adv-x="517" 
d="M79 0h-102l223 259l-142 252h111l99 -174l150 174h103l-213 -246l151 -265h-112l-107 187z" />
    <glyph glyph-name="y" unicode="y" horiz-adv-x="510" 
d="M-19 -172l10 77q26 -14 58 -14q69 0 120 114l-127 506h99l94 -377h4l198 377h92l-260 -491q-52 -98 -102.5 -152t-114.5 -54q-41 0 -71 14z" />
    <glyph glyph-name="z" unicode="z" horiz-adv-x="463" 
d="M383 0h-387l5 38l305 398h-234l10 75h364l-5 -37l-306 -399h258z" />
    <glyph glyph-name="braceleft" unicode="{" horiz-adv-x="314" 
d="M30 224l11 79q32 0 57 13.5t28 43.5l26 186q11 82 57.5 111t120.5 29l-7 -50q-79 0 -89 -71q-5 -39 -34 -194q-9 -51 -33.5 -77t-70.5 -26l-1 -9q40 0 57.5 -19.5t17.5 -54.5t-11 -130l-7 -60q-4 -25 -4 -51.5t20.5 -39.5t49.5 -13l-7 -50q-66 0 -103.5 22.5t-37.5 84.5
q0 34 14.5 120t14.5 109t-20.5 35t-48.5 12z" />
    <glyph glyph-name="bar" unicode="|" horiz-adv-x="290" 
d="M182 -199h-80v920h80v-920z" />
    <glyph glyph-name="braceright" unicode="}" horiz-adv-x="314" 
d="M-23 -159l7 50q76 0 88 71q15 89 34 194q9 51 33.5 77t70.5 26l1 9q-76 0 -76 77q0 24 11.5 127t11.5 107q0 57 -69 57l7 50q65 0 102 -22.5t37 -84.5q0 -21 -29 -227q0 -25 20.5 -37t49.5 -12l-11 -79q-31 0 -56.5 -14t-28.5 -43l-26 -186q-11 -82 -57.5 -111
t-119.5 -29z" />
    <glyph glyph-name="asciitilde" unicode="~" horiz-adv-x="691" 
d="M53 211l12 85q23 21 51 39q66 39 116 39t121 -33t123.5 -33t114.5 39q29 17 51 39l-12 -85q-22 -23 -51 -39q-62 -39 -114 -39t-123 33t-121.5 33t-116.5 -39q-28 -18 -51 -39z" />
    <glyph glyph-name="uni00A0" unicode="&#xa0;" horiz-adv-x="244" 
 />
    <glyph glyph-name="exclamdown" unicode="&#xa1;" horiz-adv-x="254" 
d="M166 335q-11 -127 -48 -511h-115l97 511h66zM192 399h-101l16 111h101z" />
    <glyph glyph-name="cent" unicode="&#xa2;" horiz-adv-x="527" 
d="M95.5 138q-45.5 52 -45.5 140.5t25 158.5t82 117.5t139 53.5v85h75l-21 -85q75 -8 117.5 -54t42.5 -120q0 -16 -3 -36h-93q2 18 2 27q0 49 -27 79t-77 30t-84.5 -23.5t-51.5 -62.5q-33 -72 -33 -168q0 -127 117 -127q61 0 97 36.5t45 98.5h90q-14 -96 -71.5 -150
t-148.5 -60v-85h-73l19 86q-77 7 -122.5 59z" />
    <glyph glyph-name="sterling" unicode="&#xa3;" horiz-adv-x="597" 
d="M499 0h-473l11 89h90l29 204h-126l12 89h126l17 117q14 98 73.5 147.5t156.5 49.5h9q79 0 126.5 -41.5t47.5 -118.5q0 -17 -5 -46h-98q4 20 4 30q0 39 -26 63t-72.5 24t-78 -27t-38.5 -75l-18 -123h187l-12 -89h-187l-46 -204h303z" />
    <glyph glyph-name="currency" unicode="&#xa4;" horiz-adv-x="624" 
d="M81 85l-41 48l60 53q-32 50 -32 118t37 132q17 30 37 51l-44 52l55 48l43 -52q76 50 158.5 50t142.5 -52l62 54l41 -48l-62 -54q31 -52 31 -116q0 -96 -74 -182l47 -54l-55 -48l-47 54q-76 -50 -158 -50t-140 49zM138 311q0 -65 44 -109t118 -44t137 61.5t63 135
t-44 117.5t-116.5 44t-137 -60t-64.5 -145z" />
    <glyph glyph-name="yen" unicode="&#xa5;" horiz-adv-x="635" 
d="M259 239h-209l9 64h187l-32 73h-145l9 64h108l-105 246h111l138 -319h4l226 319h101l-176 -246h111l-9 -64h-148l-51 -73h189l-9 -64h-211l-34 -239h-98z" />
    <glyph glyph-name="brokenbar" unicode="&#xa6;" horiz-adv-x="269" 
d="M138 0h-89l38 266h89zM197 419h-89l38 267h89z" />
    <glyph glyph-name="section" unicode="&#xa7;" horiz-adv-x="516" 
d="M3 -62q0 21 5 33h93q-3 -12 -3 -19q0 -63 104 -63q72 0 97 24.5t25 56t-30 57.5t-72.5 46t-85.5 41.5t-73 57t-30 90.5t35 96t74 54q-57 44 -57 107q0 90 62.5 133.5t169.5 43.5h9q81 0 129 -35.5t48 -88.5q0 -21 -5 -33h-93q3 13 3 19q0 63 -104 63q-98 0 -118 -56
q-4 -11 -4 -23q0 -58 102 -106q43 -20 85.5 -41.5t72.5 -56t30 -86t-34 -95t-75 -59.5q57 -44 57 -110q0 -83 -57.5 -128.5t-173.5 -45.5h-9q-81 0 -129 35.5t-48 88.5zM131 274q0 -42 39 -70q32 -23 76 -43t57 -27q72 40 72 100q0 58 -91 102q-15 7 -42 19.5t-40 19.5
q-71 -39 -71 -101z" />
    <glyph glyph-name="dieresis" unicode="&#xa8;" horiz-adv-x="440" 
d="M163 633h-90l13 98h90zM352 633h-91l13 98h91z" />
    <glyph glyph-name="copyright" unicode="&#xa9;" horiz-adv-x="785" 
d="M149 93q-103 103 -103 250t103 250t250 103t251 -103t104 -249.5t-103.5 -250t-251 -103.5t-250.5 103zM176 566q-90 -89 -90 -223t89.5 -223.5t223.5 -89.5t224 89.5t90 223t-90.5 223t-223.5 89.5t-223 -89zM231 300v86q0 82 48 126t121 44h5q73 0 118 -42.5t45 -125.5
h-67v13q0 47 -28.5 72.5t-71.5 25.5t-73 -25t-30 -73v-115q0 -49 31 -74t75.5 -25t71.5 28.5t27 80.5h65q0 -81 -45 -124t-117 -43h-5q-74 0 -122 44t-48 127z" />
    <glyph glyph-name="ordfeminine" unicode="&#xaa;" horiz-adv-x="419" 
d="M83 494q0 95 42.5 148.5t104 53.5t87.5 -46h5l19 40h39q-35 -238 -35 -255t13.5 -17t29.5 9l-5 -42q-19 -12 -47 -12q-47 0 -47 45q-43 -45 -95.5 -45t-81.5 30.5t-29 90.5zM140 496q0 -78 66 -78q49 0 74 43t25 111q0 78 -67 78q-37 0 -60.5 -27t-30.5 -59t-7 -68z" />
    <glyph glyph-name="guillemotleft" unicode="&#xab;" horiz-adv-x="458" 
d="M151 163l-96 174l145 174h51l-117 -174l68 -174h-51zM334 163l-97 174l146 174h50l-116 -174l67 -174h-50z" />
    <glyph glyph-name="logicalnot" unicode="&#xac;" 
d="M479 360h-435l13 93h519l-39 -279h-84z" />
    <glyph glyph-name="uni00AD" unicode="&#xad;" horiz-adv-x="390" 
d="M311 221h-251l12 98h252z" />
    <glyph glyph-name="registered" unicode="&#xae;" horiz-adv-x="785" 
d="M149 93q-103 103 -103 250t103 250t250 103t251 -103t104 -249.5t-103.5 -250t-251 -103.5t-250.5 103zM176 567q-90 -89 -90 -223.5t89.5 -224t223.5 -89.5t224.5 89.5t90.5 224t-90.5 223.5t-224 89t-223.5 -89zM320 135h-64v412h187q46 0 80 -29.5t34 -68.5
t-19.5 -65.5t-47.5 -36.5q24 -10 42 -39.5t18 -80.5q0 -22 1 -33q3 -29 30 -38v-18q-14 -6 -35 -6q-60 0 -60 80q0 55 -20.5 81t-46.5 26h-99v-184zM320 492v-119h111q26 0 44.5 17t18.5 41v4q0 24 -18.5 40.5t-44.5 16.5h-111z" />
    <glyph glyph-name="overscore" unicode="&#xaf;" horiz-adv-x="460" 
d="M382 662h-318l11 74h318z" />
    <glyph glyph-name="degree" unicode="&#xb0;" horiz-adv-x="404" 
d="M121 434.5q-38 38.5 -38 106.5t48.5 111.5t115.5 43.5t105.5 -39t38.5 -106.5t-49 -111t-116 -43.5t-105 38.5zM176 613q-26 -27 -26 -70t22.5 -67.5t61 -24.5t64.5 27.5t26 67.5t-19 67t-61 27t-68 -27z" />
    <glyph glyph-name="plusminus" unicode="&#xb1;" 
d="M519 0h-503l11 83h503zM265 280h-214l12 84h214l20 147h83l-20 -147h215l-12 -84h-215l-21 -146h-83z" />
    <glyph glyph-name="uni00B2" unicode="&#xb2;" horiz-adv-x="381" 
d="M335 418h-259l2 13q9 59 64 97l121 83q55 37 55 85q0 21 -15 38t-51 17t-61.5 -24.5t-25.5 -62.5h-54q0 54 40.5 95t102.5 41t90 -29t28 -67q0 -76 -85 -133l-115 -79l-13 -10q-14 -10 -14 -15h196z" />
    <glyph glyph-name="uni00B3" unicode="&#xb3;" horiz-adv-x="361" 
d="M72 505q0 2 2 24h54q-2 -10 -2 -11v-6q0 -51 70 -51q42 0 67.5 19t25.5 54q0 51 -77 51h-41l7 49h42q35 0 59.5 18t24.5 51q0 48 -66 48q-31 0 -52.5 -16t-26.5 -47h-54q6 53 45 82.5t95 29.5h5q49 0 79 -23.5t30 -64.5q0 -66 -73 -98v-4q56 -18 56 -73.5t-42 -90
t-105 -34.5h-6q-57 0 -87 25t-30 68z" />
    <glyph glyph-name="acute" unicode="&#xb4;" horiz-adv-x="333" 
d="M125 575h-69l115 145h90v-4z" />
    <glyph glyph-name="uni00B5" unicode="&#xb5;" horiz-adv-x="613" 
d="M112 -161h-94l95 672h94l-24 -165q-24 -157 -24 -191q0 -90 93 -90q53 0 99.5 41.5t56.5 100.5l43 304h94l-30 -207q-29 -188 -29 -213.5t24.5 -25.5t46.5 14l-9 -69q-32 -20 -77 -20q-76 0 -76 74v10q-31 -35 -77 -59.5t-98.5 -24.5t-89.5 19v-41z" />
    <glyph glyph-name="paragraph" unicode="&#xb6;" horiz-adv-x="524" 
d="M48 435q0 103 72 177t179 74h238l-9 -61h-66l-112 -794h-63l112 794h-72l-112 -794h-63l59 419q-72 8 -117.5 60t-45.5 125z" />
    <glyph glyph-name="middot" unicode="&#xb7;" horiz-adv-x="238" 
d="M161 232h-101l15 112h101z" />
    <glyph glyph-name="cedilla" unicode="&#xb8;" horiz-adv-x="350" 
d="M59 -175l16 49q36 -20 71 -20q71 0 71 51q0 35 -46 35h-21l6 43h24q100 0 100 -73q0 -40 -24 -66q-39 -41 -99.5 -41t-97.5 22z" />
    <glyph glyph-name="uni00B9" unicode="&#xb9;" horiz-adv-x="332" 
d="M302 422h-234l7 49h99l36 253h-99l5 35q57 5 137 37h21l-46 -325h81z" />
    <glyph glyph-name="ordmasculine" unicode="&#xba;" horiz-adv-x="392" 
d="M116 403q-34 30 -34 87t15 100.5t54.5 74.5t98 31t92.5 -30t34 -87t-15 -100.5t-54.5 -74.5t-98 -31t-92.5 30zM140 501q0 -82 73 -82q38 0 63 24q41 41 41 124t-72 83q-98 0 -105 -149z" />
    <glyph glyph-name="guillemotright" unicode="&#xbb;" horiz-adv-x="460" 
d="M88 163h-51l120 174l-71 174h51l100 -174zM270 163h-50l119 174l-70 174h50l99 -174z" />
    <glyph glyph-name="onequarter" unicode="&#xbc;" horiz-adv-x="701" 
d="M272 310h-234l7 49h99l35 253h-99l6 35q54 4 136 37h21l-45 -325h81zM156 0h-55l517 686h52zM546 91h-173l7 50q91 113 148 233h55q-27 -65 -75 -134.5t-78 -99.5h123l15 105q23 36 39 74h25l-25 -179h46l-7 -49h-46l-13 -91h-54z" />
    <glyph glyph-name="onehalf" unicode="&#xbd;" horiz-adv-x="727" 
d="M270 310h-234l7 49h99l35 253h-99l6 35q54 4 136 37h21l-45 -325h81zM137 0h-55l517 686h52zM656 0h-259l2 13q9 59 64 97l121 83q55 37 55 85q0 21 -15 38t-51 17t-61.5 -24.5t-25.5 -62.5h-54q0 54 40.5 95t102.5 41t90 -29t28 -67q0 -76 -85 -133l-115 -79l-13 -10
q-14 -10 -14 -15h196z" />
    <glyph glyph-name="threequarters" unicode="&#xbe;" horiz-adv-x="698" 
d="M46 391q0 2 2 24h54q-2 -10 -2 -11v-6q0 -51 70 -51q42 0 67.5 19t25.5 54q0 51 -77 51h-41l7 49h42q35 0 59.5 18t24.5 51q0 48 -66 48q-31 0 -52.5 -16t-26.5 -47h-54q6 53 45 82.5t95 29.5h5q49 0 79 -23.5t30 -64.5q0 -66 -73 -98v-4q56 -18 56 -73.5t-42 -90
t-105 -34.5h-6q-57 0 -87 25t-30 68zM157 0h-55l517 686h52zM542 91h-173l7 50q91 113 148 233h55q-27 -65 -75 -134.5t-78 -99.5h123l15 105q23 36 39 74h25l-25 -179h46l-7 -49h-46l-13 -91h-54z" />
    <glyph glyph-name="questiondown" unicode="&#xbf;" horiz-adv-x="494" 
d="M1 -68q-8 27 -8 65.5t19 78t46.5 64.5t55.5 46q69 52 74 91l6 49h100l-9 -64q-7 -57 -75 -106l-54 -40q-63 -48 -63 -115q0 -39 24.5 -68t70 -29t73 12.5t41.5 31.5q34 46 34 105h98q0 -100 -66.5 -169t-183.5 -69h-6q-54 0 -92.5 17t-57.5 45t-27 55zM307 400h-104
l15 111h104z" />
    <glyph glyph-name="Agrave" unicode="&#xc0;" horiz-adv-x="650" 
d="M58 0h-94l364 686h108l171 -686h-106l-37 149h-328zM357 568l-173 -330h259l-80 330h-6zM351 750l-95 142l2 3h89l74 -145h-70z" />
    <glyph glyph-name="Aacute" unicode="&#xc1;" horiz-adv-x="650" 
d="M58 0h-94l364 686h108l171 -686h-106l-37 149h-328zM357 568l-173 -330h259l-80 330h-6zM419 750h-69l115 145h90v-4z" />
    <glyph glyph-name="Acircumflex" unicode="&#xc2;" horiz-adv-x="650" 
d="M58 0h-94l364 686h108l171 -686h-106l-37 149h-328zM357 568l-173 -330h259l-80 330h-6zM283 750h-80l157 145h78l114 -145h-80l-81 89z" />
    <glyph glyph-name="Atilde" unicode="&#xc3;" horiz-adv-x="650" 
d="M58 0h-94l364 686h108l171 -686h-106l-37 149h-328zM357 568l-173 -330h259l-80 330h-6zM235 750h-48q7 40 40 72t86 32q33 0 85.5 -17.5t77.5 -17.5q45 0 60 35h50q-7 -41 -40 -72.5t-87 -31.5q-33 0 -85.5 17t-78.5 17q-45 0 -60 -34z" />
    <glyph glyph-name="Adieresis" unicode="&#xc4;" horiz-adv-x="650" 
d="M58 0h-94l364 686h108l171 -686h-106l-37 149h-328zM357 568l-173 -330h259l-80 330h-6zM336 750h-90l13 98h90zM525 750h-91l13 98h91z" />
    <glyph glyph-name="Aring" unicode="&#xc5;" horiz-adv-x="650" 
d="M58 0h-94l364 686h108l171 -686h-106l-37 149h-328zM357 568l-173 -330h259l-80 330h-6zM318 746q-27 26 -27 70t33 75t75.5 31t69.5 -26.5t27 -69t-33 -74.5t-75.5 -32t-69.5 26zM354 862.5q-18 -18.5 -18 -44t15 -41.5t39 -16t42.5 19t18.5 44t-15 41t-39.5 16
t-42.5 -18.5z" />
    <glyph glyph-name="AE" unicode="&#xc6;" horiz-adv-x="981" 
d="M59 0h-92l459 686h561l-26 -89h-418l22 -202h336l-13 -89h-314l24 -217h298v-89h-394l-16 149h-328zM438 568l-219 -330h259l-34 330h-6z" />
    <glyph glyph-name="Ccedilla" unicode="&#xc7;" horiz-adv-x="662" 
d="M57 232q0 29 18 156q23 154 107 231t218 77q104 0 167.5 -56t63.5 -163q0 -29 -4 -54h-98q3 22 3 43q0 71 -38.5 106t-105.5 35q-86 0 -142.5 -53.5t-73 -167.5t-16.5 -145q0 -162 157 -162q78 0 131 45.5t66 136.5h94q-20 -136 -100 -203.5t-197.5 -67.5t-183.5 61.5
t-66 180.5zM162 -175l16 49q36 -20 70 -20q72 0 72 51q0 35 -46 35h-21l6 43h24q100 0 100 -73q0 -40 -24 -66q-39 -41 -99.5 -41t-97.5 22z" />
    <glyph glyph-name="Egrave" unicode="&#xc8;" horiz-adv-x="592" 
d="M507 0h-456l97 686h450l-26 -89h-339l-28 -202h307l-13 -89h-307l-30 -217h345v-89zM351 750l-95 142l2 3h89l74 -145h-70z" />
    <glyph glyph-name="Eacute" unicode="&#xc9;" horiz-adv-x="592" 
d="M507 0h-456l97 686h450l-26 -89h-339l-28 -202h307l-13 -89h-307l-30 -217h345v-89zM402 750h-69l115 145h90v-4z" />
    <glyph glyph-name="Ecircumflex" unicode="&#xca;" horiz-adv-x="592" 
d="M507 0h-456l97 686h450l-26 -89h-339l-28 -202h307l-13 -89h-307l-30 -217h345v-89zM285 750h-80l157 145h78l114 -145h-80l-81 89z" />
    <glyph glyph-name="Edieresis" unicode="&#xcb;" horiz-adv-x="592" 
d="M507 0h-456l97 686h450l-26 -89h-339l-28 -202h307l-13 -89h-307l-30 -217h345v-89zM327 750h-90l13 98h90zM516 750h-91l13 98h91z" />
    <glyph glyph-name="Igrave" unicode="&#xcc;" horiz-adv-x="365" 
d="M270 0h-258l13 89h80l71 508h-80l13 89h258l-13 -89h-80l-71 -508h80zM203 750l-95 142l2 3h89l74 -145h-70z" />
    <glyph glyph-name="Iacute" unicode="&#xcd;" horiz-adv-x="365" 
d="M270 0h-258l13 89h80l71 508h-80l13 89h258l-13 -89h-80l-71 -508h80zM271 750h-69l115 145h90v-4z" />
    <glyph glyph-name="Icircumflex" unicode="&#xce;" horiz-adv-x="365" 
d="M270 0h-258l13 89h80l71 508h-80l13 89h258l-13 -89h-80l-71 -508h80zM151 750h-80l157 145h78l114 -145h-80l-81 89z" />
    <glyph glyph-name="Idieresis" unicode="&#xcf;" horiz-adv-x="365" 
d="M270 0h-258l13 89h80l71 508h-80l13 89h258l-13 -89h-80l-71 -508h80zM197 750h-90l13 98h90zM386 750h-91l13 98h91z" />
    <glyph glyph-name="Eth" unicode="&#xd0;" horiz-adv-x="682" 
d="M100 310h-90l8 65h91l44 311h238q110 0 177.5 -62.5t67.5 -181.5q0 -23 -13 -134q-18 -153 -104 -230.5t-225 -77.5h-238zM198 310l-31 -221h140q85 0 143.5 53.5t72.5 162t14 127.5q0 84 -42.5 124.5t-116.5 40.5h-140l-31 -222h145l-9 -65h-145z" />
    <glyph glyph-name="Ntilde" unicode="&#xd1;" horiz-adv-x="694" 
d="M140 0h-89l97 686h86l262 -496l3 1l70 495h89l-97 -686h-83l-264 502l-3 -1zM270 750h-48q7 40 40 72t86 32q33 0 85.5 -17.5t77.5 -17.5q45 0 60 35h50q-7 -41 -40 -72.5t-87 -31.5q-33 0 -85.5 17t-78.5 17q-45 0 -60 -34z" />
    <glyph glyph-name="Ograve" unicode="&#xd2;" horiz-adv-x="690" 
d="M57 235q0 27 18 153q20 151 108 229.5t219 78.5q110 0 177.5 -63t67.5 -183q0 -33 -17 -152q-21 -152 -108 -230t-219 -78q-110 0 -178 63t-68 182zM156 244q0 -84 42 -124.5t122 -40.5t137.5 53.5t74.5 167t17 142.5q0 84 -42.5 124.5t-123 40.5t-138 -53.5t-73.5 -168
t-16 -141.5zM366 750l-95 142l2 3h89l74 -145h-70z" />
    <glyph glyph-name="Oacute" unicode="&#xd3;" horiz-adv-x="690" 
d="M57 235q0 27 18 153q20 151 108 229.5t219 78.5q110 0 177.5 -63t67.5 -183q0 -33 -17 -152q-21 -152 -108 -230t-219 -78q-110 0 -178 63t-68 182zM156 244q0 -84 42 -124.5t122 -40.5t137.5 53.5t74.5 167t17 142.5q0 84 -42.5 124.5t-123 40.5t-138 -53.5t-73.5 -168
t-16 -141.5zM442 750h-69l115 145h90v-4z" />
    <glyph glyph-name="Ocircumflex" unicode="&#xd4;" horiz-adv-x="690" 
d="M57 235q0 27 18 153q20 151 108 229.5t219 78.5q110 0 177.5 -63t67.5 -183q0 -33 -17 -152q-21 -152 -108 -230t-219 -78q-110 0 -178 63t-68 182zM156 244q0 -84 42 -124.5t122 -40.5t137.5 53.5t74.5 167t17 142.5q0 84 -42.5 124.5t-123 40.5t-138 -53.5t-73.5 -168
t-16 -141.5zM329 750h-80l157 145h78l114 -145h-80l-81 89z" />
    <glyph glyph-name="Otilde" unicode="&#xd5;" horiz-adv-x="690" 
d="M57 235q0 27 18 153q20 151 108 229.5t219 78.5q110 0 177.5 -63t67.5 -183q0 -33 -17 -152q-21 -152 -108 -230t-219 -78q-110 0 -178 63t-68 182zM156 244q0 -84 42 -124.5t122 -40.5t137.5 53.5t74.5 167t17 142.5q0 84 -42.5 124.5t-123 40.5t-138 -53.5t-73.5 -168
t-16 -141.5zM276 750h-48q7 40 40 72t86 32q33 0 85.5 -17.5t77.5 -17.5q45 0 60 35h50q-7 -41 -40 -72.5t-87 -31.5q-33 0 -85.5 17t-78.5 17q-45 0 -60 -34z" />
    <glyph glyph-name="Odieresis" unicode="&#xd6;" horiz-adv-x="690" 
d="M57 235q0 27 18 153q20 151 108 229.5t219 78.5q110 0 177.5 -63t67.5 -183q0 -33 -17 -152q-21 -152 -108 -230t-219 -78q-110 0 -178 63t-68 182zM156 244q0 -84 42 -124.5t122 -40.5t137.5 53.5t74.5 167t17 142.5q0 84 -42.5 124.5t-123 40.5t-138 -53.5t-73.5 -168
t-16 -141.5zM365 750h-90l13 98h90zM554 750h-91l13 98h91z" />
    <glyph glyph-name="multiply" unicode="&#xd7;" 
d="M426 45q-65 72 -132 150l-175 -150q-3 4 -47 59l174 151l-131 152q12 11 63 59l133 -152l174 152q44 -55 47 -59l-175 -152l132 -151q-12 -10 -63 -59z" />
    <glyph glyph-name="Oslash" unicode="&#xd8;" horiz-adv-x="690" 
d="M84 -65h-64l95 128q-58 64 -58 172q0 27 18 153q20 151 108 229.5t219 78.5q88 0 150 -41l73 99h64l-99 -133q57 -65 57 -171q0 -33 -17 -152q-21 -152 -108 -230t-219 -78q-88 0 -149 40zM156 244q0 -60 21 -97l317 430q-41 30 -104 30q-87 0 -144.5 -53.5t-73.5 -168
t-16 -141.5zM528 537l-317 -430q40 -28 104 -28q85 0 142.5 53.5t74.5 167t17 155.5t-21 82z" />
    <glyph glyph-name="Ugrave" unicode="&#xd9;" horiz-adv-x="682" 
d="M74 180q0 9 68 506h98q-33 -246 -58 -414l-6 -44q-3 -19 -3 -28q0 -54 36.5 -87.5t105 -33.5t116 39t56.5 103l65 465h98l-65 -467q-14 -107 -87 -168t-193 -61h-13q-102 0 -160 51t-58 139zM372 750l-95 142l2 3h89l74 -145h-70z" />
    <glyph glyph-name="Uacute" unicode="&#xda;" horiz-adv-x="682" 
d="M74 180q0 9 68 506h98q-33 -246 -58 -414l-6 -44q-3 -19 -3 -28q0 -54 36.5 -87.5t105 -33.5t116 39t56.5 103l65 465h98l-65 -467q-14 -107 -87 -168t-193 -61h-13q-102 0 -160 51t-58 139zM436 750h-69l115 145h90v-4z" />
    <glyph glyph-name="Ucircumflex" unicode="&#xdb;" horiz-adv-x="682" 
d="M74 180q0 9 68 506h98q-33 -246 -58 -414l-6 -44q-3 -19 -3 -28q0 -54 36.5 -87.5t105 -33.5t116 39t56.5 103l65 465h98l-65 -467q-14 -107 -87 -168t-193 -61h-13q-102 0 -160 51t-58 139zM303 750h-80l157 145h78l114 -145h-80l-81 89z" />
    <glyph glyph-name="Udieresis" unicode="&#xdc;" horiz-adv-x="682" 
d="M74 180q0 9 68 506h98q-33 -246 -58 -414l-6 -44q-3 -19 -3 -28q0 -54 36.5 -87.5t105 -33.5t116 39t56.5 103l65 465h98l-65 -467q-14 -107 -87 -168t-193 -61h-13q-102 0 -160 51t-58 139zM355 749h-90l13 98h90zM544 749h-91l13 98h91z" />
    <glyph glyph-name="Yacute" unicode="&#xdd;" horiz-adv-x="570" 
d="M231 265l-182 421h111l138 -319h4l226 319h101l-300 -421l-38 -265h-98zM374 750h-69l115 145h90v-4z" />
    <glyph glyph-name="Thorn" unicode="&#xde;" horiz-adv-x="633" 
d="M149 0h-98l97 686h98l-18 -124h198q78 0 128.5 -46.5t50.5 -122.5q0 -106 -69.5 -168.5t-165.5 -62.5h-198zM216 473l-31 -222h189q52 0 92 38t40 83.5t-28.5 73t-72.5 27.5h-189z" />
    <glyph glyph-name="germandbls" unicode="&#xdf;" horiz-adv-x="614" 
d="M148 -66h-94l70 502h-58l11 75h58q16 102 83.5 159.5t173.5 57.5q81 0 134 -42.5t53 -111t-33.5 -115.5t-89.5 -68l1 -4q45 -17 71.5 -59t26.5 -93q0 -105 -74 -170t-180 -65h-83l11 75h73q63 0 111 46.5t48 103t-34 89t-87 32.5h-73l10 74h65q57 0 99 41t42 91
t-26.5 75.5t-81 25.5t-96.5 -38.5t-50 -101.5z" />
    <glyph glyph-name="agrave" unicode="&#xe0;" horiz-adv-x="607" 
d="M42 190q0 155 69.5 243t172 88t143.5 -75h7l31 65h65q-16 -99 -37 -258t-21 -161q0 -27 24.5 -27t46.5 14l-9 -69q-32 -20 -77 -20q-76 0 -76 75q-69 -75 -165 -75q-79 0 -126.5 50.5t-47.5 149.5zM163 94.5q28 -29.5 81 -29.5q80 0 121 71t41 182q0 128 -109 128
q-46 0 -80 -24.5t-51 -64.5q-31 -76 -31 -154.5t28 -108zM274 575l-95 142l2 3h89l74 -145h-70z" />
    <glyph glyph-name="aacute" unicode="&#xe1;" horiz-adv-x="607" 
d="M42 190q0 155 69.5 243t172 88t143.5 -75h7l31 65h65q-16 -99 -37 -258t-21 -161q0 -27 24.5 -27t46.5 14l-9 -69q-32 -20 -77 -20q-76 0 -76 75q-69 -75 -165 -75q-79 0 -126.5 50.5t-47.5 149.5zM163 94.5q28 -29.5 81 -29.5q80 0 121 71t41 182q0 128 -109 128
q-46 0 -80 -24.5t-51 -64.5q-31 -76 -31 -154.5t28 -108zM331 575h-69l115 145h90v-4z" />
    <glyph glyph-name="acircumflex" unicode="&#xe2;" horiz-adv-x="607" 
d="M42 190q0 155 69.5 243t172 88t143.5 -75h7l31 65h65q-16 -99 -37 -258t-21 -161q0 -27 24.5 -27t46.5 14l-9 -69q-32 -20 -77 -20q-76 0 -76 75q-69 -75 -165 -75q-79 0 -126.5 50.5t-47.5 149.5zM163 94.5q28 -29.5 81 -29.5q80 0 121 71t41 182q0 128 -109 128
q-46 0 -80 -24.5t-51 -64.5q-31 -76 -31 -154.5t28 -108zM225 575h-80l157 145h78l114 -145h-80l-81 89z" />
    <glyph glyph-name="atilde" unicode="&#xe3;" horiz-adv-x="607" 
d="M42 190q0 155 69.5 243t172 88t143.5 -75h7l31 65h65q-16 -99 -37 -258t-21 -161q0 -27 24.5 -27t46.5 14l-9 -69q-32 -20 -77 -20q-76 0 -76 75q-69 -75 -165 -75q-79 0 -126.5 50.5t-47.5 149.5zM177 616h-48q7 40 40 72t86 32q33 0 85.5 -17.5t77.5 -17.5q45 0 60 35
h50q-7 -41 -40 -72.5t-87 -31.5q-33 0 -85.5 17t-78.5 17q-45 0 -60 -34zM163 94.5q28 -29.5 81 -29.5q80 0 121 71t41 182q0 128 -109 128q-46 0 -80 -24.5t-51 -64.5q-31 -76 -31 -154.5t28 -108z" />
    <glyph glyph-name="adieresis" unicode="&#xe4;" horiz-adv-x="607" 
d="M42 190q0 155 69.5 243t172 88t143.5 -75h7l31 65h65q-16 -99 -37 -258t-21 -161q0 -27 24.5 -27t46.5 14l-9 -69q-32 -20 -77 -20q-76 0 -76 75q-69 -75 -165 -75q-79 0 -126.5 50.5t-47.5 149.5zM163 94.5q28 -29.5 81 -29.5q80 0 121 71t41 182q0 128 -109 128
q-46 0 -80 -24.5t-51 -64.5q-31 -76 -31 -154.5t28 -108zM270 622h-90l13 98h90zM459 622h-91l13 98h91z" />
    <glyph glyph-name="aring" unicode="&#xe5;" horiz-adv-x="607" 
d="M42 190q0 155 69.5 243t172 88t143.5 -75h7l31 65h65q-16 -99 -37 -258t-21 -161q0 -27 24.5 -27t46.5 14l-9 -69q-32 -20 -77 -20q-76 0 -76 75q-69 -75 -165 -75q-79 0 -126.5 50.5t-47.5 149.5zM163 94.5q28 -29.5 81 -29.5q80 0 121 71t41 182q0 128 -109 128
q-46 0 -80 -24.5t-51 -64.5q-31 -76 -31 -154.5t28 -108zM252 574q-27 26 -27 70t33 75t75.5 31t69.5 -26.5t27 -69t-33 -74.5t-75.5 -32t-69.5 26zM288 690.5q-18 -18.5 -18 -44t15 -41.5t39 -16t42.5 19t18.5 44t-15 41t-39.5 16t-42.5 -18.5z" />
    <glyph glyph-name="ae" unicode="&#xe6;" horiz-adv-x="895" 
d="M25 117q0 94 69 139q58 39 180 48q50 3 119 3q7 45 7 61v6q0 72 -106.5 72t-123.5 -80l-2 -12h-92q0 74 66 120.5t166 46.5h9q125 0 164 -64q70 64 172 64h7q85 0 135.5 -47t50.5 -130q0 -42 -13 -110h-357q-2 -22 -2 -32q0 -137 121 -137q39 0 68.5 14t44.5 37
q24 39 30 74h89q-12 -91 -80 -145.5t-162 -54.5h-4q-136 0 -184 111q-44 -56 -96.5 -83.5t-122.5 -27.5q-153 0 -153 127zM138 185q-18 -20 -18 -55.5t22 -50t76.5 -14.5t103.5 41t58 108l2 20q-124 0 -175 -14.5t-69 -34.5zM489 307h262q3 20 3 36q0 50 -30 76.5
t-83.5 26.5t-94 -35t-57.5 -104z" />
    <glyph glyph-name="ccedilla" unicode="&#xe7;" horiz-adv-x="546" 
d="M42 191q0 142 68 236t199 94h8q84 0 134.5 -47t50.5 -128q0 -16 -3 -36h-93q2 18 2 27q0 49 -27 79t-77 30t-84.5 -23.5t-51.5 -62.5q-33 -72 -33 -168q0 -127 117 -127q61 0 97 36.5t45 98.5h90q-14 -101 -77 -155.5t-164 -54.5h-8q-88 0 -140.5 53t-52.5 148zM107 -175
l16 49q36 -20 71 -20q71 0 71 51q0 35 -46 35h-21l6 43h24q100 0 100 -73q0 -40 -24 -66q-39 -41 -99.5 -41t-97.5 22z" />
    <glyph glyph-name="egrave" unicode="&#xe8;" horiz-adv-x="556" 
d="M95.5 43q-54.5 53 -54.5 146t29 166t92 119.5t152 46.5h7q85 0 135.5 -47t50.5 -130v-11q0 -21 -13 -99h-357q-2 -22 -2 -32q0 -137 121 -137q39 0 68.5 14t43.5 37q25 39 31 74h89q-13 -94 -76.5 -147t-165.5 -53h-4q-92 0 -146.5 53zM150 307h262q3 20 3 36
q0 50 -30 76.5t-83.5 26.5t-94 -35t-57.5 -104zM286 575l-95 142l2 3h89l74 -145h-70z" />
    <glyph glyph-name="eacute" unicode="&#xe9;" horiz-adv-x="556" 
d="M95.5 43q-54.5 53 -54.5 146t29 166t92 119.5t152 46.5h7q85 0 135.5 -47t50.5 -130v-11q0 -21 -13 -99h-357q-2 -22 -2 -32q0 -137 121 -137q39 0 68.5 14t43.5 37q25 39 31 74h89q-13 -94 -76.5 -147t-165.5 -53h-4q-92 0 -146.5 53zM150 307h262q3 20 3 36
q0 50 -30 76.5t-83.5 26.5t-94 -35t-57.5 -104zM344 575h-69l115 145h90v-4z" />
    <glyph glyph-name="ecircumflex" unicode="&#xea;" horiz-adv-x="556" 
d="M95.5 43q-54.5 53 -54.5 146t29 166t92 119.5t152 46.5h7q85 0 135.5 -47t50.5 -130v-11q0 -21 -13 -99h-357q-2 -22 -2 -32q0 -137 121 -137q39 0 68.5 14t43.5 37q25 39 31 74h89q-13 -94 -76.5 -147t-165.5 -53h-4q-92 0 -146.5 53zM222 575h-80l157 145h78l114 -145
h-80l-81 89zM150 307h262q3 20 3 36q0 50 -30 76.5t-83.5 26.5t-94 -35t-57.5 -104z" />
    <glyph glyph-name="edieresis" unicode="&#xeb;" horiz-adv-x="556" 
d="M95.5 43q-54.5 53 -54.5 146t29 166t92 119.5t152 46.5h7q85 0 135.5 -47t50.5 -130v-11q0 -21 -13 -99h-357q-2 -22 -2 -32q0 -137 121 -137q39 0 68.5 14t43.5 37q25 39 31 74h89q-13 -94 -76.5 -147t-165.5 -53h-4q-92 0 -146.5 53zM150 307h262q3 20 3 36
q0 50 -30 76.5t-83.5 26.5t-94 -35t-57.5 -104zM273 622h-90l13 98h90zM462 622h-91l13 98h91z" />
    <glyph glyph-name="igrave" unicode="&#xec;" horiz-adv-x="261" 
d="M130 575l-95 142l2 3h89l74 -145h-70zM137 0h-94l71 511h94z" />
    <glyph glyph-name="iacute" unicode="&#xed;" horiz-adv-x="261" 
d="M137 0h-94l71 511h94zM186 575h-69l115 145h90v-4z" />
    <glyph glyph-name="icircumflex" unicode="&#xee;" horiz-adv-x="261" 
d="M70 575h-80l157 145h78l114 -145h-80l-81 89zM137 0h-94l71 511h94z" />
    <glyph glyph-name="idieresis" unicode="&#xef;" horiz-adv-x="261" 
d="M123 621h-90l13 98h90zM137 0h-94l71 511h94zM312 621h-91l13 98h91z" />
    <glyph glyph-name="eth" unicode="&#xf0;" horiz-adv-x="576" 
d="M171 700l63 29q49 -28 88 -56l100 44q3 -5 13 -16t14 -18l-93 -40q166 -151 166 -321q0 -151 -69 -241.5t-208 -90.5q-92 0 -148.5 50.5t-56.5 147.5q0 130 66 228q32 48 87 76.5t126 28.5q15 0 32 -3q-32 47 -71 87q-9 -5 -97 -43l-31 33l100 44q-17 16 -48 38t-33 23z
M151.5 312.5q-15.5 -53.5 -15.5 -118t32.5 -97t89 -32.5t96.5 39q73 70 73 207q0 69 -32 102t-89 33t-98 -40t-56.5 -93.5z" />
    <glyph glyph-name="ntilde" unicode="&#xf1;" horiz-adv-x="593" 
d="M136 0h-94l72 511h70v-75q78 85 183 85q72 0 115 -35t43 -106q0 -22 -26 -202l-25 -178h-94l24 167q24 188 24 189q0 90 -93 90q-54 0 -101 -41.5t-55 -100.5zM202 616h-48q7 40 40 72t86 32q33 0 85.5 -17.5t77.5 -17.5q45 0 60 35h50q-7 -41 -40 -72.5t-87 -31.5
q-33 0 -85.5 17t-78.5 17q-45 0 -60 -34z" />
    <glyph glyph-name="ograve" unicode="&#xf2;" horiz-adv-x="576" 
d="M41 187q0 133 60 228q31 49 87 77.5t139.5 28.5t140 -50.5t56.5 -146.5q0 -133 -60 -228q-31 -49 -87 -77.5t-139.5 -28.5t-140 50.5t-56.5 146.5zM169 98.5q33 -33.5 83.5 -33.5t85.5 22.5t54 59.5q36 73 36 152.5t-32.5 113t-84 33.5t-86.5 -22.5t-53 -60.5
q-36 -73 -36 -152t33 -112.5zM296 575l-95 142l2 3h89l74 -145h-70z" />
    <glyph glyph-name="oacute" unicode="&#xf3;" horiz-adv-x="576" 
d="M41 187q0 133 60 228q31 49 87 77.5t139.5 28.5t140 -50.5t56.5 -146.5q0 -133 -60 -228q-31 -49 -87 -77.5t-139.5 -28.5t-140 50.5t-56.5 146.5zM169 98.5q33 -33.5 83.5 -33.5t85.5 22.5t54 59.5q36 73 36 152.5t-32.5 113t-84 33.5t-86.5 -22.5t-53 -60.5
q-36 -73 -36 -152t33 -112.5zM363 575h-69l115 145h90v-4z" />
    <glyph glyph-name="ocircumflex" unicode="&#xf4;" horiz-adv-x="576" 
d="M41 187q0 133 60 228q31 49 87 77.5t139.5 28.5t140 -50.5t56.5 -146.5q0 -133 -60 -228q-31 -49 -87 -77.5t-139.5 -28.5t-140 50.5t-56.5 146.5zM169 98.5q33 -33.5 83.5 -33.5t85.5 22.5t54 59.5q36 73 36 152.5t-32.5 113t-84 33.5t-86.5 -22.5t-53 -60.5
q-36 -73 -36 -152t33 -112.5zM241 575h-80l157 145h78l114 -145h-80l-81 89z" />
    <glyph glyph-name="otilde" unicode="&#xf5;" horiz-adv-x="576" 
d="M41 187q0 133 60 228q31 49 87 77.5t139.5 28.5t140 -50.5t56.5 -146.5q0 -133 -60 -228q-31 -49 -87 -77.5t-139.5 -28.5t-140 50.5t-56.5 146.5zM181 615h-48q7 40 40 72t86 32q33 0 85.5 -17.5t77.5 -17.5q45 0 60 35h50q-7 -41 -40 -72.5t-87 -31.5q-33 0 -85.5 17
t-78.5 17q-45 0 -60 -34zM169 98.5q33 -33.5 83.5 -33.5t85.5 22.5t54 59.5q36 73 36 152.5t-32.5 113t-84 33.5t-86.5 -22.5t-53 -60.5q-36 -73 -36 -152t33 -112.5z" />
    <glyph glyph-name="odieresis" unicode="&#xf6;" horiz-adv-x="576" 
d="M41 187q0 133 60 228q31 49 87 77.5t139.5 28.5t140 -50.5t56.5 -146.5q0 -133 -60 -228q-31 -49 -87 -77.5t-139.5 -28.5t-140 50.5t-56.5 146.5zM169 98.5q33 -33.5 83.5 -33.5t85.5 22.5t54 59.5q36 73 36 152.5t-32.5 113t-84 33.5t-86.5 -22.5t-53 -60.5
q-36 -73 -36 -152t33 -112.5zM282 621h-90l13 98h90zM471 621h-91l13 98h91z" />
    <glyph glyph-name="divide" unicode="&#xf7;" 
d="M553 213h-512l11 84h512zM316 51h-83l12 90h83zM360 369h-83l13 91h83z" />
    <glyph glyph-name="oslash" unicode="&#xf8;" horiz-adv-x="576" 
d="M74 -55h-59l77 100q-51 53 -51 142q0 133 60 228q31 49 87 77.5t127 28.5t119 -27l57 74h59l-78 -102q52 -54 52 -142q0 -133 -60 -228q-31 -49 -87 -77.5t-128 -28.5t-120 27zM136 200q0 -47 15 -77l230 302q-30 21 -70.5 21t-71 -15.5t-48.5 -39t-30 -58.5
q-19 -54 -25 -133zM412 388l-230 -302q29 -21 75 -21t81 22.5t54 59.5q36 73 36 163q0 47 -16 78z" />
    <glyph glyph-name="ugrave" unicode="&#xf9;" horiz-adv-x="617" 
d="M58 131q0 31 51 380h94l-24 -165q-24 -157 -24 -191q0 -90 93 -90q53 0 99.5 41.5t56.5 100.5l43 304h94l-30 -207q-29 -188 -29 -213.5t24.5 -25.5t46.5 14l-9 -69q-32 -20 -77 -20q-76 0 -76 74v10q-31 -35 -77 -59.5t-108 -24.5t-105 35t-43 106zM298 575l-95 142l2 3
h89l74 -145h-70z" />
    <glyph glyph-name="uacute" unicode="&#xfa;" horiz-adv-x="617" 
d="M58 131q0 31 51 380h94l-24 -165q-24 -157 -24 -191q0 -90 93 -90q53 0 99.5 41.5t56.5 100.5l43 304h94l-30 -207q-29 -188 -29 -213.5t24.5 -25.5t46.5 14l-9 -69q-32 -20 -77 -20q-76 0 -76 74v10q-31 -35 -77 -59.5t-108 -24.5t-105 35t-43 106zM361 575h-69l115 145
h90v-4z" />
    <glyph glyph-name="ucircumflex" unicode="&#xfb;" horiz-adv-x="617" 
d="M58 131q0 31 51 380h94l-24 -165q-24 -157 -24 -191q0 -90 93 -90q53 0 99.5 41.5t56.5 100.5l43 304h94l-30 -207q-29 -188 -29 -213.5t24.5 -25.5t46.5 14l-9 -69q-32 -20 -77 -20q-76 0 -76 74v10q-31 -35 -77 -59.5t-108 -24.5t-105 35t-43 106zM238 575h-80l157 145
h78l114 -145h-80l-81 89z" />
    <glyph glyph-name="udieresis" unicode="&#xfc;" horiz-adv-x="617" 
d="M58 131q0 31 51 380h94l-24 -165q-24 -157 -24 -191q0 -90 93 -90q53 0 99.5 41.5t56.5 100.5l43 304h94l-30 -207q-29 -188 -29 -213.5t24.5 -25.5t46.5 14l-9 -69q-32 -20 -77 -20q-76 0 -76 74v10q-31 -35 -77 -59.5t-108 -24.5t-105 35t-43 106zM285 622h-90l13 98
h90zM474 622h-91l13 98h91z" />
    <glyph glyph-name="yacute" unicode="&#xfd;" horiz-adv-x="510" 
d="M-19 -172l10 77q26 -14 58 -14q69 0 120 114l-127 506h99l94 -377h4l198 377h92l-260 -491q-52 -98 -102.5 -152t-114.5 -54q-41 0 -71 14zM323 575h-69l115 145h90v-4z" />
    <glyph glyph-name="thorn" unicode="&#xfe;" horiz-adv-x="582" 
d="M111 -181h-94l127 901h94l-37 -265q61 66 156 66q78 0 126 -50.5t48 -150.5q0 -115 -53 -215q-27 -51 -76 -83t-113 -32q-102 0 -143 75zM167 193q0 -69 28 -98.5t84 -29.5t94.5 42.5t51.5 95.5t13 114q0 129 -109 129q-72 0 -117 -62t-45 -191z" />
    <glyph glyph-name="ydieresis" unicode="&#xff;" horiz-adv-x="510" 
d="M-19 -172l10 77q26 -14 58 -14q69 0 120 114l-127 506h99l94 -377h4l198 377h92l-260 -491q-52 -98 -102.5 -152t-114.5 -54q-41 0 -71 14zM247 621h-90l13 98h90zM436 621h-91l13 98h91z" />
    <glyph glyph-name="dotlessi" unicode="&#x131;" horiz-adv-x="261" 
d="M137 0h-94l71 511h94z" />
    <glyph glyph-name="Lslash" unicode="&#x141;" horiz-adv-x="534" 
d="M100 324l-67 -31l10 71l67 31l41 291h98l-34 -241l149 72l-10 -71l-149 -72l-40 -285h315v-89h-426z" />
    <glyph glyph-name="lslash" unicode="&#x142;" horiz-adv-x="297" 
d="M105 322l-87 -41l9 70l88 41l46 328h94l-39 -280l88 41l-10 -70l-88 -41l-52 -370h-94z" />
    <glyph glyph-name="OE" unicode="&#x152;" horiz-adv-x="1031" 
d="M57 235q0 27 18 153q20 151 108 229.5t210 78.5t186 -63l8 53h450l-26 -89h-339l-28 -202h307l-13 -89h-307l-30 -217h345v-89h-456l6 47q-77 -57 -190 -57t-181 63t-68 182zM156 244q0 -84 42 -124.5t122 -40.5t137.5 53.5t74.5 167t17 142.5q0 84 -42.5 124.5
t-123 40.5t-138 -53.5t-73.5 -168t-16 -141.5z" />
    <glyph glyph-name="oe" unicode="&#x153;" horiz-adv-x="933" 
d="M41 187q0 133 60 228q31 49 87 77.5t132 28.5q124 0 176 -85q74 85 195 85h7q85 0 135.5 -47t50.5 -130v-11q0 -21 -13 -99h-357q-2 -22 -2 -32q0 -137 121 -137q39 0 68.5 14t44.5 37q24 39 30 74h89q-13 -94 -76.5 -147t-165.5 -53h-4q-121 0 -171 85q-72 -85 -203 -85
q-91 0 -147.5 50.5t-56.5 146.5zM136 200q0 -68 33 -101.5t83.5 -33.5t85.5 22.5t54 59.5q36 73 36 152.5t-32.5 113t-79 33.5t-77 -15.5t-48.5 -39t-30 -58.5q-19 -54 -25 -133zM527 307h262q3 20 3 36q0 50 -30 76.5t-83.5 26.5t-94 -35t-57.5 -104z" />
    <glyph glyph-name="Scaron" unicode="&#x160;" horiz-adv-x="629" 
d="M36 160q0 34 7 55h98q-6 -6 -6 -40q0 -48 38.5 -72t114.5 -24t125.5 31.5t49.5 90.5q0 27 -15.5 47t-41.5 30.5t-59 21t-67 18.5t-67 22.5t-59 33.5q-57 40 -57 131t76 141t186 50t169.5 -39.5t59.5 -120.5q0 -21 -4 -44h-98q4 20 4 28q0 42 -35 64.5t-100.5 22.5
t-111.5 -26t-46 -71.5t38 -69t92 -36.5t107.5 -30t91.5 -57.5t38 -105.5q0 -221 -293 -221q-106 0 -170.5 41t-64.5 129zM339 750l-115 145h80l82 -89l107 89h80l-156 -145h-78z" />
    <glyph glyph-name="scaron" unicode="&#x161;" horiz-adv-x="536" 
d="M391 372l1 11q0 63 -104 63q-68 0 -95 -23.5t-27 -51.5t31 -43t75.5 -23t89 -19t75.5 -40.5t31 -77.5q0 -94 -66.5 -136t-175.5 -42h-15q-93 0 -140.5 37.5t-47.5 93.5q0 13 2.5 25.5t2.5 13.5h93q-2 -14 -2 -16v-7q0 -36 33 -54t88.5 -18t93 21.5t37.5 56.5t-31 52
t-75.5 25t-89 18.5t-75.5 39.5t-31 77q0 78 61 122t172 44h9q81 0 128.5 -35t47.5 -88q0 -22 -4 -34h-93q0 5 1 8zM268 575l-115 145h80l82 -89l107 89h80l-156 -145h-78z" />
    <glyph glyph-name="Ydieresis" unicode="&#x178;" horiz-adv-x="570" 
d="M231 265l-182 421h111l138 -319h4l226 319h101l-300 -421l-38 -265h-98zM303 749h-90l13 98h90zM492 749h-91l13 98h91z" />
    <glyph glyph-name="Zcaron" unicode="&#x17d;" horiz-adv-x="595" 
d="M514 0h-523l6 38l443 559h-341l13 89h491l-6 -38l-444 -559h374zM317 750l-115 145h80l82 -89l107 89h80l-156 -145h-78z" />
    <glyph glyph-name="zcaron" unicode="&#x17e;" horiz-adv-x="463" 
d="M383 0h-387l5 38l305 398h-234l10 75h364l-5 -37l-306 -399h258zM217 575l-115 145h80l82 -89l107 89h80l-156 -145h-78z" />
    <glyph glyph-name="florin" unicode="&#x192;" horiz-adv-x="340" 
d="M-80 -165l8 69q30 -14 51.5 -14t30 2t18.5 8q20 12 26 54l71 482h-59l9 75h59l13 91q18 126 143 126q52 0 84 -19l-9 -69q-30 14 -53.5 14t-35 -3.5t-22.5 -18.5t-15 -42l-12 -79h120l-9 -75h-120l-71 -494q-9 -64 -47 -95t-94 -31t-86 19z" />
    <glyph glyph-name="circumflex" unicode="&#x2c6;" horiz-adv-x="536" 
d="M160 575h-80l157 145h78l114 -145h-80l-81 89z" />
    <glyph glyph-name="caron" unicode="&#x2c7;" horiz-adv-x="536" 
d="M216 575l-115 145h80l82 -89l107 89h80l-156 -145h-78z" />
    <glyph glyph-name="breve" unicode="&#x2d8;" horiz-adv-x="520" 
d="M74 729q0 6 1 8h67q5 -27 38 -44.5t79.5 -17.5t83.5 17.5t49 44.5h68q-6 -44 -69 -84t-138 -40t-127 36.5t-52 79.5z" />
    <glyph glyph-name="dotaccent" unicode="&#x2d9;" horiz-adv-x="280" 
d="M89 619.5q-16 15.5 -16 43.5t20.5 50.5t50.5 22.5t46 -17t16 -44.5t-22.5 -49t-50.5 -21.5t-44 15.5z" />
    <glyph glyph-name="ring" unicode="&#x2da;" horiz-adv-x="340" 
d="M92 571q-27 26 -27 70t33 75t75.5 31t69.5 -26.5t27 -69t-33 -74.5t-75.5 -32t-69.5 26zM128 687.5q-18 -18.5 -18 -44t15 -41.5t39 -16t42.5 19t18.5 44t-15 41t-39.5 16t-42.5 -18.5z" />
    <glyph glyph-name="ogonek" unicode="&#x2db;" horiz-adv-x="340" 
d="M67 -83q0 44 65 83h54q-21 -9 -38.5 -28t-17.5 -37q0 -31 40 -31q23 0 69 14l8 -37q-43 -24 -87 -24q-93 0 -93 60z" />
    <glyph glyph-name="tilde" unicode="&#x2dc;" horiz-adv-x="364" 
d="M40 613h-48q7 40 40 72t86 32q33 0 85.5 -17.5t77.5 -17.5q45 0 60 35h50q-7 -41 -40 -72.5t-87 -31.5q-33 0 -85.5 17t-78.5 17q-45 0 -60 -34z" />
    <glyph glyph-name="hungarumlaut" unicode="&#x2dd;" horiz-adv-x="442" 
d="M109 575h-70l116 145h89v-5zM264 575h-70l115 145h90v-5z" />
    <glyph glyph-name="pi" unicode="&#x3c0;" horiz-adv-x="627" 
d="M129 0h-90q37 76 76.5 208t55.5 229q-83 0 -121 -12l-4 57q43 29 164 29h423l-19 -74h-87l-40 -285q-9 -62 -9 -98t3 -54h-89q-6 10 -6 45t9 98l41 294h-174q-20 -106 -60 -241.5t-73 -195.5z" />
    <glyph glyph-name="endash" unicode="&#x2013;" horiz-adv-x="637" 
d="M558 223h-498l12 95h499z" />
    <glyph glyph-name="emdash" unicode="&#x2014;" horiz-adv-x="1056" 
d="M971 223h-908l12 94h909z" />
    <glyph glyph-name="quoteleft" unicode="&#x2018;" horiz-adv-x="224" 
d="M184 451h-101l12 85l56 150h52l-44 -124h41z" />
    <glyph glyph-name="quoteright" unicode="&#x2019;" horiz-adv-x="218" 
d="M148 451h-52l44 124h-41l16 111h101l-12 -85z" />
    <glyph glyph-name="quotesinglbase" unicode="&#x201a;" horiz-adv-x="237" 
d="M76 -124h-52l44 124h-41l16 111h101l-12 -85z" />
    <glyph glyph-name="quotedblleft" unicode="&#x201c;" horiz-adv-x="366" 
d="M184 451h-101l12 85l56 150h52l-44 -124h41zM326 451h-101l12 85l56 150h52l-44 -124h41z" />
    <glyph glyph-name="quotedblright" unicode="&#x201d;" horiz-adv-x="360" 
d="M148 451h-52l44 124h-41l16 111h101l-12 -85zM290 451h-52l44 124h-41l16 111h101l-12 -85z" />
    <glyph glyph-name="quotedblbase" unicode="&#x201e;" horiz-adv-x="379" 
d="M76 -124h-52l44 124h-41l16 111h101l-12 -85zM218 -124h-52l44 124h-41l16 111h101l-12 -85z" />
    <glyph glyph-name="dagger" unicode="&#x2020;" horiz-adv-x="511" 
d="M248 435l-207 -18l13 93l203 -17l10 193h88l-44 -193l207 17l-13 -93l-203 18l-65 -605h-94z" />
    <glyph glyph-name="daggerdbl" unicode="&#x2021;" horiz-adv-x="531" 
d="M200 18l-207 -18l13 93q73 -8 202 -17l4 90q1 30 5 90q16 75 42 178l-104 -9l-104 -8l13 93l203 -18l10 194h87l-44 -194l207 18l-13 -93l-202 17l-8 -178l-21 -90q-14 -60 -22 -90q132 9 208 17l-13 -93l-203 18q-6 -128 -10 -193h-87z" />
    <glyph glyph-name="bullet" unicode="&#x2022;" horiz-adv-x="600" 
d="M191.5 228.5q-36.5 37.5 -36.5 101t49 115t123 51.5q57 0 94 -37.5t37 -100t-48 -115t-126 -52.5q-56 0 -92.5 37.5z" />
    <glyph glyph-name="ellipsis" unicode="&#x2026;" horiz-adv-x="734" 
d="M131 0h-102l15 111h102zM379 0h-102l15 111h102zM626 0h-102l15 111h102z" />
    <glyph glyph-name="perthousand" unicode="&#x2030;" horiz-adv-x="1034" 
d="M55 438q0 6 17 127q6 53 42 87t96 34h7q49 0 77 -29t28 -74q0 -13 -16 -125q-9 -54 -43.5 -87.5t-94.5 -33.5h-7q-49 0 -77.5 28.5t-28.5 72.5zM139 0h-70l515 686h68zM137 572q-18 -118 -18 -135.5t14 -31t40.5 -13.5t45 16.5t22.5 44t7 50t5 34.5t3 20.5t1.5 12t1 6
t0.5 5.5q0 22 -14 36t-41 14t-45 -16.5t-22 -42.5zM397 100q0 6 17 127q6 53 42 87t96 34h7q49 0 77 -29t28 -74q0 -13 -16 -125q-9 -54 -43.5 -87.5t-94.5 -33.5h-7q-49 0 -77.5 28.5t-28.5 72.5zM479 234q-18 -118 -18 -135.5t14 -31t40.5 -13.5t45 16.5t22.5 44t7 50
t5 34.5t3 20.5t1.5 12t1 6t0.5 5.5q0 22 -14 36t-41 14t-45 -16.5t-22 -42.5zM730 100q0 6 17 127q6 53 42 87t96 34h7q49 0 77 -29t28 -74q0 -13 -16 -125q-9 -54 -43.5 -87.5t-94.5 -33.5h-7q-49 0 -77.5 28.5t-28.5 72.5zM812 234q-18 -118 -18 -135.5t14 -31t40.5 -13.5
t45 16.5t22.5 44t7 50t5 34.5t3 20.5t1.5 12t1 6t0.5 5.5q0 22 -14 36t-41 14t-45 -16.5t-22 -42.5z" />
    <glyph glyph-name="guilsinglleft" unicode="&#x2039;" horiz-adv-x="276" 
d="M151 163l-96 174l145 174h51l-117 -174l68 -174h-51z" />
    <glyph glyph-name="guilsinglright" unicode="&#x203a;" horiz-adv-x="278" 
d="M88 163h-51l120 174l-71 174h51l99 -174z" />
    <glyph glyph-name="fraction" unicode="&#x2044;" horiz-adv-x="479" 
d="M22 0h-58l514 686h56z" />
    <glyph glyph-name="Euro" unicode="&#x20ac;" horiz-adv-x="562" 
d="M123 238h-100l9 65h90q8 62 10 74h-90l9 64h99q30 111 125 181.5t219 70.5q33 0 87 -8l-13 -91q-33 10 -78 10q-82 0 -150.5 -46t-90.5 -117h198l-9 -64h-210q-10 -36 -10 -74h210l-9 -65h-196q14 -74 67 -116t134 -42q30 0 73 13l-12 -91q-44 -10 -96 -10
q-108 0 -182 66t-84 180z" />
    <glyph glyph-name="trademark" unicode="&#x2122;" horiz-adv-x="898" 
d="M217 626h-125l8 60h314l-8 -60h-124l-47 -338h-65zM801 603l-172 -315h-62q-57 223 -83 312l-43 -312h-58l55 398h99q14 -50 40 -150.5t39 -150.5l165 301h98l-55 -398h-65q23 158 42 315z" />
    <glyph glyph-name="uni2126" unicode="&#x2126;" horiz-adv-x="699" 
d="M506 80q25 2 85 10h35l-12 -90h-264l7 49q73 13 115 71t59 172t17 155q0 87 -39.5 124t-122 37t-135 -54.5t-70 -178t-17.5 -162.5q0 -76 27 -114.5t84 -49.5l-7 -49h-264l12 90h35q12 -2 25 -3.5t30 -3.5t29 -3q-67 64 -67 187q0 43 9 103q25 167 111.5 246t209.5 79h17
q107 0 172 -61t65 -187q0 -35 -11 -110q-23 -170 -135 -257z" />
    <glyph glyph-name="partialdiff" unicode="&#x2202;" horiz-adv-x="568" 
d="M16 181q0 110 74 180t176 70q46 0 86 -19.5t63 -54.5l17 120q1 3 1 9v8q0 47 -33.5 81.5t-83.5 34.5h-98l12 86h103q87 0 142 -54t55 -141q0 -17 -3 -37l-35 -243q-16 -106 -85.5 -168.5t-179.5 -62.5h-8q-91 0 -147 52t-56 139zM110 185q0 -51 34 -82t99 -31t110 50.5
t45 122.5q0 51 -33.5 82t-98.5 31t-110.5 -50.5t-45.5 -122.5z" />
    <glyph glyph-name="uni2206" unicode="&#x2206;" horiz-adv-x="624" 
d="M558 0h-572l9 65l322 621h103l147 -621zM356 597l-271 -522h396z" />
    <glyph glyph-name="product" unicode="&#x220f;" horiz-adv-x="749" 
d="M184 611h-114l13 97h700l-13 -97h-115l-100 -709h-102l100 709h-267l-100 -709h-102z" />
    <glyph glyph-name="summation" unicode="&#x2211;" horiz-adv-x="605" 
d="M520 -98h-548l9 63l323 341l-216 336l9 66h518l-13 -95h-369l-1 -4l190 -291l-295 -310v-4h407z" />
    <glyph glyph-name="minus" unicode="&#x2212;" 
d="M553 221h-512l13 91h512z" />
    <glyph glyph-name="radical" unicode="&#x221a;" horiz-adv-x="565" 
d="M-8 263l-12 60l172 68q17 -81 78 -347q1 -4 11 -74q56 141 326 843h80l-377 -961h-90q-98 401 -107 441z" />
    <glyph glyph-name="infinity" unicode="&#x221e;" horiz-adv-x="766" 
d="M35 254q0 85 52.5 139.5t136.5 54.5q53 0 93 -30t77 -85q41 41 76 66.5t48 30.5q43 18 77 18q61 0 97.5 -38t36.5 -107.5t-52.5 -129.5t-133.5 -60q-47 0 -86.5 26.5t-82.5 89.5q-57 -57 -103 -86.5t-103 -29.5t-95 39.5t-38 101.5zM131 349.5q-33 -36.5 -33 -80.5
t24 -68.5t64 -24.5q24 0 38 6t22 9.5t19.5 12t17.5 12t18 14.5t15.5 14.5t17 16.5t15.5 15q-57 110 -139 110q-46 0 -79 -36.5zM418 282q41 -59 70.5 -82.5t72.5 -23.5t73 39.5t30 81.5t-22.5 65.5t-60.5 23.5q-37 0 -75 -28q-43 -31 -88 -76z" />
    <glyph glyph-name="integral" unicode="&#x222b;" horiz-adv-x="266" 
d="M-50 -250l7 50q28 0 58.5 14.5t33.5 43.5q17 181 46.5 456t35.5 316t24 64.5t45 35.5q47 20 106 20l-7 -49q-28 0 -60 -14.5t-35 -42.5q-23 -248 -82 -782q-15 -112 -172 -112z" />
    <glyph glyph-name="approxequal" unicode="&#x2248;" 
d="M-7 61l11 85q22 21 51 39q66 39 116 39t121 -33t123.5 -33t114.5 39q28 17 51 39l-12 -85q-23 -23 -51 -39q-62 -39 -114 -39t-123 33t-122 33t-115 -39q-27 -18 -51 -39zM22 270l12 85q22 21 51 39q66 39 116 39t121 -33t124 -33t113 39q27 16 51 39l-11 -85
q-23 -22 -51 -39q-62 -39 -114 -39t-123 33t-121.5 33t-116.5 -39q-29 -18 -51 -39z" />
    <glyph glyph-name="notequal" unicode="&#x2260;" 
d="M141 105h-112l12 84h165l109 129h-256l12 83h309q27 31 93 110h79l-91 -110h113l-12 -83h-166q-72 -86 -109 -129h257l-12 -84h-309l-88 -105h-82q72 88 88 105z" />
    <glyph glyph-name="lessequal" unicode="&#x2264;" 
d="M520 0h-510l12 83h510zM47 258l15 107q373 110 531 155l-13 -90l-445 -118q98 -29 412 -118l-12 -90q-368 117 -488 154z" />
    <glyph glyph-name="greaterequal" unicode="&#x2265;" 
d="M526 0h-510l12 83h510zM31 104l12 90l445 118q-201 56 -412 118l13 90q45 -14 487 -155l-15 -107q-79 -23 -167 -48q-212 -61 -363 -106z" />
    <glyph glyph-name="lozenge" unicode="&#x25ca;" horiz-adv-x="489" 
d="M151 0l-115 343l212 343h103l117 -343l-214 -343h-103zM289 611l-170 -268l95 -269q75 122 172 269q-26 66 -97 268z" />
    <glyph glyph-name="uniF8FF" unicode="&#xf8ff;" horiz-adv-x="0" 
 />
    <glyph glyph-name="uniFB01" unicode="&#xfb01;" horiz-adv-x="602" 
d="M-80 -165l8 69q30 -14 51.5 -14t30 2t18.5 8q20 12 26 54l71 482h-59l10 75h58l13 91q18 126 143 126q52 0 84 -19l-9 -69q-30 14 -53.5 14t-35 -3.5t-22.5 -18.5t-15 -42l-12 -79h120l-9 -75h-120l-71 -494q-9 -64 -47 -95t-94 -31t-86 19zM480 0h-94l72 511h94z
M571 633h-98l12 87h98z" />
    <glyph glyph-name="uniFB02" unicode="&#xfb02;" horiz-adv-x="608" 
d="M-80 -165l8 69q30 -14 51.5 -14t30 2t18.5 8q20 12 26 54l71 482h-59l10 75h58l13 91q18 126 143 126q52 0 84 -19l-9 -69q-30 14 -53.5 14t-35 -3.5t-22.5 -18.5t-15 -42l-12 -79h120l-9 -75h-120l-71 -494q-9 -64 -47 -95t-94 -31t-86 19zM480 0h-94l101 720h94z" />
    <glyph glyph-name="NULL" horiz-adv-x="0" 
 />
    <glyph glyph-name="CR" horiz-adv-x="333" 
 />
    </font>
</defs>
</svg>
