<?xml version="1.0" encoding="utf-8"?>
<!-- Generator: Adobe Illustrator 16.0.0, SVG Export Plug-In . SVG Version: 6.00 Build 0)  -->
<!DOCTYPE svg PUBLIC "-//W3C//DTD SVG 1.1//EN" "http://www.w3.org/Graphics/SVG/1.1/DTD/svg11.dtd">
<svg version="1.1" id="Layer_1" xmlns="http://www.w3.org/2000/svg" xmlns:xlink="http://www.w3.org/1999/xlink" x="0px" y="0px"
	 width="150px" height="150px" viewBox="0 0 150 150" enable-background="new 0 0 150 150" xml:space="preserve">
<path d="M125.264,18.5H24.737c-3.445,0-6.236,2.792-6.236,6.236v100.527c0,3.443,2.791,6.236,6.236,6.236h54.121V87.74H64.131
	V70.687h14.726V58.109c0-14.595,8.914-22.542,21.934-22.542c6.236,0,11.598,0.464,13.16,0.671v15.253l-9.031,0.004
	c-7.08,0-8.451,3.365-8.451,8.302v10.888h16.887l-2.199,17.054H96.469v43.76h28.795c3.443,0,6.236-2.793,6.236-6.236V24.736
	C131.5,21.292,128.707,18.5,125.264,18.5z"/>
</svg>
