<?xml version="1.0" encoding="utf-8"?>
<!-- Generator: Adobe Illustrator 16.0.0, SVG Export Plug-In . SVG Version: 6.00 Build 0)  -->
<!DOCTYPE svg PUBLIC "-//W3C//DTD SVG 1.1//EN" "http://www.w3.org/Graphics/SVG/1.1/DTD/svg11.dtd">
<svg version="1.1" id="Layer_1" xmlns="http://www.w3.org/2000/svg" xmlns:xlink="http://www.w3.org/1999/xlink" x="0px" y="0px"
	 width="150px" height="150px" viewBox="0 0 150 150" enable-background="new 0 0 150 150" xml:space="preserve">
<g id="Logo_FIXED">
	<path d="M49.955,129.847c50.943,0,78.808-42.206,78.808-78.807c0-1.199,0-2.392-0.081-3.58c5.42-3.921,10.1-8.776,13.818-14.337
		c-5.055,2.24-10.417,3.709-15.908,4.358c5.782-3.461,10.109-8.906,12.177-15.32c-5.437,3.227-11.385,5.5-17.588,6.723
		c-10.489-11.154-28.035-11.692-39.188-1.203c-7.193,6.765-10.245,16.845-8.013,26.464C51.709,53.028,30.96,42.51,16.896,25.207
		C9.545,37.862,13.3,54.052,25.471,62.18c-4.407-0.131-8.719-1.32-12.57-3.467c0,0.113,0,0.232,0,0.351
		c0.003,13.185,9.297,24.54,22.221,27.15c-4.078,1.112-8.356,1.275-12.507,0.476c3.629,11.283,14.027,19.012,25.877,19.234
		c-9.808,7.708-21.924,11.893-34.397,11.88c-2.204-0.004-4.405-0.138-6.594-0.399c12.667,8.129,27.404,12.44,42.455,12.42"/>
</g>
</svg>
