<?xml version="1.0" standalone="no"?>
<!DOCTYPE svg PUBLIC "-//W3C//DTD SVG 20010904//EN"
 "http://www.w3.org/TR/2001/REC-SVG-20010904/DTD/svg10.dtd">
<svg version="1.0" xmlns="http://www.w3.org/2000/svg"
 width="200.000000pt" height="200.000000pt" viewBox="0 0 200.000000 200.000000"
 preserveAspectRatio="xMidYMid meet">
<metadata>
Created by potrace 1.11, written by Peter Selinger 2001-2013
</metadata>
<g transform="translate(0.000000,200.000000) scale(0.100000,-0.100000)"
fill="#000000" stroke="none">
<path d="M0 1000 l0 -1000 1000 0 1000 0 0 1000 0 1000 -1000 0 -1000 0 0
-1000z m1100 545 c7 -8 16 -13 20 -10 20 12 62 -123 64 -207 1 -23 6 -38 14
-38 11 0 16 -19 13 -47 -1 -9 15 -12 53 -10 42 2 52 5 44 15 -8 9 -6 12 6 12
9 0 35 9 59 19 23 11 67 22 98 24 52 4 58 2 92 -29 62 -57 58 -65 -123 -254
-141 -148 -154 -169 -139 -235 4 -16 12 -51 18 -78 6 -26 11 -72 11 -102 0
-56 -3 -59 -47 -58 -7 1 -13 -3 -13 -8 0 -13 -77 1 -125 22 -22 9 -54 31 -72
48 -18 17 -36 31 -41 31 -5 0 -15 7 -22 15 -17 21 -48 19 -93 -5 -20 -11 -37
-17 -37 -13 0 3 -10 -3 -22 -14 -13 -11 -44 -30 -69 -41 -37 -16 -48 -26 -54
-50 -4 -20 -15 -34 -33 -41 -48 -20 -142 5 -142 37 0 7 -4 11 -9 8 -5 -3 -14
0 -20 8 -8 10 -7 24 4 55 8 23 14 48 12 54 -1 7 8 11 24 9 16 -1 29 3 32 12 7
18 -8 30 -25 20 -7 -3 0 5 16 20 32 29 41 33 30 14 -4 -7 2 -5 13 5 11 9 25
17 31 17 7 0 12 7 12 16 0 8 4 13 9 9 12 -7 41 33 41 55 -1 20 -68 50 -113 50
-19 0 -42 7 -50 15 -10 10 -17 11 -19 4 -4 -12 -72 -5 -97 10 -7 5 -14 28 -15
52 -1 37 3 45 24 56 16 8 28 9 34 3 16 -16 30 -11 16 5 -11 13 -8 15 13 15 14
0 27 5 29 11 2 6 35 11 76 12 39 1 72 5 72 8 0 4 21 12 48 19 26 6 57 17 69
22 12 6 29 8 37 5 25 -10 46 3 46 29 0 13 5 24 10 24 6 0 10 9 10 21 0 15 -5
19 -15 15 -9 -3 -15 0 -15 10 0 11 5 14 18 9 14 -5 15 -4 5 6 -15 15 -18 103
-4 95 5 -3 15 1 22 10 10 12 10 15 -1 12 -19 -4 -24 27 -6 44 7 8 14 32 14 52
0 48 13 62 41 46 22 -11 41 -6 41 12 0 6 -9 8 -21 5 -15 -4 -19 -2 -15 10 3 8
6 18 6 22 0 4 17 8 37 9 21 2 39 5 42 7 8 9 18 5 31 -10z"/>
<path d="M957 1474 c-4 -4 -7 -11 -7 -15 0 -9 27 -5 37 6 4 4 3 5 -4 2 -6 -4
-13 -2 -15 4 -2 5 -7 7 -11 3z"/>
<path d="M1521 1274 c0 -11 3 -14 6 -6 3 7 2 16 -1 19 -3 4 -6 -2 -5 -13z"/>
<path d="M960 1130 c-13 -8 -12 -10 3 -10 9 0 17 5 17 10 0 12 -1 12 -20 0z"/>
<path d="M630 1038 c0 -13 40 -19 60 -8 28 15 26 16 -20 15 -22 0 -40 -3 -40
-7z"/>
<path d="M460 980 c0 -15 21 -23 32 -12 6 6 2 11 -11 15 -12 3 -21 1 -21 -3z"/>
<path d="M685 880 c-3 -5 1 -10 10 -10 9 0 13 5 10 10 -3 6 -8 10 -10 10 -2 0
-7 -4 -10 -10z"/>
<path d="M1215 750 c3 -5 8 -10 11 -10 2 0 4 5 4 10 0 6 -5 10 -11 10 -5 0 -7
-4 -4 -10z"/>
<path d="M1168 733 c7 -3 16 -2 19 1 4 3 -2 6 -13 5 -11 0 -14 -3 -6 -6z"/>
<path d="M1038 673 c6 -2 12 -11 12 -18 0 -16 27 -28 35 -15 6 9 -33 40 -50
39 -5 0 -4 -3 3 -6z"/>
<path d="M1260 570 c0 -5 7 -10 15 -10 8 0 15 5 15 10 0 6 -7 10 -15 10 -8 0
-15 -4 -15 -10z"/>
</g>
</svg>
